M48
; DRILL file {KiCad 9.0.6} date 2026-05-08T23:40:35+0200
; FORMAT={-:-/ absolute / metric / decimal}
; #@! TF.CreationDate,2026-05-08T23:40:35+02:00
; #@! TF.GenerationSoftware,Kicad,Pcbnew,9.0.6
; #@! TF.FileFunction,Plated,1,2,PTH
FMAT,2
METRIC
; #@! TA.AperFunction,Plated,PTH,ViaDrill
T1C0.300
; #@! TA.AperFunction,Plated,PTH,ComponentDrill
T2C0.700
; #@! TA.AperFunction,Plated,PTH,ComponentDrill
T3C0.800
; #@! TA.AperFunction,Plated,PTH,ComponentDrill
T4C0.900
; #@! TA.AperFunction,Plated,PTH,ComponentDrill
T5C1.000
; #@! TA.AperFunction,Plated,PTH,ComponentDrill
T6C1.080
; #@! TA.AperFunction,Plated,PTH,ComponentDrill
T7C1.100
%
G90
G05
T1
X188.399Y-105.4
T2
X198.0Y-116.36
X198.0Y-121.44
T3
X202.6Y-114.545
X202.6Y-116.545
X209.7Y-120.8
X209.7Y-122.8
T4
X196.4Y-110.725
X196.4Y-113.265
T5
X115.25Y-102.92
X115.25Y-105.46
X115.25Y-108.0
X115.25Y-110.54
X122.46Y-85.0
X122.46Y-87.54
X122.46Y-90.08
X122.46Y-92.62
X122.46Y-95.16
X122.46Y-97.7
X122.46Y-100.24
X122.46Y-102.78
X122.46Y-105.32
X122.46Y-107.86
X122.46Y-110.4
X122.46Y-112.94
X122.46Y-115.48
X122.46Y-118.02
X122.46Y-120.56
X122.46Y-123.1
X122.46Y-125.64
X122.46Y-128.18
X122.46Y-130.72
X125.0Y-85.0
X125.0Y-87.54
X125.0Y-90.08
X125.0Y-92.62
X125.0Y-95.16
X125.0Y-97.7
X125.0Y-100.24
X125.0Y-102.78
X125.0Y-105.32
X125.0Y-107.86
X125.0Y-110.4
X125.0Y-112.94
X125.0Y-115.48
X125.0Y-118.02
X125.0Y-120.56
X125.0Y-123.1
X125.0Y-125.64
X125.0Y-128.18
X125.0Y-130.72
X183.46Y-85.0
X183.46Y-87.54
X183.46Y-90.08
X183.46Y-92.62
X183.46Y-95.16
X183.46Y-97.7
X183.46Y-100.24
X183.46Y-102.78
X183.46Y-105.32
X183.46Y-107.86
X183.46Y-110.4
X183.46Y-112.94
X183.46Y-115.48
X183.46Y-118.02
X183.46Y-120.56
X183.46Y-123.1
X183.46Y-125.64
X183.46Y-128.18
X183.46Y-130.72
X186.0Y-85.0
X186.0Y-87.54
X186.0Y-90.08
X186.0Y-92.62
X186.0Y-95.16
X186.0Y-97.7
X186.0Y-100.24
X186.0Y-102.78
X186.0Y-105.32
X186.0Y-107.86
X186.0Y-110.4
X186.0Y-112.94
X186.0Y-115.48
X186.0Y-118.02
X186.0Y-120.56
X186.0Y-123.1
X186.0Y-125.64
X186.0Y-128.18
X186.0Y-130.72
X194.3Y-117.7
X194.3Y-120.24
X194.3Y-122.78
X194.3Y-125.32
X194.3Y-127.86
X194.3Y-130.4
T6
X202.343Y-92.91
X202.343Y-95.45
X202.343Y-97.99
X202.343Y-100.53
X202.343Y-103.07
X202.343Y-105.61
X202.343Y-108.15
X202.343Y-110.69
X207.422Y-94.18
X207.422Y-96.72
X207.422Y-99.26
X207.422Y-101.8
X207.422Y-104.34
X207.422Y-106.88
X207.422Y-109.42
T7
X190.75Y-92.1
X190.75Y-104.8
X192.16Y-86.9
X194.7Y-86.9
X195.0Y-92.1
X195.0Y-104.8
X198.65Y-89.5
X199.1Y-94.4
X199.1Y-107.1
X201.65Y-121.36
X201.65Y-123.9
X201.65Y-126.44
X209.4Y-114.4
X209.4Y-116.94
X211.35Y-89.5
M30
