%TF.GenerationSoftware,KiCad,Pcbnew,9.0.6*%
%TF.CreationDate,2026-04-17T19:20:47+02:00*%
%TF.ProjectId,Zavrsni,5a617672-736e-4692-9e6b-696361645f70,rev?*%
%TF.SameCoordinates,Original*%
%TF.FileFunction,Copper,L1,Top*%
%TF.FilePolarity,Positive*%
%FSLAX46Y46*%
G04 Gerber Fmt 4.6, Leading zero omitted, Abs format (unit mm)*
G04 Created by KiCad (PCBNEW 9.0.6) date 2026-04-17 19:20:47*
%MOMM*%
%LPD*%
G01*
G04 APERTURE LIST*
G04 Aperture macros list*
%AMRoundRect*
0 Rectangle with rounded corners*
0 $1 Rounding radius*
0 $2 $3 $4 $5 $6 $7 $8 $9 X,Y pos of 4 corners*
0 Add a 4 corners polygon primitive as box body*
4,1,4,$2,$3,$4,$5,$6,$7,$8,$9,$2,$3,0*
0 Add four circle primitives for the rounded corners*
1,1,$1+$1,$2,$3*
1,1,$1+$1,$4,$5*
1,1,$1+$1,$6,$7*
1,1,$1+$1,$8,$9*
0 Add four rect primitives between the rounded corners*
20,1,$1+$1,$2,$3,$4,$5,0*
20,1,$1+$1,$4,$5,$6,$7,0*
20,1,$1+$1,$6,$7,$8,$9,0*
20,1,$1+$1,$8,$9,$2,$3,0*%
G04 Aperture macros list end*
%TA.AperFunction,ComponentPad*%
%ADD10R,1.800000X1.800000*%
%TD*%
%TA.AperFunction,ComponentPad*%
%ADD11C,1.800000*%
%TD*%
%TA.AperFunction,ComponentPad*%
%ADD12C,1.700000*%
%TD*%
%TA.AperFunction,ComponentPad*%
%ADD13R,1.700000X1.700000*%
%TD*%
%TA.AperFunction,ComponentPad*%
%ADD14C,2.200000*%
%TD*%
%TA.AperFunction,ComponentPad*%
%ADD15RoundRect,0.249999X0.850001X-0.850001X0.850001X0.850001X-0.850001X0.850001X-0.850001X-0.850001X0*%
%TD*%
%TA.AperFunction,ComponentPad*%
%ADD16RoundRect,0.249999X0.850001X0.850001X-0.850001X0.850001X-0.850001X-0.850001X0.850001X-0.850001X0*%
%TD*%
%TA.AperFunction,ComponentPad*%
%ADD17RoundRect,0.250000X-0.550000X0.550000X-0.550000X-0.550000X0.550000X-0.550000X0.550000X0.550000X0*%
%TD*%
%TA.AperFunction,ComponentPad*%
%ADD18C,1.600000*%
%TD*%
%TA.AperFunction,ComponentPad*%
%ADD19RoundRect,0.249999X-0.850001X0.850001X-0.850001X-0.850001X0.850001X-0.850001X0.850001X0.850001X0*%
%TD*%
%TA.AperFunction,SMDPad,CuDef*%
%ADD20RoundRect,0.250000X-0.625000X0.400000X-0.625000X-0.400000X0.625000X-0.400000X0.625000X0.400000X0*%
%TD*%
%TA.AperFunction,ComponentPad*%
%ADD21RoundRect,0.250000X-0.550000X-0.550000X0.550000X-0.550000X0.550000X0.550000X-0.550000X0.550000X0*%
%TD*%
%TA.AperFunction,ComponentPad*%
%ADD22R,1.620000X1.620000*%
%TD*%
%TA.AperFunction,ComponentPad*%
%ADD23C,1.620000*%
%TD*%
%TA.AperFunction,ComponentPad*%
%ADD24R,1.905000X2.000000*%
%TD*%
%TA.AperFunction,ComponentPad*%
%ADD25O,1.905000X2.000000*%
%TD*%
%TA.AperFunction,ViaPad*%
%ADD26C,0.700000*%
%TD*%
%TA.AperFunction,Conductor*%
%ADD27C,0.300000*%
%TD*%
%TA.AperFunction,Conductor*%
%ADD28C,0.500000*%
%TD*%
%TA.AperFunction,Conductor*%
%ADD29C,1.250000*%
%TD*%
G04 APERTURE END LIST*
D10*
%TO.P,D1,1,K*%
%TO.N,GND*%
X196500000Y-130500000D03*
D11*
%TO.P,D1,2,A*%
%TO.N,Net-(D1-A)*%
X196500000Y-127960000D03*
%TD*%
D12*
%TO.P,J5,4,Pin_4*%
%TO.N,3V3*%
X115250000Y-102920000D03*
%TO.P,J5,3,Pin_3*%
%TO.N,GND*%
X115250000Y-105460000D03*
%TO.P,J5,2,Pin_2*%
%TO.N,SCL*%
X115250000Y-108000000D03*
D13*
%TO.P,J5,1,Pin_1*%
%TO.N,SDA*%
X115250000Y-110540000D03*
%TD*%
D14*
%TO.P,J1,2,Pin_2*%
%TO.N,12V*%
X209000000Y-117250000D03*
D15*
%TO.P,J1,1,Pin_1*%
%TO.N,GND*%
X209000000Y-119790000D03*
%TD*%
D14*
%TO.P,J3,2,Pin_2*%
%TO.N,OUT2*%
X192460000Y-84750000D03*
D16*
%TO.P,J3,1,Pin_1*%
%TO.N,OUT1*%
X195000000Y-84750000D03*
%TD*%
D17*
%TO.P,C1,1*%
%TO.N,12V*%
X193250000Y-108500000D03*
D18*
%TO.P,C1,2*%
%TO.N,GND*%
X193250000Y-110500000D03*
%TD*%
D19*
%TO.P,D5,1,K*%
%TO.N,OUT2*%
X195750000Y-90000000D03*
D14*
%TO.P,D5,2,A*%
%TO.N,GND*%
X195750000Y-102700000D03*
%TD*%
D16*
%TO.P,D4,1,K*%
%TO.N,OUT1*%
X211350000Y-85500000D03*
D14*
%TO.P,D4,2,A*%
%TO.N,GND*%
X198650000Y-85500000D03*
%TD*%
D13*
%TO.P,J6,1,Pin_1*%
%TO.N,unconnected-(J6-Pin_1-Pad1)*%
X125000000Y-85000000D03*
D12*
%TO.P,J6,2,Pin_2*%
%TO.N,unconnected-(J6-Pin_2-Pad2)*%
X122460000Y-85000000D03*
%TO.P,J6,3,Pin_3*%
%TO.N,unconnected-(J6-Pin_3-Pad3)*%
X125000000Y-87540000D03*
%TO.P,J6,4,Pin_4*%
%TO.N,unconnected-(J6-Pin_4-Pad4)*%
X122460000Y-87540000D03*
%TO.P,J6,5,Pin_5*%
%TO.N,unconnected-(J6-Pin_5-Pad5)*%
X125000000Y-90080000D03*
%TO.P,J6,6,Pin_6*%
%TO.N,unconnected-(J6-Pin_6-Pad6)*%
X122460000Y-90080000D03*
%TO.P,J6,7,Pin_7*%
%TO.N,unconnected-(J6-Pin_7-Pad7)*%
X125000000Y-92620000D03*
%TO.P,J6,8,Pin_8*%
%TO.N,unconnected-(J6-Pin_8-Pad8)*%
X122460000Y-92620000D03*
%TO.P,J6,9,Pin_9*%
%TO.N,unconnected-(J6-Pin_9-Pad9)*%
X125000000Y-95160000D03*
%TO.P,J6,10,Pin_10*%
%TO.N,unconnected-(J6-Pin_10-Pad10)*%
X122460000Y-95160000D03*
%TO.P,J6,11,Pin_11*%
%TO.N,unconnected-(J6-Pin_11-Pad11)*%
X125000000Y-97700000D03*
%TO.P,J6,12,Pin_12*%
%TO.N,unconnected-(J6-Pin_12-Pad12)*%
X122460000Y-97700000D03*
%TO.P,J6,13,Pin_13*%
%TO.N,unconnected-(J6-Pin_13-Pad13)*%
X125000000Y-100240000D03*
%TO.P,J6,14,Pin_14*%
%TO.N,unconnected-(J6-Pin_14-Pad14)*%
X122460000Y-100240000D03*
%TO.P,J6,15,Pin_15*%
%TO.N,3V3*%
X125000000Y-102780000D03*
%TO.P,J6,16,Pin_16*%
%TO.N,unconnected-(J6-Pin_16-Pad16)*%
X122460000Y-102780000D03*
%TO.P,J6,17,Pin_17*%
%TO.N,5V*%
X125000000Y-105320000D03*
%TO.P,J6,18,Pin_18*%
%TO.N,unconnected-(J6-Pin_18-Pad18)*%
X122460000Y-105320000D03*
%TO.P,J6,19,Pin_19*%
%TO.N,GND*%
X125000000Y-107860000D03*
%TO.P,J6,20,Pin_20*%
%TO.N,unconnected-(J6-Pin_20-Pad20)*%
X122460000Y-107860000D03*
%TO.P,J6,21,Pin_21*%
%TO.N,unconnected-(J6-Pin_21-Pad21)*%
X125000000Y-110400000D03*
%TO.P,J6,22,Pin_22*%
%TO.N,SDA*%
X122460000Y-110400000D03*
%TO.P,J6,23,Pin_23*%
%TO.N,12V*%
X125000000Y-112940000D03*
%TO.P,J6,24,Pin_24*%
%TO.N,unconnected-(J6-Pin_24-Pad24)*%
X122460000Y-112940000D03*
%TO.P,J6,25,Pin_25*%
%TO.N,unconnected-(J6-Pin_25-Pad25)*%
X125000000Y-115480000D03*
%TO.P,J6,26,Pin_26*%
%TO.N,unconnected-(J6-Pin_26-Pad26)*%
X122460000Y-115480000D03*
%TO.P,J6,27,Pin_27*%
%TO.N,unconnected-(J6-Pin_27-Pad27)*%
X125000000Y-118020000D03*
%TO.P,J6,28,Pin_28*%
%TO.N,unconnected-(J6-Pin_28-Pad28)*%
X122460000Y-118020000D03*
%TO.P,J6,29,Pin_29*%
%TO.N,unconnected-(J6-Pin_29-Pad29)*%
X125000000Y-120560000D03*
%TO.P,J6,30,Pin_30*%
%TO.N,unconnected-(J6-Pin_30-Pad30)*%
X122460000Y-120560000D03*
%TO.P,J6,31,Pin_31*%
%TO.N,unconnected-(J6-Pin_31-Pad31)*%
X125000000Y-123100000D03*
%TO.P,J6,32,Pin_32*%
%TO.N,unconnected-(J6-Pin_32-Pad32)*%
X122460000Y-123100000D03*
%TO.P,J6,33,Pin_33*%
%TO.N,unconnected-(J6-Pin_33-Pad33)*%
X125000000Y-125640000D03*
%TO.P,J6,34,Pin_34*%
%TO.N,unconnected-(J6-Pin_34-Pad34)*%
X122460000Y-125640000D03*
%TO.P,J6,35,Pin_35*%
%TO.N,unconnected-(J6-Pin_35-Pad35)*%
X125000000Y-128180000D03*
%TO.P,J6,36,Pin_36*%
%TO.N,unconnected-(J6-Pin_36-Pad36)*%
X122460000Y-128180000D03*
%TO.P,J6,37,Pin_37*%
%TO.N,unconnected-(J6-Pin_37-Pad37)*%
X125000000Y-130720000D03*
%TO.P,J6,38,Pin_38*%
%TO.N,unconnected-(J6-Pin_38-Pad38)*%
X122460000Y-130720000D03*
%TD*%
D20*
%TO.P,R1,1*%
%TO.N,Vss*%
X191500000Y-116950000D03*
%TO.P,R1,2*%
%TO.N,Net-(D1-A)*%
X191500000Y-120050000D03*
%TD*%
D15*
%TO.P,D8,1,K*%
%TO.N,12V*%
X211000000Y-102700000D03*
D14*
%TO.P,D8,2,A*%
%TO.N,OUT1*%
X211000000Y-90000000D03*
%TD*%
D13*
%TO.P,J7,1,Pin_1*%
%TO.N,IN1*%
X186000000Y-85000000D03*
D12*
%TO.P,J7,2,Pin_2*%
%TO.N,unconnected-(J7-Pin_2-Pad2)*%
X183460000Y-85000000D03*
%TO.P,J7,3,Pin_3*%
%TO.N,IN2*%
X186000000Y-87540000D03*
%TO.P,J7,4,Pin_4*%
%TO.N,unconnected-(J7-Pin_4-Pad4)*%
X183460000Y-87540000D03*
%TO.P,J7,5,Pin_5*%
%TO.N,GUMB*%
X186000000Y-90080000D03*
%TO.P,J7,6,Pin_6*%
%TO.N,unconnected-(J7-Pin_6-Pad6)*%
X183460000Y-90080000D03*
%TO.P,J7,7,Pin_7*%
%TO.N,unconnected-(J7-Pin_7-Pad7)*%
X186000000Y-92620000D03*
%TO.P,J7,8,Pin_8*%
%TO.N,unconnected-(J7-Pin_8-Pad8)*%
X183460000Y-92620000D03*
%TO.P,J7,9,Pin_9*%
%TO.N,unconnected-(J7-Pin_9-Pad9)*%
X186000000Y-95160000D03*
%TO.P,J7,10,Pin_10*%
%TO.N,unconnected-(J7-Pin_10-Pad10)*%
X183460000Y-95160000D03*
%TO.P,J7,11,Pin_11*%
%TO.N,unconnected-(J7-Pin_11-Pad11)*%
X186000000Y-97700000D03*
%TO.P,J7,12,Pin_12*%
%TO.N,unconnected-(J7-Pin_12-Pad12)*%
X183460000Y-97700000D03*
%TO.P,J7,13,Pin_13*%
%TO.N,unconnected-(J7-Pin_13-Pad13)*%
X186000000Y-100240000D03*
%TO.P,J7,14,Pin_14*%
%TO.N,unconnected-(J7-Pin_14-Pad14)*%
X183460000Y-100240000D03*
%TO.P,J7,15,Pin_15*%
%TO.N,unconnected-(J7-Pin_15-Pad15)*%
X186000000Y-102780000D03*
%TO.P,J7,16,Pin_16*%
%TO.N,unconnected-(J7-Pin_16-Pad16)*%
X183460000Y-102780000D03*
%TO.P,J7,17,Pin_17*%
%TO.N,unconnected-(J7-Pin_17-Pad17)*%
X186000000Y-105320000D03*
%TO.P,J7,18,Pin_18*%
%TO.N,SCL*%
X183460000Y-105320000D03*
%TO.P,J7,19,Pin_19*%
%TO.N,unconnected-(J7-Pin_19-Pad19)*%
X186000000Y-107860000D03*
%TO.P,J7,20,Pin_20*%
%TO.N,unconnected-(J7-Pin_20-Pad20)*%
X183460000Y-107860000D03*
%TO.P,J7,21,Pin_21*%
%TO.N,unconnected-(J7-Pin_21-Pad21)*%
X186000000Y-110400000D03*
%TO.P,J7,22,Pin_22*%
%TO.N,RX*%
X183460000Y-110400000D03*
%TO.P,J7,23,Pin_23*%
%TO.N,unconnected-(J7-Pin_23-Pad23)*%
X186000000Y-112940000D03*
%TO.P,J7,24,Pin_24*%
%TO.N,unconnected-(J7-Pin_24-Pad24)*%
X183460000Y-112940000D03*
%TO.P,J7,25,Pin_25*%
%TO.N,unconnected-(J7-Pin_25-Pad25)*%
X186000000Y-115480000D03*
%TO.P,J7,26,Pin_26*%
%TO.N,unconnected-(J7-Pin_26-Pad26)*%
X183460000Y-115480000D03*
%TO.P,J7,27,Pin_27*%
%TO.N,unconnected-(J7-Pin_27-Pad27)*%
X186000000Y-118020000D03*
%TO.P,J7,28,Pin_28*%
%TO.N,unconnected-(J7-Pin_28-Pad28)*%
X183460000Y-118020000D03*
%TO.P,J7,29,Pin_29*%
%TO.N,unconnected-(J7-Pin_29-Pad29)*%
X186000000Y-120560000D03*
%TO.P,J7,30,Pin_30*%
%TO.N,unconnected-(J7-Pin_30-Pad30)*%
X183460000Y-120560000D03*
%TO.P,J7,31,Pin_31*%
%TO.N,unconnected-(J7-Pin_31-Pad31)*%
X186000000Y-123100000D03*
%TO.P,J7,32,Pin_32*%
%TO.N,unconnected-(J7-Pin_32-Pad32)*%
X183460000Y-123100000D03*
%TO.P,J7,33,Pin_33*%
%TO.N,unconnected-(J7-Pin_33-Pad33)*%
X186000000Y-125640000D03*
%TO.P,J7,34,Pin_34*%
%TO.N,TX*%
X183460000Y-125640000D03*
%TO.P,J7,35,Pin_35*%
%TO.N,unconnected-(J7-Pin_35-Pad35)*%
X186000000Y-128180000D03*
%TO.P,J7,36,Pin_36*%
%TO.N,unconnected-(J7-Pin_36-Pad36)*%
X183460000Y-128180000D03*
%TO.P,J7,37,Pin_37*%
%TO.N,unconnected-(J7-Pin_37-Pad37)*%
X186000000Y-130720000D03*
%TO.P,J7,38,Pin_38*%
%TO.N,unconnected-(J7-Pin_38-Pad38)*%
X183460000Y-130720000D03*
%TD*%
D21*
%TO.P,C2,1*%
%TO.N,Vss*%
X199000000Y-112500000D03*
D18*
%TO.P,C2,2*%
%TO.N,GND*%
X201000000Y-112500000D03*
%TD*%
D15*
%TO.P,D9,1,K*%
%TO.N,12V*%
X190750000Y-102700000D03*
D14*
%TO.P,D9,2,A*%
%TO.N,OUT2*%
X190750000Y-90000000D03*
%TD*%
D22*
%TO.P,U2,1,SENSE_A*%
%TO.N,GND*%
X198942500Y-90110000D03*
D23*
%TO.P,U2,2,OUT1*%
%TO.N,OUT1*%
X204022500Y-91380000D03*
%TO.P,U2,3,OUT2*%
%TO.N,OUT2*%
X198942500Y-92650000D03*
%TO.P,U2,4,Vs*%
%TO.N,12V*%
X204022500Y-93920000D03*
%TO.P,U2,5,IN1*%
%TO.N,IN1*%
X198942500Y-95190000D03*
%TO.P,U2,6,EnA*%
%TO.N,Vss*%
X204022500Y-96460000D03*
%TO.P,U2,7,IN2*%
%TO.N,IN2*%
X198942500Y-97730000D03*
%TO.P,U2,8,GND*%
%TO.N,GND*%
X204022500Y-99000000D03*
%TO.P,U2,9,Vss*%
%TO.N,Vss*%
X198942500Y-100270000D03*
%TO.P,U2,10,IN3*%
%TO.N,unconnected-(U2-IN3-Pad10)*%
X204022500Y-101540000D03*
%TO.P,U2,11,EnB*%
%TO.N,unconnected-(U2-EnB-Pad11)*%
X198942500Y-102810000D03*
%TO.P,U2,12,IN4*%
%TO.N,unconnected-(U2-IN4-Pad12)*%
X204022500Y-104080000D03*
%TO.P,U2,13,OUT3*%
%TO.N,unconnected-(U2-OUT3-Pad13)*%
X198942500Y-105350000D03*
%TO.P,U2,14,OUT4*%
%TO.N,unconnected-(U2-OUT4-Pad14)*%
X204022500Y-106620000D03*
%TO.P,U2,15,SENSE_B*%
%TO.N,GND*%
X198942500Y-107890000D03*
%TD*%
D24*
%TO.P,U1,1,VI*%
%TO.N,Net-(JP1-B)*%
X201500000Y-117050000D03*
D25*
%TO.P,U1,2,GND*%
%TO.N,GND*%
X198960000Y-117050000D03*
%TO.P,U1,3,VO*%
%TO.N,Vss*%
X196420000Y-117050000D03*
%TD*%
D13*
%TO.P,JP1,1,A*%
%TO.N,12V*%
X210000000Y-112750000D03*
D12*
%TO.P,JP1,2,B*%
%TO.N,Net-(JP1-B)*%
X207460000Y-112750000D03*
%TD*%
%TO.P,J8,6,Pin_6*%
%TO.N,unconnected-(J8-Pin_6-Pad6)*%
X207700000Y-124000000D03*
%TO.P,J8,5,Pin_5*%
%TO.N,RX*%
X205160000Y-124000000D03*
%TO.P,J8,4,Pin_4*%
%TO.N,TX*%
X202620000Y-124000000D03*
%TO.P,J8,3,Pin_3*%
%TO.N,GND*%
X200080000Y-124000000D03*
%TO.P,J8,2,Pin_2*%
%TO.N,5V*%
X197540000Y-124000000D03*
D13*
%TO.P,J8,1,Pin_1*%
%TO.N,unconnected-(J8-Pin_1-Pad1)*%
X195000000Y-124000000D03*
%TD*%
D26*
%TO.N,Vss*%
X196965880Y-107325000D03*
X196913572Y-109836428D03*
%TD*%
D27*
%TO.N,TX*%
X191269471Y-129211000D02*
X188899471Y-126841000D01*
X184661000Y-126841000D02*
X183460000Y-125640000D01*
X202620000Y-124000000D02*
X197409000Y-129211000D01*
X197409000Y-129211000D02*
X191269471Y-129211000D01*
X188899471Y-126841000D02*
X184661000Y-126841000D01*
D28*
%TO.N,Net-(D1-A)*%
X191500000Y-122960000D02*
X196500000Y-127960000D01*
X191500000Y-120050000D02*
X191500000Y-122960000D01*
D27*
%TO.N,5V*%
X123799000Y-115977471D02*
X123799000Y-106521000D01*
X123799000Y-106521000D02*
X125000000Y-105320000D01*
X124502529Y-116681000D02*
X123799000Y-115977471D01*
X172802529Y-116681000D02*
X124502529Y-116681000D01*
X190447130Y-119221000D02*
X175342529Y-119221000D01*
X192380870Y-119049000D02*
X190619130Y-119049000D01*
X175342529Y-119221000D02*
X172802529Y-116681000D01*
X192552870Y-119221000D02*
X192380870Y-119049000D01*
X190619130Y-119049000D02*
X190447130Y-119221000D01*
X192761000Y-119221000D02*
X192552870Y-119221000D01*
X197540000Y-124000000D02*
X192761000Y-119221000D01*
%TO.N,RX*%
X199561000Y-118401000D02*
X205160000Y-124000000D01*
X187969130Y-118401000D02*
X199561000Y-118401000D01*
X187201000Y-117632870D02*
X187969130Y-118401000D01*
X184661000Y-111601000D02*
X183460000Y-110400000D01*
X185502529Y-114141000D02*
X184661000Y-113299471D01*
X187201000Y-114951000D02*
X186391000Y-114141000D01*
X187201000Y-117632870D02*
X187201000Y-114951000D01*
X184661000Y-113299471D02*
X184661000Y-111601000D01*
X186391000Y-114141000D02*
X185502529Y-114141000D01*
%TO.N,3V3*%
X116591000Y-101579000D02*
X115250000Y-102920000D01*
X123799000Y-101579000D02*
X116591000Y-101579000D01*
X125000000Y-102780000D02*
X123799000Y-101579000D01*
%TO.N,SCL*%
X182259000Y-104119000D02*
X183460000Y-105320000D01*
X119131000Y-104119000D02*
X182259000Y-104119000D01*
X115250000Y-108000000D02*
X119131000Y-104119000D01*
%TO.N,SDA*%
X115390000Y-110400000D02*
X115250000Y-110540000D01*
X122460000Y-110400000D02*
X115390000Y-110400000D01*
D29*
%TO.N,12V*%
X210000000Y-116500000D02*
X209000000Y-117500000D01*
X210000000Y-112750000D02*
X210000000Y-116500000D01*
X190750000Y-102700000D02*
X190750000Y-106000000D01*
X197238846Y-108500000D02*
X199238846Y-110500000D01*
X193250000Y-108500000D02*
X197238846Y-108500000D01*
X209324000Y-112074000D02*
X210000000Y-112750000D01*
X199238846Y-110500000D02*
X207750000Y-110500000D01*
D27*
X192551000Y-109199000D02*
X193250000Y-108500000D01*
D29*
X211000000Y-102700000D02*
X210000000Y-103700000D01*
X190750000Y-106000000D02*
X193250000Y-108500000D01*
X211000000Y-100897500D02*
X204022500Y-93920000D01*
X211000000Y-102700000D02*
X211000000Y-100897500D01*
X207750000Y-110500000D02*
X209324000Y-112074000D01*
X210000000Y-103700000D02*
X210000000Y-112750000D01*
D27*
X125000000Y-112940000D02*
X128741000Y-109199000D01*
X128741000Y-109199000D02*
X192551000Y-109199000D01*
D29*
%TO.N,OUT2*%
X195750000Y-90000000D02*
X198400000Y-92650000D01*
X192460000Y-88290000D02*
X190750000Y-90000000D01*
X198400000Y-92650000D02*
X198942500Y-92650000D01*
X192460000Y-84750000D02*
X192460000Y-88290000D01*
X195750000Y-90000000D02*
X190750000Y-90000000D01*
%TO.N,OUT1*%
X211000000Y-90000000D02*
X205402500Y-90000000D01*
X205402500Y-90000000D02*
X204022500Y-91380000D01*
X211350000Y-85500000D02*
X211350000Y-89650000D01*
X201116500Y-88474000D02*
X198724000Y-88474000D01*
X198724000Y-88474000D02*
X195000000Y-84750000D01*
X211350000Y-89650000D02*
X211000000Y-90000000D01*
X204022500Y-91380000D02*
X201116500Y-88474000D01*
D27*
%TO.N,SDA*%
X122310000Y-110550000D02*
X122460000Y-110400000D01*
X122320000Y-110540000D02*
X122460000Y-110400000D01*
D28*
%TO.N,Vss*%
X196420000Y-115080000D02*
X199000000Y-112500000D01*
X196320000Y-116950000D02*
X196420000Y-117050000D01*
X196965880Y-107325000D02*
X197301000Y-106989880D01*
X199480000Y-100270000D02*
X203290000Y-96460000D01*
X191500000Y-116950000D02*
X196320000Y-116950000D01*
X198942500Y-100270000D02*
X199480000Y-100270000D01*
X197301000Y-106989880D02*
X197301000Y-101911500D01*
X197301000Y-101911500D02*
X198942500Y-100270000D01*
X191600000Y-117050000D02*
X191500000Y-116950000D01*
X199000000Y-112500000D02*
X199000000Y-111922856D01*
X196500000Y-116970000D02*
X196420000Y-117050000D01*
X203290000Y-96460000D02*
X204022500Y-96460000D01*
X196420000Y-117050000D02*
X196420000Y-115080000D01*
X199000000Y-111922856D02*
X196913572Y-109836428D01*
%TO.N,IN2*%
X187301000Y-88841000D02*
X187301000Y-89792364D01*
X187301000Y-89792364D02*
X195238636Y-97730000D01*
X186000000Y-87540000D02*
X187301000Y-88841000D01*
X195238636Y-97730000D02*
X198942500Y-97730000D01*
%TO.N,IN1*%
X188002000Y-87002000D02*
X188002000Y-89502000D01*
X188002000Y-89502000D02*
X193690000Y-95190000D01*
X188002000Y-87002000D02*
X186000000Y-85000000D01*
X193690000Y-95190000D02*
X198942500Y-95190000D01*
%TO.N,Net-(JP1-B)*%
X207460000Y-112750000D02*
X203160000Y-117050000D01*
X203160000Y-117050000D02*
X201500000Y-117050000D01*
%TD*%
M02*
