%TF.GenerationSoftware,KiCad,Pcbnew,9.0.6*%
%TF.CreationDate,2026-04-17T19:20:47+02:00*%
%TF.ProjectId,Zavrsni,5a617672-736e-4692-9e6b-696361645f70,rev?*%
%TF.SameCoordinates,Original*%
%TF.FileFunction,Copper,L2,Bot*%
%TF.FilePolarity,Positive*%
%FSLAX46Y46*%
G04 Gerber Fmt 4.6, Leading zero omitted, Abs format (unit mm)*
G04 Created by KiCad (PCBNEW 9.0.6) date 2026-04-17 19:20:47*
%MOMM*%
%LPD*%
G01*
G04 APERTURE LIST*
G04 Aperture macros list*
%AMRoundRect*
0 Rectangle with rounded corners*
0 $1 Rounding radius*
0 $2 $3 $4 $5 $6 $7 $8 $9 X,Y pos of 4 corners*
0 Add a 4 corners polygon primitive as box body*
4,1,4,$2,$3,$4,$5,$6,$7,$8,$9,$2,$3,0*
0 Add four circle primitives for the rounded corners*
1,1,$1+$1,$2,$3*
1,1,$1+$1,$4,$5*
1,1,$1+$1,$6,$7*
1,1,$1+$1,$8,$9*
0 Add four rect primitives between the rounded corners*
20,1,$1+$1,$2,$3,$4,$5,0*
20,1,$1+$1,$4,$5,$6,$7,0*
20,1,$1+$1,$6,$7,$8,$9,0*
20,1,$1+$1,$8,$9,$2,$3,0*%
G04 Aperture macros list end*
%TA.AperFunction,ComponentPad*%
%ADD10R,1.800000X1.800000*%
%TD*%
%TA.AperFunction,ComponentPad*%
%ADD11C,1.800000*%
%TD*%
%TA.AperFunction,ComponentPad*%
%ADD12C,1.700000*%
%TD*%
%TA.AperFunction,ComponentPad*%
%ADD13R,1.700000X1.700000*%
%TD*%
%TA.AperFunction,ComponentPad*%
%ADD14C,2.200000*%
%TD*%
%TA.AperFunction,ComponentPad*%
%ADD15RoundRect,0.249999X0.850001X-0.850001X0.850001X0.850001X-0.850001X0.850001X-0.850001X-0.850001X0*%
%TD*%
%TA.AperFunction,ComponentPad*%
%ADD16RoundRect,0.249999X0.850001X0.850001X-0.850001X0.850001X-0.850001X-0.850001X0.850001X-0.850001X0*%
%TD*%
%TA.AperFunction,ComponentPad*%
%ADD17RoundRect,0.250000X-0.550000X0.550000X-0.550000X-0.550000X0.550000X-0.550000X0.550000X0.550000X0*%
%TD*%
%TA.AperFunction,ComponentPad*%
%ADD18C,1.600000*%
%TD*%
%TA.AperFunction,ComponentPad*%
%ADD19RoundRect,0.249999X-0.850001X0.850001X-0.850001X-0.850001X0.850001X-0.850001X0.850001X0.850001X0*%
%TD*%
%TA.AperFunction,ComponentPad*%
%ADD20RoundRect,0.250000X-0.550000X-0.550000X0.550000X-0.550000X0.550000X0.550000X-0.550000X0.550000X0*%
%TD*%
%TA.AperFunction,ComponentPad*%
%ADD21R,1.620000X1.620000*%
%TD*%
%TA.AperFunction,ComponentPad*%
%ADD22C,1.620000*%
%TD*%
%TA.AperFunction,ComponentPad*%
%ADD23R,1.905000X2.000000*%
%TD*%
%TA.AperFunction,ComponentPad*%
%ADD24O,1.905000X2.000000*%
%TD*%
%TA.AperFunction,ViaPad*%
%ADD25C,0.700000*%
%TD*%
%TA.AperFunction,Conductor*%
%ADD26C,0.500000*%
%TD*%
G04 APERTURE END LIST*
D10*
%TO.P,D1,1,K*%
%TO.N,GND*%
X196500000Y-130500000D03*
D11*
%TO.P,D1,2,A*%
%TO.N,Net-(D1-A)*%
X196500000Y-127960000D03*
%TD*%
D12*
%TO.P,J5,4,Pin_4*%
%TO.N,3V3*%
X115250000Y-102920000D03*
%TO.P,J5,3,Pin_3*%
%TO.N,GND*%
X115250000Y-105460000D03*
%TO.P,J5,2,Pin_2*%
%TO.N,SCL*%
X115250000Y-108000000D03*
D13*
%TO.P,J5,1,Pin_1*%
%TO.N,SDA*%
X115250000Y-110540000D03*
%TD*%
D14*
%TO.P,J1,2,Pin_2*%
%TO.N,12V*%
X209000000Y-117250000D03*
D15*
%TO.P,J1,1,Pin_1*%
%TO.N,GND*%
X209000000Y-119790000D03*
%TD*%
D14*
%TO.P,J3,2,Pin_2*%
%TO.N,OUT2*%
X192460000Y-84750000D03*
D16*
%TO.P,J3,1,Pin_1*%
%TO.N,OUT1*%
X195000000Y-84750000D03*
%TD*%
D17*
%TO.P,C1,1*%
%TO.N,12V*%
X193250000Y-108500000D03*
D18*
%TO.P,C1,2*%
%TO.N,GND*%
X193250000Y-110500000D03*
%TD*%
D19*
%TO.P,D5,1,K*%
%TO.N,OUT2*%
X195750000Y-90000000D03*
D14*
%TO.P,D5,2,A*%
%TO.N,GND*%
X195750000Y-102700000D03*
%TD*%
D16*
%TO.P,D4,1,K*%
%TO.N,OUT1*%
X211350000Y-85500000D03*
D14*
%TO.P,D4,2,A*%
%TO.N,GND*%
X198650000Y-85500000D03*
%TD*%
D13*
%TO.P,J6,1,Pin_1*%
%TO.N,unconnected-(J6-Pin_1-Pad1)*%
X125000000Y-85000000D03*
D12*
%TO.P,J6,2,Pin_2*%
%TO.N,unconnected-(J6-Pin_2-Pad2)*%
X122460000Y-85000000D03*
%TO.P,J6,3,Pin_3*%
%TO.N,unconnected-(J6-Pin_3-Pad3)*%
X125000000Y-87540000D03*
%TO.P,J6,4,Pin_4*%
%TO.N,unconnected-(J6-Pin_4-Pad4)*%
X122460000Y-87540000D03*
%TO.P,J6,5,Pin_5*%
%TO.N,unconnected-(J6-Pin_5-Pad5)*%
X125000000Y-90080000D03*
%TO.P,J6,6,Pin_6*%
%TO.N,unconnected-(J6-Pin_6-Pad6)*%
X122460000Y-90080000D03*
%TO.P,J6,7,Pin_7*%
%TO.N,unconnected-(J6-Pin_7-Pad7)*%
X125000000Y-92620000D03*
%TO.P,J6,8,Pin_8*%
%TO.N,unconnected-(J6-Pin_8-Pad8)*%
X122460000Y-92620000D03*
%TO.P,J6,9,Pin_9*%
%TO.N,unconnected-(J6-Pin_9-Pad9)*%
X125000000Y-95160000D03*
%TO.P,J6,10,Pin_10*%
%TO.N,unconnected-(J6-Pin_10-Pad10)*%
X122460000Y-95160000D03*
%TO.P,J6,11,Pin_11*%
%TO.N,unconnected-(J6-Pin_11-Pad11)*%
X125000000Y-97700000D03*
%TO.P,J6,12,Pin_12*%
%TO.N,unconnected-(J6-Pin_12-Pad12)*%
X122460000Y-97700000D03*
%TO.P,J6,13,Pin_13*%
%TO.N,unconnected-(J6-Pin_13-Pad13)*%
X125000000Y-100240000D03*
%TO.P,J6,14,Pin_14*%
%TO.N,unconnected-(J6-Pin_14-Pad14)*%
X122460000Y-100240000D03*
%TO.P,J6,15,Pin_15*%
%TO.N,3V3*%
X125000000Y-102780000D03*
%TO.P,J6,16,Pin_16*%
%TO.N,unconnected-(J6-Pin_16-Pad16)*%
X122460000Y-102780000D03*
%TO.P,J6,17,Pin_17*%
%TO.N,5V*%
X125000000Y-105320000D03*
%TO.P,J6,18,Pin_18*%
%TO.N,unconnected-(J6-Pin_18-Pad18)*%
X122460000Y-105320000D03*
%TO.P,J6,19,Pin_19*%
%TO.N,GND*%
X125000000Y-107860000D03*
%TO.P,J6,20,Pin_20*%
%TO.N,unconnected-(J6-Pin_20-Pad20)*%
X122460000Y-107860000D03*
%TO.P,J6,21,Pin_21*%
%TO.N,unconnected-(J6-Pin_21-Pad21)*%
X125000000Y-110400000D03*
%TO.P,J6,22,Pin_22*%
%TO.N,SDA*%
X122460000Y-110400000D03*
%TO.P,J6,23,Pin_23*%
%TO.N,12V*%
X125000000Y-112940000D03*
%TO.P,J6,24,Pin_24*%
%TO.N,unconnected-(J6-Pin_24-Pad24)*%
X122460000Y-112940000D03*
%TO.P,J6,25,Pin_25*%
%TO.N,unconnected-(J6-Pin_25-Pad25)*%
X125000000Y-115480000D03*
%TO.P,J6,26,Pin_26*%
%TO.N,unconnected-(J6-Pin_26-Pad26)*%
X122460000Y-115480000D03*
%TO.P,J6,27,Pin_27*%
%TO.N,unconnected-(J6-Pin_27-Pad27)*%
X125000000Y-118020000D03*
%TO.P,J6,28,Pin_28*%
%TO.N,unconnected-(J6-Pin_28-Pad28)*%
X122460000Y-118020000D03*
%TO.P,J6,29,Pin_29*%
%TO.N,unconnected-(J6-Pin_29-Pad29)*%
X125000000Y-120560000D03*
%TO.P,J6,30,Pin_30*%
%TO.N,unconnected-(J6-Pin_30-Pad30)*%
X122460000Y-120560000D03*
%TO.P,J6,31,Pin_31*%
%TO.N,unconnected-(J6-Pin_31-Pad31)*%
X125000000Y-123100000D03*
%TO.P,J6,32,Pin_32*%
%TO.N,unconnected-(J6-Pin_32-Pad32)*%
X122460000Y-123100000D03*
%TO.P,J6,33,Pin_33*%
%TO.N,unconnected-(J6-Pin_33-Pad33)*%
X125000000Y-125640000D03*
%TO.P,J6,34,Pin_34*%
%TO.N,unconnected-(J6-Pin_34-Pad34)*%
X122460000Y-125640000D03*
%TO.P,J6,35,Pin_35*%
%TO.N,unconnected-(J6-Pin_35-Pad35)*%
X125000000Y-128180000D03*
%TO.P,J6,36,Pin_36*%
%TO.N,unconnected-(J6-Pin_36-Pad36)*%
X122460000Y-128180000D03*
%TO.P,J6,37,Pin_37*%
%TO.N,unconnected-(J6-Pin_37-Pad37)*%
X125000000Y-130720000D03*
%TO.P,J6,38,Pin_38*%
%TO.N,unconnected-(J6-Pin_38-Pad38)*%
X122460000Y-130720000D03*
%TD*%
D15*
%TO.P,D8,1,K*%
%TO.N,12V*%
X211000000Y-102700000D03*
D14*
%TO.P,D8,2,A*%
%TO.N,OUT1*%
X211000000Y-90000000D03*
%TD*%
D13*
%TO.P,J7,1,Pin_1*%
%TO.N,IN1*%
X186000000Y-85000000D03*
D12*
%TO.P,J7,2,Pin_2*%
%TO.N,unconnected-(J7-Pin_2-Pad2)*%
X183460000Y-85000000D03*
%TO.P,J7,3,Pin_3*%
%TO.N,IN2*%
X186000000Y-87540000D03*
%TO.P,J7,4,Pin_4*%
%TO.N,unconnected-(J7-Pin_4-Pad4)*%
X183460000Y-87540000D03*
%TO.P,J7,5,Pin_5*%
%TO.N,GUMB*%
X186000000Y-90080000D03*
%TO.P,J7,6,Pin_6*%
%TO.N,unconnected-(J7-Pin_6-Pad6)*%
X183460000Y-90080000D03*
%TO.P,J7,7,Pin_7*%
%TO.N,unconnected-(J7-Pin_7-Pad7)*%
X186000000Y-92620000D03*
%TO.P,J7,8,Pin_8*%
%TO.N,unconnected-(J7-Pin_8-Pad8)*%
X183460000Y-92620000D03*
%TO.P,J7,9,Pin_9*%
%TO.N,unconnected-(J7-Pin_9-Pad9)*%
X186000000Y-95160000D03*
%TO.P,J7,10,Pin_10*%
%TO.N,unconnected-(J7-Pin_10-Pad10)*%
X183460000Y-95160000D03*
%TO.P,J7,11,Pin_11*%
%TO.N,unconnected-(J7-Pin_11-Pad11)*%
X186000000Y-97700000D03*
%TO.P,J7,12,Pin_12*%
%TO.N,unconnected-(J7-Pin_12-Pad12)*%
X183460000Y-97700000D03*
%TO.P,J7,13,Pin_13*%
%TO.N,unconnected-(J7-Pin_13-Pad13)*%
X186000000Y-100240000D03*
%TO.P,J7,14,Pin_14*%
%TO.N,unconnected-(J7-Pin_14-Pad14)*%
X183460000Y-100240000D03*
%TO.P,J7,15,Pin_15*%
%TO.N,unconnected-(J7-Pin_15-Pad15)*%
X186000000Y-102780000D03*
%TO.P,J7,16,Pin_16*%
%TO.N,unconnected-(J7-Pin_16-Pad16)*%
X183460000Y-102780000D03*
%TO.P,J7,17,Pin_17*%
%TO.N,unconnected-(J7-Pin_17-Pad17)*%
X186000000Y-105320000D03*
%TO.P,J7,18,Pin_18*%
%TO.N,SCL*%
X183460000Y-105320000D03*
%TO.P,J7,19,Pin_19*%
%TO.N,unconnected-(J7-Pin_19-Pad19)*%
X186000000Y-107860000D03*
%TO.P,J7,20,Pin_20*%
%TO.N,unconnected-(J7-Pin_20-Pad20)*%
X183460000Y-107860000D03*
%TO.P,J7,21,Pin_21*%
%TO.N,unconnected-(J7-Pin_21-Pad21)*%
X186000000Y-110400000D03*
%TO.P,J7,22,Pin_22*%
%TO.N,RX*%
X183460000Y-110400000D03*
%TO.P,J7,23,Pin_23*%
%TO.N,unconnected-(J7-Pin_23-Pad23)*%
X186000000Y-112940000D03*
%TO.P,J7,24,Pin_24*%
%TO.N,unconnected-(J7-Pin_24-Pad24)*%
X183460000Y-112940000D03*
%TO.P,J7,25,Pin_25*%
%TO.N,unconnected-(J7-Pin_25-Pad25)*%
X186000000Y-115480000D03*
%TO.P,J7,26,Pin_26*%
%TO.N,unconnected-(J7-Pin_26-Pad26)*%
X183460000Y-115480000D03*
%TO.P,J7,27,Pin_27*%
%TO.N,unconnected-(J7-Pin_27-Pad27)*%
X186000000Y-118020000D03*
%TO.P,J7,28,Pin_28*%
%TO.N,unconnected-(J7-Pin_28-Pad28)*%
X183460000Y-118020000D03*
%TO.P,J7,29,Pin_29*%
%TO.N,unconnected-(J7-Pin_29-Pad29)*%
X186000000Y-120560000D03*
%TO.P,J7,30,Pin_30*%
%TO.N,unconnected-(J7-Pin_30-Pad30)*%
X183460000Y-120560000D03*
%TO.P,J7,31,Pin_31*%
%TO.N,unconnected-(J7-Pin_31-Pad31)*%
X186000000Y-123100000D03*
%TO.P,J7,32,Pin_32*%
%TO.N,unconnected-(J7-Pin_32-Pad32)*%
X183460000Y-123100000D03*
%TO.P,J7,33,Pin_33*%
%TO.N,unconnected-(J7-Pin_33-Pad33)*%
X186000000Y-125640000D03*
%TO.P,J7,34,Pin_34*%
%TO.N,TX*%
X183460000Y-125640000D03*
%TO.P,J7,35,Pin_35*%
%TO.N,unconnected-(J7-Pin_35-Pad35)*%
X186000000Y-128180000D03*
%TO.P,J7,36,Pin_36*%
%TO.N,unconnected-(J7-Pin_36-Pad36)*%
X183460000Y-128180000D03*
%TO.P,J7,37,Pin_37*%
%TO.N,unconnected-(J7-Pin_37-Pad37)*%
X186000000Y-130720000D03*
%TO.P,J7,38,Pin_38*%
%TO.N,unconnected-(J7-Pin_38-Pad38)*%
X183460000Y-130720000D03*
%TD*%
D20*
%TO.P,C2,1*%
%TO.N,Vss*%
X199000000Y-112500000D03*
D18*
%TO.P,C2,2*%
%TO.N,GND*%
X201000000Y-112500000D03*
%TD*%
D15*
%TO.P,D9,1,K*%
%TO.N,12V*%
X190750000Y-102700000D03*
D14*
%TO.P,D9,2,A*%
%TO.N,OUT2*%
X190750000Y-90000000D03*
%TD*%
D21*
%TO.P,U2,1,SENSE_A*%
%TO.N,GND*%
X198942500Y-90110000D03*
D22*
%TO.P,U2,2,OUT1*%
%TO.N,OUT1*%
X204022500Y-91380000D03*
%TO.P,U2,3,OUT2*%
%TO.N,OUT2*%
X198942500Y-92650000D03*
%TO.P,U2,4,Vs*%
%TO.N,12V*%
X204022500Y-93920000D03*
%TO.P,U2,5,IN1*%
%TO.N,IN1*%
X198942500Y-95190000D03*
%TO.P,U2,6,EnA*%
%TO.N,Vss*%
X204022500Y-96460000D03*
%TO.P,U2,7,IN2*%
%TO.N,IN2*%
X198942500Y-97730000D03*
%TO.P,U2,8,GND*%
%TO.N,GND*%
X204022500Y-99000000D03*
%TO.P,U2,9,Vss*%
%TO.N,Vss*%
X198942500Y-100270000D03*
%TO.P,U2,10,IN3*%
%TO.N,unconnected-(U2-IN3-Pad10)*%
X204022500Y-101540000D03*
%TO.P,U2,11,EnB*%
%TO.N,unconnected-(U2-EnB-Pad11)*%
X198942500Y-102810000D03*
%TO.P,U2,12,IN4*%
%TO.N,unconnected-(U2-IN4-Pad12)*%
X204022500Y-104080000D03*
%TO.P,U2,13,OUT3*%
%TO.N,unconnected-(U2-OUT3-Pad13)*%
X198942500Y-105350000D03*
%TO.P,U2,14,OUT4*%
%TO.N,unconnected-(U2-OUT4-Pad14)*%
X204022500Y-106620000D03*
%TO.P,U2,15,SENSE_B*%
%TO.N,GND*%
X198942500Y-107890000D03*
%TD*%
D23*
%TO.P,U1,1,VI*%
%TO.N,Net-(JP1-B)*%
X201500000Y-117050000D03*
D24*
%TO.P,U1,2,GND*%
%TO.N,GND*%
X198960000Y-117050000D03*
%TO.P,U1,3,VO*%
%TO.N,Vss*%
X196420000Y-117050000D03*
%TD*%
D13*
%TO.P,JP1,1,A*%
%TO.N,12V*%
X210000000Y-112750000D03*
D12*
%TO.P,JP1,2,B*%
%TO.N,Net-(JP1-B)*%
X207460000Y-112750000D03*
%TD*%
%TO.P,J8,6,Pin_6*%
%TO.N,unconnected-(J8-Pin_6-Pad6)*%
X207700000Y-124000000D03*
%TO.P,J8,5,Pin_5*%
%TO.N,RX*%
X205160000Y-124000000D03*
%TO.P,J8,4,Pin_4*%
%TO.N,TX*%
X202620000Y-124000000D03*
%TO.P,J8,3,Pin_3*%
%TO.N,GND*%
X200080000Y-124000000D03*
%TO.P,J8,2,Pin_2*%
%TO.N,5V*%
X197540000Y-124000000D03*
D13*
%TO.P,J8,1,Pin_1*%
%TO.N,unconnected-(J8-Pin_1-Pad1)*%
X195000000Y-124000000D03*
%TD*%
D25*
%TO.N,Vss*%
X196965880Y-107325000D03*
X196913572Y-109836428D03*
%TD*%
D26*
%TO.N,Vss*%
X196913572Y-109836428D02*
X196913572Y-107377308D01*
X196913572Y-107377308D02*
X196965880Y-107325000D01*
%TD*%
%TA.AperFunction,Conductor*%
%TO.N,GND*%
G36*
X124534075Y-108052993D02*
G01*
X124599901Y-108167007D01*
X124692993Y-108260099D01*
X124807007Y-108325925D01*
X124870590Y-108342962D01*
X124238282Y-108975269D01*
X124238282Y-108975270D01*
X124292452Y-109014626D01*
X124292451Y-109014626D01*
X124301495Y-109019234D01*
X124352292Y-109067208D01*
X124369087Y-109135029D01*
X124346550Y-109201164D01*
X124301499Y-109240202D01*
X124292182Y-109244949D01*
X124120213Y-109369890D01*
X123969890Y-109520213D01*
X123844949Y-109692182D01*
X123840484Y-109700946D01*
X123792509Y-109751742D01*
X123724688Y-109768536D01*
X123658553Y-109745998D01*
X123619516Y-109700946D01*
X123615050Y-109692182D01*
X123490109Y-109520213D01*
X123339786Y-109369890D01*
X123167820Y-109244951D01*
X123167115Y-109244591D01*
X123159054Y-109240485D01*
X123108259Y-109192512D01*
X123091463Y-109124692D01*
X123113999Y-109058556D01*
X123159054Y-109019515D01*
X123167816Y-109015051D01*
X123197718Y-108993326D01*
X123339786Y-108890109D01*
X123339788Y-108890106D01*
X123339792Y-108890104D01*
X123490104Y-108739792D01*
X123490106Y-108739788D01*
X123490109Y-108739786D01*
X123574899Y-108623081D01*
X123615051Y-108567816D01*
X123619793Y-108558508D01*
X123667763Y-108507711D01*
X123735583Y-108490911D01*
X123801719Y-108513445D01*
X123840763Y-108558500D01*
X123845373Y-108567547D01*
X123884728Y-108621716D01*
X124517037Y-107989408D01*
X124534075Y-108052993D01*
G37*
%TD.AperFunction*%
%TA.AperFunction,Conductor*%
G36*
X123801444Y-105973999D02*
G01*
X123840486Y-106019056D01*
X123844951Y-106027820D01*
X123969890Y-106199786D01*
X124120213Y-106350109D01*
X124292179Y-106475048D01*
X124292181Y-106475049D01*
X124292184Y-106475051D01*
X124301493Y-106479794D01*
X124352290Y-106527766D01*
X124369087Y-106595587D01*
X124346552Y-106661722D01*
X124301505Y-106700760D01*
X124292446Y-106705376D01*
X124292440Y-106705380D01*
X124238282Y-106744727D01*
X124238282Y-106744728D01*
X124870591Y-107377037D01*
X124807007Y-107394075D01*
X124692993Y-107459901D01*
X124599901Y-107552993D01*
X124534075Y-107667007D01*
X124517037Y-107730591D01*
X123884728Y-107098282D01*
X123884727Y-107098282D01*
X123845380Y-107152440D01*
X123845376Y-107152446D01*
X123840760Y-107161505D01*
X123792781Y-107212297D01*
X123724959Y-107229087D01*
X123658826Y-107206543D01*
X123619794Y-107161493D01*
X123615051Y-107152184D01*
X123615049Y-107152181D01*
X123615048Y-107152179D01*
X123490109Y-106980213D01*
X123339786Y-106829890D01*
X123167820Y-106704951D01*
X123159600Y-106700763D01*
X123159054Y-106700485D01*
X123108259Y-106652512D01*
X123091463Y-106584692D01*
X123113999Y-106518556D01*
X123159054Y-106479515D01*
X123167816Y-106475051D01*
X123189789Y-106459086D01*
X123339786Y-106350109D01*
X123339788Y-106350106D01*
X123339792Y-106350104D01*
X123490104Y-106199792D01*
X123490106Y-106199788D01*
X123490109Y-106199786D01*
X123615048Y-106027820D01*
X123615047Y-106027820D01*
X123615051Y-106027816D01*
X123619514Y-106019054D01*
X123667488Y-105968259D01*
X123735308Y-105951463D01*
X123801444Y-105973999D01*
G37*
%TD.AperFunction*%
%TA.AperFunction,Conductor*%
G36*
X210381924Y-79250670D02*
G01*
X210659995Y-79265241D01*
X210667355Y-79265848D01*
X210727107Y-79272580D01*
X210732546Y-79273317D01*
X210976818Y-79312004D01*
X210984950Y-79313574D01*
X211037707Y-79325615D01*
X211042191Y-79326728D01*
X211098853Y-79341910D01*
X211287707Y-79392511D01*
X211296529Y-79395232D01*
X211336223Y-79409122D01*
X211339683Y-79410391D01*
X211588835Y-79506030D01*
X211598145Y-79510050D01*
X211615406Y-79518362D01*
X211617734Y-79519515D01*
X211872650Y-79649400D01*
X211883885Y-79655888D01*
X212136305Y-79819810D01*
X212146805Y-79827439D01*
X212380696Y-80016839D01*
X212390342Y-80025523D01*
X212603163Y-80238342D01*
X212611848Y-80247988D01*
X212801251Y-80481880D01*
X212808880Y-80492380D01*
X212972800Y-80744793D01*
X212979290Y-80756034D01*
X213109141Y-81010882D01*
X213110377Y-81013378D01*
X213118624Y-81030504D01*
X213122667Y-81039865D01*
X213218290Y-81288969D01*
X213219567Y-81292452D01*
X213233454Y-81332138D01*
X213236188Y-81340999D01*
X213301966Y-81586485D01*
X213303082Y-81590985D01*
X213315113Y-81643694D01*
X213316695Y-81651890D01*
X213355374Y-81896099D01*
X213356121Y-81901613D01*
X213362847Y-81961305D01*
X213363457Y-81968699D01*
X213378010Y-82246387D01*
X213378180Y-82252877D01*
X213378180Y-129746753D01*
X213378010Y-129753243D01*
X213363401Y-130031968D01*
X213362791Y-130039361D01*
X213356241Y-130097497D01*
X213355494Y-130103012D01*
X213316583Y-130348688D01*
X213315001Y-130356882D01*
X213303339Y-130407977D01*
X213302223Y-130412479D01*
X213236027Y-130659523D01*
X213233294Y-130668384D01*
X213220041Y-130706259D01*
X213218763Y-130709742D01*
X213122473Y-130960583D01*
X213118431Y-130969943D01*
X213111166Y-130985030D01*
X213109929Y-130987526D01*
X212979273Y-131243955D01*
X212972783Y-131255197D01*
X212808867Y-131507604D01*
X212801238Y-131518104D01*
X212611833Y-131751998D01*
X212603148Y-131761643D01*
X212390325Y-131974465D01*
X212380689Y-131983141D01*
X212150094Y-132169871D01*
X212146792Y-132172546D01*
X212136292Y-132180174D01*
X211883879Y-132344093D01*
X211872638Y-132350583D01*
X211616230Y-132481226D01*
X211613738Y-132482461D01*
X211598619Y-132489742D01*
X211589254Y-132493786D01*
X211338467Y-132590052D01*
X211334985Y-132591330D01*
X211297050Y-132604604D01*
X211288188Y-132607337D01*
X211041162Y-132673527D01*
X211036661Y-132674643D01*
X210985579Y-132686302D01*
X210977384Y-132687885D01*
X210731674Y-132726799D01*
X210726159Y-132727545D01*
X210668039Y-132734093D01*
X210660647Y-132734703D01*
X210466263Y-132744890D01*
X210458598Y-132745292D01*
X210452110Y-132745462D01*
X115426199Y-132745462D01*
X115419709Y-132745292D01*
X115415775Y-132745085D01*
X115219816Y-132734814D01*
X115212425Y-132734204D01*
X115150142Y-132727187D01*
X115144626Y-132726440D01*
X114902872Y-132688150D01*
X114894679Y-132686569D01*
X114866044Y-132680033D01*
X114839245Y-132673917D01*
X114834766Y-132672806D01*
X114591860Y-132607719D01*
X114582999Y-132604985D01*
X114540369Y-132590068D01*
X114536887Y-132588791D01*
X114290643Y-132494268D01*
X114281277Y-132490223D01*
X114260691Y-132480309D01*
X114258199Y-132479075D01*
X114006036Y-132350591D01*
X113994796Y-132344101D01*
X113742391Y-132180187D01*
X113731890Y-132172558D01*
X113497989Y-131983149D01*
X113488344Y-131974464D01*
X113275535Y-131761655D01*
X113266850Y-131752010D01*
X113077441Y-131518109D01*
X113069812Y-131507608D01*
X112905896Y-131255199D01*
X112899408Y-131243963D01*
X112854105Y-131155051D01*
X112770900Y-130991754D01*
X112769689Y-130989307D01*
X112759775Y-130968721D01*
X112755739Y-130959378D01*
X112661195Y-130713079D01*
X112659930Y-130709629D01*
X112645013Y-130666999D01*
X112642284Y-130658157D01*
X112577179Y-130415181D01*
X112576100Y-130410830D01*
X112563423Y-130355289D01*
X112561848Y-130347126D01*
X112529630Y-130143713D01*
X113899500Y-130143713D01*
X113899500Y-130356286D01*
X113926641Y-130527652D01*
X113932754Y-130566243D01*
X113978755Y-130707820D01*
X113998444Y-130768414D01*
X114094951Y-130957820D01*
X114219890Y-131129786D01*
X114370213Y-131280109D01*
X114542179Y-131405048D01*
X114542181Y-131405049D01*
X114542184Y-131405051D01*
X114731588Y-131501557D01*
X114933757Y-131567246D01*
X115143713Y-131600500D01*
X115143714Y-131600500D01*
X115356286Y-131600500D01*
X115356287Y-131600500D01*
X115566243Y-131567246D01*
X115768412Y-131501557D01*
X115957816Y-131405051D01*
X116032900Y-131350500D01*
X116129786Y-131280109D01*
X116129788Y-131280106D01*
X116129792Y-131280104D01*
X116280104Y-131129792D01*
X116280106Y-131129788D01*
X116280109Y-131129786D01*
X116405048Y-130957820D01*
X116405047Y-130957820D01*
X116405051Y-130957816D01*
X116501557Y-130768412D01*
X116567246Y-130566243D01*
X116600500Y-130356287D01*
X116600500Y-130143713D01*
X116567246Y-129933757D01*
X116501557Y-129731588D01*
X116405051Y-129542184D01*
X116405049Y-129542181D01*
X116405048Y-129542179D01*
X116280109Y-129370213D01*
X116129786Y-129219890D01*
X115957820Y-129094951D01*
X115768414Y-128998444D01*
X115768413Y-128998443D01*
X115768412Y-128998443D01*
X115566243Y-128932754D01*
X115566241Y-128932753D01*
X115566240Y-128932753D01*
X115404957Y-128907208D01*
X115356287Y-128899500D01*
X115143713Y-128899500D01*
X115095042Y-128907208D01*
X114933760Y-128932753D01*
X114731585Y-128998444D01*
X114542179Y-129094951D01*
X114370213Y-129219890D01*
X114219890Y-129370213D01*
X114094951Y-129542179D01*
X113998444Y-129731585D01*
X113932753Y-129933760D01*
X113899500Y-130143713D01*
X112529630Y-130143713D01*
X112523549Y-130105316D01*
X112522811Y-130099856D01*
X112522545Y-130097497D01*
X112515794Y-130037574D01*
X112515184Y-130030181D01*
X112500670Y-129753243D01*
X112500500Y-129746753D01*
X112500500Y-102813713D01*
X113899500Y-102813713D01*
X113899500Y-103026286D01*
X113931173Y-103226265D01*
X113932754Y-103236243D01*
X113983735Y-103393147D01*
X113998444Y-103438414D01*
X114094951Y-103627820D01*
X114219890Y-103799786D01*
X114370213Y-103950109D01*
X114542179Y-104075048D01*
X114542181Y-104075049D01*
X114542184Y-104075051D01*
X114551493Y-104079794D01*
X114602290Y-104127766D01*
X114619087Y-104195587D01*
X114596552Y-104261722D01*
X114551505Y-104300760D01*
X114542446Y-104305376D01*
X114542440Y-104305380D01*
X114488282Y-104344727D01*
X114488282Y-104344728D01*
X115120591Y-104977037D01*
X115057007Y-104994075D01*
X114942993Y-105059901D01*
X114849901Y-105152993D01*
X114784075Y-105267007D01*
X114767037Y-105330591D01*
X114134728Y-104698282D01*
X114134727Y-104698282D01*
X114095380Y-104752439D01*
X113998904Y-104941782D01*
X113933242Y-105143869D01*
X113933242Y-105143872D01*
X113900000Y-105353753D01*
X113900000Y-105566246D01*
X113933242Y-105776127D01*
X113933242Y-105776130D01*
X113998904Y-105978217D01*
X114095375Y-106167550D01*
X114134728Y-106221716D01*
X114767037Y-105589408D01*
X114784075Y-105652993D01*
X114849901Y-105767007D01*
X114942993Y-105860099D01*
X115057007Y-105925925D01*
X115120590Y-105942962D01*
X114488282Y-106575269D01*
X114488282Y-106575270D01*
X114542452Y-106614626D01*
X114542451Y-106614626D01*
X114551495Y-106619234D01*
X114602292Y-106667208D01*
X114619087Y-106735029D01*
X114596550Y-106801164D01*
X114551499Y-106840202D01*
X114542182Y-106844949D01*
X114370213Y-106969890D01*
X114219890Y-107120213D01*
X114094951Y-107292179D01*
X113998444Y-107481585D01*
X113932753Y-107683760D01*
X113899500Y-107893713D01*
X113899500Y-108106286D01*
X113923861Y-108260099D01*
X113932754Y-108316243D01*
X113989507Y-108490911D01*
X113998444Y-108518414D01*
X114094951Y-108707820D01*
X114219890Y-108879786D01*
X114333430Y-108993326D01*
X114366915Y-109054649D01*
X114361931Y-109124341D01*
X114320059Y-109180274D01*
X114289083Y-109197189D01*
X114157669Y-109246203D01*
X114157664Y-109246206D01*
X114042455Y-109332452D01*
X114042452Y-109332455D01*
X113956206Y-109447664D01*
X113956202Y-109447671D01*
X113905908Y-109582517D01*
X113902461Y-109614586D01*
X113899501Y-109642123D01*
X113899500Y-109642135D01*
X113899500Y-111437870D01*
X113899501Y-111437876D01*
X113905908Y-111497483D01*
X113956202Y-111632328D01*
X113956206Y-111632335D01*
X114042452Y-111747544D01*
X114042455Y-111747547D01*
X114157664Y-111833793D01*
X114157671Y-111833797D01*
X114292517Y-111884091D01*
X114292516Y-111884091D01*
X114299444Y-111884835D01*
X114352127Y-111890500D01*
X116147872Y-111890499D01*
X116207483Y-111884091D01*
X116342331Y-111833796D01*
X116457546Y-111747546D01*
X116543796Y-111632331D01*
X116594091Y-111497483D01*
X116600500Y-111437873D01*
X116600499Y-109642128D01*
X116594718Y-109588346D01*
X116594091Y-109582516D01*
X116543797Y-109447671D01*
X116543793Y-109447664D01*
X116457547Y-109332455D01*
X116457544Y-109332452D01*
X116342335Y-109246206D01*
X116342328Y-109246202D01*
X116210917Y-109197189D01*
X116154983Y-109155318D01*
X116130566Y-109089853D01*
X116145418Y-109021580D01*
X116166563Y-108993332D01*
X116280104Y-108879792D01*
X116405051Y-108707816D01*
X116501557Y-108518412D01*
X116567246Y-108316243D01*
X116600500Y-108106287D01*
X116600500Y-107893713D01*
X116567246Y-107683757D01*
X116501557Y-107481588D01*
X116405051Y-107292184D01*
X116405049Y-107292181D01*
X116405048Y-107292179D01*
X116280109Y-107120213D01*
X116129786Y-106969890D01*
X115957817Y-106844949D01*
X115948504Y-106840204D01*
X115897707Y-106792230D01*
X115880912Y-106724409D01*
X115903449Y-106658274D01*
X115948507Y-106619232D01*
X115957555Y-106614622D01*
X116011716Y-106575270D01*
X116011717Y-106575270D01*
X115379408Y-105942962D01*
X115442993Y-105925925D01*
X115557007Y-105860099D01*
X115650099Y-105767007D01*
X115715925Y-105652993D01*
X115732962Y-105589408D01*
X116365270Y-106221717D01*
X116365270Y-106221716D01*
X116404622Y-106167554D01*
X116501095Y-105978217D01*
X116566757Y-105776130D01*
X116566757Y-105776127D01*
X116600000Y-105566246D01*
X116600000Y-105353753D01*
X116566757Y-105143872D01*
X116566757Y-105143869D01*
X116501095Y-104941782D01*
X116404624Y-104752449D01*
X116365270Y-104698282D01*
X116365269Y-104698282D01*
X115732962Y-105330590D01*
X115715925Y-105267007D01*
X115650099Y-105152993D01*
X115557007Y-105059901D01*
X115442993Y-104994075D01*
X115379409Y-104977037D01*
X116011716Y-104344728D01*
X115957547Y-104305373D01*
X115957547Y-104305372D01*
X115948500Y-104300763D01*
X115897706Y-104252788D01*
X115880912Y-104184966D01*
X115903451Y-104118832D01*
X115948508Y-104079793D01*
X115957816Y-104075051D01*
X116103075Y-103969515D01*
X116129786Y-103950109D01*
X116129788Y-103950106D01*
X116129792Y-103950104D01*
X116280104Y-103799792D01*
X116280106Y-103799788D01*
X116280109Y-103799786D01*
X116405048Y-103627820D01*
X116405047Y-103627820D01*
X116405051Y-103627816D01*
X116501557Y-103438412D01*
X116567246Y-103236243D01*
X116600500Y-103026287D01*
X116600500Y-102813713D01*
X116567246Y-102603757D01*
X116501557Y-102401588D01*
X116405051Y-102212184D01*
X116405049Y-102212181D01*
X116405048Y-102212179D01*
X116280109Y-102040213D01*
X116129786Y-101889890D01*
X115957820Y-101764951D01*
X115768414Y-101668444D01*
X115768413Y-101668443D01*
X115768412Y-101668443D01*
X115566243Y-101602754D01*
X115566241Y-101602753D01*
X115566240Y-101602753D01*
X115404957Y-101577208D01*
X115356287Y-101569500D01*
X115143713Y-101569500D01*
X115095042Y-101577208D01*
X114933760Y-101602753D01*
X114933757Y-101602754D01*
X114809472Y-101643137D01*
X114731585Y-101668444D01*
X114542179Y-101764951D01*
X114370213Y-101889890D01*
X114219890Y-102040213D01*
X114094951Y-102212179D01*
X113998444Y-102401585D01*
X113932753Y-102603760D01*
X113899500Y-102813713D01*
X112500500Y-102813713D01*
X112500500Y-84893713D01*
X121109500Y-84893713D01*
X121109500Y-85106287D01*
X121142754Y-85316243D01*
X121202460Y-85499999D01*
X121208444Y-85518414D01*
X121304951Y-85707820D01*
X121429890Y-85879786D01*
X121580213Y-86030109D01*
X121752182Y-86155050D01*
X121760946Y-86159516D01*
X121811742Y-86207491D01*
X121828536Y-86275312D01*
X121805998Y-86341447D01*
X121760946Y-86380484D01*
X121752182Y-86384949D01*
X121580213Y-86509890D01*
X121429890Y-86660213D01*
X121304951Y-86832179D01*
X121208444Y-87021585D01*
X121142753Y-87223760D01*
X121109500Y-87433713D01*
X121109500Y-87646286D01*
X121142753Y-87856239D01*
X121208444Y-88058414D01*
X121304951Y-88247820D01*
X121429890Y-88419786D01*
X121580213Y-88570109D01*
X121752182Y-88695050D01*
X121760946Y-88699516D01*
X121811742Y-88747491D01*
X121828536Y-88815312D01*
X121805998Y-88881447D01*
X121760946Y-88920484D01*
X121752182Y-88924949D01*
X121580213Y-89049890D01*
X121429890Y-89200213D01*
X121304951Y-89372179D01*
X121208444Y-89561585D01*
X121142753Y-89763760D01*
X121109500Y-89973713D01*
X121109500Y-90186286D01*
X121142753Y-90396239D01*
X121208444Y-90598414D01*
X121304951Y-90787820D01*
X121429890Y-90959786D01*
X121580213Y-91110109D01*
X121752182Y-91235050D01*
X121760946Y-91239516D01*
X121811742Y-91287491D01*
X121828536Y-91355312D01*
X121805998Y-91421447D01*
X121760946Y-91460484D01*
X121752182Y-91464949D01*
X121580213Y-91589890D01*
X121429890Y-91740213D01*
X121304951Y-91912179D01*
X121208444Y-92101585D01*
X121142753Y-92303760D01*
X121111539Y-92500839D01*
X121109500Y-92513713D01*
X121109500Y-92726287D01*
X121119534Y-92789644D01*
X121140245Y-92920407D01*
X121142754Y-92936243D01*
X121149459Y-92956880D01*
X121208444Y-93138414D01*
X121304951Y-93327820D01*
X121429890Y-93499786D01*
X121580213Y-93650109D01*
X121752182Y-93775050D01*
X121760946Y-93779516D01*
X121811742Y-93827491D01*
X121828536Y-93895312D01*
X121805998Y-93961447D01*
X121760946Y-94000484D01*
X121752182Y-94004949D01*
X121580213Y-94129890D01*
X121429890Y-94280213D01*
X121304951Y-94452179D01*
X121208444Y-94641585D01*
X121142753Y-94843760D01*
X121111539Y-95040839D01*
X121109500Y-95053713D01*
X121109500Y-95266287D01*
X121119534Y-95329644D01*
X121140245Y-95460407D01*
X121142754Y-95476243D01*
X121149459Y-95496880D01*
X121208444Y-95678414D01*
X121304951Y-95867820D01*
X121429890Y-96039786D01*
X121580213Y-96190109D01*
X121752182Y-96315050D01*
X121760946Y-96319516D01*
X121811742Y-96367491D01*
X121828536Y-96435312D01*
X121805998Y-96501447D01*
X121760946Y-96540484D01*
X121752182Y-96544949D01*
X121580213Y-96669890D01*
X121429890Y-96820213D01*
X121304951Y-96992179D01*
X121208444Y-97181585D01*
X121142753Y-97383760D01*
X121111539Y-97580839D01*
X121109500Y-97593713D01*
X121109500Y-97806287D01*
X121142754Y-98016243D01*
X121149459Y-98036880D01*
X121208444Y-98218414D01*
X121304951Y-98407820D01*
X121429890Y-98579786D01*
X121580213Y-98730109D01*
X121752182Y-98855050D01*
X121760946Y-98859516D01*
X121811742Y-98907491D01*
X121828536Y-98975312D01*
X121805998Y-99041447D01*
X121760946Y-99080484D01*
X121752182Y-99084949D01*
X121580213Y-99209890D01*
X121429890Y-99360213D01*
X121304951Y-99532179D01*
X121208444Y-99721585D01*
X121142753Y-99923760D01*
X121109500Y-100133713D01*
X121109500Y-100346286D01*
X121140245Y-100540407D01*
X121142754Y-100556243D01*
X121149459Y-100576880D01*
X121208444Y-100758414D01*
X121304951Y-100947820D01*
X121429890Y-101119786D01*
X121580213Y-101270109D01*
X121752182Y-101395050D01*
X121760946Y-101399516D01*
X121811742Y-101447491D01*
X121828536Y-101515312D01*
X121805998Y-101581447D01*
X121760946Y-101620484D01*
X121752182Y-101624949D01*
X121580213Y-101749890D01*
X121429890Y-101900213D01*
X121304951Y-102072179D01*
X121208444Y-102261585D01*
X121142753Y-102463760D01*
X121116805Y-102627591D01*
X121109500Y-102673713D01*
X121109500Y-102886287D01*
X121119534Y-102949644D01*
X121140245Y-103080407D01*
X121142754Y-103096243D01*
X121180534Y-103212518D01*
X121208444Y-103298414D01*
X121304951Y-103487820D01*
X121429890Y-103659786D01*
X121580213Y-103810109D01*
X121752182Y-103935050D01*
X121760946Y-103939516D01*
X121811742Y-103987491D01*
X121828536Y-104055312D01*
X121805998Y-104121447D01*
X121760946Y-104160484D01*
X121752182Y-104164949D01*
X121580213Y-104289890D01*
X121429890Y-104440213D01*
X121304951Y-104612179D01*
X121208444Y-104801585D01*
X121142753Y-105003760D01*
X121120562Y-105143869D01*
X121109500Y-105213713D01*
X121109500Y-105426287D01*
X121119534Y-105489644D01*
X121140245Y-105620407D01*
X121142754Y-105636243D01*
X121188206Y-105776130D01*
X121208444Y-105838414D01*
X121304951Y-106027820D01*
X121429890Y-106199786D01*
X121580213Y-106350109D01*
X121752182Y-106475050D01*
X121760946Y-106479516D01*
X121811742Y-106527491D01*
X121828536Y-106595312D01*
X121805998Y-106661447D01*
X121760946Y-106700484D01*
X121752182Y-106704949D01*
X121580213Y-106829890D01*
X121429890Y-106980213D01*
X121304951Y-107152179D01*
X121208444Y-107341585D01*
X121142753Y-107543760D01*
X121113594Y-107727863D01*
X121109500Y-107753713D01*
X121109500Y-107966287D01*
X121119534Y-108029644D01*
X121142735Y-108176127D01*
X121142754Y-108176243D01*
X121164624Y-108243553D01*
X121208444Y-108378414D01*
X121304951Y-108567820D01*
X121429890Y-108739786D01*
X121580213Y-108890109D01*
X121752182Y-109015050D01*
X121760946Y-109019516D01*
X121811742Y-109067491D01*
X121828536Y-109135312D01*
X121805998Y-109201447D01*
X121760946Y-109240484D01*
X121752182Y-109244949D01*
X121580213Y-109369890D01*
X121429890Y-109520213D01*
X121304951Y-109692179D01*
X121208444Y-109881585D01*
X121142753Y-110083760D01*
X121109500Y-110293713D01*
X121109500Y-110506286D01*
X121142753Y-110716239D01*
X121208444Y-110918414D01*
X121304951Y-111107820D01*
X121429890Y-111279786D01*
X121580213Y-111430109D01*
X121752182Y-111555050D01*
X121760946Y-111559516D01*
X121811742Y-111607491D01*
X121828536Y-111675312D01*
X121805998Y-111741447D01*
X121760946Y-111780484D01*
X121752182Y-111784949D01*
X121580213Y-111909890D01*
X121429890Y-112060213D01*
X121304951Y-112232179D01*
X121208444Y-112421585D01*
X121142753Y-112623760D01*
X121109500Y-112833713D01*
X121109500Y-113046286D01*
X121137951Y-113225922D01*
X121142754Y-113256243D01*
X121208249Y-113457816D01*
X121208444Y-113458414D01*
X121304951Y-113647820D01*
X121429890Y-113819786D01*
X121580213Y-113970109D01*
X121752182Y-114095050D01*
X121760946Y-114099516D01*
X121811742Y-114147491D01*
X121828536Y-114215312D01*
X121805998Y-114281447D01*
X121760946Y-114320484D01*
X121752182Y-114324949D01*
X121580213Y-114449890D01*
X121429890Y-114600213D01*
X121304951Y-114772179D01*
X121208444Y-114961585D01*
X121142753Y-115163760D01*
X121109500Y-115373713D01*
X121109500Y-115586287D01*
X121142754Y-115796243D01*
X121190281Y-115942516D01*
X121208444Y-115998414D01*
X121304951Y-116187820D01*
X121429890Y-116359786D01*
X121580213Y-116510109D01*
X121752182Y-116635050D01*
X121760946Y-116639516D01*
X121811742Y-116687491D01*
X121828536Y-116755312D01*
X121805998Y-116821447D01*
X121760946Y-116860484D01*
X121752182Y-116864949D01*
X121580213Y-116989890D01*
X121429890Y-117140213D01*
X121304951Y-117312179D01*
X121208444Y-117501585D01*
X121142753Y-117703760D01*
X121109500Y-117913713D01*
X121109500Y-118126286D01*
X121139580Y-118316207D01*
X121142754Y-118336243D01*
X121205225Y-118528509D01*
X121208444Y-118538414D01*
X121304951Y-118727820D01*
X121429890Y-118899786D01*
X121580213Y-119050109D01*
X121752182Y-119175050D01*
X121760946Y-119179516D01*
X121811742Y-119227491D01*
X121828536Y-119295312D01*
X121805998Y-119361447D01*
X121760946Y-119400484D01*
X121752182Y-119404949D01*
X121580213Y-119529890D01*
X121429890Y-119680213D01*
X121304951Y-119852179D01*
X121208444Y-120041585D01*
X121142753Y-120243760D01*
X121109500Y-120453713D01*
X121109500Y-120666286D01*
X121142753Y-120876239D01*
X121208444Y-121078414D01*
X121304951Y-121267820D01*
X121429890Y-121439786D01*
X121580213Y-121590109D01*
X121752182Y-121715050D01*
X121760946Y-121719516D01*
X121811742Y-121767491D01*
X121828536Y-121835312D01*
X121805998Y-121901447D01*
X121760946Y-121940484D01*
X121752182Y-121944949D01*
X121580213Y-122069890D01*
X121429890Y-122220213D01*
X121304951Y-122392179D01*
X121208444Y-122581585D01*
X121142753Y-122783760D01*
X121109500Y-122993713D01*
X121109500Y-123206286D01*
X121131714Y-123346543D01*
X121142754Y-123416243D01*
X121202428Y-123599901D01*
X121208444Y-123618414D01*
X121304951Y-123807820D01*
X121429890Y-123979786D01*
X121580213Y-124130109D01*
X121752182Y-124255050D01*
X121760946Y-124259516D01*
X121811742Y-124307491D01*
X121828536Y-124375312D01*
X121805998Y-124441447D01*
X121760946Y-124480484D01*
X121752182Y-124484949D01*
X121580213Y-124609890D01*
X121429890Y-124760213D01*
X121304951Y-124932179D01*
X121208444Y-125121585D01*
X121142753Y-125323760D01*
X121109500Y-125533713D01*
X121109500Y-125746286D01*
X121142753Y-125956239D01*
X121208444Y-126158414D01*
X121304951Y-126347820D01*
X121429890Y-126519786D01*
X121580213Y-126670109D01*
X121752182Y-126795050D01*
X121760946Y-126799516D01*
X121811742Y-126847491D01*
X121828536Y-126915312D01*
X121805998Y-126981447D01*
X121760946Y-127020484D01*
X121752182Y-127024949D01*
X121580213Y-127149890D01*
X121429890Y-127300213D01*
X121304951Y-127472179D01*
X121208444Y-127661585D01*
X121142753Y-127863760D01*
X121110053Y-128070221D01*
X121109500Y-128073713D01*
X121109500Y-128286287D01*
X121142754Y-128496243D01*
X121203355Y-128682754D01*
X121208444Y-128698414D01*
X121304951Y-128887820D01*
X121429890Y-129059786D01*
X121580213Y-129210109D01*
X121752182Y-129335050D01*
X121760946Y-129339516D01*
X121811742Y-129387491D01*
X121828536Y-129455312D01*
X121805998Y-129521447D01*
X121760946Y-129560484D01*
X121752182Y-129564949D01*
X121580213Y-129689890D01*
X121429890Y-129840213D01*
X121304951Y-130012179D01*
X121208444Y-130201585D01*
X121142753Y-130403760D01*
X121109500Y-130613713D01*
X121109500Y-130826286D01*
X121141781Y-131030104D01*
X121142754Y-131036243D01*
X121181357Y-131155051D01*
X121208444Y-131238414D01*
X121304951Y-131427820D01*
X121429890Y-131599786D01*
X121580213Y-131750109D01*
X121752179Y-131875048D01*
X121752181Y-131875049D01*
X121752184Y-131875051D01*
X121941588Y-131971557D01*
X122143757Y-132037246D01*
X122353713Y-132070500D01*
X122353714Y-132070500D01*
X122566286Y-132070500D01*
X122566287Y-132070500D01*
X122776243Y-132037246D01*
X122978412Y-131971557D01*
X123167816Y-131875051D01*
X123189789Y-131859086D01*
X123339786Y-131750109D01*
X123339788Y-131750106D01*
X123339792Y-131750104D01*
X123490104Y-131599792D01*
X123490106Y-131599788D01*
X123490109Y-131599786D01*
X123615048Y-131427820D01*
X123615047Y-131427820D01*
X123615051Y-131427816D01*
X123619514Y-131419054D01*
X123667488Y-131368259D01*
X123735308Y-131351463D01*
X123801444Y-131373999D01*
X123840486Y-131419056D01*
X123844951Y-131427820D01*
X123969890Y-131599786D01*
X124120213Y-131750109D01*
X124292179Y-131875048D01*
X124292181Y-131875049D01*
X124292184Y-131875051D01*
X124481588Y-131971557D01*
X124683757Y-132037246D01*
X124893713Y-132070500D01*
X124893714Y-132070500D01*
X125106286Y-132070500D01*
X125106287Y-132070500D01*
X125316243Y-132037246D01*
X125518412Y-131971557D01*
X125707816Y-131875051D01*
X125729789Y-131859086D01*
X125879786Y-131750109D01*
X125879788Y-131750106D01*
X125879792Y-131750104D01*
X126030104Y-131599792D01*
X126030106Y-131599788D01*
X126030109Y-131599786D01*
X126155048Y-131427820D01*
X126155047Y-131427820D01*
X126155051Y-131427816D01*
X126251557Y-131238412D01*
X126317246Y-131036243D01*
X126350500Y-130826287D01*
X126350500Y-130613713D01*
X126317246Y-130403757D01*
X126251557Y-130201588D01*
X126155051Y-130012184D01*
X126155049Y-130012181D01*
X126155048Y-130012179D01*
X126030109Y-129840213D01*
X125879786Y-129689890D01*
X125707820Y-129564951D01*
X125707115Y-129564591D01*
X125699054Y-129560485D01*
X125648259Y-129512512D01*
X125631463Y-129444692D01*
X125653999Y-129378556D01*
X125699054Y-129339515D01*
X125707816Y-129335051D01*
X125814013Y-129257895D01*
X125879786Y-129210109D01*
X125879788Y-129210106D01*
X125879792Y-129210104D01*
X126030104Y-129059792D01*
X126030106Y-129059788D01*
X126030109Y-129059786D01*
X126155048Y-128887820D01*
X126155047Y-128887820D01*
X126155051Y-128887816D01*
X126251557Y-128698412D01*
X126317246Y-128496243D01*
X126350500Y-128286287D01*
X126350500Y-128073713D01*
X126317246Y-127863757D01*
X126251557Y-127661588D01*
X126155051Y-127472184D01*
X126155049Y-127472181D01*
X126155048Y-127472179D01*
X126030109Y-127300213D01*
X125879786Y-127149890D01*
X125707820Y-127024951D01*
X125707115Y-127024591D01*
X125699054Y-127020485D01*
X125648259Y-126972512D01*
X125631463Y-126904692D01*
X125653999Y-126838556D01*
X125699054Y-126799515D01*
X125707816Y-126795051D01*
X125753050Y-126762187D01*
X125879786Y-126670109D01*
X125879788Y-126670106D01*
X125879792Y-126670104D01*
X126030104Y-126519792D01*
X126030106Y-126519788D01*
X126030109Y-126519786D01*
X126155048Y-126347820D01*
X126155047Y-126347820D01*
X126155051Y-126347816D01*
X126251557Y-126158412D01*
X126317246Y-125956243D01*
X126350500Y-125746287D01*
X126350500Y-125533713D01*
X126317246Y-125323757D01*
X126251557Y-125121588D01*
X126155051Y-124932184D01*
X126155049Y-124932181D01*
X126155048Y-124932179D01*
X126030109Y-124760213D01*
X125879786Y-124609890D01*
X125707820Y-124484951D01*
X125707115Y-124484591D01*
X125699054Y-124480485D01*
X125648259Y-124432512D01*
X125631463Y-124364692D01*
X125653999Y-124298556D01*
X125699054Y-124259515D01*
X125707816Y-124255051D01*
X125793232Y-124192993D01*
X125879786Y-124130109D01*
X125879788Y-124130106D01*
X125879792Y-124130104D01*
X126030104Y-123979792D01*
X126030106Y-123979788D01*
X126030109Y-123979786D01*
X126155048Y-123807820D01*
X126155047Y-123807820D01*
X126155051Y-123807816D01*
X126251557Y-123618412D01*
X126317246Y-123416243D01*
X126350500Y-123206287D01*
X126350500Y-122993713D01*
X126317246Y-122783757D01*
X126251557Y-122581588D01*
X126155051Y-122392184D01*
X126155049Y-122392181D01*
X126155048Y-122392179D01*
X126030109Y-122220213D01*
X125879786Y-122069890D01*
X125707820Y-121944951D01*
X125707115Y-121944591D01*
X125699054Y-121940485D01*
X125648259Y-121892512D01*
X125631463Y-121824692D01*
X125653999Y-121758556D01*
X125699054Y-121719515D01*
X125707816Y-121715051D01*
X125729789Y-121699086D01*
X125879786Y-121590109D01*
X125879788Y-121590106D01*
X125879792Y-121590104D01*
X126030104Y-121439792D01*
X126030106Y-121439788D01*
X126030109Y-121439786D01*
X126155048Y-121267820D01*
X126155047Y-121267820D01*
X126155051Y-121267816D01*
X126251557Y-121078412D01*
X126317246Y-120876243D01*
X126350500Y-120666287D01*
X126350500Y-120453713D01*
X126317246Y-120243757D01*
X126251557Y-120041588D01*
X126155051Y-119852184D01*
X126155049Y-119852181D01*
X126155048Y-119852179D01*
X126030109Y-119680213D01*
X125879786Y-119529890D01*
X125707820Y-119404951D01*
X125707115Y-119404591D01*
X125699054Y-119400485D01*
X125648259Y-119352512D01*
X125631463Y-119284692D01*
X125653999Y-119218556D01*
X125699054Y-119179515D01*
X125707816Y-119175051D01*
X125729789Y-119159086D01*
X125879786Y-119050109D01*
X125879788Y-119050106D01*
X125879792Y-119050104D01*
X126030104Y-118899792D01*
X126030106Y-118899788D01*
X126030109Y-118899786D01*
X126139086Y-118749789D01*
X126155051Y-118727816D01*
X126251557Y-118538412D01*
X126317246Y-118336243D01*
X126350500Y-118126287D01*
X126350500Y-117913713D01*
X126317246Y-117703757D01*
X126251557Y-117501588D01*
X126155051Y-117312184D01*
X126155049Y-117312181D01*
X126155048Y-117312179D01*
X126030109Y-117140213D01*
X125879786Y-116989890D01*
X125707820Y-116864951D01*
X125707115Y-116864591D01*
X125699054Y-116860485D01*
X125648259Y-116812512D01*
X125631463Y-116744692D01*
X125653999Y-116678556D01*
X125699054Y-116639515D01*
X125707816Y-116635051D01*
X125742447Y-116609890D01*
X125879786Y-116510109D01*
X125879788Y-116510106D01*
X125879792Y-116510104D01*
X126030104Y-116359792D01*
X126030106Y-116359788D01*
X126030109Y-116359786D01*
X126155048Y-116187820D01*
X126155047Y-116187820D01*
X126155051Y-116187816D01*
X126251557Y-115998412D01*
X126317246Y-115796243D01*
X126350500Y-115586287D01*
X126350500Y-115373713D01*
X126317246Y-115163757D01*
X126251557Y-114961588D01*
X126155051Y-114772184D01*
X126155049Y-114772181D01*
X126155048Y-114772179D01*
X126030109Y-114600213D01*
X125879786Y-114449890D01*
X125707820Y-114324951D01*
X125707115Y-114324591D01*
X125699054Y-114320485D01*
X125648259Y-114272512D01*
X125631463Y-114204692D01*
X125653999Y-114138556D01*
X125699054Y-114099515D01*
X125707816Y-114095051D01*
X125778367Y-114043793D01*
X125879786Y-113970109D01*
X125879788Y-113970106D01*
X125879792Y-113970104D01*
X126030104Y-113819792D01*
X126030106Y-113819788D01*
X126030109Y-113819786D01*
X126155002Y-113647883D01*
X126155051Y-113647816D01*
X126251557Y-113458412D01*
X126317246Y-113256243D01*
X126350500Y-113046287D01*
X126350500Y-112833713D01*
X126317246Y-112623757D01*
X126251557Y-112421588D01*
X126155051Y-112232184D01*
X126155049Y-112232181D01*
X126155048Y-112232179D01*
X126030109Y-112060213D01*
X125879786Y-111909890D01*
X125707820Y-111784951D01*
X125707115Y-111784591D01*
X125699054Y-111780485D01*
X125648259Y-111732512D01*
X125631463Y-111664692D01*
X125653999Y-111598556D01*
X125699054Y-111559515D01*
X125707816Y-111555051D01*
X125729789Y-111539086D01*
X125879786Y-111430109D01*
X125879788Y-111430106D01*
X125879792Y-111430104D01*
X126030104Y-111279792D01*
X126030106Y-111279788D01*
X126030109Y-111279786D01*
X126155048Y-111107820D01*
X126155047Y-111107820D01*
X126155051Y-111107816D01*
X126251557Y-110918412D01*
X126317246Y-110716243D01*
X126350500Y-110506287D01*
X126350500Y-110293713D01*
X126317246Y-110083757D01*
X126251557Y-109881588D01*
X126155051Y-109692184D01*
X126155049Y-109692181D01*
X126155048Y-109692179D01*
X126030109Y-109520213D01*
X125879786Y-109369890D01*
X125707817Y-109244949D01*
X125698504Y-109240204D01*
X125647707Y-109192230D01*
X125630912Y-109124409D01*
X125653449Y-109058274D01*
X125698507Y-109019232D01*
X125707555Y-109014622D01*
X125761716Y-108975270D01*
X125761717Y-108975270D01*
X125129408Y-108342962D01*
X125192993Y-108325925D01*
X125307007Y-108260099D01*
X125400099Y-108167007D01*
X125465925Y-108052993D01*
X125482962Y-107989408D01*
X126115270Y-108621717D01*
X126115270Y-108621716D01*
X126154622Y-108567554D01*
X126251095Y-108378217D01*
X126316757Y-108176130D01*
X126316757Y-108176127D01*
X126350000Y-107966246D01*
X126350000Y-107753753D01*
X126316757Y-107543872D01*
X126316757Y-107543869D01*
X126251095Y-107341782D01*
X126154624Y-107152449D01*
X126115270Y-107098282D01*
X126115269Y-107098282D01*
X125482962Y-107730590D01*
X125465925Y-107667007D01*
X125400099Y-107552993D01*
X125307007Y-107459901D01*
X125192993Y-107394075D01*
X125129409Y-107377037D01*
X125761716Y-106744728D01*
X125707547Y-106705373D01*
X125707547Y-106705372D01*
X125698500Y-106700763D01*
X125647706Y-106652788D01*
X125630912Y-106584966D01*
X125653451Y-106518832D01*
X125698508Y-106479793D01*
X125707816Y-106475051D01*
X125787007Y-106417515D01*
X125879786Y-106350109D01*
X125879788Y-106350106D01*
X125879792Y-106350104D01*
X126030104Y-106199792D01*
X126030106Y-106199788D01*
X126030109Y-106199786D01*
X126155048Y-106027820D01*
X126155047Y-106027820D01*
X126155051Y-106027816D01*
X126251557Y-105838412D01*
X126317246Y-105636243D01*
X126350500Y-105426287D01*
X126350500Y-105213713D01*
X126317246Y-105003757D01*
X126251557Y-104801588D01*
X126155051Y-104612184D01*
X126155049Y-104612181D01*
X126155048Y-104612179D01*
X126030109Y-104440213D01*
X125879786Y-104289890D01*
X125707820Y-104164951D01*
X125707115Y-104164591D01*
X125699054Y-104160485D01*
X125648259Y-104112512D01*
X125631463Y-104044692D01*
X125653999Y-103978556D01*
X125699054Y-103939515D01*
X125707816Y-103935051D01*
X125780981Y-103881894D01*
X125879786Y-103810109D01*
X125879788Y-103810106D01*
X125879792Y-103810104D01*
X126030104Y-103659792D01*
X126030106Y-103659788D01*
X126030109Y-103659786D01*
X126155048Y-103487820D01*
X126155047Y-103487820D01*
X126155051Y-103487816D01*
X126251557Y-103298412D01*
X126317246Y-103096243D01*
X126350500Y-102886287D01*
X126350500Y-102673713D01*
X126317246Y-102463757D01*
X126251557Y-102261588D01*
X126155051Y-102072184D01*
X126155049Y-102072181D01*
X126155048Y-102072179D01*
X126030109Y-101900213D01*
X125879786Y-101749890D01*
X125707820Y-101624951D01*
X125707115Y-101624591D01*
X125699054Y-101620485D01*
X125648259Y-101572512D01*
X125631463Y-101504692D01*
X125653999Y-101438556D01*
X125699054Y-101399515D01*
X125707816Y-101395051D01*
X125795209Y-101331557D01*
X125879786Y-101270109D01*
X125879788Y-101270106D01*
X125879792Y-101270104D01*
X126030104Y-101119792D01*
X126030106Y-101119788D01*
X126030109Y-101119786D01*
X126155048Y-100947820D01*
X126155047Y-100947820D01*
X126155051Y-100947816D01*
X126251557Y-100758412D01*
X126317246Y-100556243D01*
X126350500Y-100346287D01*
X126350500Y-100133713D01*
X126317246Y-99923757D01*
X126251557Y-99721588D01*
X126155051Y-99532184D01*
X126155049Y-99532181D01*
X126155048Y-99532179D01*
X126030109Y-99360213D01*
X125879786Y-99209890D01*
X125707820Y-99084951D01*
X125707115Y-99084591D01*
X125699054Y-99080485D01*
X125648259Y-99032512D01*
X125631463Y-98964692D01*
X125653999Y-98898556D01*
X125699054Y-98859515D01*
X125707816Y-98855051D01*
X125729789Y-98839086D01*
X125879786Y-98730109D01*
X125879788Y-98730106D01*
X125879792Y-98730104D01*
X126030104Y-98579792D01*
X126030106Y-98579788D01*
X126030109Y-98579786D01*
X126155048Y-98407820D01*
X126155047Y-98407820D01*
X126155051Y-98407816D01*
X126251557Y-98218412D01*
X126317246Y-98016243D01*
X126350500Y-97806287D01*
X126350500Y-97593713D01*
X126317246Y-97383757D01*
X126251557Y-97181588D01*
X126155051Y-96992184D01*
X126155049Y-96992181D01*
X126155048Y-96992179D01*
X126030109Y-96820213D01*
X125879786Y-96669890D01*
X125707820Y-96544951D01*
X125707115Y-96544591D01*
X125699054Y-96540485D01*
X125648259Y-96492512D01*
X125631463Y-96424692D01*
X125653999Y-96358556D01*
X125699054Y-96319515D01*
X125707816Y-96315051D01*
X125729789Y-96299086D01*
X125879786Y-96190109D01*
X125879788Y-96190106D01*
X125879792Y-96190104D01*
X126030104Y-96039792D01*
X126030106Y-96039788D01*
X126030109Y-96039786D01*
X126155048Y-95867820D01*
X126155047Y-95867820D01*
X126155051Y-95867816D01*
X126251557Y-95678412D01*
X126317246Y-95476243D01*
X126350500Y-95266287D01*
X126350500Y-95053713D01*
X126317246Y-94843757D01*
X126251557Y-94641588D01*
X126155051Y-94452184D01*
X126155049Y-94452181D01*
X126155048Y-94452179D01*
X126030109Y-94280213D01*
X125879786Y-94129890D01*
X125707820Y-94004951D01*
X125707115Y-94004591D01*
X125699054Y-94000485D01*
X125648259Y-93952512D01*
X125631463Y-93884692D01*
X125653999Y-93818556D01*
X125699054Y-93779515D01*
X125707816Y-93775051D01*
X125729789Y-93759086D01*
X125879786Y-93650109D01*
X125879788Y-93650106D01*
X125879792Y-93650104D01*
X126030104Y-93499792D01*
X126030106Y-93499788D01*
X126030109Y-93499786D01*
X126155048Y-93327820D01*
X126155047Y-93327820D01*
X126155051Y-93327816D01*
X126251557Y-93138412D01*
X126317246Y-92936243D01*
X126350500Y-92726287D01*
X126350500Y-92513713D01*
X126317246Y-92303757D01*
X126251557Y-92101588D01*
X126155051Y-91912184D01*
X126155049Y-91912181D01*
X126155048Y-91912179D01*
X126030109Y-91740213D01*
X125879786Y-91589890D01*
X125707820Y-91464951D01*
X125707115Y-91464591D01*
X125699054Y-91460485D01*
X125648259Y-91412512D01*
X125631463Y-91344692D01*
X125653999Y-91278556D01*
X125699054Y-91239515D01*
X125707816Y-91235051D01*
X125759257Y-91197677D01*
X125879786Y-91110109D01*
X125879788Y-91110106D01*
X125879792Y-91110104D01*
X126030104Y-90959792D01*
X126030106Y-90959788D01*
X126030109Y-90959786D01*
X126155048Y-90787820D01*
X126155047Y-90787820D01*
X126155051Y-90787816D01*
X126251557Y-90598412D01*
X126317246Y-90396243D01*
X126350500Y-90186287D01*
X126350500Y-89973713D01*
X126317246Y-89763757D01*
X126251557Y-89561588D01*
X126155051Y-89372184D01*
X126155049Y-89372181D01*
X126155048Y-89372179D01*
X126030109Y-89200213D01*
X125879786Y-89049890D01*
X125707820Y-88924951D01*
X125707115Y-88924591D01*
X125699054Y-88920485D01*
X125648259Y-88872512D01*
X125631463Y-88804692D01*
X125653999Y-88738556D01*
X125699054Y-88699515D01*
X125707816Y-88695051D01*
X125795794Y-88631132D01*
X125879786Y-88570109D01*
X125879788Y-88570106D01*
X125879792Y-88570104D01*
X126030104Y-88419792D01*
X126030106Y-88419788D01*
X126030109Y-88419786D01*
X126155048Y-88247820D01*
X126155047Y-88247820D01*
X126155051Y-88247816D01*
X126251557Y-88058412D01*
X126317246Y-87856243D01*
X126350500Y-87646287D01*
X126350500Y-87433713D01*
X126317246Y-87223757D01*
X126251557Y-87021588D01*
X126155051Y-86832184D01*
X126155049Y-86832181D01*
X126155048Y-86832179D01*
X126030109Y-86660213D01*
X125916569Y-86546673D01*
X125883084Y-86485350D01*
X125888068Y-86415658D01*
X125929940Y-86359725D01*
X125960915Y-86342810D01*
X126092331Y-86293796D01*
X126207546Y-86207546D01*
X126293796Y-86092331D01*
X126344091Y-85957483D01*
X126350500Y-85897873D01*
X126350499Y-84893713D01*
X182109500Y-84893713D01*
X182109500Y-85106287D01*
X182142754Y-85316243D01*
X182202460Y-85499999D01*
X182208444Y-85518414D01*
X182304951Y-85707820D01*
X182429890Y-85879786D01*
X182580213Y-86030109D01*
X182752182Y-86155050D01*
X182760946Y-86159516D01*
X182811742Y-86207491D01*
X182828536Y-86275312D01*
X182805998Y-86341447D01*
X182760946Y-86380484D01*
X182752182Y-86384949D01*
X182580213Y-86509890D01*
X182429890Y-86660213D01*
X182304951Y-86832179D01*
X182208444Y-87021585D01*
X182142753Y-87223760D01*
X182109500Y-87433713D01*
X182109500Y-87646286D01*
X182142753Y-87856239D01*
X182208444Y-88058414D01*
X182304951Y-88247820D01*
X182429890Y-88419786D01*
X182580213Y-88570109D01*
X182752182Y-88695050D01*
X182760946Y-88699516D01*
X182811742Y-88747491D01*
X182828536Y-88815312D01*
X182805998Y-88881447D01*
X182760946Y-88920484D01*
X182752182Y-88924949D01*
X182580213Y-89049890D01*
X182429890Y-89200213D01*
X182304951Y-89372179D01*
X182208444Y-89561585D01*
X182142753Y-89763760D01*
X182109500Y-89973713D01*
X182109500Y-90186286D01*
X182142753Y-90396239D01*
X182208444Y-90598414D01*
X182304951Y-90787820D01*
X182429890Y-90959786D01*
X182580213Y-91110109D01*
X182752182Y-91235050D01*
X182760946Y-91239516D01*
X182811742Y-91287491D01*
X182828536Y-91355312D01*
X182805998Y-91421447D01*
X182760946Y-91460484D01*
X182752182Y-91464949D01*
X182580213Y-91589890D01*
X182429890Y-91740213D01*
X182304951Y-91912179D01*
X182208444Y-92101585D01*
X182142753Y-92303760D01*
X182111539Y-92500839D01*
X182109500Y-92513713D01*
X182109500Y-92726287D01*
X182119534Y-92789644D01*
X182140245Y-92920407D01*
X182142754Y-92936243D01*
X182149459Y-92956880D01*
X182208444Y-93138414D01*
X182304951Y-93327820D01*
X182429890Y-93499786D01*
X182580213Y-93650109D01*
X182752182Y-93775050D01*
X182760946Y-93779516D01*
X182811742Y-93827491D01*
X182828536Y-93895312D01*
X182805998Y-93961447D01*
X182760946Y-94000484D01*
X182752182Y-94004949D01*
X182580213Y-94129890D01*
X182429890Y-94280213D01*
X182304951Y-94452179D01*
X182208444Y-94641585D01*
X182142753Y-94843760D01*
X182111539Y-95040839D01*
X182109500Y-95053713D01*
X182109500Y-95266287D01*
X182119534Y-95329644D01*
X182140245Y-95460407D01*
X182142754Y-95476243D01*
X182149459Y-95496880D01*
X182208444Y-95678414D01*
X182304951Y-95867820D01*
X182429890Y-96039786D01*
X182580213Y-96190109D01*
X182752182Y-96315050D01*
X182760946Y-96319516D01*
X182811742Y-96367491D01*
X182828536Y-96435312D01*
X182805998Y-96501447D01*
X182760946Y-96540484D01*
X182752182Y-96544949D01*
X182580213Y-96669890D01*
X182429890Y-96820213D01*
X182304951Y-96992179D01*
X182208444Y-97181585D01*
X182142753Y-97383760D01*
X182111539Y-97580839D01*
X182109500Y-97593713D01*
X182109500Y-97806287D01*
X182142754Y-98016243D01*
X182149459Y-98036880D01*
X182208444Y-98218414D01*
X182304951Y-98407820D01*
X182429890Y-98579786D01*
X182580213Y-98730109D01*
X182752182Y-98855050D01*
X182760946Y-98859516D01*
X182811742Y-98907491D01*
X182828536Y-98975312D01*
X182805998Y-99041447D01*
X182760946Y-99080484D01*
X182752182Y-99084949D01*
X182580213Y-99209890D01*
X182429890Y-99360213D01*
X182304951Y-99532179D01*
X182208444Y-99721585D01*
X182142753Y-99923760D01*
X182109500Y-100133713D01*
X182109500Y-100346286D01*
X182140245Y-100540407D01*
X182142754Y-100556243D01*
X182149459Y-100576880D01*
X182208444Y-100758414D01*
X182304951Y-100947820D01*
X182429890Y-101119786D01*
X182580213Y-101270109D01*
X182752182Y-101395050D01*
X182760946Y-101399516D01*
X182811742Y-101447491D01*
X182828536Y-101515312D01*
X182805998Y-101581447D01*
X182760946Y-101620484D01*
X182752182Y-101624949D01*
X182580213Y-101749890D01*
X182429890Y-101900213D01*
X182304951Y-102072179D01*
X182208444Y-102261585D01*
X182142753Y-102463760D01*
X182116805Y-102627591D01*
X182109500Y-102673713D01*
X182109500Y-102886287D01*
X182119534Y-102949644D01*
X182140245Y-103080407D01*
X182142754Y-103096243D01*
X182180534Y-103212518D01*
X182208444Y-103298414D01*
X182304951Y-103487820D01*
X182429890Y-103659786D01*
X182580213Y-103810109D01*
X182752182Y-103935050D01*
X182760946Y-103939516D01*
X182811742Y-103987491D01*
X182828536Y-104055312D01*
X182805998Y-104121447D01*
X182760946Y-104160484D01*
X182752182Y-104164949D01*
X182580213Y-104289890D01*
X182429890Y-104440213D01*
X182304951Y-104612179D01*
X182208444Y-104801585D01*
X182142753Y-105003760D01*
X182120562Y-105143869D01*
X182109500Y-105213713D01*
X182109500Y-105426287D01*
X182119534Y-105489644D01*
X182140245Y-105620407D01*
X182142754Y-105636243D01*
X182188206Y-105776130D01*
X182208444Y-105838414D01*
X182304951Y-106027820D01*
X182429890Y-106199786D01*
X182580213Y-106350109D01*
X182752182Y-106475050D01*
X182760946Y-106479516D01*
X182811742Y-106527491D01*
X182828536Y-106595312D01*
X182805998Y-106661447D01*
X182760946Y-106700484D01*
X182752182Y-106704949D01*
X182580213Y-106829890D01*
X182429890Y-106980213D01*
X182304951Y-107152179D01*
X182208444Y-107341585D01*
X182142753Y-107543760D01*
X182113594Y-107727863D01*
X182109500Y-107753713D01*
X182109500Y-107966287D01*
X182119534Y-108029644D01*
X182142735Y-108176127D01*
X182142754Y-108176243D01*
X182164624Y-108243553D01*
X182208444Y-108378414D01*
X182304951Y-108567820D01*
X182429890Y-108739786D01*
X182580213Y-108890109D01*
X182752182Y-109015050D01*
X182760946Y-109019516D01*
X182811742Y-109067491D01*
X182828536Y-109135312D01*
X182805998Y-109201447D01*
X182760946Y-109240484D01*
X182752182Y-109244949D01*
X182580213Y-109369890D01*
X182429890Y-109520213D01*
X182304951Y-109692179D01*
X182208444Y-109881585D01*
X182142753Y-110083760D01*
X182109500Y-110293713D01*
X182109500Y-110506286D01*
X182142753Y-110716239D01*
X182208444Y-110918414D01*
X182304951Y-111107820D01*
X182429890Y-111279786D01*
X182580213Y-111430109D01*
X182752182Y-111555050D01*
X182760946Y-111559516D01*
X182811742Y-111607491D01*
X182828536Y-111675312D01*
X182805998Y-111741447D01*
X182760946Y-111780484D01*
X182752182Y-111784949D01*
X182580213Y-111909890D01*
X182429890Y-112060213D01*
X182304951Y-112232179D01*
X182208444Y-112421585D01*
X182142753Y-112623760D01*
X182109500Y-112833713D01*
X182109500Y-113046286D01*
X182137951Y-113225922D01*
X182142754Y-113256243D01*
X182208249Y-113457816D01*
X182208444Y-113458414D01*
X182304951Y-113647820D01*
X182429890Y-113819786D01*
X182580213Y-113970109D01*
X182752182Y-114095050D01*
X182760946Y-114099516D01*
X182811742Y-114147491D01*
X182828536Y-114215312D01*
X182805998Y-114281447D01*
X182760946Y-114320484D01*
X182752182Y-114324949D01*
X182580213Y-114449890D01*
X182429890Y-114600213D01*
X182304951Y-114772179D01*
X182208444Y-114961585D01*
X182142753Y-115163760D01*
X182109500Y-115373713D01*
X182109500Y-115586287D01*
X182142754Y-115796243D01*
X182190281Y-115942516D01*
X182208444Y-115998414D01*
X182304951Y-116187820D01*
X182429890Y-116359786D01*
X182580213Y-116510109D01*
X182752182Y-116635050D01*
X182760946Y-116639516D01*
X182811742Y-116687491D01*
X182828536Y-116755312D01*
X182805998Y-116821447D01*
X182760946Y-116860484D01*
X182752182Y-116864949D01*
X182580213Y-116989890D01*
X182429890Y-117140213D01*
X182304951Y-117312179D01*
X182208444Y-117501585D01*
X182142753Y-117703760D01*
X182109500Y-117913713D01*
X182109500Y-118126286D01*
X182139580Y-118316207D01*
X182142754Y-118336243D01*
X182205225Y-118528509D01*
X182208444Y-118538414D01*
X182304951Y-118727820D01*
X182429890Y-118899786D01*
X182580213Y-119050109D01*
X182752182Y-119175050D01*
X182760946Y-119179516D01*
X182811742Y-119227491D01*
X182828536Y-119295312D01*
X182805998Y-119361447D01*
X182760946Y-119400484D01*
X182752182Y-119404949D01*
X182580213Y-119529890D01*
X182429890Y-119680213D01*
X182304951Y-119852179D01*
X182208444Y-120041585D01*
X182142753Y-120243760D01*
X182109500Y-120453713D01*
X182109500Y-120666286D01*
X182142753Y-120876239D01*
X182208444Y-121078414D01*
X182304951Y-121267820D01*
X182429890Y-121439786D01*
X182580213Y-121590109D01*
X182752182Y-121715050D01*
X182760946Y-121719516D01*
X182811742Y-121767491D01*
X182828536Y-121835312D01*
X182805998Y-121901447D01*
X182760946Y-121940484D01*
X182752182Y-121944949D01*
X182580213Y-122069890D01*
X182429890Y-122220213D01*
X182304951Y-122392179D01*
X182208444Y-122581585D01*
X182142753Y-122783760D01*
X182109500Y-122993713D01*
X182109500Y-123206286D01*
X182131714Y-123346543D01*
X182142754Y-123416243D01*
X182202428Y-123599901D01*
X182208444Y-123618414D01*
X182304951Y-123807820D01*
X182429890Y-123979786D01*
X182580213Y-124130109D01*
X182752182Y-124255050D01*
X182760946Y-124259516D01*
X182811742Y-124307491D01*
X182828536Y-124375312D01*
X182805998Y-124441447D01*
X182760946Y-124480484D01*
X182752182Y-124484949D01*
X182580213Y-124609890D01*
X182429890Y-124760213D01*
X182304951Y-124932179D01*
X182208444Y-125121585D01*
X182142753Y-125323760D01*
X182109500Y-125533713D01*
X182109500Y-125746286D01*
X182142753Y-125956239D01*
X182208444Y-126158414D01*
X182304951Y-126347820D01*
X182429890Y-126519786D01*
X182580213Y-126670109D01*
X182752182Y-126795050D01*
X182760946Y-126799516D01*
X182811742Y-126847491D01*
X182828536Y-126915312D01*
X182805998Y-126981447D01*
X182760946Y-127020484D01*
X182752182Y-127024949D01*
X182580213Y-127149890D01*
X182429890Y-127300213D01*
X182304951Y-127472179D01*
X182208444Y-127661585D01*
X182142753Y-127863760D01*
X182110053Y-128070221D01*
X182109500Y-128073713D01*
X182109500Y-128286287D01*
X182142754Y-128496243D01*
X182203355Y-128682754D01*
X182208444Y-128698414D01*
X182304951Y-128887820D01*
X182429890Y-129059786D01*
X182580213Y-129210109D01*
X182752182Y-129335050D01*
X182760946Y-129339516D01*
X182811742Y-129387491D01*
X182828536Y-129455312D01*
X182805998Y-129521447D01*
X182760946Y-129560484D01*
X182752182Y-129564949D01*
X182580213Y-129689890D01*
X182429890Y-129840213D01*
X182304951Y-130012179D01*
X182208444Y-130201585D01*
X182142753Y-130403760D01*
X182109500Y-130613713D01*
X182109500Y-130826286D01*
X182141781Y-131030104D01*
X182142754Y-131036243D01*
X182181357Y-131155051D01*
X182208444Y-131238414D01*
X182304951Y-131427820D01*
X182429890Y-131599786D01*
X182580213Y-131750109D01*
X182752179Y-131875048D01*
X182752181Y-131875049D01*
X182752184Y-131875051D01*
X182941588Y-131971557D01*
X183143757Y-132037246D01*
X183353713Y-132070500D01*
X183353714Y-132070500D01*
X183566286Y-132070500D01*
X183566287Y-132070500D01*
X183776243Y-132037246D01*
X183978412Y-131971557D01*
X184167816Y-131875051D01*
X184189789Y-131859086D01*
X184339786Y-131750109D01*
X184339788Y-131750106D01*
X184339792Y-131750104D01*
X184490104Y-131599792D01*
X184490106Y-131599788D01*
X184490109Y-131599786D01*
X184615048Y-131427820D01*
X184615047Y-131427820D01*
X184615051Y-131427816D01*
X184619514Y-131419054D01*
X184667488Y-131368259D01*
X184735308Y-131351463D01*
X184801444Y-131373999D01*
X184840486Y-131419056D01*
X184844951Y-131427820D01*
X184969890Y-131599786D01*
X185120213Y-131750109D01*
X185292179Y-131875048D01*
X185292181Y-131875049D01*
X185292184Y-131875051D01*
X185481588Y-131971557D01*
X185683757Y-132037246D01*
X185893713Y-132070500D01*
X185893714Y-132070500D01*
X186106286Y-132070500D01*
X186106287Y-132070500D01*
X186316243Y-132037246D01*
X186518412Y-131971557D01*
X186707816Y-131875051D01*
X186729789Y-131859086D01*
X186879786Y-131750109D01*
X186879788Y-131750106D01*
X186879792Y-131750104D01*
X187030104Y-131599792D01*
X187030106Y-131599788D01*
X187030109Y-131599786D01*
X187155048Y-131427820D01*
X187155047Y-131427820D01*
X187155051Y-131427816D01*
X187251557Y-131238412D01*
X187317246Y-131036243D01*
X187350500Y-130826287D01*
X187350500Y-130613713D01*
X187317246Y-130403757D01*
X187251557Y-130201588D01*
X187155051Y-130012184D01*
X187155049Y-130012181D01*
X187155048Y-130012179D01*
X187030109Y-129840213D01*
X186879786Y-129689890D01*
X186707820Y-129564951D01*
X186707115Y-129564591D01*
X186699054Y-129560485D01*
X186648259Y-129512512D01*
X186631463Y-129444692D01*
X186653999Y-129378556D01*
X186699054Y-129339515D01*
X186707816Y-129335051D01*
X186814013Y-129257895D01*
X186879786Y-129210109D01*
X186879788Y-129210106D01*
X186879792Y-129210104D01*
X187030104Y-129059792D01*
X187030106Y-129059788D01*
X187030109Y-129059786D01*
X187155048Y-128887820D01*
X187155047Y-128887820D01*
X187155051Y-128887816D01*
X187251557Y-128698412D01*
X187317246Y-128496243D01*
X187350500Y-128286287D01*
X187350500Y-128073713D01*
X187317246Y-127863757D01*
X187312704Y-127849778D01*
X195099500Y-127849778D01*
X195099500Y-128070221D01*
X195133985Y-128287952D01*
X195202103Y-128497603D01*
X195202104Y-128497606D01*
X195302187Y-128694025D01*
X195431752Y-128872358D01*
X195431756Y-128872363D01*
X195482316Y-128922923D01*
X195515801Y-128984246D01*
X195510817Y-129053938D01*
X195468945Y-129109871D01*
X195437969Y-129126785D01*
X195357918Y-129156643D01*
X195357906Y-129156649D01*
X195242812Y-129242809D01*
X195242809Y-129242812D01*
X195156649Y-129357906D01*
X195156645Y-129357913D01*
X195106403Y-129492620D01*
X195106401Y-129492627D01*
X195100000Y-129552155D01*
X195100000Y-130250000D01*
X196124722Y-130250000D01*
X196080667Y-130326306D01*
X196050000Y-130440756D01*
X196050000Y-130559244D01*
X196080667Y-130673694D01*
X196124722Y-130750000D01*
X195100000Y-130750000D01*
X195100000Y-131447844D01*
X195106401Y-131507372D01*
X195106403Y-131507379D01*
X195156645Y-131642086D01*
X195156649Y-131642093D01*
X195242809Y-131757187D01*
X195242812Y-131757190D01*
X195357906Y-131843350D01*
X195357913Y-131843354D01*
X195492620Y-131893596D01*
X195492627Y-131893598D01*
X195552155Y-131899999D01*
X195552172Y-131900000D01*
X196250000Y-131900000D01*
X196250000Y-130875277D01*
X196326306Y-130919333D01*
X196440756Y-130950000D01*
X196559244Y-130950000D01*
X196673694Y-130919333D01*
X196750000Y-130875277D01*
X196750000Y-131900000D01*
X197447828Y-131900000D01*
X197447844Y-131899999D01*
X197507372Y-131893598D01*
X197507379Y-131893596D01*
X197642086Y-131843354D01*
X197642093Y-131843350D01*
X197757187Y-131757190D01*
X197757190Y-131757187D01*
X197843350Y-131642093D01*
X197843354Y-131642086D01*
X197893596Y-131507379D01*
X197893598Y-131507372D01*
X197899999Y-131447844D01*
X197900000Y-131447827D01*
X197900000Y-130750000D01*
X196875278Y-130750000D01*
X196919333Y-130673694D01*
X196950000Y-130559244D01*
X196950000Y-130440756D01*
X196919333Y-130326306D01*
X196875278Y-130250000D01*
X197900000Y-130250000D01*
X197900000Y-129893713D01*
X209399500Y-129893713D01*
X209399500Y-130106286D01*
X209418095Y-130223694D01*
X209432754Y-130316243D01*
X209463487Y-130410830D01*
X209498444Y-130518414D01*
X209594951Y-130707820D01*
X209719890Y-130879786D01*
X209870213Y-131030109D01*
X210042179Y-131155048D01*
X210042181Y-131155049D01*
X210042184Y-131155051D01*
X210231588Y-131251557D01*
X210433757Y-131317246D01*
X210643713Y-131350500D01*
X210643714Y-131350500D01*
X210856286Y-131350500D01*
X210856287Y-131350500D01*
X211066243Y-131317246D01*
X211268412Y-131251557D01*
X211457816Y-131155051D01*
X211514230Y-131114064D01*
X211629786Y-131030109D01*
X211629788Y-131030106D01*
X211629792Y-131030104D01*
X211780104Y-130879792D01*
X211780106Y-130879788D01*
X211780109Y-130879786D01*
X211905048Y-130707820D01*
X211905047Y-130707820D01*
X211905051Y-130707816D01*
X212001557Y-130518412D01*
X212067246Y-130316243D01*
X212100500Y-130106287D01*
X212100500Y-129893713D01*
X212067246Y-129683757D01*
X212001557Y-129481588D01*
X211905051Y-129292184D01*
X211905049Y-129292181D01*
X211905048Y-129292179D01*
X211780109Y-129120213D01*
X211629786Y-128969890D01*
X211457820Y-128844951D01*
X211268414Y-128748444D01*
X211268413Y-128748443D01*
X211268412Y-128748443D01*
X211066243Y-128682754D01*
X211066241Y-128682753D01*
X211066240Y-128682753D01*
X210904957Y-128657208D01*
X210856287Y-128649500D01*
X210643713Y-128649500D01*
X210595042Y-128657208D01*
X210433760Y-128682753D01*
X210231585Y-128748444D01*
X210042179Y-128844951D01*
X209870213Y-128969890D01*
X209719890Y-129120213D01*
X209594951Y-129292179D01*
X209498444Y-129481585D01*
X209432753Y-129683760D01*
X209399500Y-129893713D01*
X197900000Y-129893713D01*
X197900000Y-129552172D01*
X197899999Y-129552155D01*
X197893598Y-129492627D01*
X197893596Y-129492620D01*
X197843354Y-129357913D01*
X197843350Y-129357906D01*
X197757190Y-129242812D01*
X197757187Y-129242809D01*
X197642093Y-129156649D01*
X197642087Y-129156646D01*
X197562030Y-129126786D01*
X197506097Y-129084914D01*
X197481680Y-129019450D01*
X197496532Y-128951177D01*
X197517681Y-128922925D01*
X197568242Y-128872365D01*
X197697815Y-128694022D01*
X197797895Y-128497606D01*
X197866015Y-128287951D01*
X197900500Y-128070222D01*
X197900500Y-127849778D01*
X197866015Y-127632049D01*
X197831557Y-127525998D01*
X197797896Y-127422396D01*
X197797895Y-127422393D01*
X197735637Y-127300208D01*
X197697815Y-127225978D01*
X197642534Y-127149890D01*
X197568247Y-127047641D01*
X197568243Y-127047636D01*
X197412363Y-126891756D01*
X197412358Y-126891752D01*
X197234025Y-126762187D01*
X197234024Y-126762186D01*
X197234022Y-126762185D01*
X197171096Y-126730122D01*
X197037606Y-126662104D01*
X197037603Y-126662103D01*
X196827952Y-126593985D01*
X196719086Y-126576742D01*
X196610222Y-126559500D01*
X196389778Y-126559500D01*
X196317201Y-126570995D01*
X196172047Y-126593985D01*
X195962396Y-126662103D01*
X195962393Y-126662104D01*
X195765974Y-126762187D01*
X195587641Y-126891752D01*
X195587636Y-126891756D01*
X195431756Y-127047636D01*
X195431752Y-127047641D01*
X195302187Y-127225974D01*
X195202104Y-127422393D01*
X195202103Y-127422396D01*
X195133985Y-127632047D01*
X195099500Y-127849778D01*
X187312704Y-127849778D01*
X187251557Y-127661588D01*
X187155051Y-127472184D01*
X187155049Y-127472181D01*
X187155048Y-127472179D01*
X187030109Y-127300213D01*
X186879786Y-127149890D01*
X186707820Y-127024951D01*
X186707115Y-127024591D01*
X186699054Y-127020485D01*
X186648259Y-126972512D01*
X186631463Y-126904692D01*
X186653999Y-126838556D01*
X186699054Y-126799515D01*
X186707816Y-126795051D01*
X186753050Y-126762187D01*
X186879786Y-126670109D01*
X186879788Y-126670106D01*
X186879792Y-126670104D01*
X187030104Y-126519792D01*
X187030106Y-126519788D01*
X187030109Y-126519786D01*
X187155048Y-126347820D01*
X187155047Y-126347820D01*
X187155051Y-126347816D01*
X187251557Y-126158412D01*
X187317246Y-125956243D01*
X187350500Y-125746287D01*
X187350500Y-125533713D01*
X187317246Y-125323757D01*
X187251557Y-125121588D01*
X187155051Y-124932184D01*
X187155049Y-124932181D01*
X187155048Y-124932179D01*
X187030109Y-124760213D01*
X186879786Y-124609890D01*
X186707820Y-124484951D01*
X186707115Y-124484591D01*
X186699054Y-124480485D01*
X186648259Y-124432512D01*
X186631463Y-124364692D01*
X186653999Y-124298556D01*
X186699054Y-124259515D01*
X186707816Y-124255051D01*
X186793232Y-124192993D01*
X186879786Y-124130109D01*
X186879788Y-124130106D01*
X186879792Y-124130104D01*
X187030104Y-123979792D01*
X187030106Y-123979788D01*
X187030109Y-123979786D01*
X187155048Y-123807820D01*
X187155047Y-123807820D01*
X187155051Y-123807816D01*
X187251557Y-123618412D01*
X187317246Y-123416243D01*
X187350500Y-123206287D01*
X187350500Y-123102135D01*
X193649500Y-123102135D01*
X193649500Y-124897870D01*
X193649501Y-124897876D01*
X193655908Y-124957483D01*
X193706202Y-125092328D01*
X193706206Y-125092335D01*
X193792452Y-125207544D01*
X193792455Y-125207547D01*
X193907664Y-125293793D01*
X193907671Y-125293797D01*
X194042517Y-125344091D01*
X194042516Y-125344091D01*
X194049444Y-125344835D01*
X194102127Y-125350500D01*
X195897872Y-125350499D01*
X195957483Y-125344091D01*
X196092331Y-125293796D01*
X196207546Y-125207546D01*
X196293796Y-125092331D01*
X196342810Y-124960916D01*
X196384681Y-124904984D01*
X196450145Y-124880566D01*
X196518418Y-124895417D01*
X196546673Y-124916569D01*
X196660213Y-125030109D01*
X196832179Y-125155048D01*
X196832181Y-125155049D01*
X196832184Y-125155051D01*
X197021588Y-125251557D01*
X197223757Y-125317246D01*
X197433713Y-125350500D01*
X197433714Y-125350500D01*
X197646286Y-125350500D01*
X197646287Y-125350500D01*
X197856243Y-125317246D01*
X198058412Y-125251557D01*
X198247816Y-125155051D01*
X198334138Y-125092335D01*
X198419786Y-125030109D01*
X198419788Y-125030106D01*
X198419792Y-125030104D01*
X198570104Y-124879792D01*
X198570106Y-124879788D01*
X198570109Y-124879786D01*
X198655890Y-124761717D01*
X198695051Y-124707816D01*
X198699793Y-124698508D01*
X198747763Y-124647711D01*
X198815583Y-124630911D01*
X198881719Y-124653445D01*
X198920763Y-124698500D01*
X198925373Y-124707547D01*
X198964728Y-124761716D01*
X199597037Y-124129408D01*
X199614075Y-124192993D01*
X199679901Y-124307007D01*
X199772993Y-124400099D01*
X199887007Y-124465925D01*
X199950590Y-124482962D01*
X199318282Y-125115269D01*
X199318282Y-125115270D01*
X199372449Y-125154624D01*
X199561782Y-125251095D01*
X199763870Y-125316757D01*
X199973754Y-125350000D01*
X200186246Y-125350000D01*
X200396127Y-125316757D01*
X200396130Y-125316757D01*
X200598217Y-125251095D01*
X200787554Y-125154622D01*
X200841716Y-125115270D01*
X200841717Y-125115270D01*
X200209408Y-124482962D01*
X200272993Y-124465925D01*
X200387007Y-124400099D01*
X200480099Y-124307007D01*
X200545925Y-124192993D01*
X200562962Y-124129408D01*
X201195270Y-124761717D01*
X201195270Y-124761716D01*
X201234622Y-124707555D01*
X201239232Y-124698507D01*
X201287205Y-124647709D01*
X201355025Y-124630912D01*
X201421161Y-124653447D01*
X201460204Y-124698504D01*
X201464949Y-124707817D01*
X201589890Y-124879786D01*
X201740213Y-125030109D01*
X201912179Y-125155048D01*
X201912181Y-125155049D01*
X201912184Y-125155051D01*
X202101588Y-125251557D01*
X202303757Y-125317246D01*
X202513713Y-125350500D01*
X202513714Y-125350500D01*
X202726286Y-125350500D01*
X202726287Y-125350500D01*
X202936243Y-125317246D01*
X203138412Y-125251557D01*
X203327816Y-125155051D01*
X203414138Y-125092335D01*
X203499786Y-125030109D01*
X203499788Y-125030106D01*
X203499792Y-125030104D01*
X203650104Y-124879792D01*
X203650106Y-124879788D01*
X203650109Y-124879786D01*
X203775048Y-124707820D01*
X203775047Y-124707820D01*
X203775051Y-124707816D01*
X203779514Y-124699054D01*
X203827488Y-124648259D01*
X203895308Y-124631463D01*
X203961444Y-124653999D01*
X204000486Y-124699056D01*
X204004951Y-124707820D01*
X204129890Y-124879786D01*
X204280213Y-125030109D01*
X204452179Y-125155048D01*
X204452181Y-125155049D01*
X204452184Y-125155051D01*
X204641588Y-125251557D01*
X204843757Y-125317246D01*
X205053713Y-125350500D01*
X205053714Y-125350500D01*
X205266286Y-125350500D01*
X205266287Y-125350500D01*
X205476243Y-125317246D01*
X205678412Y-125251557D01*
X205867816Y-125155051D01*
X205954138Y-125092335D01*
X206039786Y-125030109D01*
X206039788Y-125030106D01*
X206039792Y-125030104D01*
X206190104Y-124879792D01*
X206190106Y-124879788D01*
X206190109Y-124879786D01*
X206315048Y-124707820D01*
X206315047Y-124707820D01*
X206315051Y-124707816D01*
X206319514Y-124699054D01*
X206367488Y-124648259D01*
X206435308Y-124631463D01*
X206501444Y-124653999D01*
X206540486Y-124699056D01*
X206544951Y-124707820D01*
X206669890Y-124879786D01*
X206820213Y-125030109D01*
X206992179Y-125155048D01*
X206992181Y-125155049D01*
X206992184Y-125155051D01*
X207181588Y-125251557D01*
X207383757Y-125317246D01*
X207593713Y-125350500D01*
X207593714Y-125350500D01*
X207806286Y-125350500D01*
X207806287Y-125350500D01*
X208016243Y-125317246D01*
X208218412Y-125251557D01*
X208407816Y-125155051D01*
X208494138Y-125092335D01*
X208579786Y-125030109D01*
X208579788Y-125030106D01*
X208579792Y-125030104D01*
X208730104Y-124879792D01*
X208730106Y-124879788D01*
X208730109Y-124879786D01*
X208855048Y-124707820D01*
X208855047Y-124707820D01*
X208855051Y-124707816D01*
X208951557Y-124518412D01*
X209017246Y-124316243D01*
X209050500Y-124106287D01*
X209050500Y-123893713D01*
X209017246Y-123683757D01*
X208951557Y-123481588D01*
X208855051Y-123292184D01*
X208855049Y-123292181D01*
X208855048Y-123292179D01*
X208730109Y-123120213D01*
X208579786Y-122969890D01*
X208407820Y-122844951D01*
X208218414Y-122748444D01*
X208218413Y-122748443D01*
X208218412Y-122748443D01*
X208016243Y-122682754D01*
X208016241Y-122682753D01*
X208016240Y-122682753D01*
X207854957Y-122657208D01*
X207806287Y-122649500D01*
X207593713Y-122649500D01*
X207545042Y-122657208D01*
X207383760Y-122682753D01*
X207181585Y-122748444D01*
X206992179Y-122844951D01*
X206820213Y-122969890D01*
X206669890Y-123120213D01*
X206544949Y-123292182D01*
X206540484Y-123300946D01*
X206492509Y-123351742D01*
X206424688Y-123368536D01*
X206358553Y-123345998D01*
X206319516Y-123300946D01*
X206315050Y-123292182D01*
X206190109Y-123120213D01*
X206039786Y-122969890D01*
X205867820Y-122844951D01*
X205678414Y-122748444D01*
X205678413Y-122748443D01*
X205678412Y-122748443D01*
X205476243Y-122682754D01*
X205476241Y-122682753D01*
X205476240Y-122682753D01*
X205314957Y-122657208D01*
X205266287Y-122649500D01*
X205053713Y-122649500D01*
X205005042Y-122657208D01*
X204843760Y-122682753D01*
X204641585Y-122748444D01*
X204452179Y-122844951D01*
X204280213Y-122969890D01*
X204129890Y-123120213D01*
X204004949Y-123292182D01*
X204000484Y-123300946D01*
X203952509Y-123351742D01*
X203884688Y-123368536D01*
X203818553Y-123345998D01*
X203779516Y-123300946D01*
X203775050Y-123292182D01*
X203650109Y-123120213D01*
X203499786Y-122969890D01*
X203327820Y-122844951D01*
X203138414Y-122748444D01*
X203138413Y-122748443D01*
X203138412Y-122748443D01*
X202936243Y-122682754D01*
X202936241Y-122682753D01*
X202936240Y-122682753D01*
X202774957Y-122657208D01*
X202726287Y-122649500D01*
X202513713Y-122649500D01*
X202465042Y-122657208D01*
X202303760Y-122682753D01*
X202101585Y-122748444D01*
X201912179Y-122844951D01*
X201740213Y-122969890D01*
X201589890Y-123120213D01*
X201464949Y-123292182D01*
X201460202Y-123301499D01*
X201412227Y-123352293D01*
X201344405Y-123369087D01*
X201278271Y-123346548D01*
X201239234Y-123301495D01*
X201234626Y-123292452D01*
X201195270Y-123238282D01*
X201195269Y-123238282D01*
X200562962Y-123870590D01*
X200545925Y-123807007D01*
X200480099Y-123692993D01*
X200387007Y-123599901D01*
X200272993Y-123534075D01*
X200209409Y-123517037D01*
X200841716Y-122884728D01*
X200787550Y-122845375D01*
X200598217Y-122748904D01*
X200396129Y-122683242D01*
X200186246Y-122650000D01*
X199973754Y-122650000D01*
X199763872Y-122683242D01*
X199763869Y-122683242D01*
X199561782Y-122748904D01*
X199372439Y-122845380D01*
X199318282Y-122884727D01*
X199318282Y-122884728D01*
X199950591Y-123517037D01*
X199887007Y-123534075D01*
X199772993Y-123599901D01*
X199679901Y-123692993D01*
X199614075Y-123807007D01*
X199597037Y-123870591D01*
X198964728Y-123238282D01*
X198964727Y-123238282D01*
X198925380Y-123292440D01*
X198925376Y-123292446D01*
X198920760Y-123301505D01*
X198872781Y-123352297D01*
X198804959Y-123369087D01*
X198738826Y-123346543D01*
X198699794Y-123301493D01*
X198695051Y-123292184D01*
X198695049Y-123292181D01*
X198695048Y-123292179D01*
X198570109Y-123120213D01*
X198419786Y-122969890D01*
X198247820Y-122844951D01*
X198058414Y-122748444D01*
X198058413Y-122748443D01*
X198058412Y-122748443D01*
X197856243Y-122682754D01*
X197856241Y-122682753D01*
X197856240Y-122682753D01*
X197694957Y-122657208D01*
X197646287Y-122649500D01*
X197433713Y-122649500D01*
X197385042Y-122657208D01*
X197223760Y-122682753D01*
X197021585Y-122748444D01*
X196832179Y-122844951D01*
X196660215Y-122969889D01*
X196546673Y-123083431D01*
X196485350Y-123116915D01*
X196415658Y-123111931D01*
X196359725Y-123070059D01*
X196342810Y-123039082D01*
X196293797Y-122907671D01*
X196293793Y-122907664D01*
X196207547Y-122792455D01*
X196207544Y-122792452D01*
X196092335Y-122706206D01*
X196092328Y-122706202D01*
X195957482Y-122655908D01*
X195957483Y-122655908D01*
X195897883Y-122649501D01*
X195897881Y-122649500D01*
X195897873Y-122649500D01*
X195897864Y-122649500D01*
X194102129Y-122649500D01*
X194102123Y-122649501D01*
X194042516Y-122655908D01*
X193907671Y-122706202D01*
X193907664Y-122706206D01*
X193792455Y-122792452D01*
X193792452Y-122792455D01*
X193706206Y-122907664D01*
X193706202Y-122907671D01*
X193655908Y-123042517D01*
X193649501Y-123102116D01*
X193649500Y-123102135D01*
X187350500Y-123102135D01*
X187350500Y-122993713D01*
X187317246Y-122783757D01*
X187251557Y-122581588D01*
X187155051Y-122392184D01*
X187155049Y-122392181D01*
X187155048Y-122392179D01*
X187030109Y-122220213D01*
X186879786Y-122069890D01*
X186707820Y-121944951D01*
X186707115Y-121944591D01*
X186699054Y-121940485D01*
X186648259Y-121892512D01*
X186631463Y-121824692D01*
X186653999Y-121758556D01*
X186699054Y-121719515D01*
X186707816Y-121715051D01*
X186729789Y-121699086D01*
X186879786Y-121590109D01*
X186879788Y-121590106D01*
X186879792Y-121590104D01*
X187030104Y-121439792D01*
X187030106Y-121439788D01*
X187030109Y-121439786D01*
X187155048Y-121267820D01*
X187155047Y-121267820D01*
X187155051Y-121267816D01*
X187251557Y-121078412D01*
X187317246Y-120876243D01*
X187350500Y-120666287D01*
X187350500Y-120453713D01*
X187317246Y-120243757D01*
X187251557Y-120041588D01*
X187251556Y-120041587D01*
X187251555Y-120041582D01*
X187193954Y-119928536D01*
X187155051Y-119852184D01*
X187109872Y-119790000D01*
X187030109Y-119680213D01*
X186879786Y-119529890D01*
X186707820Y-119404951D01*
X186707115Y-119404591D01*
X186699054Y-119400485D01*
X186648259Y-119352512D01*
X186631463Y-119284692D01*
X186653999Y-119218556D01*
X186699054Y-119179515D01*
X186707816Y-119175051D01*
X186729789Y-119159086D01*
X186879786Y-119050109D01*
X186879788Y-119050106D01*
X186879792Y-119050104D01*
X187030104Y-118899792D01*
X187030106Y-118899788D01*
X187030109Y-118899786D01*
X187139086Y-118749789D01*
X187155051Y-118727816D01*
X187251557Y-118538412D01*
X187317246Y-118336243D01*
X187350500Y-118126287D01*
X187350500Y-117913713D01*
X187317246Y-117703757D01*
X187251557Y-117501588D01*
X187155051Y-117312184D01*
X187155049Y-117312181D01*
X187155048Y-117312179D01*
X187030109Y-117140213D01*
X186879790Y-116989894D01*
X186879783Y-116989888D01*
X186871815Y-116984099D01*
X186871744Y-116984049D01*
X186739744Y-116888146D01*
X194967000Y-116888146D01*
X194967000Y-117211853D01*
X195002778Y-117437746D01*
X195002778Y-117437749D01*
X195073450Y-117655255D01*
X195073452Y-117655258D01*
X195177283Y-117859038D01*
X195311714Y-118044066D01*
X195473434Y-118205786D01*
X195658462Y-118340217D01*
X195790599Y-118407544D01*
X195862244Y-118444049D01*
X196079751Y-118514721D01*
X196079752Y-118514721D01*
X196079755Y-118514722D01*
X196305646Y-118550500D01*
X196305647Y-118550500D01*
X196534353Y-118550500D01*
X196534354Y-118550500D01*
X196760245Y-118514722D01*
X196760248Y-118514721D01*
X196760249Y-118514721D01*
X196977755Y-118444049D01*
X196977755Y-118444048D01*
X196977758Y-118444048D01*
X197181538Y-118340217D01*
X197366566Y-118205786D01*
X197528286Y-118044066D01*
X197589992Y-117959134D01*
X197645319Y-117916470D01*
X197714932Y-117910491D01*
X197776727Y-117943096D01*
X197790626Y-117959135D01*
X197852097Y-118043741D01*
X197852097Y-118043742D01*
X198013757Y-118205402D01*
X198198723Y-118339788D01*
X198402429Y-118443582D01*
X198619871Y-118514234D01*
X198710000Y-118528509D01*
X198710000Y-117540747D01*
X198747708Y-117562518D01*
X198887591Y-117600000D01*
X199032409Y-117600000D01*
X199172292Y-117562518D01*
X199210000Y-117540747D01*
X199210000Y-118528508D01*
X199300128Y-118514234D01*
X199517570Y-118443582D01*
X199721276Y-118339788D01*
X199904059Y-118206988D01*
X199969865Y-118183508D01*
X200037919Y-118199333D01*
X200086614Y-118249439D01*
X200093127Y-118263974D01*
X200103701Y-118292326D01*
X200103706Y-118292335D01*
X200189952Y-118407544D01*
X200189955Y-118407547D01*
X200305164Y-118493793D01*
X200305171Y-118493797D01*
X200440017Y-118544091D01*
X200440016Y-118544091D01*
X200446944Y-118544835D01*
X200499627Y-118550500D01*
X202500372Y-118550499D01*
X202559983Y-118544091D01*
X202694831Y-118493796D01*
X202810046Y-118407546D01*
X202896296Y-118292331D01*
X202946591Y-118157483D01*
X202953000Y-118097873D01*
X202952999Y-117124038D01*
X207399500Y-117124038D01*
X207399500Y-117375962D01*
X207429048Y-117562518D01*
X207438910Y-117624785D01*
X207516760Y-117864383D01*
X207565173Y-117959397D01*
X207608314Y-118044067D01*
X207631132Y-118088848D01*
X207699062Y-118182347D01*
X207722542Y-118248153D01*
X207706716Y-118316207D01*
X207686426Y-118342913D01*
X207557680Y-118471659D01*
X207465645Y-118620869D01*
X207465640Y-118620880D01*
X207410494Y-118787302D01*
X207400000Y-118890013D01*
X207400000Y-119540000D01*
X208509252Y-119540000D01*
X208487482Y-119577708D01*
X208450000Y-119717591D01*
X208450000Y-119862409D01*
X208487482Y-120002292D01*
X208509252Y-120040000D01*
X207400001Y-120040000D01*
X207400001Y-120689986D01*
X207410494Y-120792696D01*
X207410494Y-120792698D01*
X207465640Y-120959119D01*
X207465645Y-120959130D01*
X207557680Y-121108340D01*
X207557683Y-121108344D01*
X207681655Y-121232316D01*
X207681659Y-121232319D01*
X207830869Y-121324354D01*
X207830880Y-121324359D01*
X207997302Y-121379505D01*
X208100019Y-121389999D01*
X208749999Y-121389999D01*
X208750000Y-121389998D01*
X208750000Y-120280747D01*
X208787708Y-120302518D01*
X208927591Y-120340000D01*
X209072409Y-120340000D01*
X209212292Y-120302518D01*
X209250000Y-120280747D01*
X209250000Y-121389999D01*
X209899972Y-121389999D01*
X209899986Y-121389998D01*
X210002696Y-121379505D01*
X210002698Y-121379505D01*
X210169119Y-121324359D01*
X210169130Y-121324354D01*
X210318340Y-121232319D01*
X210318344Y-121232316D01*
X210442316Y-121108344D01*
X210442319Y-121108340D01*
X210534354Y-120959130D01*
X210534359Y-120959119D01*
X210589505Y-120792697D01*
X210599999Y-120689986D01*
X210599999Y-120232781D01*
X210619683Y-120165742D01*
X210672487Y-120119987D01*
X210741646Y-120110043D01*
X210805202Y-120139068D01*
X210825917Y-120164985D01*
X210827221Y-120164114D01*
X210918210Y-120300288D01*
X210918213Y-120300292D01*
X211029707Y-120411786D01*
X211029711Y-120411789D01*
X211160814Y-120499390D01*
X211160827Y-120499397D01*
X211306498Y-120559735D01*
X211306503Y-120559737D01*
X211461153Y-120590499D01*
X211461156Y-120590500D01*
X211461158Y-120590500D01*
X211618844Y-120590500D01*
X211618845Y-120590499D01*
X211773497Y-120559737D01*
X211919179Y-120499394D01*
X212050289Y-120411789D01*
X212161789Y-120300289D01*
X212249394Y-120169179D01*
X212309737Y-120023497D01*
X212340500Y-119868842D01*
X212340500Y-119711158D01*
X212340500Y-119711155D01*
X212340499Y-119711153D01*
X212309738Y-119556510D01*
X212309737Y-119556503D01*
X212298714Y-119529890D01*
X212249397Y-119410827D01*
X212249390Y-119410814D01*
X212161789Y-119279711D01*
X212161786Y-119279707D01*
X212050292Y-119168213D01*
X212050288Y-119168210D01*
X211919185Y-119080609D01*
X211919172Y-119080602D01*
X211773501Y-119020264D01*
X211773489Y-119020261D01*
X211618845Y-118989500D01*
X211618842Y-118989500D01*
X211461158Y-118989500D01*
X211461155Y-118989500D01*
X211306510Y-119020261D01*
X211306498Y-119020264D01*
X211160827Y-119080602D01*
X211160814Y-119080609D01*
X211029711Y-119168210D01*
X211029707Y-119168213D01*
X210918213Y-119279707D01*
X210918210Y-119279711D01*
X210827221Y-119415886D01*
X210824886Y-119414326D01*
X210784294Y-119455573D01*
X210716141Y-119470970D01*
X210650484Y-119447077D01*
X210608167Y-119391479D01*
X210599999Y-119347219D01*
X210599999Y-118890028D01*
X210599998Y-118890012D01*
X210589505Y-118787303D01*
X210589505Y-118787301D01*
X210534359Y-118620880D01*
X210534354Y-118620869D01*
X210442319Y-118471659D01*
X210442316Y-118471655D01*
X210313574Y-118342913D01*
X210280089Y-118281590D01*
X210285073Y-118211898D01*
X210300934Y-118182349D01*
X210368870Y-118088845D01*
X210483241Y-117864379D01*
X210561090Y-117624785D01*
X210566357Y-117591531D01*
X210596286Y-117528396D01*
X210655597Y-117491464D01*
X210725460Y-117492462D01*
X210783692Y-117531071D01*
X210803391Y-117563476D01*
X210830602Y-117629173D01*
X210830609Y-117629185D01*
X210918210Y-117760288D01*
X210918213Y-117760292D01*
X211029707Y-117871786D01*
X211029711Y-117871789D01*
X211160814Y-117959390D01*
X211160827Y-117959397D01*
X211306498Y-118019735D01*
X211306503Y-118019737D01*
X211461153Y-118050499D01*
X211461156Y-118050500D01*
X211461158Y-118050500D01*
X211618844Y-118050500D01*
X211618845Y-118050499D01*
X211773497Y-118019737D01*
X211919179Y-117959394D01*
X212050289Y-117871789D01*
X212161789Y-117760289D01*
X212249394Y-117629179D01*
X212309737Y-117483497D01*
X212340500Y-117328842D01*
X212340500Y-117171158D01*
X212340500Y-117171155D01*
X212340499Y-117171153D01*
X212309738Y-117016510D01*
X212309737Y-117016503D01*
X212279944Y-116944576D01*
X212249397Y-116870827D01*
X212249390Y-116870814D01*
X212161789Y-116739711D01*
X212161786Y-116739707D01*
X212050292Y-116628213D01*
X212050288Y-116628210D01*
X211919185Y-116540609D01*
X211919172Y-116540602D01*
X211773501Y-116480264D01*
X211773489Y-116480261D01*
X211618845Y-116449500D01*
X211618842Y-116449500D01*
X211461158Y-116449500D01*
X211461155Y-116449500D01*
X211306510Y-116480261D01*
X211306498Y-116480264D01*
X211160827Y-116540602D01*
X211160814Y-116540609D01*
X211029711Y-116628210D01*
X211029707Y-116628213D01*
X210918213Y-116739707D01*
X210918210Y-116739711D01*
X210830609Y-116870814D01*
X210830602Y-116870827D01*
X210803391Y-116936523D01*
X210759550Y-116990927D01*
X210693256Y-117012992D01*
X210625557Y-116995713D01*
X210577946Y-116944576D01*
X210566357Y-116908469D01*
X210563138Y-116888146D01*
X210561090Y-116875215D01*
X210483241Y-116635621D01*
X210483239Y-116635618D01*
X210483239Y-116635616D01*
X210433237Y-116537482D01*
X210368870Y-116411155D01*
X210245218Y-116240962D01*
X210220798Y-116207350D01*
X210220794Y-116207345D01*
X210042654Y-116029205D01*
X210042649Y-116029201D01*
X209838848Y-115881132D01*
X209838847Y-115881131D01*
X209838845Y-115881130D01*
X209768747Y-115845413D01*
X209614383Y-115766760D01*
X209374785Y-115688910D01*
X209125962Y-115649500D01*
X208874038Y-115649500D01*
X208749626Y-115669205D01*
X208625214Y-115688910D01*
X208385616Y-115766760D01*
X208161151Y-115881132D01*
X207957350Y-116029201D01*
X207957345Y-116029205D01*
X207779205Y-116207345D01*
X207779201Y-116207350D01*
X207631132Y-116411151D01*
X207516760Y-116635616D01*
X207438910Y-116875214D01*
X207438910Y-116875215D01*
X207399500Y-117124038D01*
X202952999Y-117124038D01*
X202952999Y-117016510D01*
X202952999Y-116002129D01*
X202952998Y-116002123D01*
X202952599Y-115998414D01*
X202946591Y-115942517D01*
X202936841Y-115916377D01*
X202896297Y-115807671D01*
X202896293Y-115807664D01*
X202810047Y-115692455D01*
X202810044Y-115692452D01*
X202694835Y-115606206D01*
X202694828Y-115606202D01*
X202559982Y-115555908D01*
X202559983Y-115555908D01*
X202500383Y-115549501D01*
X202500381Y-115549500D01*
X202500373Y-115549500D01*
X202500364Y-115549500D01*
X200499629Y-115549500D01*
X200499623Y-115549501D01*
X200440016Y-115555908D01*
X200305171Y-115606202D01*
X200305164Y-115606206D01*
X200189955Y-115692452D01*
X200189952Y-115692455D01*
X200103706Y-115807664D01*
X200103702Y-115807671D01*
X200093127Y-115836026D01*
X200051256Y-115891960D01*
X199985791Y-115916377D01*
X199917518Y-115901525D01*
X199904060Y-115893011D01*
X199721279Y-115760213D01*
X199517568Y-115656417D01*
X199300124Y-115585765D01*
X199210000Y-115571490D01*
X199210000Y-116559252D01*
X199172292Y-116537482D01*
X199032409Y-116500000D01*
X198887591Y-116500000D01*
X198747708Y-116537482D01*
X198710000Y-116559252D01*
X198710000Y-115571490D01*
X198709999Y-115571490D01*
X198619875Y-115585765D01*
X198402431Y-115656417D01*
X198198723Y-115760211D01*
X198013757Y-115894597D01*
X197852097Y-116056257D01*
X197790627Y-116140864D01*
X197735297Y-116183529D01*
X197665684Y-116189508D01*
X197603889Y-116156902D01*
X197589991Y-116140864D01*
X197528286Y-116055934D01*
X197366566Y-115894214D01*
X197181538Y-115759783D01*
X196977755Y-115655950D01*
X196760248Y-115585278D01*
X196574812Y-115555908D01*
X196534354Y-115549500D01*
X196305646Y-115549500D01*
X196265188Y-115555908D01*
X196079753Y-115585278D01*
X196079750Y-115585278D01*
X195862244Y-115655950D01*
X195658461Y-115759783D01*
X195592550Y-115807671D01*
X195473434Y-115894214D01*
X195473432Y-115894216D01*
X195473431Y-115894216D01*
X195311716Y-116055931D01*
X195311716Y-116055932D01*
X195311714Y-116055934D01*
X195271370Y-116111463D01*
X195177283Y-116240961D01*
X195073450Y-116444744D01*
X195002778Y-116662250D01*
X195002778Y-116662253D01*
X194967000Y-116888146D01*
X186739744Y-116888146D01*
X186707816Y-116864949D01*
X186691095Y-116856429D01*
X186683802Y-116851277D01*
X186667426Y-116830614D01*
X186648259Y-116812512D01*
X186646067Y-116803663D01*
X186640405Y-116796518D01*
X186637800Y-116770282D01*
X186631463Y-116744692D01*
X186634403Y-116736062D01*
X186633503Y-116726990D01*
X186645495Y-116703512D01*
X186653999Y-116678556D01*
X186661611Y-116671959D01*
X186665285Y-116664768D01*
X186679393Y-116656551D01*
X186699054Y-116639515D01*
X186707816Y-116635051D01*
X186742447Y-116609890D01*
X186879786Y-116510109D01*
X186879788Y-116510106D01*
X186879792Y-116510104D01*
X187030104Y-116359792D01*
X187030106Y-116359788D01*
X187030109Y-116359786D01*
X187155048Y-116187820D01*
X187155047Y-116187820D01*
X187155051Y-116187816D01*
X187251557Y-115998412D01*
X187317246Y-115796243D01*
X187350500Y-115586287D01*
X187350500Y-115373713D01*
X187317246Y-115163757D01*
X187251557Y-114961588D01*
X187155051Y-114772184D01*
X187155049Y-114772181D01*
X187155048Y-114772179D01*
X187030109Y-114600213D01*
X186879786Y-114449890D01*
X186707820Y-114324951D01*
X186707115Y-114324591D01*
X186699054Y-114320485D01*
X186648259Y-114272512D01*
X186631463Y-114204692D01*
X186653999Y-114138556D01*
X186699054Y-114099515D01*
X186707816Y-114095051D01*
X186778367Y-114043793D01*
X186879786Y-113970109D01*
X186879788Y-113970106D01*
X186879792Y-113970104D01*
X187030104Y-113819792D01*
X187030106Y-113819788D01*
X187030109Y-113819786D01*
X187155002Y-113647883D01*
X187155051Y-113647816D01*
X187251557Y-113458412D01*
X187317246Y-113256243D01*
X187350500Y-113046287D01*
X187350500Y-112833713D01*
X187317246Y-112623757D01*
X187251557Y-112421588D01*
X187155051Y-112232184D01*
X187155049Y-112232181D01*
X187155048Y-112232179D01*
X187030109Y-112060213D01*
X186879786Y-111909890D01*
X186866150Y-111899983D01*
X197699500Y-111899983D01*
X197699500Y-113100001D01*
X197699501Y-113100018D01*
X197710000Y-113202796D01*
X197710001Y-113202799D01*
X197765185Y-113369331D01*
X197765187Y-113369336D01*
X197800069Y-113425888D01*
X197857288Y-113518656D01*
X197981344Y-113642712D01*
X198130666Y-113734814D01*
X198297203Y-113789999D01*
X198399991Y-113800500D01*
X199600008Y-113800499D01*
X199702797Y-113789999D01*
X199869334Y-113734814D01*
X200018656Y-113642712D01*
X200087879Y-113573489D01*
X200149202Y-113540004D01*
X200218894Y-113544988D01*
X200248446Y-113560853D01*
X200318646Y-113611857D01*
X200500968Y-113704755D01*
X200695582Y-113767990D01*
X200897683Y-113800000D01*
X201102317Y-113800000D01*
X201304417Y-113767990D01*
X201499031Y-113704755D01*
X201681349Y-113611859D01*
X201725921Y-113579474D01*
X201046447Y-112900000D01*
X201052661Y-112900000D01*
X201154394Y-112872741D01*
X201245606Y-112820080D01*
X201320080Y-112745606D01*
X201372741Y-112654394D01*
X201400000Y-112552661D01*
X201400000Y-112546448D01*
X202079474Y-113225922D01*
X202079474Y-113225921D01*
X202111859Y-113181349D01*
X202204755Y-112999031D01*
X202267990Y-112804417D01*
X202293444Y-112643713D01*
X206109500Y-112643713D01*
X206109500Y-112856286D01*
X206132108Y-112999031D01*
X206142754Y-113066243D01*
X206187123Y-113202797D01*
X206208444Y-113268414D01*
X206304951Y-113457820D01*
X206429890Y-113629786D01*
X206580213Y-113780109D01*
X206752179Y-113905048D01*
X206752181Y-113905049D01*
X206752184Y-113905051D01*
X206941588Y-114001557D01*
X207143757Y-114067246D01*
X207353713Y-114100500D01*
X207353714Y-114100500D01*
X207566286Y-114100500D01*
X207566287Y-114100500D01*
X207776243Y-114067246D01*
X207978412Y-114001557D01*
X208167816Y-113905051D01*
X208311719Y-113800500D01*
X208339784Y-113780110D01*
X208339784Y-113780109D01*
X208339792Y-113780104D01*
X208453329Y-113666566D01*
X208514648Y-113633084D01*
X208584340Y-113638068D01*
X208640274Y-113679939D01*
X208657189Y-113710917D01*
X208706202Y-113842328D01*
X208706206Y-113842335D01*
X208792452Y-113957544D01*
X208792455Y-113957547D01*
X208907664Y-114043793D01*
X208907671Y-114043797D01*
X209042517Y-114094091D01*
X209042516Y-114094091D01*
X209049444Y-114094835D01*
X209102127Y-114100500D01*
X210897872Y-114100499D01*
X210957483Y-114094091D01*
X211092331Y-114043796D01*
X211207546Y-113957546D01*
X211293796Y-113842331D01*
X211344091Y-113707483D01*
X211350500Y-113647873D01*
X211350499Y-111852128D01*
X211344091Y-111792517D01*
X211342810Y-111789083D01*
X211293797Y-111657671D01*
X211293793Y-111657664D01*
X211207547Y-111542455D01*
X211207544Y-111542452D01*
X211092335Y-111456206D01*
X211092328Y-111456202D01*
X210957482Y-111405908D01*
X210957483Y-111405908D01*
X210897883Y-111399501D01*
X210897881Y-111399500D01*
X210897873Y-111399500D01*
X210897864Y-111399500D01*
X209102129Y-111399500D01*
X209102123Y-111399501D01*
X209042516Y-111405908D01*
X208907671Y-111456202D01*
X208907664Y-111456206D01*
X208792455Y-111542452D01*
X208792452Y-111542455D01*
X208706206Y-111657664D01*
X208706203Y-111657669D01*
X208657189Y-111789083D01*
X208615317Y-111845016D01*
X208549853Y-111869433D01*
X208481580Y-111854581D01*
X208453326Y-111833430D01*
X208339786Y-111719890D01*
X208167820Y-111594951D01*
X207978414Y-111498444D01*
X207978413Y-111498443D01*
X207978412Y-111498443D01*
X207776243Y-111432754D01*
X207776241Y-111432753D01*
X207776240Y-111432753D01*
X207614957Y-111407208D01*
X207566287Y-111399500D01*
X207353713Y-111399500D01*
X207305042Y-111407208D01*
X207143760Y-111432753D01*
X206941585Y-111498444D01*
X206752179Y-111594951D01*
X206580213Y-111719890D01*
X206429890Y-111870213D01*
X206304951Y-112042179D01*
X206208444Y-112231585D01*
X206142753Y-112433760D01*
X206109500Y-112643713D01*
X202293444Y-112643713D01*
X202297273Y-112619536D01*
X202297287Y-112619445D01*
X202300000Y-112602313D01*
X202300000Y-112397682D01*
X202267990Y-112195582D01*
X202204755Y-112000968D01*
X202111859Y-111818650D01*
X202079474Y-111774077D01*
X202079474Y-111774076D01*
X201400000Y-112453551D01*
X201400000Y-112447339D01*
X201372741Y-112345606D01*
X201320080Y-112254394D01*
X201245606Y-112179920D01*
X201154394Y-112127259D01*
X201052661Y-112100000D01*
X201046446Y-112100000D01*
X201725922Y-111420524D01*
X201725921Y-111420523D01*
X201681359Y-111388147D01*
X201681350Y-111388141D01*
X201499031Y-111295244D01*
X201304417Y-111232009D01*
X201102317Y-111200000D01*
X200897683Y-111200000D01*
X200695582Y-111232009D01*
X200500968Y-111295244D01*
X200318651Y-111388139D01*
X200248444Y-111439148D01*
X200182637Y-111462627D01*
X200114583Y-111446801D01*
X200087878Y-111426510D01*
X200018657Y-111357289D01*
X200018656Y-111357288D01*
X199869334Y-111265186D01*
X199702797Y-111210001D01*
X199702795Y-111210000D01*
X199600010Y-111199500D01*
X198399998Y-111199500D01*
X198399981Y-111199501D01*
X198297203Y-111210000D01*
X198297200Y-111210001D01*
X198130668Y-111265185D01*
X198130663Y-111265187D01*
X197981342Y-111357289D01*
X197857289Y-111481342D01*
X197765187Y-111630663D01*
X197765185Y-111630668D01*
X197740635Y-111704755D01*
X197710001Y-111797203D01*
X197710001Y-111797204D01*
X197710000Y-111797204D01*
X197699500Y-111899983D01*
X186866150Y-111899983D01*
X186707820Y-111784951D01*
X186707115Y-111784591D01*
X186699054Y-111780485D01*
X186648259Y-111732512D01*
X186631463Y-111664692D01*
X186653999Y-111598556D01*
X186683759Y-111568754D01*
X186691074Y-111563581D01*
X186707816Y-111555051D01*
X186879792Y-111430104D01*
X187030104Y-111279792D01*
X187030106Y-111279788D01*
X187030109Y-111279786D01*
X187155048Y-111107820D01*
X187155047Y-111107820D01*
X187155051Y-111107816D01*
X187251557Y-110918412D01*
X187317246Y-110716243D01*
X187350500Y-110506287D01*
X187350500Y-110293713D01*
X187317246Y-110083757D01*
X187251557Y-109881588D01*
X187155051Y-109692184D01*
X187155049Y-109692181D01*
X187155048Y-109692179D01*
X187030109Y-109520213D01*
X186879786Y-109369890D01*
X186707820Y-109244951D01*
X186707115Y-109244591D01*
X186699054Y-109240485D01*
X186648259Y-109192512D01*
X186631463Y-109124692D01*
X186653999Y-109058556D01*
X186699054Y-109019515D01*
X186707816Y-109015051D01*
X186737718Y-108993326D01*
X186879786Y-108890109D01*
X186879788Y-108890106D01*
X186879792Y-108890104D01*
X187030104Y-108739792D01*
X187030106Y-108739788D01*
X187030109Y-108739786D01*
X187155048Y-108567820D01*
X187155047Y-108567820D01*
X187155051Y-108567816D01*
X187251557Y-108378412D01*
X187317246Y-108176243D01*
X187350500Y-107966287D01*
X187350500Y-107899983D01*
X191949500Y-107899983D01*
X191949500Y-109100001D01*
X191949501Y-109100018D01*
X191960000Y-109202796D01*
X191960001Y-109202799D01*
X192015185Y-109369331D01*
X192015187Y-109369336D01*
X192107289Y-109518657D01*
X192176510Y-109587878D01*
X192209995Y-109649201D01*
X192205011Y-109718893D01*
X192189148Y-109748444D01*
X192138139Y-109818651D01*
X192045244Y-110000968D01*
X191982009Y-110195582D01*
X191950000Y-110397682D01*
X191950000Y-110602317D01*
X191982009Y-110804417D01*
X192045244Y-110999031D01*
X192138141Y-111181350D01*
X192138147Y-111181359D01*
X192170523Y-111225921D01*
X192170524Y-111225922D01*
X192850000Y-110546446D01*
X192850000Y-110552661D01*
X192877259Y-110654394D01*
X192929920Y-110745606D01*
X193004394Y-110820080D01*
X193095606Y-110872741D01*
X193197339Y-110900000D01*
X193203553Y-110900000D01*
X192524076Y-111579474D01*
X192568650Y-111611859D01*
X192750968Y-111704755D01*
X192945582Y-111767990D01*
X193147683Y-111800000D01*
X193352317Y-111800000D01*
X193514194Y-111774361D01*
X193554417Y-111767990D01*
X193749031Y-111704755D01*
X193931349Y-111611859D01*
X193975921Y-111579474D01*
X193296447Y-110900000D01*
X193302661Y-110900000D01*
X193404394Y-110872741D01*
X193495606Y-110820080D01*
X193570080Y-110745606D01*
X193622741Y-110654394D01*
X193650000Y-110552661D01*
X193650000Y-110546447D01*
X194329474Y-111225921D01*
X194361859Y-111181349D01*
X194454755Y-110999031D01*
X194517990Y-110804417D01*
X194550000Y-110602317D01*
X194550000Y-110397682D01*
X194517990Y-110195582D01*
X194454755Y-110000968D01*
X194361857Y-109818646D01*
X194313912Y-109752656D01*
X196063072Y-109752656D01*
X196063072Y-109920199D01*
X196095754Y-110084502D01*
X196095756Y-110084510D01*
X196159867Y-110239288D01*
X196252945Y-110378590D01*
X196371409Y-110497054D01*
X196454631Y-110552661D01*
X196510709Y-110590131D01*
X196665490Y-110654244D01*
X196829800Y-110686927D01*
X196829804Y-110686928D01*
X196829805Y-110686928D01*
X196997340Y-110686928D01*
X196997341Y-110686927D01*
X197161654Y-110654244D01*
X197316435Y-110590131D01*
X197455734Y-110497054D01*
X197574198Y-110378590D01*
X197667275Y-110239291D01*
X197731388Y-110084510D01*
X197764072Y-109920195D01*
X197764072Y-109752661D01*
X197731388Y-109588346D01*
X197673510Y-109448619D01*
X197664072Y-109401167D01*
X197664072Y-108740733D01*
X197683757Y-108673694D01*
X197736561Y-108627939D01*
X197798846Y-108618983D01*
X197798877Y-108618596D01*
X197800597Y-108618731D01*
X197805719Y-108617995D01*
X197808733Y-108619371D01*
X197855865Y-108623081D01*
X198426877Y-108052069D01*
X198439300Y-108098432D01*
X198510392Y-108221568D01*
X198610932Y-108322108D01*
X198734068Y-108393200D01*
X198780429Y-108405622D01*
X198209417Y-108976633D01*
X198209418Y-108976634D01*
X198255904Y-109010408D01*
X198255917Y-109010416D01*
X198439631Y-109104023D01*
X198635740Y-109167743D01*
X198839396Y-109200000D01*
X199045604Y-109200000D01*
X199249259Y-109167743D01*
X199445368Y-109104023D01*
X199629090Y-109010412D01*
X199675580Y-108976634D01*
X199675580Y-108976633D01*
X199104569Y-108405622D01*
X199150932Y-108393200D01*
X199274068Y-108322108D01*
X199374608Y-108221568D01*
X199445700Y-108098432D01*
X199458122Y-108052069D01*
X200029133Y-108623080D01*
X200029134Y-108623080D01*
X200062912Y-108576590D01*
X200156523Y-108392868D01*
X200220243Y-108196759D01*
X200252500Y-107993104D01*
X200252500Y-107786895D01*
X200220243Y-107583240D01*
X200156523Y-107387131D01*
X200062916Y-107203417D01*
X200062908Y-107203404D01*
X200029134Y-107156918D01*
X200029133Y-107156917D01*
X199458122Y-107727929D01*
X199445700Y-107681568D01*
X199374608Y-107558432D01*
X199274068Y-107457892D01*
X199150932Y-107386800D01*
X199104568Y-107374376D01*
X199675581Y-106803365D01*
X199629090Y-106769587D01*
X199552897Y-106730765D01*
X199502101Y-106682791D01*
X199485306Y-106614970D01*
X199507843Y-106548835D01*
X199552898Y-106509795D01*
X199558023Y-106507184D01*
X199629352Y-106470840D01*
X199796233Y-106349593D01*
X199942093Y-106203733D01*
X200063340Y-106036852D01*
X200156988Y-105853057D01*
X200185188Y-105766267D01*
X200220730Y-105656880D01*
X200220730Y-105656879D01*
X200220731Y-105656876D01*
X200253000Y-105453139D01*
X200253000Y-105246861D01*
X200220731Y-105043124D01*
X200220730Y-105043120D01*
X200220730Y-105043119D01*
X200156989Y-104846945D01*
X200156988Y-104846943D01*
X200063340Y-104663148D01*
X199942093Y-104496267D01*
X199796233Y-104350407D01*
X199713088Y-104289998D01*
X199629350Y-104229158D01*
X199553448Y-104190485D01*
X199502651Y-104142511D01*
X199485856Y-104074690D01*
X199508393Y-104008555D01*
X199553448Y-103969515D01*
X199629350Y-103930841D01*
X199629349Y-103930841D01*
X199629352Y-103930840D01*
X199796233Y-103809593D01*
X199942093Y-103663733D01*
X200063340Y-103496852D01*
X200156988Y-103313057D01*
X200161746Y-103298412D01*
X200220730Y-103116880D01*
X200220730Y-103116879D01*
X200220731Y-103116876D01*
X200253000Y-102913139D01*
X200253000Y-102706861D01*
X200220731Y-102503124D01*
X200220730Y-102503120D01*
X200220730Y-102503119D01*
X200156989Y-102306945D01*
X200156988Y-102306943D01*
X200063340Y-102123148D01*
X199942093Y-101956267D01*
X199796233Y-101810407D01*
X199725891Y-101759300D01*
X199629350Y-101689158D01*
X199553448Y-101650485D01*
X199548109Y-101645443D01*
X199541095Y-101643265D01*
X199523050Y-101621776D01*
X199502651Y-101602511D01*
X199500885Y-101595381D01*
X199496163Y-101589758D01*
X199492600Y-101561924D01*
X199485856Y-101534690D01*
X199488224Y-101527739D01*
X199487292Y-101520454D01*
X199499342Y-101495113D01*
X199508393Y-101468555D01*
X199514884Y-101462431D01*
X199517298Y-101457356D01*
X199533461Y-101444907D01*
X199544326Y-101434659D01*
X199548777Y-101431894D01*
X199629352Y-101390840D01*
X199796233Y-101269593D01*
X199942093Y-101123733D01*
X200063340Y-100956852D01*
X200156988Y-100773057D01*
X200185188Y-100686267D01*
X200220730Y-100576880D01*
X200220730Y-100576879D01*
X200220731Y-100576876D01*
X200253000Y-100373139D01*
X200253000Y-100166861D01*
X200220731Y-99963124D01*
X200220730Y-99963120D01*
X200220730Y-99963119D01*
X200156989Y-99766945D01*
X200139734Y-99733080D01*
X200063340Y-99583148D01*
X199942093Y-99416267D01*
X199796233Y-99270407D01*
X199740606Y-99229991D01*
X199629350Y-99149158D01*
X199553448Y-99110485D01*
X199548108Y-99105441D01*
X199541092Y-99103263D01*
X199523049Y-99081775D01*
X199502651Y-99062511D01*
X199500885Y-99055379D01*
X199496162Y-99049755D01*
X199492600Y-99021926D01*
X199485856Y-98994690D01*
X199488225Y-98987736D01*
X199487293Y-98980451D01*
X199499342Y-98955113D01*
X199508393Y-98928555D01*
X199514885Y-98922431D01*
X199517300Y-98917353D01*
X199533469Y-98904900D01*
X199544329Y-98894657D01*
X199548777Y-98891894D01*
X199629352Y-98850840D01*
X199796233Y-98729593D01*
X199942093Y-98583733D01*
X200063340Y-98416852D01*
X200156988Y-98233057D01*
X200220731Y-98036876D01*
X200253000Y-97833139D01*
X200253000Y-97626861D01*
X200220731Y-97423124D01*
X200220730Y-97423120D01*
X200220730Y-97423119D01*
X200156989Y-97226945D01*
X200156988Y-97226943D01*
X200063340Y-97043148D01*
X199942093Y-96876267D01*
X199796233Y-96730407D01*
X199740606Y-96689991D01*
X199629350Y-96609158D01*
X199553448Y-96570485D01*
X199502651Y-96522511D01*
X199485856Y-96454690D01*
X199508393Y-96388555D01*
X199553448Y-96349515D01*
X199629350Y-96310841D01*
X199629349Y-96310841D01*
X199629352Y-96310840D01*
X199796233Y-96189593D01*
X199942093Y-96043733D01*
X200063340Y-95876852D01*
X200156988Y-95693057D01*
X200185188Y-95606267D01*
X200220730Y-95496880D01*
X200220730Y-95496879D01*
X200220731Y-95496876D01*
X200253000Y-95293139D01*
X200253000Y-95086861D01*
X200220731Y-94883124D01*
X200220730Y-94883120D01*
X200220730Y-94883119D01*
X200156989Y-94686945D01*
X200156988Y-94686943D01*
X200063340Y-94503148D01*
X199942093Y-94336267D01*
X199796233Y-94190407D01*
X199740606Y-94149991D01*
X199629350Y-94069158D01*
X199553448Y-94030485D01*
X199502651Y-93982511D01*
X199485856Y-93914690D01*
X199508393Y-93848555D01*
X199553448Y-93809515D01*
X199629350Y-93770841D01*
X199629349Y-93770841D01*
X199629352Y-93770840D01*
X199796233Y-93649593D01*
X199942093Y-93503733D01*
X200063340Y-93336852D01*
X200156988Y-93153057D01*
X200185188Y-93066267D01*
X200220730Y-92956880D01*
X200220730Y-92956879D01*
X200220731Y-92956876D01*
X200253000Y-92753139D01*
X200253000Y-92546861D01*
X200220731Y-92343124D01*
X200220730Y-92343120D01*
X200220730Y-92343119D01*
X200156989Y-92146945D01*
X200156988Y-92146943D01*
X200063340Y-91963148D01*
X199942093Y-91796267D01*
X199796233Y-91650407D01*
X199796229Y-91650404D01*
X199780919Y-91639280D01*
X199738255Y-91583949D01*
X199732277Y-91514335D01*
X199764885Y-91452541D01*
X199825725Y-91418186D01*
X199840555Y-91415674D01*
X199859879Y-91413596D01*
X199994586Y-91363354D01*
X199994593Y-91363350D01*
X200109687Y-91277190D01*
X200109933Y-91276861D01*
X202712000Y-91276861D01*
X202712000Y-91483138D01*
X202744269Y-91686877D01*
X202744269Y-91686880D01*
X202808010Y-91883054D01*
X202822853Y-91912184D01*
X202901660Y-92066852D01*
X203022907Y-92233733D01*
X203168767Y-92379593D01*
X203335648Y-92500840D01*
X203360913Y-92513713D01*
X203411552Y-92539515D01*
X203462348Y-92587490D01*
X203479143Y-92655311D01*
X203456606Y-92721446D01*
X203411552Y-92760485D01*
X203335647Y-92799160D01*
X203168765Y-92920408D01*
X203022908Y-93066265D01*
X202901660Y-93233147D01*
X202808010Y-93416945D01*
X202744269Y-93613119D01*
X202744269Y-93613122D01*
X202712000Y-93816861D01*
X202712000Y-94023138D01*
X202744269Y-94226877D01*
X202744269Y-94226880D01*
X202808010Y-94423054D01*
X202822853Y-94452184D01*
X202901660Y-94606852D01*
X203022907Y-94773733D01*
X203168767Y-94919593D01*
X203335648Y-95040840D01*
X203360913Y-95053713D01*
X203411552Y-95079515D01*
X203462348Y-95127490D01*
X203479143Y-95195311D01*
X203456606Y-95261446D01*
X203411552Y-95300485D01*
X203335647Y-95339160D01*
X203168765Y-95460408D01*
X203022908Y-95606265D01*
X202901660Y-95773147D01*
X202808010Y-95956945D01*
X202744269Y-96153119D01*
X202744269Y-96153122D01*
X202712000Y-96356861D01*
X202712000Y-96563138D01*
X202744269Y-96766877D01*
X202744269Y-96766880D01*
X202808010Y-96963054D01*
X202822853Y-96992184D01*
X202901660Y-97146852D01*
X203022907Y-97313733D01*
X203168767Y-97459593D01*
X203335648Y-97580840D01*
X203360913Y-97593713D01*
X203412102Y-97619795D01*
X203462898Y-97667769D01*
X203479693Y-97735590D01*
X203457156Y-97801725D01*
X203412102Y-97840765D01*
X203335913Y-97879585D01*
X203289418Y-97913365D01*
X203289418Y-97913366D01*
X203860430Y-98484377D01*
X203814068Y-98496800D01*
X203690932Y-98567892D01*
X203590392Y-98668432D01*
X203519300Y-98791568D01*
X203506877Y-98837930D01*
X202935866Y-98266918D01*
X202935865Y-98266918D01*
X202902085Y-98313413D01*
X202808476Y-98497131D01*
X202744756Y-98693240D01*
X202712500Y-98896895D01*
X202712500Y-99103104D01*
X202744756Y-99306759D01*
X202808476Y-99502868D01*
X202902087Y-99686590D01*
X202935865Y-99733080D01*
X202935865Y-99733081D01*
X203506877Y-99162069D01*
X203519300Y-99208432D01*
X203590392Y-99331568D01*
X203690932Y-99432108D01*
X203814068Y-99503200D01*
X203860429Y-99515622D01*
X203289417Y-100086633D01*
X203289418Y-100086634D01*
X203335904Y-100120408D01*
X203335921Y-100120419D01*
X203412101Y-100159234D01*
X203462897Y-100207208D01*
X203479693Y-100275029D01*
X203457156Y-100341164D01*
X203412103Y-100380203D01*
X203335650Y-100419158D01*
X203168765Y-100540408D01*
X203022908Y-100686265D01*
X202901660Y-100853147D01*
X202808010Y-101036945D01*
X202744269Y-101233119D01*
X202744269Y-101233122D01*
X202712000Y-101436861D01*
X202712000Y-101643138D01*
X202744269Y-101846877D01*
X202744269Y-101846880D01*
X202808010Y-102043054D01*
X202822853Y-102072184D01*
X202901660Y-102226852D01*
X203022907Y-102393733D01*
X203168767Y-102539593D01*
X203335648Y-102660840D01*
X203360913Y-102673713D01*
X203411552Y-102699515D01*
X203462348Y-102747490D01*
X203479143Y-102815311D01*
X203456606Y-102881446D01*
X203411552Y-102920485D01*
X203335647Y-102959160D01*
X203168765Y-103080408D01*
X203022908Y-103226265D01*
X202901660Y-103393147D01*
X202808010Y-103576945D01*
X202744269Y-103773119D01*
X202744269Y-103773122D01*
X202712000Y-103976861D01*
X202712000Y-104183139D01*
X202713164Y-104190485D01*
X202744269Y-104386877D01*
X202744269Y-104386880D01*
X202808010Y-104583054D01*
X202822853Y-104612184D01*
X202901660Y-104766852D01*
X203022907Y-104933733D01*
X203168767Y-105079593D01*
X203335648Y-105200840D01*
X203360913Y-105213713D01*
X203411552Y-105239515D01*
X203462348Y-105287490D01*
X203479143Y-105355311D01*
X203456606Y-105421446D01*
X203411552Y-105460485D01*
X203335647Y-105499160D01*
X203168765Y-105620408D01*
X203022908Y-105766265D01*
X202901660Y-105933147D01*
X202808010Y-106116945D01*
X202744269Y-106313119D01*
X202744269Y-106313122D01*
X202744269Y-106313124D01*
X202712000Y-106516861D01*
X202712000Y-106723139D01*
X202722943Y-106792230D01*
X202744269Y-106926877D01*
X202744269Y-106926880D01*
X202808010Y-107123054D01*
X202880430Y-107265185D01*
X202901660Y-107306852D01*
X203022907Y-107473733D01*
X203168767Y-107619593D01*
X203335648Y-107740840D01*
X203519443Y-107834488D01*
X203519445Y-107834489D01*
X203715620Y-107898230D01*
X203715621Y-107898230D01*
X203715624Y-107898231D01*
X203919361Y-107930500D01*
X203919362Y-107930500D01*
X204125638Y-107930500D01*
X204125639Y-107930500D01*
X204329376Y-107898231D01*
X204329379Y-107898230D01*
X204329380Y-107898230D01*
X204525554Y-107834489D01*
X204525554Y-107834488D01*
X204525557Y-107834488D01*
X204709352Y-107740840D01*
X204876233Y-107619593D01*
X205022093Y-107473733D01*
X205143340Y-107306852D01*
X205236988Y-107123057D01*
X205245038Y-107098282D01*
X205300730Y-106926880D01*
X205300730Y-106926879D01*
X205300731Y-106926876D01*
X205333000Y-106723139D01*
X205333000Y-106516861D01*
X205300731Y-106313124D01*
X205300730Y-106313120D01*
X205300730Y-106313119D01*
X205236989Y-106116945D01*
X205236988Y-106116943D01*
X205143340Y-105933148D01*
X205022093Y-105766267D01*
X204876233Y-105620407D01*
X204801687Y-105566246D01*
X204709350Y-105499158D01*
X204633448Y-105460485D01*
X204582651Y-105412511D01*
X204565856Y-105344690D01*
X204588393Y-105278555D01*
X204633448Y-105239515D01*
X204709350Y-105200841D01*
X204709349Y-105200841D01*
X204709352Y-105200840D01*
X204876233Y-105079593D01*
X205022093Y-104933733D01*
X205143340Y-104766852D01*
X205236988Y-104583057D01*
X205265188Y-104496267D01*
X205300730Y-104386880D01*
X205300730Y-104386879D01*
X205300731Y-104386876D01*
X205333000Y-104183139D01*
X205333000Y-103976861D01*
X205300731Y-103773124D01*
X205300730Y-103773120D01*
X205300730Y-103773119D01*
X205236989Y-103576945D01*
X205217442Y-103538581D01*
X205143340Y-103393148D01*
X205022093Y-103226267D01*
X204876233Y-103080407D01*
X204801742Y-103026286D01*
X204709350Y-102959158D01*
X204633448Y-102920485D01*
X204582651Y-102872511D01*
X204565856Y-102804690D01*
X204588393Y-102738555D01*
X204633448Y-102699515D01*
X204709350Y-102660841D01*
X204709349Y-102660841D01*
X204709352Y-102660840D01*
X204876233Y-102539593D01*
X205022093Y-102393733D01*
X205143340Y-102226852D01*
X205236988Y-102043057D01*
X205265188Y-101956267D01*
X205300730Y-101846880D01*
X205300731Y-101846876D01*
X205308158Y-101799982D01*
X209399500Y-101799982D01*
X209399500Y-103600017D01*
X209410000Y-103702796D01*
X209410001Y-103702798D01*
X209465186Y-103869335D01*
X209557288Y-104018656D01*
X209681344Y-104142712D01*
X209830665Y-104234814D01*
X209997202Y-104289999D01*
X210099990Y-104300500D01*
X210099995Y-104300500D01*
X211900005Y-104300500D01*
X211900010Y-104300500D01*
X212002798Y-104289999D01*
X212169335Y-104234814D01*
X212318656Y-104142712D01*
X212442712Y-104018656D01*
X212534814Y-103869335D01*
X212589999Y-103702798D01*
X212600500Y-103600010D01*
X212600500Y-101799990D01*
X212589999Y-101697202D01*
X212534814Y-101530665D01*
X212442712Y-101381344D01*
X212318656Y-101257288D01*
X212169335Y-101165186D01*
X212002798Y-101110001D01*
X212002796Y-101110000D01*
X211900017Y-101099500D01*
X211900010Y-101099500D01*
X210099990Y-101099500D01*
X210099982Y-101099500D01*
X209997203Y-101110000D01*
X209997202Y-101110001D01*
X209967655Y-101119792D01*
X209830667Y-101165185D01*
X209830662Y-101165187D01*
X209681342Y-101257289D01*
X209557289Y-101381342D01*
X209465187Y-101530662D01*
X209465185Y-101530667D01*
X209441298Y-101602753D01*
X209410001Y-101697202D01*
X209410001Y-101697203D01*
X209410000Y-101697203D01*
X209399500Y-101799982D01*
X205308158Y-101799982D01*
X205311729Y-101777436D01*
X205311729Y-101777435D01*
X205313707Y-101764951D01*
X205333000Y-101643139D01*
X205333000Y-101436861D01*
X205300731Y-101233124D01*
X205300730Y-101233120D01*
X205300730Y-101233119D01*
X205236989Y-101036945D01*
X205236988Y-101036943D01*
X205143340Y-100853148D01*
X205022093Y-100686267D01*
X204876233Y-100540407D01*
X204709352Y-100419160D01*
X204709348Y-100419158D01*
X204632897Y-100380204D01*
X204582101Y-100332229D01*
X204565306Y-100264408D01*
X204587844Y-100198273D01*
X204632898Y-100159234D01*
X204709087Y-100120414D01*
X204709088Y-100120414D01*
X204755580Y-100086634D01*
X204755580Y-100086633D01*
X204184569Y-99515622D01*
X204230932Y-99503200D01*
X204354068Y-99432108D01*
X204454608Y-99331568D01*
X204525700Y-99208432D01*
X204538122Y-99162069D01*
X205109133Y-99733080D01*
X205109134Y-99733080D01*
X205142912Y-99686590D01*
X205236523Y-99502868D01*
X205300243Y-99306759D01*
X205332500Y-99103104D01*
X205332500Y-98896895D01*
X205300243Y-98693240D01*
X205236523Y-98497131D01*
X205142916Y-98313417D01*
X205142908Y-98313404D01*
X205109134Y-98266918D01*
X205109133Y-98266917D01*
X204538122Y-98837929D01*
X204525700Y-98791568D01*
X204454608Y-98668432D01*
X204354068Y-98567892D01*
X204230932Y-98496800D01*
X204184568Y-98484376D01*
X204755581Y-97913365D01*
X204709090Y-97879587D01*
X204632897Y-97840765D01*
X204582101Y-97792791D01*
X204565306Y-97724970D01*
X204587843Y-97658835D01*
X204632898Y-97619795D01*
X204709350Y-97580841D01*
X204709349Y-97580841D01*
X204709352Y-97580840D01*
X204876233Y-97459593D01*
X205022093Y-97313733D01*
X205143340Y-97146852D01*
X205236988Y-96963057D01*
X205265188Y-96876267D01*
X205300730Y-96766880D01*
X205300730Y-96766879D01*
X205300731Y-96766876D01*
X205333000Y-96563139D01*
X205333000Y-96356861D01*
X205300731Y-96153124D01*
X205300730Y-96153120D01*
X205300730Y-96153119D01*
X205236989Y-95956945D01*
X205236988Y-95956943D01*
X205143340Y-95773148D01*
X205022093Y-95606267D01*
X204876233Y-95460407D01*
X204820606Y-95419991D01*
X204709350Y-95339158D01*
X204633448Y-95300485D01*
X204582651Y-95252511D01*
X204565856Y-95184690D01*
X204588393Y-95118555D01*
X204633448Y-95079515D01*
X204709350Y-95040841D01*
X204709349Y-95040841D01*
X204709352Y-95040840D01*
X204876233Y-94919593D01*
X205022093Y-94773733D01*
X205143340Y-94606852D01*
X205236988Y-94423057D01*
X205265188Y-94336267D01*
X205300730Y-94226880D01*
X205300730Y-94226879D01*
X205300731Y-94226876D01*
X205333000Y-94023139D01*
X205333000Y-93816861D01*
X205300731Y-93613124D01*
X205300730Y-93613120D01*
X205300730Y-93613119D01*
X205236989Y-93416945D01*
X205236988Y-93416943D01*
X205143340Y-93233148D01*
X205022093Y-93066267D01*
X204876233Y-92920407D01*
X204820606Y-92879991D01*
X204709350Y-92799158D01*
X204633448Y-92760485D01*
X204582651Y-92712511D01*
X204565856Y-92644690D01*
X204588393Y-92578555D01*
X204633448Y-92539515D01*
X204709350Y-92500841D01*
X204709349Y-92500841D01*
X204709352Y-92500840D01*
X204876233Y-92379593D01*
X205022093Y-92233733D01*
X205143340Y-92066852D01*
X205236988Y-91883057D01*
X205265188Y-91796267D01*
X205300730Y-91686880D01*
X205300730Y-91686879D01*
X205300731Y-91686876D01*
X205333000Y-91483139D01*
X205333000Y-91276861D01*
X205300731Y-91073124D01*
X205300730Y-91073120D01*
X205300730Y-91073119D01*
X205236989Y-90876945D01*
X205217576Y-90838845D01*
X205143340Y-90693148D01*
X205022093Y-90526267D01*
X204876233Y-90380407D01*
X204709352Y-90259160D01*
X204525554Y-90165510D01*
X204329379Y-90101769D01*
X204176573Y-90077567D01*
X204125639Y-90069500D01*
X203919361Y-90069500D01*
X203851448Y-90080256D01*
X203715622Y-90101769D01*
X203715619Y-90101769D01*
X203519445Y-90165510D01*
X203335647Y-90259160D01*
X203168765Y-90380408D01*
X203022908Y-90526265D01*
X202901660Y-90693147D01*
X202808010Y-90876945D01*
X202744269Y-91073119D01*
X202744269Y-91073122D01*
X202712000Y-91276861D01*
X200109933Y-91276861D01*
X200169212Y-91197677D01*
X200195852Y-91162088D01*
X200195854Y-91162086D01*
X200246096Y-91027379D01*
X200246098Y-91027372D01*
X200252499Y-90967844D01*
X200252500Y-90967827D01*
X200252500Y-90360000D01*
X199421701Y-90360000D01*
X199445700Y-90318432D01*
X199482500Y-90181092D01*
X199482500Y-90038908D01*
X199445700Y-89901568D01*
X199429806Y-89874038D01*
X209399500Y-89874038D01*
X209399500Y-90125962D01*
X209436568Y-90360000D01*
X209438910Y-90374785D01*
X209516760Y-90614383D01*
X209577708Y-90733999D01*
X209605131Y-90787820D01*
X209631132Y-90838848D01*
X209779201Y-91042649D01*
X209779205Y-91042654D01*
X209957345Y-91220794D01*
X209957350Y-91220798D01*
X210127877Y-91344692D01*
X210161155Y-91368870D01*
X210304184Y-91441747D01*
X210385616Y-91483239D01*
X210385618Y-91483239D01*
X210385621Y-91483241D01*
X210625215Y-91561090D01*
X210874038Y-91600500D01*
X210874039Y-91600500D01*
X211125961Y-91600500D01*
X211125962Y-91600500D01*
X211374785Y-91561090D01*
X211614379Y-91483241D01*
X211838845Y-91368870D01*
X212042656Y-91220793D01*
X212220793Y-91042656D01*
X212368870Y-90838845D01*
X212483241Y-90614379D01*
X212561090Y-90374785D01*
X212600500Y-90125962D01*
X212600500Y-89874038D01*
X212561090Y-89625215D01*
X212483241Y-89385621D01*
X212483239Y-89385618D01*
X212483239Y-89385616D01*
X212415245Y-89252172D01*
X212368870Y-89161155D01*
X212324425Y-89099982D01*
X212220798Y-88957350D01*
X212220794Y-88957345D01*
X212042654Y-88779205D01*
X212042649Y-88779201D01*
X211838848Y-88631132D01*
X211838847Y-88631131D01*
X211838845Y-88631130D01*
X211768747Y-88595413D01*
X211614383Y-88516760D01*
X211374785Y-88438910D01*
X211125962Y-88399500D01*
X210874038Y-88399500D01*
X210807738Y-88410001D01*
X210625214Y-88438910D01*
X210385616Y-88516760D01*
X210161151Y-88631132D01*
X209957350Y-88779201D01*
X209957345Y-88779205D01*
X209779205Y-88957345D01*
X209779201Y-88957350D01*
X209631132Y-89161151D01*
X209516760Y-89385616D01*
X209456850Y-89570000D01*
X209438910Y-89625215D01*
X209399500Y-89874038D01*
X199429806Y-89874038D01*
X199421701Y-89860000D01*
X200252500Y-89860000D01*
X200252500Y-89252172D01*
X200252499Y-89252155D01*
X200246098Y-89192627D01*
X200246096Y-89192620D01*
X200195854Y-89057913D01*
X200195850Y-89057906D01*
X200109690Y-88942812D01*
X200109687Y-88942809D01*
X199994593Y-88856649D01*
X199994586Y-88856645D01*
X199859879Y-88806403D01*
X199859872Y-88806401D01*
X199800344Y-88800000D01*
X199192500Y-88800000D01*
X199192500Y-89630799D01*
X199150932Y-89606800D01*
X199013592Y-89570000D01*
X198871408Y-89570000D01*
X198734068Y-89606800D01*
X198692500Y-89630799D01*
X198692500Y-88800000D01*
X198084655Y-88800000D01*
X198025127Y-88806401D01*
X198025120Y-88806403D01*
X197890413Y-88856645D01*
X197890406Y-88856649D01*
X197775312Y-88942809D01*
X197775309Y-88942812D01*
X197689149Y-89057906D01*
X197689145Y-89057913D01*
X197638903Y-89192620D01*
X197638901Y-89192627D01*
X197632500Y-89252155D01*
X197632500Y-89860000D01*
X198463299Y-89860000D01*
X198439300Y-89901568D01*
X198402500Y-90038908D01*
X198402500Y-90181092D01*
X198439300Y-90318432D01*
X198463299Y-90360000D01*
X197632500Y-90360000D01*
X197632500Y-90967844D01*
X197638901Y-91027372D01*
X197638903Y-91027379D01*
X197689145Y-91162086D01*
X197689149Y-91162093D01*
X197775309Y-91277187D01*
X197775312Y-91277190D01*
X197890406Y-91363350D01*
X197890413Y-91363354D01*
X198025120Y-91413596D01*
X198044444Y-91415674D01*
X198108996Y-91442411D01*
X198148846Y-91499802D01*
X198151341Y-91569628D01*
X198115690Y-91629717D01*
X198104083Y-91639278D01*
X198088770Y-91650404D01*
X198088764Y-91650409D01*
X197942908Y-91796265D01*
X197821660Y-91963147D01*
X197728010Y-92146945D01*
X197664269Y-92343119D01*
X197664269Y-92343122D01*
X197632000Y-92546861D01*
X197632000Y-92753138D01*
X197664269Y-92956877D01*
X197664269Y-92956880D01*
X197728010Y-93153054D01*
X197817056Y-93327816D01*
X197821660Y-93336852D01*
X197942907Y-93503733D01*
X198088767Y-93649593D01*
X198255648Y-93770840D01*
X198263911Y-93775050D01*
X198331552Y-93809515D01*
X198382348Y-93857490D01*
X198399143Y-93925311D01*
X198376606Y-93991446D01*
X198331552Y-94030485D01*
X198255647Y-94069160D01*
X198088765Y-94190408D01*
X197942908Y-94336265D01*
X197821660Y-94503147D01*
X197728010Y-94686945D01*
X197664269Y-94883119D01*
X197664269Y-94883122D01*
X197632000Y-95086861D01*
X197632000Y-95293138D01*
X197664269Y-95496877D01*
X197664269Y-95496880D01*
X197728010Y-95693054D01*
X197817056Y-95867816D01*
X197821660Y-95876852D01*
X197942907Y-96043733D01*
X198088767Y-96189593D01*
X198255648Y-96310840D01*
X198263911Y-96315050D01*
X198331552Y-96349515D01*
X198382348Y-96397490D01*
X198399143Y-96465311D01*
X198376606Y-96531446D01*
X198331552Y-96570485D01*
X198255647Y-96609160D01*
X198088765Y-96730408D01*
X197942908Y-96876265D01*
X197821660Y-97043147D01*
X197728010Y-97226945D01*
X197664269Y-97423119D01*
X197664269Y-97423122D01*
X197632000Y-97626861D01*
X197632000Y-97833138D01*
X197664269Y-98036877D01*
X197664269Y-98036880D01*
X197728010Y-98233054D01*
X197817056Y-98407816D01*
X197821660Y-98416852D01*
X197942907Y-98583733D01*
X198088767Y-98729593D01*
X198255648Y-98850840D01*
X198263911Y-98855050D01*
X198331552Y-98889515D01*
X198382348Y-98937490D01*
X198399143Y-99005311D01*
X198376606Y-99071446D01*
X198331552Y-99110485D01*
X198255647Y-99149160D01*
X198088765Y-99270408D01*
X197942908Y-99416265D01*
X197821660Y-99583147D01*
X197728010Y-99766945D01*
X197664269Y-99963119D01*
X197664269Y-99963122D01*
X197632000Y-100166861D01*
X197632000Y-100373138D01*
X197664269Y-100576877D01*
X197664269Y-100576880D01*
X197728010Y-100773054D01*
X197817056Y-100947816D01*
X197821660Y-100956852D01*
X197942907Y-101123733D01*
X198088767Y-101269593D01*
X198255648Y-101390840D01*
X198263911Y-101395050D01*
X198331552Y-101429515D01*
X198382348Y-101477490D01*
X198399143Y-101545311D01*
X198376606Y-101611446D01*
X198331552Y-101650485D01*
X198255647Y-101689160D01*
X198088765Y-101810408D01*
X197942908Y-101956265D01*
X197821660Y-102123147D01*
X197728010Y-102306945D01*
X197664269Y-102503119D01*
X197664269Y-102503122D01*
X197632000Y-102706861D01*
X197632000Y-102913138D01*
X197664269Y-103116877D01*
X197664269Y-103116880D01*
X197728010Y-103313054D01*
X197817056Y-103487816D01*
X197821660Y-103496852D01*
X197942907Y-103663733D01*
X198088767Y-103809593D01*
X198255648Y-103930840D01*
X198263911Y-103935050D01*
X198331552Y-103969515D01*
X198382348Y-104017490D01*
X198399143Y-104085311D01*
X198376606Y-104151446D01*
X198331552Y-104190485D01*
X198255647Y-104229160D01*
X198088765Y-104350408D01*
X197942908Y-104496265D01*
X197821660Y-104663147D01*
X197728010Y-104846945D01*
X197664269Y-105043119D01*
X197664269Y-105043122D01*
X197632000Y-105246861D01*
X197632000Y-105453138D01*
X197664269Y-105656877D01*
X197664269Y-105656880D01*
X197728010Y-105853054D01*
X197817056Y-106027816D01*
X197821660Y-106036852D01*
X197942907Y-106203733D01*
X198088767Y-106349593D01*
X198255648Y-106470840D01*
X198332102Y-106509795D01*
X198382898Y-106557769D01*
X198399693Y-106625590D01*
X198377156Y-106691725D01*
X198332102Y-106730765D01*
X198255913Y-106769585D01*
X198209418Y-106803365D01*
X198209418Y-106803366D01*
X198780430Y-107374377D01*
X198734068Y-107386800D01*
X198610932Y-107457892D01*
X198510392Y-107558432D01*
X198439300Y-107681568D01*
X198426877Y-107727930D01*
X197815444Y-107116496D01*
X197816325Y-107115614D01*
X197789736Y-107089395D01*
X197783593Y-107076669D01*
X197719583Y-106922137D01*
X197657945Y-106829890D01*
X197626506Y-106782837D01*
X197508042Y-106664373D01*
X197368740Y-106571295D01*
X197213962Y-106507184D01*
X197213954Y-106507182D01*
X197049651Y-106474500D01*
X197049647Y-106474500D01*
X196882113Y-106474500D01*
X196882108Y-106474500D01*
X196717805Y-106507182D01*
X196717797Y-106507184D01*
X196563019Y-106571295D01*
X196423717Y-106664373D01*
X196305253Y-106782837D01*
X196212175Y-106922139D01*
X196148064Y-107076917D01*
X196148062Y-107076925D01*
X196115380Y-107241228D01*
X196115380Y-107408771D01*
X196148062Y-107573074D01*
X196148064Y-107573082D01*
X196153633Y-107586526D01*
X196163072Y-107633979D01*
X196163072Y-109401167D01*
X196153633Y-109448620D01*
X196095756Y-109588345D01*
X196095754Y-109588353D01*
X196063072Y-109752656D01*
X194313912Y-109752656D01*
X194310853Y-109748446D01*
X194287372Y-109682640D01*
X194303197Y-109614586D01*
X194323489Y-109587879D01*
X194328852Y-109582516D01*
X194392712Y-109518656D01*
X194484814Y-109369334D01*
X194539999Y-109202797D01*
X194550500Y-109100009D01*
X194550499Y-107899992D01*
X194549478Y-107890001D01*
X194539999Y-107797203D01*
X194539998Y-107797200D01*
X194517022Y-107727863D01*
X194484814Y-107630666D01*
X194392712Y-107481344D01*
X194268656Y-107357288D01*
X194119334Y-107265186D01*
X193952797Y-107210001D01*
X193952795Y-107210000D01*
X193850010Y-107199500D01*
X192649998Y-107199500D01*
X192649981Y-107199501D01*
X192547203Y-107210000D01*
X192547200Y-107210001D01*
X192380668Y-107265185D01*
X192380663Y-107265187D01*
X192231342Y-107357289D01*
X192107289Y-107481342D01*
X192015187Y-107630663D01*
X192015186Y-107630666D01*
X191960001Y-107797203D01*
X191960001Y-107797204D01*
X191960000Y-107797204D01*
X191949500Y-107899983D01*
X187350500Y-107899983D01*
X187350500Y-107753713D01*
X187317246Y-107543757D01*
X187251557Y-107341588D01*
X187155051Y-107152184D01*
X187155049Y-107152181D01*
X187155048Y-107152179D01*
X187030109Y-106980213D01*
X186879786Y-106829890D01*
X186707820Y-106704951D01*
X186699600Y-106700763D01*
X186699054Y-106700485D01*
X186648259Y-106652512D01*
X186631463Y-106584692D01*
X186653999Y-106518556D01*
X186699054Y-106479515D01*
X186707816Y-106475051D01*
X186729789Y-106459086D01*
X186879786Y-106350109D01*
X186879788Y-106350106D01*
X186879792Y-106350104D01*
X187030104Y-106199792D01*
X187030106Y-106199788D01*
X187030109Y-106199786D01*
X187155048Y-106027820D01*
X187155047Y-106027820D01*
X187155051Y-106027816D01*
X187251557Y-105838412D01*
X187317246Y-105636243D01*
X187350500Y-105426287D01*
X187350500Y-105213713D01*
X187317246Y-105003757D01*
X187251557Y-104801588D01*
X187155051Y-104612184D01*
X187155049Y-104612181D01*
X187155048Y-104612179D01*
X187030109Y-104440213D01*
X186879786Y-104289890D01*
X186707820Y-104164951D01*
X186707115Y-104164591D01*
X186699054Y-104160485D01*
X186648259Y-104112512D01*
X186631463Y-104044692D01*
X186653999Y-103978556D01*
X186699054Y-103939515D01*
X186707816Y-103935051D01*
X186780981Y-103881894D01*
X186879786Y-103810109D01*
X186879788Y-103810106D01*
X186879792Y-103810104D01*
X187030104Y-103659792D01*
X187030106Y-103659788D01*
X187030109Y-103659786D01*
X187155048Y-103487820D01*
X187155047Y-103487820D01*
X187155051Y-103487816D01*
X187251557Y-103298412D01*
X187317246Y-103096243D01*
X187350500Y-102886287D01*
X187350500Y-102673713D01*
X187317246Y-102463757D01*
X187251557Y-102261588D01*
X187155051Y-102072184D01*
X187155049Y-102072181D01*
X187155048Y-102072179D01*
X187030109Y-101900213D01*
X186929878Y-101799982D01*
X189149500Y-101799982D01*
X189149500Y-103600017D01*
X189160000Y-103702796D01*
X189160001Y-103702798D01*
X189215186Y-103869335D01*
X189307288Y-104018656D01*
X189431344Y-104142712D01*
X189580665Y-104234814D01*
X189747202Y-104289999D01*
X189849990Y-104300500D01*
X189849995Y-104300500D01*
X191650005Y-104300500D01*
X191650010Y-104300500D01*
X191752798Y-104289999D01*
X191919335Y-104234814D01*
X192068656Y-104142712D01*
X192192712Y-104018656D01*
X192284814Y-103869335D01*
X192339999Y-103702798D01*
X192350500Y-103600010D01*
X192350500Y-102574071D01*
X194150000Y-102574071D01*
X194150000Y-102825928D01*
X194189397Y-103074669D01*
X194267219Y-103314184D01*
X194381557Y-103538583D01*
X194455748Y-103640697D01*
X194455748Y-103640698D01*
X195226212Y-102870234D01*
X195237482Y-102912292D01*
X195309890Y-103037708D01*
X195412292Y-103140110D01*
X195537708Y-103212518D01*
X195579765Y-103223787D01*
X194809300Y-103994250D01*
X194911416Y-104068442D01*
X195135815Y-104182780D01*
X195375330Y-104260602D01*
X195624072Y-104300000D01*
X195875928Y-104300000D01*
X196124669Y-104260602D01*
X196364184Y-104182780D01*
X196588575Y-104068446D01*
X196588581Y-104068442D01*
X196690697Y-103994250D01*
X196690698Y-103994250D01*
X195920234Y-103223787D01*
X195962292Y-103212518D01*
X196087708Y-103140110D01*
X196190110Y-103037708D01*
X196262518Y-102912292D01*
X196273787Y-102870235D01*
X197044250Y-103640698D01*
X197044250Y-103640697D01*
X197118442Y-103538581D01*
X197118446Y-103538575D01*
X197232780Y-103314184D01*
X197310602Y-103074669D01*
X197350000Y-102825928D01*
X197350000Y-102574071D01*
X197310602Y-102325330D01*
X197232780Y-102085815D01*
X197118442Y-101861416D01*
X197044250Y-101759301D01*
X197044250Y-101759300D01*
X196273787Y-102529764D01*
X196262518Y-102487708D01*
X196190110Y-102362292D01*
X196087708Y-102259890D01*
X195962292Y-102187482D01*
X195920232Y-102176212D01*
X196690698Y-101405748D01*
X196588583Y-101331557D01*
X196364184Y-101217219D01*
X196124669Y-101139397D01*
X195875928Y-101100000D01*
X195624072Y-101100000D01*
X195375330Y-101139397D01*
X195135815Y-101217219D01*
X194911413Y-101331559D01*
X194809301Y-101405747D01*
X194809300Y-101405748D01*
X195579765Y-102176212D01*
X195537708Y-102187482D01*
X195412292Y-102259890D01*
X195309890Y-102362292D01*
X195237482Y-102487708D01*
X195226212Y-102529765D01*
X194455748Y-101759300D01*
X194455747Y-101759301D01*
X194381559Y-101861413D01*
X194267219Y-102085815D01*
X194189397Y-102325330D01*
X194150000Y-102574071D01*
X192350500Y-102574071D01*
X192350500Y-101799990D01*
X192339999Y-101697202D01*
X192284814Y-101530665D01*
X192192712Y-101381344D01*
X192068656Y-101257288D01*
X191919335Y-101165186D01*
X191752798Y-101110001D01*
X191752796Y-101110000D01*
X191650017Y-101099500D01*
X191650010Y-101099500D01*
X189849990Y-101099500D01*
X189849982Y-101099500D01*
X189747203Y-101110000D01*
X189747202Y-101110001D01*
X189717655Y-101119792D01*
X189580667Y-101165185D01*
X189580662Y-101165187D01*
X189431342Y-101257289D01*
X189307289Y-101381342D01*
X189215187Y-101530662D01*
X189215185Y-101530667D01*
X189191298Y-101602753D01*
X189160001Y-101697202D01*
X189160001Y-101697203D01*
X189160000Y-101697203D01*
X189149500Y-101799982D01*
X186929878Y-101799982D01*
X186879786Y-101749890D01*
X186707820Y-101624951D01*
X186707115Y-101624591D01*
X186699054Y-101620485D01*
X186648259Y-101572512D01*
X186631463Y-101504692D01*
X186653999Y-101438556D01*
X186699054Y-101399515D01*
X186707816Y-101395051D01*
X186795209Y-101331557D01*
X186879786Y-101270109D01*
X186879788Y-101270106D01*
X186879792Y-101270104D01*
X187030104Y-101119792D01*
X187030106Y-101119788D01*
X187030109Y-101119786D01*
X187155048Y-100947820D01*
X187155047Y-100947820D01*
X187155051Y-100947816D01*
X187251557Y-100758412D01*
X187317246Y-100556243D01*
X187350500Y-100346287D01*
X187350500Y-100133713D01*
X187317246Y-99923757D01*
X187251557Y-99721588D01*
X187155051Y-99532184D01*
X187155049Y-99532181D01*
X187155048Y-99532179D01*
X187030109Y-99360213D01*
X186879786Y-99209890D01*
X186707820Y-99084951D01*
X186707115Y-99084591D01*
X186699054Y-99080485D01*
X186648259Y-99032512D01*
X186631463Y-98964692D01*
X186653999Y-98898556D01*
X186699054Y-98859515D01*
X186707816Y-98855051D01*
X186729789Y-98839086D01*
X186879786Y-98730109D01*
X186879788Y-98730106D01*
X186879792Y-98730104D01*
X187030104Y-98579792D01*
X187030106Y-98579788D01*
X187030109Y-98579786D01*
X187155048Y-98407820D01*
X187155047Y-98407820D01*
X187155051Y-98407816D01*
X187251557Y-98218412D01*
X187317246Y-98016243D01*
X187350500Y-97806287D01*
X187350500Y-97593713D01*
X187317246Y-97383757D01*
X187251557Y-97181588D01*
X187155051Y-96992184D01*
X187155049Y-96992181D01*
X187155048Y-96992179D01*
X187030109Y-96820213D01*
X186879786Y-96669890D01*
X186707820Y-96544951D01*
X186707115Y-96544591D01*
X186699054Y-96540485D01*
X186648259Y-96492512D01*
X186631463Y-96424692D01*
X186653999Y-96358556D01*
X186699054Y-96319515D01*
X186707816Y-96315051D01*
X186729789Y-96299086D01*
X186879786Y-96190109D01*
X186879788Y-96190106D01*
X186879792Y-96190104D01*
X187030104Y-96039792D01*
X187030106Y-96039788D01*
X187030109Y-96039786D01*
X187155048Y-95867820D01*
X187155047Y-95867820D01*
X187155051Y-95867816D01*
X187251557Y-95678412D01*
X187317246Y-95476243D01*
X187350500Y-95266287D01*
X187350500Y-95053713D01*
X187317246Y-94843757D01*
X187251557Y-94641588D01*
X187155051Y-94452184D01*
X187155049Y-94452181D01*
X187155048Y-94452179D01*
X187030109Y-94280213D01*
X186879786Y-94129890D01*
X186707820Y-94004951D01*
X186707115Y-94004591D01*
X186699054Y-94000485D01*
X186648259Y-93952512D01*
X186631463Y-93884692D01*
X186653999Y-93818556D01*
X186699054Y-93779515D01*
X186707816Y-93775051D01*
X186729789Y-93759086D01*
X186879786Y-93650109D01*
X186879788Y-93650106D01*
X186879792Y-93650104D01*
X187030104Y-93499792D01*
X187030106Y-93499788D01*
X187030109Y-93499786D01*
X187155048Y-93327820D01*
X187155047Y-93327820D01*
X187155051Y-93327816D01*
X187251557Y-93138412D01*
X187317246Y-92936243D01*
X187350500Y-92726287D01*
X187350500Y-92513713D01*
X187317246Y-92303757D01*
X187251557Y-92101588D01*
X187155051Y-91912184D01*
X187155049Y-91912181D01*
X187155048Y-91912179D01*
X187030109Y-91740213D01*
X186879786Y-91589890D01*
X186707820Y-91464951D01*
X186707115Y-91464591D01*
X186699054Y-91460485D01*
X186648259Y-91412512D01*
X186631463Y-91344692D01*
X186653999Y-91278556D01*
X186699054Y-91239515D01*
X186707816Y-91235051D01*
X186759257Y-91197677D01*
X186879786Y-91110109D01*
X186879788Y-91110106D01*
X186879792Y-91110104D01*
X187030104Y-90959792D01*
X187030106Y-90959788D01*
X187030109Y-90959786D01*
X187155048Y-90787820D01*
X187155047Y-90787820D01*
X187155051Y-90787816D01*
X187251557Y-90598412D01*
X187317246Y-90396243D01*
X187350500Y-90186287D01*
X187350500Y-89973713D01*
X187350500Y-89973712D01*
X187337014Y-89888563D01*
X187334713Y-89874038D01*
X189149500Y-89874038D01*
X189149500Y-90125962D01*
X189186568Y-90360000D01*
X189188910Y-90374785D01*
X189266760Y-90614383D01*
X189327708Y-90733999D01*
X189355131Y-90787820D01*
X189381132Y-90838848D01*
X189529201Y-91042649D01*
X189529205Y-91042654D01*
X189707345Y-91220794D01*
X189707350Y-91220798D01*
X189877877Y-91344692D01*
X189911155Y-91368870D01*
X190054184Y-91441747D01*
X190135616Y-91483239D01*
X190135618Y-91483239D01*
X190135621Y-91483241D01*
X190375215Y-91561090D01*
X190624038Y-91600500D01*
X190624039Y-91600500D01*
X190875961Y-91600500D01*
X190875962Y-91600500D01*
X191124785Y-91561090D01*
X191364379Y-91483241D01*
X191588845Y-91368870D01*
X191792656Y-91220793D01*
X191970793Y-91042656D01*
X192118870Y-90838845D01*
X192233241Y-90614379D01*
X192311090Y-90374785D01*
X192350500Y-90125962D01*
X192350500Y-89874038D01*
X192311090Y-89625215D01*
X192233241Y-89385621D01*
X192233239Y-89385618D01*
X192233239Y-89385616D01*
X192138768Y-89200208D01*
X192118870Y-89161155D01*
X192074431Y-89099990D01*
X192074425Y-89099982D01*
X194149500Y-89099982D01*
X194149500Y-90900017D01*
X194160000Y-91002796D01*
X194183303Y-91073119D01*
X194215186Y-91169335D01*
X194307288Y-91318656D01*
X194431344Y-91442712D01*
X194580665Y-91534814D01*
X194747202Y-91589999D01*
X194849990Y-91600500D01*
X194849995Y-91600500D01*
X196650005Y-91600500D01*
X196650010Y-91600500D01*
X196752798Y-91589999D01*
X196919335Y-91534814D01*
X197068656Y-91442712D01*
X197192712Y-91318656D01*
X197284814Y-91169335D01*
X197339999Y-91002798D01*
X197350500Y-90900010D01*
X197350500Y-89099990D01*
X197339999Y-88997202D01*
X197284814Y-88830665D01*
X197192712Y-88681344D01*
X197068656Y-88557288D01*
X196919335Y-88465186D01*
X196752798Y-88410001D01*
X196752796Y-88410000D01*
X196650017Y-88399500D01*
X196650010Y-88399500D01*
X194849990Y-88399500D01*
X194849982Y-88399500D01*
X194747203Y-88410000D01*
X194747202Y-88410001D01*
X194717655Y-88419792D01*
X194580667Y-88465185D01*
X194580662Y-88465187D01*
X194431342Y-88557289D01*
X194307289Y-88681342D01*
X194215187Y-88830662D01*
X194215186Y-88830665D01*
X194160001Y-88997202D01*
X194160001Y-88997203D01*
X194160000Y-88997203D01*
X194149500Y-89099982D01*
X192074425Y-89099982D01*
X191970798Y-88957350D01*
X191970794Y-88957345D01*
X191792654Y-88779205D01*
X191792649Y-88779201D01*
X191588848Y-88631132D01*
X191588847Y-88631131D01*
X191588845Y-88631130D01*
X191518747Y-88595413D01*
X191364383Y-88516760D01*
X191124785Y-88438910D01*
X190875962Y-88399500D01*
X190624038Y-88399500D01*
X190557738Y-88410001D01*
X190375214Y-88438910D01*
X190135616Y-88516760D01*
X189911151Y-88631132D01*
X189707350Y-88779201D01*
X189707345Y-88779205D01*
X189529205Y-88957345D01*
X189529201Y-88957350D01*
X189381132Y-89161151D01*
X189266760Y-89385616D01*
X189206850Y-89570000D01*
X189188910Y-89625215D01*
X189149500Y-89874038D01*
X187334713Y-89874038D01*
X187317246Y-89763760D01*
X187317246Y-89763757D01*
X187251557Y-89561588D01*
X187155051Y-89372184D01*
X187155049Y-89372181D01*
X187155048Y-89372179D01*
X187030109Y-89200213D01*
X186879786Y-89049890D01*
X186707820Y-88924951D01*
X186707115Y-88924591D01*
X186699054Y-88920485D01*
X186648259Y-88872512D01*
X186631463Y-88804692D01*
X186653999Y-88738556D01*
X186699054Y-88699515D01*
X186707816Y-88695051D01*
X186795794Y-88631132D01*
X186879786Y-88570109D01*
X186879788Y-88570106D01*
X186879792Y-88570104D01*
X187030104Y-88419792D01*
X187030106Y-88419788D01*
X187030109Y-88419786D01*
X187155048Y-88247820D01*
X187155047Y-88247820D01*
X187155051Y-88247816D01*
X187251557Y-88058412D01*
X187317246Y-87856243D01*
X187350500Y-87646287D01*
X187350500Y-87433713D01*
X187317246Y-87223757D01*
X187251557Y-87021588D01*
X187155051Y-86832184D01*
X187155049Y-86832181D01*
X187146108Y-86819874D01*
X187146107Y-86819872D01*
X187030109Y-86660214D01*
X187030105Y-86660209D01*
X186916569Y-86546673D01*
X186883084Y-86485350D01*
X186888068Y-86415658D01*
X186929940Y-86359725D01*
X186960915Y-86342810D01*
X187092331Y-86293796D01*
X187207546Y-86207546D01*
X187293796Y-86092331D01*
X187344091Y-85957483D01*
X187350500Y-85897873D01*
X187350499Y-84624038D01*
X190859500Y-84624038D01*
X190859500Y-84875961D01*
X190898910Y-85124785D01*
X190976760Y-85364383D01*
X191045861Y-85499999D01*
X191082755Y-85572409D01*
X191091132Y-85588848D01*
X191239201Y-85792649D01*
X191239205Y-85792654D01*
X191417345Y-85970794D01*
X191417350Y-85970798D01*
X191584623Y-86092328D01*
X191621155Y-86118870D01*
X191764184Y-86191747D01*
X191845616Y-86233239D01*
X191845618Y-86233239D01*
X191845621Y-86233241D01*
X192085215Y-86311090D01*
X192334038Y-86350500D01*
X192334039Y-86350500D01*
X192585961Y-86350500D01*
X192585962Y-86350500D01*
X192834785Y-86311090D01*
X193074379Y-86233241D01*
X193298845Y-86118870D01*
X193391936Y-86051234D01*
X193457742Y-86027754D01*
X193525796Y-86043579D01*
X193552503Y-86063871D01*
X193557288Y-86068656D01*
X193681344Y-86192712D01*
X193830665Y-86284814D01*
X193997202Y-86339999D01*
X194099990Y-86350500D01*
X194099995Y-86350500D01*
X195900005Y-86350500D01*
X195900010Y-86350500D01*
X196002798Y-86339999D01*
X196169335Y-86284814D01*
X196318656Y-86192712D01*
X196442712Y-86068656D01*
X196534814Y-85919335D01*
X196589999Y-85752798D01*
X196600500Y-85650010D01*
X196600500Y-85374071D01*
X197050000Y-85374071D01*
X197050000Y-85625928D01*
X197089397Y-85874669D01*
X197167219Y-86114184D01*
X197281557Y-86338583D01*
X197355748Y-86440697D01*
X197355748Y-86440698D01*
X198126212Y-85670234D01*
X198137482Y-85712292D01*
X198209890Y-85837708D01*
X198312292Y-85940110D01*
X198437708Y-86012518D01*
X198479765Y-86023787D01*
X197709300Y-86794250D01*
X197811416Y-86868442D01*
X198035815Y-86982780D01*
X198275330Y-87060602D01*
X198524072Y-87100000D01*
X198775928Y-87100000D01*
X199024669Y-87060602D01*
X199264184Y-86982780D01*
X199488575Y-86868446D01*
X199488581Y-86868442D01*
X199590697Y-86794250D01*
X199590698Y-86794250D01*
X198820234Y-86023787D01*
X198862292Y-86012518D01*
X198987708Y-85940110D01*
X199090110Y-85837708D01*
X199162518Y-85712292D01*
X199173787Y-85670235D01*
X199944250Y-86440698D01*
X199944250Y-86440697D01*
X200018442Y-86338581D01*
X200018446Y-86338575D01*
X200132780Y-86114184D01*
X200210602Y-85874669D01*
X200250000Y-85625928D01*
X200250000Y-85374071D01*
X200210602Y-85125330D01*
X200132780Y-84885815D01*
X200018442Y-84661416D01*
X199973807Y-84599982D01*
X209749500Y-84599982D01*
X209749500Y-86400017D01*
X209760000Y-86502796D01*
X209760001Y-86502798D01*
X209815186Y-86669335D01*
X209907288Y-86818656D01*
X210031344Y-86942712D01*
X210180665Y-87034814D01*
X210347202Y-87089999D01*
X210449990Y-87100500D01*
X210449995Y-87100500D01*
X212250005Y-87100500D01*
X212250010Y-87100500D01*
X212352798Y-87089999D01*
X212519335Y-87034814D01*
X212668656Y-86942712D01*
X212792712Y-86818656D01*
X212884814Y-86669335D01*
X212939999Y-86502798D01*
X212950500Y-86400010D01*
X212950500Y-84599990D01*
X212939999Y-84497202D01*
X212884814Y-84330665D01*
X212792712Y-84181344D01*
X212668656Y-84057288D01*
X212526971Y-83969896D01*
X212519337Y-83965187D01*
X212519332Y-83965185D01*
X212517863Y-83964698D01*
X212352798Y-83910001D01*
X212352796Y-83910000D01*
X212250017Y-83899500D01*
X212250010Y-83899500D01*
X210449990Y-83899500D01*
X210449982Y-83899500D01*
X210347203Y-83910000D01*
X210347202Y-83910001D01*
X210264669Y-83937349D01*
X210180667Y-83965185D01*
X210180662Y-83965187D01*
X210031342Y-84057289D01*
X209907289Y-84181342D01*
X209815187Y-84330662D01*
X209815185Y-84330667D01*
X209787349Y-84414669D01*
X209760001Y-84497202D01*
X209760001Y-84497203D01*
X209760000Y-84497203D01*
X209749500Y-84599982D01*
X199973807Y-84599982D01*
X199944250Y-84559301D01*
X199944250Y-84559300D01*
X199173787Y-85329764D01*
X199162518Y-85287708D01*
X199090110Y-85162292D01*
X198987708Y-85059890D01*
X198862292Y-84987482D01*
X198820232Y-84976212D01*
X199590698Y-84205748D01*
X199488583Y-84131557D01*
X199264184Y-84017219D01*
X199024669Y-83939397D01*
X198775928Y-83900000D01*
X198524072Y-83900000D01*
X198275330Y-83939397D01*
X198035815Y-84017219D01*
X197811413Y-84131559D01*
X197709301Y-84205747D01*
X197709300Y-84205748D01*
X198479765Y-84976212D01*
X198437708Y-84987482D01*
X198312292Y-85059890D01*
X198209890Y-85162292D01*
X198137482Y-85287708D01*
X198126212Y-85329765D01*
X197355748Y-84559300D01*
X197355747Y-84559301D01*
X197281559Y-84661413D01*
X197167219Y-84885815D01*
X197089397Y-85125330D01*
X197050000Y-85374071D01*
X196600500Y-85374071D01*
X196600500Y-83849990D01*
X196589999Y-83747202D01*
X196534814Y-83580665D01*
X196442712Y-83431344D01*
X196318656Y-83307288D01*
X196169335Y-83215186D01*
X196002798Y-83160001D01*
X196002796Y-83160000D01*
X195900017Y-83149500D01*
X195900010Y-83149500D01*
X195443575Y-83149500D01*
X195376536Y-83129815D01*
X195330781Y-83077011D01*
X195320837Y-83007853D01*
X195349862Y-82944297D01*
X195374684Y-82922398D01*
X195434895Y-82882165D01*
X195510289Y-82831789D01*
X195621789Y-82720289D01*
X195709394Y-82589179D01*
X195769737Y-82443497D01*
X195800500Y-82288842D01*
X195800500Y-82131158D01*
X195800500Y-82131155D01*
X195800499Y-82131153D01*
X195792860Y-82092750D01*
X195769737Y-81976503D01*
X195735823Y-81894627D01*
X195709397Y-81830827D01*
X195709390Y-81830814D01*
X195627149Y-81707732D01*
X195627148Y-81707731D01*
X195621791Y-81699713D01*
X195621786Y-81699707D01*
X195565792Y-81643713D01*
X209399500Y-81643713D01*
X209399500Y-81856286D01*
X209418541Y-81976510D01*
X209432754Y-82066243D01*
X209493515Y-82253246D01*
X209498444Y-82268414D01*
X209594951Y-82457820D01*
X209719890Y-82629786D01*
X209870213Y-82780109D01*
X210042179Y-82905048D01*
X210042181Y-82905049D01*
X210042184Y-82905051D01*
X210231588Y-83001557D01*
X210433757Y-83067246D01*
X210643713Y-83100500D01*
X210643714Y-83100500D01*
X210856286Y-83100500D01*
X210856287Y-83100500D01*
X211066243Y-83067246D01*
X211268412Y-83001557D01*
X211457816Y-82905051D01*
X211479789Y-82889086D01*
X211629786Y-82780109D01*
X211629788Y-82780106D01*
X211629792Y-82780104D01*
X211780104Y-82629792D01*
X211780106Y-82629788D01*
X211780109Y-82629786D01*
X211905048Y-82457820D01*
X211905047Y-82457820D01*
X211905051Y-82457816D01*
X212001557Y-82268412D01*
X212067246Y-82066243D01*
X212100500Y-81856287D01*
X212100500Y-81643713D01*
X212067246Y-81433757D01*
X212001557Y-81231588D01*
X211905051Y-81042184D01*
X211905049Y-81042181D01*
X211905048Y-81042179D01*
X211780109Y-80870213D01*
X211629786Y-80719890D01*
X211457820Y-80594951D01*
X211268414Y-80498444D01*
X211268413Y-80498443D01*
X211268412Y-80498443D01*
X211066243Y-80432754D01*
X211066241Y-80432753D01*
X211066240Y-80432753D01*
X210904957Y-80407208D01*
X210856287Y-80399500D01*
X210643713Y-80399500D01*
X210595042Y-80407208D01*
X210433760Y-80432753D01*
X210231585Y-80498444D01*
X210042179Y-80594951D01*
X209870213Y-80719890D01*
X209719890Y-80870213D01*
X209594951Y-81042179D01*
X209498444Y-81231585D01*
X209432753Y-81433760D01*
X209399500Y-81643713D01*
X195565792Y-81643713D01*
X195510292Y-81588213D01*
X195510288Y-81588210D01*
X195379185Y-81500609D01*
X195379172Y-81500602D01*
X195233501Y-81440264D01*
X195233489Y-81440261D01*
X195078845Y-81409500D01*
X195078842Y-81409500D01*
X194921158Y-81409500D01*
X194921155Y-81409500D01*
X194766510Y-81440261D01*
X194766498Y-81440264D01*
X194620827Y-81500602D01*
X194620814Y-81500609D01*
X194489711Y-81588210D01*
X194489707Y-81588213D01*
X194378213Y-81699707D01*
X194378210Y-81699711D01*
X194290609Y-81830814D01*
X194290602Y-81830827D01*
X194230264Y-81976498D01*
X194230261Y-81976510D01*
X194199500Y-82131153D01*
X194199500Y-82288846D01*
X194230261Y-82443489D01*
X194230264Y-82443501D01*
X194290602Y-82589172D01*
X194290609Y-82589185D01*
X194378210Y-82720288D01*
X194378213Y-82720292D01*
X194489707Y-82831786D01*
X194489711Y-82831789D01*
X194625316Y-82922398D01*
X194670121Y-82976010D01*
X194678828Y-83045335D01*
X194648674Y-83108363D01*
X194589230Y-83145082D01*
X194556425Y-83149500D01*
X194099982Y-83149500D01*
X193997203Y-83160000D01*
X193997202Y-83160001D01*
X193960835Y-83172052D01*
X193830667Y-83215185D01*
X193830662Y-83215187D01*
X193681345Y-83307287D01*
X193552503Y-83436128D01*
X193491179Y-83469612D01*
X193421488Y-83464627D01*
X193391937Y-83448764D01*
X193298848Y-83381132D01*
X193298847Y-83381131D01*
X193298845Y-83381130D01*
X193228747Y-83345413D01*
X193074383Y-83266760D01*
X192834787Y-83188910D01*
X192801528Y-83183642D01*
X192738394Y-83153711D01*
X192701463Y-83094399D01*
X192702463Y-83024536D01*
X192741074Y-82966304D01*
X192773472Y-82946610D01*
X192839179Y-82919394D01*
X192970289Y-82831789D01*
X193081789Y-82720289D01*
X193169394Y-82589179D01*
X193229737Y-82443497D01*
X193260500Y-82288842D01*
X193260500Y-82131158D01*
X193260500Y-82131155D01*
X193260499Y-82131153D01*
X193252860Y-82092750D01*
X193229737Y-81976503D01*
X193195823Y-81894627D01*
X193169397Y-81830827D01*
X193169390Y-81830814D01*
X193081789Y-81699711D01*
X193081786Y-81699707D01*
X192970292Y-81588213D01*
X192970288Y-81588210D01*
X192839185Y-81500609D01*
X192839172Y-81500602D01*
X192693501Y-81440264D01*
X192693489Y-81440261D01*
X192538845Y-81409500D01*
X192538842Y-81409500D01*
X192381158Y-81409500D01*
X192381155Y-81409500D01*
X192226510Y-81440261D01*
X192226498Y-81440264D01*
X192080827Y-81500602D01*
X192080814Y-81500609D01*
X191949711Y-81588210D01*
X191949707Y-81588213D01*
X191838213Y-81699707D01*
X191838210Y-81699711D01*
X191750609Y-81830814D01*
X191750602Y-81830827D01*
X191690264Y-81976498D01*
X191690261Y-81976510D01*
X191659500Y-82131153D01*
X191659500Y-82288846D01*
X191690261Y-82443489D01*
X191690264Y-82443501D01*
X191750602Y-82589172D01*
X191750609Y-82589185D01*
X191838210Y-82720288D01*
X191838213Y-82720292D01*
X191949707Y-82831786D01*
X191949711Y-82831789D01*
X192080814Y-82919390D01*
X192080821Y-82919394D01*
X192146524Y-82946609D01*
X192200926Y-82990447D01*
X192222992Y-83056741D01*
X192205714Y-83124441D01*
X192154577Y-83172052D01*
X192118472Y-83183642D01*
X192085211Y-83188910D01*
X191845616Y-83266760D01*
X191621151Y-83381132D01*
X191417350Y-83529201D01*
X191417345Y-83529205D01*
X191239205Y-83707345D01*
X191239201Y-83707350D01*
X191091132Y-83911151D01*
X190976760Y-84135616D01*
X190898910Y-84375214D01*
X190859500Y-84624038D01*
X187350499Y-84624038D01*
X187350499Y-84102128D01*
X187344091Y-84042517D01*
X187342810Y-84039083D01*
X187293797Y-83907671D01*
X187293793Y-83907664D01*
X187207547Y-83792455D01*
X187207544Y-83792452D01*
X187092335Y-83706206D01*
X187092328Y-83706202D01*
X186957482Y-83655908D01*
X186957483Y-83655908D01*
X186897883Y-83649501D01*
X186897881Y-83649500D01*
X186897873Y-83649500D01*
X186897864Y-83649500D01*
X185102129Y-83649500D01*
X185102123Y-83649501D01*
X185042516Y-83655908D01*
X184907671Y-83706202D01*
X184907664Y-83706206D01*
X184792455Y-83792452D01*
X184792452Y-83792455D01*
X184706206Y-83907664D01*
X184706203Y-83907669D01*
X184657189Y-84039083D01*
X184615317Y-84095016D01*
X184549853Y-84119433D01*
X184481580Y-84104581D01*
X184453326Y-84083430D01*
X184339786Y-83969890D01*
X184167820Y-83844951D01*
X183978414Y-83748444D01*
X183978413Y-83748443D01*
X183978412Y-83748443D01*
X183776243Y-83682754D01*
X183776241Y-83682753D01*
X183776240Y-83682753D01*
X183614957Y-83657208D01*
X183566287Y-83649500D01*
X183353713Y-83649500D01*
X183305042Y-83657208D01*
X183143760Y-83682753D01*
X182941585Y-83748444D01*
X182752179Y-83844951D01*
X182580213Y-83969890D01*
X182429890Y-84120213D01*
X182304951Y-84292179D01*
X182208444Y-84481585D01*
X182142753Y-84683760D01*
X182110751Y-84885815D01*
X182109500Y-84893713D01*
X126350499Y-84893713D01*
X126350499Y-84102128D01*
X126344091Y-84042517D01*
X126342810Y-84039083D01*
X126293797Y-83907671D01*
X126293793Y-83907664D01*
X126207547Y-83792455D01*
X126207544Y-83792452D01*
X126092335Y-83706206D01*
X126092328Y-83706202D01*
X125957482Y-83655908D01*
X125957483Y-83655908D01*
X125897883Y-83649501D01*
X125897881Y-83649500D01*
X125897873Y-83649500D01*
X125897864Y-83649500D01*
X124102129Y-83649500D01*
X124102123Y-83649501D01*
X124042516Y-83655908D01*
X123907671Y-83706202D01*
X123907664Y-83706206D01*
X123792455Y-83792452D01*
X123792452Y-83792455D01*
X123706206Y-83907664D01*
X123706203Y-83907669D01*
X123657189Y-84039083D01*
X123615317Y-84095016D01*
X123549853Y-84119433D01*
X123481580Y-84104581D01*
X123453326Y-84083430D01*
X123339786Y-83969890D01*
X123167820Y-83844951D01*
X122978414Y-83748444D01*
X122978413Y-83748443D01*
X122978412Y-83748443D01*
X122776243Y-83682754D01*
X122776241Y-83682753D01*
X122776240Y-83682753D01*
X122614957Y-83657208D01*
X122566287Y-83649500D01*
X122353713Y-83649500D01*
X122305042Y-83657208D01*
X122143760Y-83682753D01*
X121941585Y-83748444D01*
X121752179Y-83844951D01*
X121580213Y-83969890D01*
X121429890Y-84120213D01*
X121304951Y-84292179D01*
X121208444Y-84481585D01*
X121142753Y-84683760D01*
X121110751Y-84885815D01*
X121109500Y-84893713D01*
X112500500Y-84893713D01*
X112500500Y-82253246D01*
X112500670Y-82246756D01*
X112506728Y-82131158D01*
X112515184Y-81969811D01*
X112515794Y-81962424D01*
X112515920Y-81961305D01*
X112522814Y-81900112D01*
X112523553Y-81894658D01*
X112561850Y-81652860D01*
X112563423Y-81644710D01*
X112563651Y-81643713D01*
X113899500Y-81643713D01*
X113899500Y-81856286D01*
X113918541Y-81976510D01*
X113932754Y-82066243D01*
X113993515Y-82253246D01*
X113998444Y-82268414D01*
X114094951Y-82457820D01*
X114219890Y-82629786D01*
X114370213Y-82780109D01*
X114542179Y-82905048D01*
X114542181Y-82905049D01*
X114542184Y-82905051D01*
X114731588Y-83001557D01*
X114933757Y-83067246D01*
X115143713Y-83100500D01*
X115143714Y-83100500D01*
X115356286Y-83100500D01*
X115356287Y-83100500D01*
X115566243Y-83067246D01*
X115768412Y-83001557D01*
X115957816Y-82905051D01*
X115979789Y-82889086D01*
X116129786Y-82780109D01*
X116129788Y-82780106D01*
X116129792Y-82780104D01*
X116280104Y-82629792D01*
X116280106Y-82629788D01*
X116280109Y-82629786D01*
X116405048Y-82457820D01*
X116405047Y-82457820D01*
X116405051Y-82457816D01*
X116501557Y-82268412D01*
X116567246Y-82066243D01*
X116600500Y-81856287D01*
X116600500Y-81643713D01*
X116567246Y-81433757D01*
X116501557Y-81231588D01*
X116405051Y-81042184D01*
X116405049Y-81042181D01*
X116405048Y-81042179D01*
X116280109Y-80870213D01*
X116129786Y-80719890D01*
X115957820Y-80594951D01*
X115768414Y-80498444D01*
X115768413Y-80498443D01*
X115768412Y-80498443D01*
X115566243Y-80432754D01*
X115566241Y-80432753D01*
X115566240Y-80432753D01*
X115404957Y-80407208D01*
X115356287Y-80399500D01*
X115143713Y-80399500D01*
X115095042Y-80407208D01*
X114933760Y-80432753D01*
X114731585Y-80498444D01*
X114542179Y-80594951D01*
X114370213Y-80719890D01*
X114219890Y-80870213D01*
X114094951Y-81042179D01*
X113998444Y-81231585D01*
X113932753Y-81433760D01*
X113899500Y-81643713D01*
X112563651Y-81643713D01*
X112576097Y-81589181D01*
X112577172Y-81584843D01*
X112642289Y-81341827D01*
X112645007Y-81333016D01*
X112659943Y-81290331D01*
X112661178Y-81286964D01*
X112755746Y-81040603D01*
X112759762Y-81031305D01*
X112769729Y-81010608D01*
X112770863Y-81008318D01*
X112899415Y-80756023D01*
X112905891Y-80744808D01*
X113069819Y-80492380D01*
X113077434Y-80481899D01*
X113266858Y-80247979D01*
X113275525Y-80238354D01*
X113488357Y-80025523D01*
X113497979Y-80016858D01*
X113731899Y-79827434D01*
X113742380Y-79819819D01*
X113994813Y-79655888D01*
X114006023Y-79649415D01*
X114258318Y-79520863D01*
X114260608Y-79519729D01*
X114281305Y-79509762D01*
X114290603Y-79505746D01*
X114536964Y-79411178D01*
X114540331Y-79409943D01*
X114583016Y-79395007D01*
X114591827Y-79392289D01*
X114834844Y-79327172D01*
X114839144Y-79326105D01*
X114894721Y-79313420D01*
X114902860Y-79311850D01*
X115144658Y-79273553D01*
X115150112Y-79272814D01*
X115212430Y-79265793D01*
X115219811Y-79265184D01*
X115496756Y-79250669D01*
X115503246Y-79250500D01*
X210375435Y-79250500D01*
X210381924Y-79250670D01*
G37*
%TD.AperFunction*%
%TD*%
M02*
