%TF.GenerationSoftware,KiCad,Pcbnew,9.0.6*%
%TF.CreationDate,2026-04-17T19:20:47+02:00*%
%TF.ProjectId,Zavrsni,5a617672-736e-4692-9e6b-696361645f70,rev?*%
%TF.SameCoordinates,Original*%
%TF.FileFunction,Legend,Top*%
%TF.FilePolarity,Positive*%
%FSLAX46Y46*%
G04 Gerber Fmt 4.6, Leading zero omitted, Abs format (unit mm)*
G04 Created by KiCad (PCBNEW 9.0.6) date 2026-04-17 19:20:47*
%MOMM*%
%LPD*%
G01*
G04 APERTURE LIST*
%ADD10C,0.250000*%
%ADD11C,0.150000*%
%ADD12C,0.120000*%
%ADD13C,0.127000*%
%ADD14C,0.200000*%
G04 APERTURE END LIST*
D10*
X113754675Y-126192669D02*
X113754675Y-125526003D01*
X113754675Y-125526003D02*
X114754675Y-126192669D01*
X114754675Y-126192669D02*
X114754675Y-125526003D01*
X114754675Y-124716479D02*
X114230865Y-124716479D01*
X114230865Y-124716479D02*
X114135627Y-124764098D01*
X114135627Y-124764098D02*
X114088008Y-124859336D01*
X114088008Y-124859336D02*
X114088008Y-125049812D01*
X114088008Y-125049812D02*
X114135627Y-125145050D01*
X114707056Y-124716479D02*
X114754675Y-124811717D01*
X114754675Y-124811717D02*
X114754675Y-125049812D01*
X114754675Y-125049812D02*
X114707056Y-125145050D01*
X114707056Y-125145050D02*
X114611817Y-125192669D01*
X114611817Y-125192669D02*
X114516579Y-125192669D01*
X114516579Y-125192669D02*
X114421341Y-125145050D01*
X114421341Y-125145050D02*
X114373722Y-125049812D01*
X114373722Y-125049812D02*
X114373722Y-124811717D01*
X114373722Y-124811717D02*
X114326103Y-124716479D01*
X114088008Y-124335526D02*
X114754675Y-124097431D01*
X114754675Y-124097431D02*
X114088008Y-123859336D01*
X114754675Y-123478383D02*
X114088008Y-123478383D01*
X114278484Y-123478383D02*
X114183246Y-123430764D01*
X114183246Y-123430764D02*
X114135627Y-123383145D01*
X114135627Y-123383145D02*
X114088008Y-123287907D01*
X114088008Y-123287907D02*
X114088008Y-123192669D01*
X114707056Y-122906954D02*
X114754675Y-122811716D01*
X114754675Y-122811716D02*
X114754675Y-122621240D01*
X114754675Y-122621240D02*
X114707056Y-122526002D01*
X114707056Y-122526002D02*
X114611817Y-122478383D01*
X114611817Y-122478383D02*
X114564198Y-122478383D01*
X114564198Y-122478383D02*
X114468960Y-122526002D01*
X114468960Y-122526002D02*
X114421341Y-122621240D01*
X114421341Y-122621240D02*
X114421341Y-122764097D01*
X114421341Y-122764097D02*
X114373722Y-122859335D01*
X114373722Y-122859335D02*
X114278484Y-122906954D01*
X114278484Y-122906954D02*
X114230865Y-122906954D01*
X114230865Y-122906954D02*
X114135627Y-122859335D01*
X114135627Y-122859335D02*
X114088008Y-122764097D01*
X114088008Y-122764097D02*
X114088008Y-122621240D01*
X114088008Y-122621240D02*
X114135627Y-122526002D01*
X114088008Y-122049811D02*
X114754675Y-122049811D01*
X114183246Y-122049811D02*
X114135627Y-122002192D01*
X114135627Y-122002192D02*
X114088008Y-121906954D01*
X114088008Y-121906954D02*
X114088008Y-121764097D01*
X114088008Y-121764097D02*
X114135627Y-121668859D01*
X114135627Y-121668859D02*
X114230865Y-121621240D01*
X114230865Y-121621240D02*
X114754675Y-121621240D01*
X114754675Y-121145049D02*
X114088008Y-121145049D01*
X113754675Y-121145049D02*
X113802294Y-121192668D01*
X113802294Y-121192668D02*
X113849913Y-121145049D01*
X113849913Y-121145049D02*
X113802294Y-121097430D01*
X113802294Y-121097430D02*
X113754675Y-121145049D01*
X113754675Y-121145049D02*
X113849913Y-121145049D01*
X114754675Y-119906954D02*
X114088008Y-119906954D01*
X114278484Y-119906954D02*
X114183246Y-119859335D01*
X114183246Y-119859335D02*
X114135627Y-119811716D01*
X114135627Y-119811716D02*
X114088008Y-119716478D01*
X114088008Y-119716478D02*
X114088008Y-119621240D01*
X114754675Y-118859335D02*
X114230865Y-118859335D01*
X114230865Y-118859335D02*
X114135627Y-118906954D01*
X114135627Y-118906954D02*
X114088008Y-119002192D01*
X114088008Y-119002192D02*
X114088008Y-119192668D01*
X114088008Y-119192668D02*
X114135627Y-119287906D01*
X114707056Y-118859335D02*
X114754675Y-118954573D01*
X114754675Y-118954573D02*
X114754675Y-119192668D01*
X114754675Y-119192668D02*
X114707056Y-119287906D01*
X114707056Y-119287906D02*
X114611817Y-119335525D01*
X114611817Y-119335525D02*
X114516579Y-119335525D01*
X114516579Y-119335525D02*
X114421341Y-119287906D01*
X114421341Y-119287906D02*
X114373722Y-119192668D01*
X114373722Y-119192668D02*
X114373722Y-118954573D01*
X114373722Y-118954573D02*
X114326103Y-118859335D01*
X114754675Y-117954573D02*
X113754675Y-117954573D01*
X114707056Y-117954573D02*
X114754675Y-118049811D01*
X114754675Y-118049811D02*
X114754675Y-118240287D01*
X114754675Y-118240287D02*
X114707056Y-118335525D01*
X114707056Y-118335525D02*
X114659436Y-118383144D01*
X114659436Y-118383144D02*
X114564198Y-118430763D01*
X114564198Y-118430763D02*
X114278484Y-118430763D01*
X114278484Y-118430763D02*
X114183246Y-118383144D01*
X114183246Y-118383144D02*
X114135627Y-118335525D01*
X114135627Y-118335525D02*
X114088008Y-118240287D01*
X114088008Y-118240287D02*
X114088008Y-118049811D01*
X114088008Y-118049811D02*
X114135627Y-117954573D01*
X116364619Y-126097431D02*
X115364619Y-126097431D01*
X115697952Y-125716479D02*
X116364619Y-125478384D01*
X116364619Y-125478384D02*
X115697952Y-125240289D01*
X116364619Y-124430765D02*
X115840809Y-124430765D01*
X115840809Y-124430765D02*
X115745571Y-124478384D01*
X115745571Y-124478384D02*
X115697952Y-124573622D01*
X115697952Y-124573622D02*
X115697952Y-124764098D01*
X115697952Y-124764098D02*
X115745571Y-124859336D01*
X116317000Y-124430765D02*
X116364619Y-124526003D01*
X116364619Y-124526003D02*
X116364619Y-124764098D01*
X116364619Y-124764098D02*
X116317000Y-124859336D01*
X116317000Y-124859336D02*
X116221761Y-124906955D01*
X116221761Y-124906955D02*
X116126523Y-124906955D01*
X116126523Y-124906955D02*
X116031285Y-124859336D01*
X116031285Y-124859336D02*
X115983666Y-124764098D01*
X115983666Y-124764098D02*
X115983666Y-124526003D01*
X115983666Y-124526003D02*
X115936047Y-124430765D01*
X115697952Y-123954574D02*
X116364619Y-123954574D01*
X115793190Y-123954574D02*
X115745571Y-123906955D01*
X115745571Y-123906955D02*
X115697952Y-123811717D01*
X115697952Y-123811717D02*
X115697952Y-123668860D01*
X115697952Y-123668860D02*
X115745571Y-123573622D01*
X115745571Y-123573622D02*
X115840809Y-123526003D01*
X115840809Y-123526003D02*
X116364619Y-123526003D01*
X116364619Y-122287907D02*
X115364619Y-122287907D01*
X115840809Y-122287907D02*
X115840809Y-121716479D01*
X116364619Y-121716479D02*
X115364619Y-121716479D01*
X116364619Y-121097431D02*
X116317000Y-121192669D01*
X116317000Y-121192669D02*
X116269380Y-121240288D01*
X116269380Y-121240288D02*
X116174142Y-121287907D01*
X116174142Y-121287907D02*
X115888428Y-121287907D01*
X115888428Y-121287907D02*
X115793190Y-121240288D01*
X115793190Y-121240288D02*
X115745571Y-121192669D01*
X115745571Y-121192669D02*
X115697952Y-121097431D01*
X115697952Y-121097431D02*
X115697952Y-120954574D01*
X115697952Y-120954574D02*
X115745571Y-120859336D01*
X115745571Y-120859336D02*
X115793190Y-120811717D01*
X115793190Y-120811717D02*
X115888428Y-120764098D01*
X115888428Y-120764098D02*
X116174142Y-120764098D01*
X116174142Y-120764098D02*
X116269380Y-120811717D01*
X116269380Y-120811717D02*
X116317000Y-120859336D01*
X116317000Y-120859336D02*
X116364619Y-120954574D01*
X116364619Y-120954574D02*
X116364619Y-121097431D01*
X116364619Y-119906955D02*
X115364619Y-119906955D01*
X116317000Y-119906955D02*
X116364619Y-120002193D01*
X116364619Y-120002193D02*
X116364619Y-120192669D01*
X116364619Y-120192669D02*
X116317000Y-120287907D01*
X116317000Y-120287907D02*
X116269380Y-120335526D01*
X116269380Y-120335526D02*
X116174142Y-120383145D01*
X116174142Y-120383145D02*
X115888428Y-120383145D01*
X115888428Y-120383145D02*
X115793190Y-120335526D01*
X115793190Y-120335526D02*
X115745571Y-120287907D01*
X115745571Y-120287907D02*
X115697952Y-120192669D01*
X115697952Y-120192669D02*
X115697952Y-120002193D01*
X115697952Y-120002193D02*
X115745571Y-119906955D01*
X116364619Y-119002193D02*
X115840809Y-119002193D01*
X115840809Y-119002193D02*
X115745571Y-119049812D01*
X115745571Y-119049812D02*
X115697952Y-119145050D01*
X115697952Y-119145050D02*
X115697952Y-119335526D01*
X115697952Y-119335526D02*
X115745571Y-119430764D01*
X116317000Y-119002193D02*
X116364619Y-119097431D01*
X116364619Y-119097431D02*
X116364619Y-119335526D01*
X116364619Y-119335526D02*
X116317000Y-119430764D01*
X116317000Y-119430764D02*
X116221761Y-119478383D01*
X116221761Y-119478383D02*
X116126523Y-119478383D01*
X116126523Y-119478383D02*
X116031285Y-119430764D01*
X116031285Y-119430764D02*
X115983666Y-119335526D01*
X115983666Y-119335526D02*
X115983666Y-119097431D01*
X115983666Y-119097431D02*
X115936047Y-119002193D01*
X116364619Y-118526002D02*
X115364619Y-118526002D01*
X115983666Y-118430764D02*
X116364619Y-118145050D01*
X115697952Y-118145050D02*
X116078904Y-118526002D01*
X116317000Y-117668859D02*
X116364619Y-117668859D01*
X116364619Y-117668859D02*
X116459857Y-117716478D01*
X116459857Y-117716478D02*
X116507476Y-117764097D01*
X115459857Y-116526002D02*
X115412238Y-116478383D01*
X115412238Y-116478383D02*
X115364619Y-116383145D01*
X115364619Y-116383145D02*
X115364619Y-116145050D01*
X115364619Y-116145050D02*
X115412238Y-116049812D01*
X115412238Y-116049812D02*
X115459857Y-116002193D01*
X115459857Y-116002193D02*
X115555095Y-115954574D01*
X115555095Y-115954574D02*
X115650333Y-115954574D01*
X115650333Y-115954574D02*
X115793190Y-116002193D01*
X115793190Y-116002193D02*
X116364619Y-116573621D01*
X116364619Y-116573621D02*
X116364619Y-115954574D01*
X115364619Y-115335526D02*
X115364619Y-115240288D01*
X115364619Y-115240288D02*
X115412238Y-115145050D01*
X115412238Y-115145050D02*
X115459857Y-115097431D01*
X115459857Y-115097431D02*
X115555095Y-115049812D01*
X115555095Y-115049812D02*
X115745571Y-115002193D01*
X115745571Y-115002193D02*
X115983666Y-115002193D01*
X115983666Y-115002193D02*
X116174142Y-115049812D01*
X116174142Y-115049812D02*
X116269380Y-115097431D01*
X116269380Y-115097431D02*
X116317000Y-115145050D01*
X116317000Y-115145050D02*
X116364619Y-115240288D01*
X116364619Y-115240288D02*
X116364619Y-115335526D01*
X116364619Y-115335526D02*
X116317000Y-115430764D01*
X116317000Y-115430764D02*
X116269380Y-115478383D01*
X116269380Y-115478383D02*
X116174142Y-115526002D01*
X116174142Y-115526002D02*
X115983666Y-115573621D01*
X115983666Y-115573621D02*
X115745571Y-115573621D01*
X115745571Y-115573621D02*
X115555095Y-115526002D01*
X115555095Y-115526002D02*
X115459857Y-115478383D01*
X115459857Y-115478383D02*
X115412238Y-115430764D01*
X115412238Y-115430764D02*
X115364619Y-115335526D01*
X115459857Y-114621240D02*
X115412238Y-114573621D01*
X115412238Y-114573621D02*
X115364619Y-114478383D01*
X115364619Y-114478383D02*
X115364619Y-114240288D01*
X115364619Y-114240288D02*
X115412238Y-114145050D01*
X115412238Y-114145050D02*
X115459857Y-114097431D01*
X115459857Y-114097431D02*
X115555095Y-114049812D01*
X115555095Y-114049812D02*
X115650333Y-114049812D01*
X115650333Y-114049812D02*
X115793190Y-114097431D01*
X115793190Y-114097431D02*
X116364619Y-114668859D01*
X116364619Y-114668859D02*
X116364619Y-114049812D01*
X115364619Y-113192669D02*
X115364619Y-113383145D01*
X115364619Y-113383145D02*
X115412238Y-113478383D01*
X115412238Y-113478383D02*
X115459857Y-113526002D01*
X115459857Y-113526002D02*
X115602714Y-113621240D01*
X115602714Y-113621240D02*
X115793190Y-113668859D01*
X115793190Y-113668859D02*
X116174142Y-113668859D01*
X116174142Y-113668859D02*
X116269380Y-113621240D01*
X116269380Y-113621240D02*
X116317000Y-113573621D01*
X116317000Y-113573621D02*
X116364619Y-113478383D01*
X116364619Y-113478383D02*
X116364619Y-113287907D01*
X116364619Y-113287907D02*
X116317000Y-113192669D01*
X116317000Y-113192669D02*
X116269380Y-113145050D01*
X116269380Y-113145050D02*
X116174142Y-113097431D01*
X116174142Y-113097431D02*
X115936047Y-113097431D01*
X115936047Y-113097431D02*
X115840809Y-113145050D01*
X115840809Y-113145050D02*
X115793190Y-113192669D01*
X115793190Y-113192669D02*
X115745571Y-113287907D01*
X115745571Y-113287907D02*
X115745571Y-113478383D01*
X115745571Y-113478383D02*
X115793190Y-113573621D01*
X115793190Y-113573621D02*
X115840809Y-113621240D01*
X115840809Y-113621240D02*
X115936047Y-113668859D01*
X116269380Y-112668859D02*
X116317000Y-112621240D01*
X116317000Y-112621240D02*
X116364619Y-112668859D01*
X116364619Y-112668859D02*
X116317000Y-112716478D01*
X116317000Y-112716478D02*
X116269380Y-112668859D01*
X116269380Y-112668859D02*
X116364619Y-112668859D01*
D11*
X117616775Y-82204819D02*
X117616775Y-81204819D01*
X117616775Y-81681009D02*
X118188203Y-81681009D01*
X118188203Y-82204819D02*
X118188203Y-81204819D01*
X119188203Y-82204819D02*
X118616775Y-82204819D01*
X118902489Y-82204819D02*
X118902489Y-81204819D01*
X118902489Y-81204819D02*
X118807251Y-81347676D01*
X118807251Y-81347676D02*
X118712013Y-81442914D01*
X118712013Y-81442914D02*
X118616775Y-81490533D01*
X192994819Y-129968094D02*
X191994819Y-129968094D01*
X191994819Y-129968094D02*
X191994819Y-129729999D01*
X191994819Y-129729999D02*
X192042438Y-129587142D01*
X192042438Y-129587142D02*
X192137676Y-129491904D01*
X192137676Y-129491904D02*
X192232914Y-129444285D01*
X192232914Y-129444285D02*
X192423390Y-129396666D01*
X192423390Y-129396666D02*
X192566247Y-129396666D01*
X192566247Y-129396666D02*
X192756723Y-129444285D01*
X192756723Y-129444285D02*
X192851961Y-129491904D01*
X192851961Y-129491904D02*
X192947200Y-129587142D01*
X192947200Y-129587142D02*
X192994819Y-129729999D01*
X192994819Y-129729999D02*
X192994819Y-129968094D01*
X192994819Y-128444285D02*
X192994819Y-129015713D01*
X192994819Y-128729999D02*
X191994819Y-128729999D01*
X191994819Y-128729999D02*
X192137676Y-128825237D01*
X192137676Y-128825237D02*
X192232914Y-128920475D01*
X192232914Y-128920475D02*
X192280533Y-129015713D01*
X117738095Y-130704819D02*
X117738095Y-129704819D01*
X117738095Y-130181009D02*
X118309523Y-130181009D01*
X118309523Y-130704819D02*
X118309523Y-129704819D01*
X118690476Y-129704819D02*
X119309523Y-129704819D01*
X119309523Y-129704819D02*
X118976190Y-130085771D01*
X118976190Y-130085771D02*
X119119047Y-130085771D01*
X119119047Y-130085771D02*
X119214285Y-130133390D01*
X119214285Y-130133390D02*
X119261904Y-130181009D01*
X119261904Y-130181009D02*
X119309523Y-130276247D01*
X119309523Y-130276247D02*
X119309523Y-130514342D01*
X119309523Y-130514342D02*
X119261904Y-130609580D01*
X119261904Y-130609580D02*
X119214285Y-130657200D01*
X119214285Y-130657200D02*
X119119047Y-130704819D01*
X119119047Y-130704819D02*
X118833333Y-130704819D01*
X118833333Y-130704819D02*
X118738095Y-130657200D01*
X118738095Y-130657200D02*
X118690476Y-130609580D01*
X114916666Y-99704819D02*
X114916666Y-100419104D01*
X114916666Y-100419104D02*
X114869047Y-100561961D01*
X114869047Y-100561961D02*
X114773809Y-100657200D01*
X114773809Y-100657200D02*
X114630952Y-100704819D01*
X114630952Y-100704819D02*
X114535714Y-100704819D01*
X115869047Y-99704819D02*
X115392857Y-99704819D01*
X115392857Y-99704819D02*
X115345238Y-100181009D01*
X115345238Y-100181009D02*
X115392857Y-100133390D01*
X115392857Y-100133390D02*
X115488095Y-100085771D01*
X115488095Y-100085771D02*
X115726190Y-100085771D01*
X115726190Y-100085771D02*
X115821428Y-100133390D01*
X115821428Y-100133390D02*
X115869047Y-100181009D01*
X115869047Y-100181009D02*
X115916666Y-100276247D01*
X115916666Y-100276247D02*
X115916666Y-100514342D01*
X115916666Y-100514342D02*
X115869047Y-100609580D01*
X115869047Y-100609580D02*
X115821428Y-100657200D01*
X115821428Y-100657200D02*
X115726190Y-100704819D01*
X115726190Y-100704819D02*
X115488095Y-100704819D01*
X115488095Y-100704819D02*
X115392857Y-100657200D01*
X115392857Y-100657200D02*
X115345238Y-100609580D01*
X206238095Y-82204819D02*
X206238095Y-81204819D01*
X206238095Y-81681009D02*
X206809523Y-81681009D01*
X206809523Y-82204819D02*
X206809523Y-81204819D01*
X207238095Y-81300057D02*
X207285714Y-81252438D01*
X207285714Y-81252438D02*
X207380952Y-81204819D01*
X207380952Y-81204819D02*
X207619047Y-81204819D01*
X207619047Y-81204819D02*
X207714285Y-81252438D01*
X207714285Y-81252438D02*
X207761904Y-81300057D01*
X207761904Y-81300057D02*
X207809523Y-81395295D01*
X207809523Y-81395295D02*
X207809523Y-81490533D01*
X207809523Y-81490533D02*
X207761904Y-81633390D01*
X207761904Y-81633390D02*
X207190476Y-82204819D01*
X207190476Y-82204819D02*
X207809523Y-82204819D01*
X206738095Y-130454819D02*
X206738095Y-129454819D01*
X206738095Y-129931009D02*
X207309523Y-129931009D01*
X207309523Y-130454819D02*
X207309523Y-129454819D01*
X208214285Y-129788152D02*
X208214285Y-130454819D01*
X207976190Y-129407200D02*
X207738095Y-130121485D01*
X207738095Y-130121485D02*
X208357142Y-130121485D01*
X204166666Y-120704819D02*
X204166666Y-121419104D01*
X204166666Y-121419104D02*
X204119047Y-121561961D01*
X204119047Y-121561961D02*
X204023809Y-121657200D01*
X204023809Y-121657200D02*
X203880952Y-121704819D01*
X203880952Y-121704819D02*
X203785714Y-121704819D01*
X205166666Y-121704819D02*
X204595238Y-121704819D01*
X204880952Y-121704819D02*
X204880952Y-120704819D01*
X204880952Y-120704819D02*
X204785714Y-120847676D01*
X204785714Y-120847676D02*
X204690476Y-120942914D01*
X204690476Y-120942914D02*
X204595238Y-120990533D01*
X189166666Y-84204819D02*
X189166666Y-84919104D01*
X189166666Y-84919104D02*
X189119047Y-85061961D01*
X189119047Y-85061961D02*
X189023809Y-85157200D01*
X189023809Y-85157200D02*
X188880952Y-85204819D01*
X188880952Y-85204819D02*
X188785714Y-85204819D01*
X189547619Y-84204819D02*
X190166666Y-84204819D01*
X190166666Y-84204819D02*
X189833333Y-84585771D01*
X189833333Y-84585771D02*
X189976190Y-84585771D01*
X189976190Y-84585771D02*
X190071428Y-84633390D01*
X190071428Y-84633390D02*
X190119047Y-84681009D01*
X190119047Y-84681009D02*
X190166666Y-84776247D01*
X190166666Y-84776247D02*
X190166666Y-85014342D01*
X190166666Y-85014342D02*
X190119047Y-85109580D01*
X190119047Y-85109580D02*
X190071428Y-85157200D01*
X190071428Y-85157200D02*
X189976190Y-85204819D01*
X189976190Y-85204819D02*
X189690476Y-85204819D01*
X189690476Y-85204819D02*
X189595238Y-85157200D01*
X189595238Y-85157200D02*
X189547619Y-85109580D01*
X193083333Y-113359580D02*
X193035714Y-113407200D01*
X193035714Y-113407200D02*
X192892857Y-113454819D01*
X192892857Y-113454819D02*
X192797619Y-113454819D01*
X192797619Y-113454819D02*
X192654762Y-113407200D01*
X192654762Y-113407200D02*
X192559524Y-113311961D01*
X192559524Y-113311961D02*
X192511905Y-113216723D01*
X192511905Y-113216723D02*
X192464286Y-113026247D01*
X192464286Y-113026247D02*
X192464286Y-112883390D01*
X192464286Y-112883390D02*
X192511905Y-112692914D01*
X192511905Y-112692914D02*
X192559524Y-112597676D01*
X192559524Y-112597676D02*
X192654762Y-112502438D01*
X192654762Y-112502438D02*
X192797619Y-112454819D01*
X192797619Y-112454819D02*
X192892857Y-112454819D01*
X192892857Y-112454819D02*
X193035714Y-112502438D01*
X193035714Y-112502438D02*
X193083333Y-112550057D01*
X194035714Y-113454819D02*
X193464286Y-113454819D01*
X193750000Y-113454819D02*
X193750000Y-112454819D01*
X193750000Y-112454819D02*
X193654762Y-112597676D01*
X193654762Y-112597676D02*
X193559524Y-112692914D01*
X193559524Y-112692914D02*
X193464286Y-112740533D01*
X196194819Y-97398094D02*
X195194819Y-97398094D01*
X195194819Y-97398094D02*
X195194819Y-97159999D01*
X195194819Y-97159999D02*
X195242438Y-97017142D01*
X195242438Y-97017142D02*
X195337676Y-96921904D01*
X195337676Y-96921904D02*
X195432914Y-96874285D01*
X195432914Y-96874285D02*
X195623390Y-96826666D01*
X195623390Y-96826666D02*
X195766247Y-96826666D01*
X195766247Y-96826666D02*
X195956723Y-96874285D01*
X195956723Y-96874285D02*
X196051961Y-96921904D01*
X196051961Y-96921904D02*
X196147200Y-97017142D01*
X196147200Y-97017142D02*
X196194819Y-97159999D01*
X196194819Y-97159999D02*
X196194819Y-97398094D01*
X195194819Y-95921904D02*
X195194819Y-96398094D01*
X195194819Y-96398094D02*
X195671009Y-96445713D01*
X195671009Y-96445713D02*
X195623390Y-96398094D01*
X195623390Y-96398094D02*
X195575771Y-96302856D01*
X195575771Y-96302856D02*
X195575771Y-96064761D01*
X195575771Y-96064761D02*
X195623390Y-95969523D01*
X195623390Y-95969523D02*
X195671009Y-95921904D01*
X195671009Y-95921904D02*
X195766247Y-95874285D01*
X195766247Y-95874285D02*
X196004342Y-95874285D01*
X196004342Y-95874285D02*
X196099580Y-95921904D01*
X196099580Y-95921904D02*
X196147200Y-95969523D01*
X196147200Y-95969523D02*
X196194819Y-96064761D01*
X196194819Y-96064761D02*
X196194819Y-96302856D01*
X196194819Y-96302856D02*
X196147200Y-96398094D01*
X196147200Y-96398094D02*
X196099580Y-96445713D01*
X193954819Y-90261904D02*
X192954819Y-90261904D01*
X193954819Y-89690476D02*
X193383390Y-90119047D01*
X192954819Y-89690476D02*
X193526247Y-90261904D01*
X203801905Y-85944819D02*
X203801905Y-84944819D01*
X203801905Y-84944819D02*
X204040000Y-84944819D01*
X204040000Y-84944819D02*
X204182857Y-84992438D01*
X204182857Y-84992438D02*
X204278095Y-85087676D01*
X204278095Y-85087676D02*
X204325714Y-85182914D01*
X204325714Y-85182914D02*
X204373333Y-85373390D01*
X204373333Y-85373390D02*
X204373333Y-85516247D01*
X204373333Y-85516247D02*
X204325714Y-85706723D01*
X204325714Y-85706723D02*
X204278095Y-85801961D01*
X204278095Y-85801961D02*
X204182857Y-85897200D01*
X204182857Y-85897200D02*
X204040000Y-85944819D01*
X204040000Y-85944819D02*
X203801905Y-85944819D01*
X205230476Y-85278152D02*
X205230476Y-85944819D01*
X204992381Y-84897200D02*
X204754286Y-85611485D01*
X204754286Y-85611485D02*
X205373333Y-85611485D01*
X211138095Y-88454819D02*
X211138095Y-87454819D01*
X211709523Y-88454819D02*
X211280952Y-87883390D01*
X211709523Y-87454819D02*
X211138095Y-88026247D01*
X123416666Y-81454819D02*
X123416666Y-82169104D01*
X123416666Y-82169104D02*
X123369047Y-82311961D01*
X123369047Y-82311961D02*
X123273809Y-82407200D01*
X123273809Y-82407200D02*
X123130952Y-82454819D01*
X123130952Y-82454819D02*
X123035714Y-82454819D01*
X124321428Y-81454819D02*
X124130952Y-81454819D01*
X124130952Y-81454819D02*
X124035714Y-81502438D01*
X124035714Y-81502438D02*
X123988095Y-81550057D01*
X123988095Y-81550057D02*
X123892857Y-81692914D01*
X123892857Y-81692914D02*
X123845238Y-81883390D01*
X123845238Y-81883390D02*
X123845238Y-82264342D01*
X123845238Y-82264342D02*
X123892857Y-82359580D01*
X123892857Y-82359580D02*
X123940476Y-82407200D01*
X123940476Y-82407200D02*
X124035714Y-82454819D01*
X124035714Y-82454819D02*
X124226190Y-82454819D01*
X124226190Y-82454819D02*
X124321428Y-82407200D01*
X124321428Y-82407200D02*
X124369047Y-82359580D01*
X124369047Y-82359580D02*
X124416666Y-82264342D01*
X124416666Y-82264342D02*
X124416666Y-82026247D01*
X124416666Y-82026247D02*
X124369047Y-81931009D01*
X124369047Y-81931009D02*
X124321428Y-81883390D01*
X124321428Y-81883390D02*
X124226190Y-81835771D01*
X124226190Y-81835771D02*
X124035714Y-81835771D01*
X124035714Y-81835771D02*
X123940476Y-81883390D01*
X123940476Y-81883390D02*
X123892857Y-81931009D01*
X123892857Y-81931009D02*
X123845238Y-82026247D01*
X190204819Y-118616666D02*
X189728628Y-118949999D01*
X190204819Y-119188094D02*
X189204819Y-119188094D01*
X189204819Y-119188094D02*
X189204819Y-118807142D01*
X189204819Y-118807142D02*
X189252438Y-118711904D01*
X189252438Y-118711904D02*
X189300057Y-118664285D01*
X189300057Y-118664285D02*
X189395295Y-118616666D01*
X189395295Y-118616666D02*
X189538152Y-118616666D01*
X189538152Y-118616666D02*
X189633390Y-118664285D01*
X189633390Y-118664285D02*
X189681009Y-118711904D01*
X189681009Y-118711904D02*
X189728628Y-118807142D01*
X189728628Y-118807142D02*
X189728628Y-119188094D01*
X190204819Y-117664285D02*
X190204819Y-118235713D01*
X190204819Y-117949999D02*
X189204819Y-117949999D01*
X189204819Y-117949999D02*
X189347676Y-118045237D01*
X189347676Y-118045237D02*
X189442914Y-118140475D01*
X189442914Y-118140475D02*
X189490533Y-118235713D01*
X211444819Y-96798094D02*
X210444819Y-96798094D01*
X210444819Y-96798094D02*
X210444819Y-96559999D01*
X210444819Y-96559999D02*
X210492438Y-96417142D01*
X210492438Y-96417142D02*
X210587676Y-96321904D01*
X210587676Y-96321904D02*
X210682914Y-96274285D01*
X210682914Y-96274285D02*
X210873390Y-96226666D01*
X210873390Y-96226666D02*
X211016247Y-96226666D01*
X211016247Y-96226666D02*
X211206723Y-96274285D01*
X211206723Y-96274285D02*
X211301961Y-96321904D01*
X211301961Y-96321904D02*
X211397200Y-96417142D01*
X211397200Y-96417142D02*
X211444819Y-96559999D01*
X211444819Y-96559999D02*
X211444819Y-96798094D01*
X210873390Y-95655237D02*
X210825771Y-95750475D01*
X210825771Y-95750475D02*
X210778152Y-95798094D01*
X210778152Y-95798094D02*
X210682914Y-95845713D01*
X210682914Y-95845713D02*
X210635295Y-95845713D01*
X210635295Y-95845713D02*
X210540057Y-95798094D01*
X210540057Y-95798094D02*
X210492438Y-95750475D01*
X210492438Y-95750475D02*
X210444819Y-95655237D01*
X210444819Y-95655237D02*
X210444819Y-95464761D01*
X210444819Y-95464761D02*
X210492438Y-95369523D01*
X210492438Y-95369523D02*
X210540057Y-95321904D01*
X210540057Y-95321904D02*
X210635295Y-95274285D01*
X210635295Y-95274285D02*
X210682914Y-95274285D01*
X210682914Y-95274285D02*
X210778152Y-95321904D01*
X210778152Y-95321904D02*
X210825771Y-95369523D01*
X210825771Y-95369523D02*
X210873390Y-95464761D01*
X210873390Y-95464761D02*
X210873390Y-95655237D01*
X210873390Y-95655237D02*
X210921009Y-95750475D01*
X210921009Y-95750475D02*
X210968628Y-95798094D01*
X210968628Y-95798094D02*
X211063866Y-95845713D01*
X211063866Y-95845713D02*
X211254342Y-95845713D01*
X211254342Y-95845713D02*
X211349580Y-95798094D01*
X211349580Y-95798094D02*
X211397200Y-95750475D01*
X211397200Y-95750475D02*
X211444819Y-95655237D01*
X211444819Y-95655237D02*
X211444819Y-95464761D01*
X211444819Y-95464761D02*
X211397200Y-95369523D01*
X211397200Y-95369523D02*
X211349580Y-95321904D01*
X211349580Y-95321904D02*
X211254342Y-95274285D01*
X211254342Y-95274285D02*
X211063866Y-95274285D01*
X211063866Y-95274285D02*
X210968628Y-95321904D01*
X210968628Y-95321904D02*
X210921009Y-95369523D01*
X210921009Y-95369523D02*
X210873390Y-95464761D01*
X210988095Y-105454819D02*
X210988095Y-104454819D01*
X211559523Y-105454819D02*
X211130952Y-104883390D01*
X211559523Y-104454819D02*
X210988095Y-105026247D01*
X184396666Y-81454819D02*
X184396666Y-82169104D01*
X184396666Y-82169104D02*
X184349047Y-82311961D01*
X184349047Y-82311961D02*
X184253809Y-82407200D01*
X184253809Y-82407200D02*
X184110952Y-82454819D01*
X184110952Y-82454819D02*
X184015714Y-82454819D01*
X184777619Y-81454819D02*
X185444285Y-81454819D01*
X185444285Y-81454819D02*
X185015714Y-82454819D01*
X203859580Y-112666666D02*
X203907200Y-112714285D01*
X203907200Y-112714285D02*
X203954819Y-112857142D01*
X203954819Y-112857142D02*
X203954819Y-112952380D01*
X203954819Y-112952380D02*
X203907200Y-113095237D01*
X203907200Y-113095237D02*
X203811961Y-113190475D01*
X203811961Y-113190475D02*
X203716723Y-113238094D01*
X203716723Y-113238094D02*
X203526247Y-113285713D01*
X203526247Y-113285713D02*
X203383390Y-113285713D01*
X203383390Y-113285713D02*
X203192914Y-113238094D01*
X203192914Y-113238094D02*
X203097676Y-113190475D01*
X203097676Y-113190475D02*
X203002438Y-113095237D01*
X203002438Y-113095237D02*
X202954819Y-112952380D01*
X202954819Y-112952380D02*
X202954819Y-112857142D01*
X202954819Y-112857142D02*
X203002438Y-112714285D01*
X203002438Y-112714285D02*
X203050057Y-112666666D01*
X203050057Y-112285713D02*
X203002438Y-112238094D01*
X203002438Y-112238094D02*
X202954819Y-112142856D01*
X202954819Y-112142856D02*
X202954819Y-111904761D01*
X202954819Y-111904761D02*
X203002438Y-111809523D01*
X203002438Y-111809523D02*
X203050057Y-111761904D01*
X203050057Y-111761904D02*
X203145295Y-111714285D01*
X203145295Y-111714285D02*
X203240533Y-111714285D01*
X203240533Y-111714285D02*
X203383390Y-111761904D01*
X203383390Y-111761904D02*
X203954819Y-112333332D01*
X203954819Y-112333332D02*
X203954819Y-111714285D01*
X191194819Y-96798094D02*
X190194819Y-96798094D01*
X190194819Y-96798094D02*
X190194819Y-96559999D01*
X190194819Y-96559999D02*
X190242438Y-96417142D01*
X190242438Y-96417142D02*
X190337676Y-96321904D01*
X190337676Y-96321904D02*
X190432914Y-96274285D01*
X190432914Y-96274285D02*
X190623390Y-96226666D01*
X190623390Y-96226666D02*
X190766247Y-96226666D01*
X190766247Y-96226666D02*
X190956723Y-96274285D01*
X190956723Y-96274285D02*
X191051961Y-96321904D01*
X191051961Y-96321904D02*
X191147200Y-96417142D01*
X191147200Y-96417142D02*
X191194819Y-96559999D01*
X191194819Y-96559999D02*
X191194819Y-96798094D01*
X191194819Y-95750475D02*
X191194819Y-95559999D01*
X191194819Y-95559999D02*
X191147200Y-95464761D01*
X191147200Y-95464761D02*
X191099580Y-95417142D01*
X191099580Y-95417142D02*
X190956723Y-95321904D01*
X190956723Y-95321904D02*
X190766247Y-95274285D01*
X190766247Y-95274285D02*
X190385295Y-95274285D01*
X190385295Y-95274285D02*
X190290057Y-95321904D01*
X190290057Y-95321904D02*
X190242438Y-95369523D01*
X190242438Y-95369523D02*
X190194819Y-95464761D01*
X190194819Y-95464761D02*
X190194819Y-95655237D01*
X190194819Y-95655237D02*
X190242438Y-95750475D01*
X190242438Y-95750475D02*
X190290057Y-95798094D01*
X190290057Y-95798094D02*
X190385295Y-95845713D01*
X190385295Y-95845713D02*
X190623390Y-95845713D01*
X190623390Y-95845713D02*
X190718628Y-95798094D01*
X190718628Y-95798094D02*
X190766247Y-95750475D01*
X190766247Y-95750475D02*
X190813866Y-95655237D01*
X190813866Y-95655237D02*
X190813866Y-95464761D01*
X190813866Y-95464761D02*
X190766247Y-95369523D01*
X190766247Y-95369523D02*
X190718628Y-95321904D01*
X190718628Y-95321904D02*
X190623390Y-95274285D01*
X191204819Y-104961904D02*
X190204819Y-104961904D01*
X191204819Y-104390476D02*
X190633390Y-104819047D01*
X190204819Y-104390476D02*
X190776247Y-104961904D01*
X206238095Y-87454819D02*
X206238095Y-88264342D01*
X206238095Y-88264342D02*
X206285714Y-88359580D01*
X206285714Y-88359580D02*
X206333333Y-88407200D01*
X206333333Y-88407200D02*
X206428571Y-88454819D01*
X206428571Y-88454819D02*
X206619047Y-88454819D01*
X206619047Y-88454819D02*
X206714285Y-88407200D01*
X206714285Y-88407200D02*
X206761904Y-88359580D01*
X206761904Y-88359580D02*
X206809523Y-88264342D01*
X206809523Y-88264342D02*
X206809523Y-87454819D01*
X207238095Y-87550057D02*
X207285714Y-87502438D01*
X207285714Y-87502438D02*
X207380952Y-87454819D01*
X207380952Y-87454819D02*
X207619047Y-87454819D01*
X207619047Y-87454819D02*
X207714285Y-87502438D01*
X207714285Y-87502438D02*
X207761904Y-87550057D01*
X207761904Y-87550057D02*
X207809523Y-87645295D01*
X207809523Y-87645295D02*
X207809523Y-87740533D01*
X207809523Y-87740533D02*
X207761904Y-87883390D01*
X207761904Y-87883390D02*
X207190476Y-88454819D01*
X207190476Y-88454819D02*
X207809523Y-88454819D01*
X194238095Y-114204819D02*
X194238095Y-115014342D01*
X194238095Y-115014342D02*
X194285714Y-115109580D01*
X194285714Y-115109580D02*
X194333333Y-115157200D01*
X194333333Y-115157200D02*
X194428571Y-115204819D01*
X194428571Y-115204819D02*
X194619047Y-115204819D01*
X194619047Y-115204819D02*
X194714285Y-115157200D01*
X194714285Y-115157200D02*
X194761904Y-115109580D01*
X194761904Y-115109580D02*
X194809523Y-115014342D01*
X194809523Y-115014342D02*
X194809523Y-114204819D01*
X195809523Y-115204819D02*
X195238095Y-115204819D01*
X195523809Y-115204819D02*
X195523809Y-114204819D01*
X195523809Y-114204819D02*
X195428571Y-114347676D01*
X195428571Y-114347676D02*
X195333333Y-114442914D01*
X195333333Y-114442914D02*
X195238095Y-114490533D01*
X212064819Y-113623333D02*
X212779104Y-113623333D01*
X212779104Y-113623333D02*
X212921961Y-113670952D01*
X212921961Y-113670952D02*
X213017200Y-113766190D01*
X213017200Y-113766190D02*
X213064819Y-113909047D01*
X213064819Y-113909047D02*
X213064819Y-114004285D01*
X213064819Y-113147142D02*
X212064819Y-113147142D01*
X212064819Y-113147142D02*
X212064819Y-112766190D01*
X212064819Y-112766190D02*
X212112438Y-112670952D01*
X212112438Y-112670952D02*
X212160057Y-112623333D01*
X212160057Y-112623333D02*
X212255295Y-112575714D01*
X212255295Y-112575714D02*
X212398152Y-112575714D01*
X212398152Y-112575714D02*
X212493390Y-112623333D01*
X212493390Y-112623333D02*
X212541009Y-112670952D01*
X212541009Y-112670952D02*
X212588628Y-112766190D01*
X212588628Y-112766190D02*
X212588628Y-113147142D01*
X213064819Y-111623333D02*
X213064819Y-112194761D01*
X213064819Y-111909047D02*
X212064819Y-111909047D01*
X212064819Y-111909047D02*
X212207676Y-112004285D01*
X212207676Y-112004285D02*
X212302914Y-112099523D01*
X212302914Y-112099523D02*
X212350533Y-112194761D01*
X191779819Y-124358333D02*
X192494104Y-124358333D01*
X192494104Y-124358333D02*
X192636961Y-124405952D01*
X192636961Y-124405952D02*
X192732200Y-124501190D01*
X192732200Y-124501190D02*
X192779819Y-124644047D01*
X192779819Y-124644047D02*
X192779819Y-124739285D01*
X192208390Y-123739285D02*
X192160771Y-123834523D01*
X192160771Y-123834523D02*
X192113152Y-123882142D01*
X192113152Y-123882142D02*
X192017914Y-123929761D01*
X192017914Y-123929761D02*
X191970295Y-123929761D01*
X191970295Y-123929761D02*
X191875057Y-123882142D01*
X191875057Y-123882142D02*
X191827438Y-123834523D01*
X191827438Y-123834523D02*
X191779819Y-123739285D01*
X191779819Y-123739285D02*
X191779819Y-123548809D01*
X191779819Y-123548809D02*
X191827438Y-123453571D01*
X191827438Y-123453571D02*
X191875057Y-123405952D01*
X191875057Y-123405952D02*
X191970295Y-123358333D01*
X191970295Y-123358333D02*
X192017914Y-123358333D01*
X192017914Y-123358333D02*
X192113152Y-123405952D01*
X192113152Y-123405952D02*
X192160771Y-123453571D01*
X192160771Y-123453571D02*
X192208390Y-123548809D01*
X192208390Y-123548809D02*
X192208390Y-123739285D01*
X192208390Y-123739285D02*
X192256009Y-123834523D01*
X192256009Y-123834523D02*
X192303628Y-123882142D01*
X192303628Y-123882142D02*
X192398866Y-123929761D01*
X192398866Y-123929761D02*
X192589342Y-123929761D01*
X192589342Y-123929761D02*
X192684580Y-123882142D01*
X192684580Y-123882142D02*
X192732200Y-123834523D01*
X192732200Y-123834523D02*
X192779819Y-123739285D01*
X192779819Y-123739285D02*
X192779819Y-123548809D01*
X192779819Y-123548809D02*
X192732200Y-123453571D01*
X192732200Y-123453571D02*
X192684580Y-123405952D01*
X192684580Y-123405952D02*
X192589342Y-123358333D01*
X192589342Y-123358333D02*
X192398866Y-123358333D01*
X192398866Y-123358333D02*
X192303628Y-123405952D01*
X192303628Y-123405952D02*
X192256009Y-123453571D01*
X192256009Y-123453571D02*
X192208390Y-123548809D01*
D12*
%TO.C,D1*%
X194955000Y-131790000D02*
X198045000Y-131790000D01*
X194955170Y-131790000D02*
G75*
G02*
X196500000Y-126240000I1544830J2560000D01*
G01*
X196500000Y-126240000D02*
G75*
G02*
X198044830Y-131790000I0J-2990000D01*
G01*
X199000000Y-129230000D02*
G75*
G02*
X194000000Y-129230000I-2500000J0D01*
G01*
X194000000Y-129230000D02*
G75*
G02*
X199000000Y-129230000I2500000J0D01*
G01*
%TO.C,J5*%
X116580000Y-109270000D02*
X116580000Y-101590000D01*
X116580000Y-109270000D02*
X113920000Y-109270000D01*
X116580000Y-101590000D02*
X113920000Y-101590000D01*
X115250000Y-111870000D02*
X113920000Y-111870000D01*
X113920000Y-111870000D02*
X113920000Y-110540000D01*
X113920000Y-109270000D02*
X113920000Y-101590000D01*
%TO.C,J1*%
X213180000Y-120230000D02*
X212570000Y-119790000D01*
X213180000Y-119350000D01*
X213180000Y-120230000D01*
G36*
X213180000Y-120230000D02*
G01*
X212570000Y-119790000D01*
X213180000Y-119350000D01*
X213180000Y-120230000D01*
G37*
X212220000Y-121410000D02*
X205780000Y-121410000D01*
X212220000Y-120820000D02*
X212220000Y-121410000D01*
X212220000Y-118280000D02*
X212220000Y-118760000D01*
X212220000Y-115630000D02*
X212220000Y-116220000D01*
X211600000Y-121410000D02*
X211600000Y-120820000D01*
X211600000Y-118760000D02*
X211600000Y-118280000D01*
X211600000Y-116220000D02*
X211600000Y-115630000D01*
X206300000Y-121410000D02*
X206300000Y-115630000D01*
X205780000Y-121410000D02*
X205780000Y-115630000D01*
X205780000Y-115630000D02*
X212220000Y-115630000D01*
%TO.C,J3*%
X195000000Y-81180000D02*
X194560000Y-80570000D01*
X195440000Y-80570000D01*
X195000000Y-81180000D01*
G36*
X195000000Y-81180000D02*
G01*
X194560000Y-80570000D01*
X195440000Y-80570000D01*
X195000000Y-81180000D01*
G37*
X196620000Y-87970000D02*
X190840000Y-87970000D01*
X196620000Y-87450000D02*
X190840000Y-87450000D01*
X196620000Y-82150000D02*
X196030000Y-82150000D01*
X196620000Y-81530000D02*
X196620000Y-87970000D01*
X196030000Y-81530000D02*
X196620000Y-81530000D01*
X193970000Y-82150000D02*
X193490000Y-82150000D01*
X193490000Y-81530000D02*
X193970000Y-81530000D01*
X191430000Y-82150000D02*
X190840000Y-82150000D01*
X190840000Y-87970000D02*
X190840000Y-81530000D01*
X190840000Y-81530000D02*
X191430000Y-81530000D01*
%TO.C,C1*%
X192210000Y-109500000D02*
X190670000Y-109500000D01*
X192210000Y-109540000D02*
X190670000Y-109540000D01*
X192210000Y-109580000D02*
X190671000Y-109580000D01*
X192210000Y-109620000D02*
X190673000Y-109620000D01*
X192210000Y-109660000D02*
X190675000Y-109660000D01*
X192210000Y-109700000D02*
X190678000Y-109700000D01*
X192210000Y-109740000D02*
X190681000Y-109740000D01*
X192210000Y-109780000D02*
X190685000Y-109780000D01*
X192210000Y-109820000D02*
X190690000Y-109820000D01*
X192210000Y-109860000D02*
X190695000Y-109860000D01*
X192210000Y-109900000D02*
X190701000Y-109900000D01*
X192210000Y-109940000D02*
X190707000Y-109940000D01*
X192210000Y-109980000D02*
X190714000Y-109980000D01*
X192210000Y-110020000D02*
X190722000Y-110020000D01*
X192210000Y-110060000D02*
X190731000Y-110060000D01*
X192210000Y-110100000D02*
X190740000Y-110100000D01*
X192210000Y-110140000D02*
X190749000Y-110140000D01*
X192210000Y-110180000D02*
X190760000Y-110180000D01*
X192210000Y-110220000D02*
X190771000Y-110220000D01*
X192210000Y-110260000D02*
X190783000Y-110260000D01*
X192210000Y-110300000D02*
X190795000Y-110300000D01*
X192210000Y-110340000D02*
X190808000Y-110340000D01*
X192210000Y-110380000D02*
X190822000Y-110380000D01*
X192210000Y-110420000D02*
X190837000Y-110420000D01*
X192210000Y-110460000D02*
X190852000Y-110460000D01*
X192210000Y-110500000D02*
X190868000Y-110500000D01*
X192210000Y-110540000D02*
X190885000Y-110540000D01*
X192210000Y-110580000D02*
X190903000Y-110580000D01*
X192210000Y-110620000D02*
X190921000Y-110620000D01*
X192210000Y-110660000D02*
X190941000Y-110660000D01*
X192210000Y-110700000D02*
X190961000Y-110700000D01*
X192210000Y-110740000D02*
X190982000Y-110740000D01*
X192210000Y-110780000D02*
X191004000Y-110780000D01*
X192210000Y-110820000D02*
X191027000Y-110820000D01*
X192210000Y-110860000D02*
X191051000Y-110860000D01*
X192210000Y-110900000D02*
X191075000Y-110900000D01*
X192210000Y-110940000D02*
X191101000Y-110940000D01*
X192210000Y-110980000D02*
X191128000Y-110980000D01*
X192210000Y-111020000D02*
X191156000Y-111020000D01*
X192210000Y-111060000D02*
X191185000Y-111060000D01*
X192210000Y-111100000D02*
X191215000Y-111100000D01*
X192210000Y-111140000D02*
X191247000Y-111140000D01*
X192210000Y-111180000D02*
X191280000Y-111180000D01*
X192210000Y-111220000D02*
X191314000Y-111220000D01*
X192210000Y-111260000D02*
X191349000Y-111260000D01*
X192210000Y-111300000D02*
X191386000Y-111300000D01*
X192210000Y-111340000D02*
X191425000Y-111340000D01*
X192210000Y-111380000D02*
X191465000Y-111380000D01*
X192210000Y-111420000D02*
X191507000Y-111420000D01*
X192210000Y-111460000D02*
X191551000Y-111460000D01*
X192210000Y-111500000D02*
X191598000Y-111500000D01*
X193533000Y-112100000D02*
X192967000Y-112100000D01*
X193767000Y-112060000D02*
X192733000Y-112060000D01*
X193927000Y-112020000D02*
X192573000Y-112020000D01*
X194055000Y-111980000D02*
X192445000Y-111980000D01*
X194164000Y-111940000D02*
X192336000Y-111940000D01*
X194261000Y-111900000D02*
X192239000Y-111900000D01*
X194348000Y-111860000D02*
X192152000Y-111860000D01*
X194427000Y-111820000D02*
X192073000Y-111820000D01*
X194501000Y-111780000D02*
X191999000Y-111780000D01*
X194569000Y-111740000D02*
X191931000Y-111740000D01*
X194633000Y-111700000D02*
X191867000Y-111700000D01*
X194693000Y-111660000D02*
X191807000Y-111660000D01*
X194725000Y-106695225D02*
X194725000Y-107195225D01*
X194749000Y-111620000D02*
X191751000Y-111620000D01*
X194803000Y-111580000D02*
X191697000Y-111580000D01*
X194854000Y-111540000D02*
X191646000Y-111540000D01*
X194902000Y-111500000D02*
X194290000Y-111500000D01*
X194949000Y-111460000D02*
X194290000Y-111460000D01*
X194975000Y-106945225D02*
X194475000Y-106945225D01*
X194993000Y-111420000D02*
X194290000Y-111420000D01*
X195035000Y-111380000D02*
X194290000Y-111380000D01*
X195075000Y-111340000D02*
X194290000Y-111340000D01*
X195114000Y-111300000D02*
X194290000Y-111300000D01*
X195151000Y-111260000D02*
X194290000Y-111260000D01*
X195186000Y-111220000D02*
X194290000Y-111220000D01*
X195220000Y-111180000D02*
X194290000Y-111180000D01*
X195253000Y-111140000D02*
X194290000Y-111140000D01*
X195285000Y-111100000D02*
X194290000Y-111100000D01*
X195315000Y-111060000D02*
X194290000Y-111060000D01*
X195344000Y-111020000D02*
X194290000Y-111020000D01*
X195372000Y-110980000D02*
X194290000Y-110980000D01*
X195399000Y-110940000D02*
X194290000Y-110940000D01*
X195425000Y-110900000D02*
X194290000Y-110900000D01*
X195449000Y-110860000D02*
X194290000Y-110860000D01*
X195473000Y-110820000D02*
X194290000Y-110820000D01*
X195496000Y-110780000D02*
X194290000Y-110780000D01*
X195518000Y-110740000D02*
X194290000Y-110740000D01*
X195539000Y-110700000D02*
X194290000Y-110700000D01*
X195559000Y-110660000D02*
X194290000Y-110660000D01*
X195579000Y-110620000D02*
X194290000Y-110620000D01*
X195597000Y-110580000D02*
X194290000Y-110580000D01*
X195615000Y-110540000D02*
X194290000Y-110540000D01*
X195632000Y-110500000D02*
X194290000Y-110500000D01*
X195648000Y-110460000D02*
X194290000Y-110460000D01*
X195663000Y-110420000D02*
X194290000Y-110420000D01*
X195678000Y-110380000D02*
X194290000Y-110380000D01*
X195692000Y-110340000D02*
X194290000Y-110340000D01*
X195705000Y-110300000D02*
X194290000Y-110300000D01*
X195717000Y-110260000D02*
X194290000Y-110260000D01*
X195729000Y-110220000D02*
X194290000Y-110220000D01*
X195740000Y-110180000D02*
X194290000Y-110180000D01*
X195751000Y-110140000D02*
X194290000Y-110140000D01*
X195760000Y-110100000D02*
X194290000Y-110100000D01*
X195769000Y-110060000D02*
X194290000Y-110060000D01*
X195778000Y-110020000D02*
X194290000Y-110020000D01*
X195786000Y-109980000D02*
X194290000Y-109980000D01*
X195793000Y-109940000D02*
X194290000Y-109940000D01*
X195799000Y-109900000D02*
X194290000Y-109900000D01*
X195805000Y-109860000D02*
X194290000Y-109860000D01*
X195810000Y-109820000D02*
X194290000Y-109820000D01*
X195815000Y-109780000D02*
X194290000Y-109780000D01*
X195819000Y-109740000D02*
X194290000Y-109740000D01*
X195822000Y-109700000D02*
X194290000Y-109700000D01*
X195825000Y-109660000D02*
X194290000Y-109660000D01*
X195827000Y-109620000D02*
X194290000Y-109620000D01*
X195829000Y-109580000D02*
X194290000Y-109580000D01*
X195830000Y-109500000D02*
X194290000Y-109500000D01*
X195830000Y-109540000D02*
X194290000Y-109540000D01*
X195870000Y-109500000D02*
G75*
G02*
X190630000Y-109500000I-2620000J0D01*
G01*
X190630000Y-109500000D02*
G75*
G02*
X195870000Y-109500000I2620000J0D01*
G01*
%TO.C,D5*%
X195750000Y-91340000D02*
X195750000Y-93630000D01*
X195750000Y-101360000D02*
X195750000Y-99070000D01*
X197220000Y-94410000D02*
X194280000Y-94410000D01*
X197220000Y-94530000D02*
X194280000Y-94530000D01*
X197220000Y-94650000D02*
X194280000Y-94650000D01*
X197220000Y-93630000D02*
X194280000Y-93630000D01*
X194280000Y-99070000D01*
X197220000Y-99070000D01*
X197220000Y-93630000D01*
%TO.C,D4*%
X199990000Y-85500000D02*
X202280000Y-85500000D01*
X206700000Y-86970000D02*
X206700000Y-84030000D01*
X206820000Y-86970000D02*
X206820000Y-84030000D01*
X206940000Y-86970000D02*
X206940000Y-84030000D01*
X210010000Y-85500000D02*
X207720000Y-85500000D01*
X207720000Y-86970000D02*
X202280000Y-86970000D01*
X202280000Y-84030000D01*
X207720000Y-84030000D01*
X207720000Y-86970000D01*
%TO.C,J6*%
X121130000Y-83670000D02*
X121130000Y-132050000D01*
X121130000Y-83670000D02*
X123730000Y-83670000D01*
X121130000Y-132050000D02*
X126330000Y-132050000D01*
X123730000Y-83670000D02*
X123730000Y-86270000D01*
X123730000Y-86270000D02*
X126330000Y-86270000D01*
X125000000Y-83670000D02*
X126330000Y-83670000D01*
X126330000Y-83670000D02*
X126330000Y-85000000D01*
X126330000Y-86270000D02*
X126330000Y-132050000D01*
%TO.C,R1*%
X190590000Y-117772936D02*
X190590000Y-119227064D01*
X192410000Y-117772936D02*
X192410000Y-119227064D01*
%TO.C,D8*%
X209530000Y-98050000D02*
X212470000Y-98050000D01*
X209530000Y-98170000D02*
X212470000Y-98170000D01*
X209530000Y-98290000D02*
X212470000Y-98290000D01*
X211000000Y-91340000D02*
X211000000Y-93630000D01*
X211000000Y-101360000D02*
X211000000Y-99070000D01*
X209530000Y-99070000D02*
X212470000Y-99070000D01*
X212470000Y-93630000D01*
X209530000Y-93630000D01*
X209530000Y-99070000D01*
%TO.C,J7*%
X182130000Y-83670000D02*
X182130000Y-132050000D01*
X182130000Y-83670000D02*
X184730000Y-83670000D01*
X182130000Y-132050000D02*
X187330000Y-132050000D01*
X184730000Y-83670000D02*
X184730000Y-86270000D01*
X184730000Y-86270000D02*
X187330000Y-86270000D01*
X186000000Y-83670000D02*
X187330000Y-83670000D01*
X187330000Y-83670000D02*
X187330000Y-85000000D01*
X187330000Y-86270000D02*
X187330000Y-132050000D01*
%TO.C,C2*%
X197195225Y-111025000D02*
X197695225Y-111025000D01*
X197445225Y-110775000D02*
X197445225Y-111275000D01*
X200000000Y-109920000D02*
X200000000Y-111460000D01*
X200000000Y-113540000D02*
X200000000Y-115080000D01*
X200040000Y-109920000D02*
X200040000Y-111460000D01*
X200040000Y-113540000D02*
X200040000Y-115080000D01*
X200080000Y-109921000D02*
X200080000Y-111460000D01*
X200080000Y-113540000D02*
X200080000Y-115079000D01*
X200120000Y-109923000D02*
X200120000Y-111460000D01*
X200120000Y-113540000D02*
X200120000Y-115077000D01*
X200160000Y-109925000D02*
X200160000Y-111460000D01*
X200160000Y-113540000D02*
X200160000Y-115075000D01*
X200200000Y-109928000D02*
X200200000Y-111460000D01*
X200200000Y-113540000D02*
X200200000Y-115072000D01*
X200240000Y-109931000D02*
X200240000Y-111460000D01*
X200240000Y-113540000D02*
X200240000Y-115069000D01*
X200280000Y-109935000D02*
X200280000Y-111460000D01*
X200280000Y-113540000D02*
X200280000Y-115065000D01*
X200320000Y-109940000D02*
X200320000Y-111460000D01*
X200320000Y-113540000D02*
X200320000Y-115060000D01*
X200360000Y-109945000D02*
X200360000Y-111460000D01*
X200360000Y-113540000D02*
X200360000Y-115055000D01*
X200400000Y-109951000D02*
X200400000Y-111460000D01*
X200400000Y-113540000D02*
X200400000Y-115049000D01*
X200440000Y-109957000D02*
X200440000Y-111460000D01*
X200440000Y-113540000D02*
X200440000Y-115043000D01*
X200480000Y-109964000D02*
X200480000Y-111460000D01*
X200480000Y-113540000D02*
X200480000Y-115036000D01*
X200520000Y-109972000D02*
X200520000Y-111460000D01*
X200520000Y-113540000D02*
X200520000Y-115028000D01*
X200560000Y-109981000D02*
X200560000Y-111460000D01*
X200560000Y-113540000D02*
X200560000Y-115019000D01*
X200600000Y-109990000D02*
X200600000Y-111460000D01*
X200600000Y-113540000D02*
X200600000Y-115010000D01*
X200640000Y-109999000D02*
X200640000Y-111460000D01*
X200640000Y-113540000D02*
X200640000Y-115001000D01*
X200680000Y-110010000D02*
X200680000Y-111460000D01*
X200680000Y-113540000D02*
X200680000Y-114990000D01*
X200720000Y-110021000D02*
X200720000Y-111460000D01*
X200720000Y-113540000D02*
X200720000Y-114979000D01*
X200760000Y-110033000D02*
X200760000Y-111460000D01*
X200760000Y-113540000D02*
X200760000Y-114967000D01*
X200800000Y-110045000D02*
X200800000Y-111460000D01*
X200800000Y-113540000D02*
X200800000Y-114955000D01*
X200840000Y-110058000D02*
X200840000Y-111460000D01*
X200840000Y-113540000D02*
X200840000Y-114942000D01*
X200880000Y-110072000D02*
X200880000Y-111460000D01*
X200880000Y-113540000D02*
X200880000Y-114928000D01*
X200920000Y-110087000D02*
X200920000Y-111460000D01*
X200920000Y-113540000D02*
X200920000Y-114913000D01*
X200960000Y-110102000D02*
X200960000Y-111460000D01*
X200960000Y-113540000D02*
X200960000Y-114898000D01*
X201000000Y-110118000D02*
X201000000Y-111460000D01*
X201000000Y-113540000D02*
X201000000Y-114882000D01*
X201040000Y-110135000D02*
X201040000Y-111460000D01*
X201040000Y-113540000D02*
X201040000Y-114865000D01*
X201080000Y-110153000D02*
X201080000Y-111460000D01*
X201080000Y-113540000D02*
X201080000Y-114847000D01*
X201120000Y-110171000D02*
X201120000Y-111460000D01*
X201120000Y-113540000D02*
X201120000Y-114829000D01*
X201160000Y-110191000D02*
X201160000Y-111460000D01*
X201160000Y-113540000D02*
X201160000Y-114809000D01*
X201200000Y-110211000D02*
X201200000Y-111460000D01*
X201200000Y-113540000D02*
X201200000Y-114789000D01*
X201240000Y-110232000D02*
X201240000Y-111460000D01*
X201240000Y-113540000D02*
X201240000Y-114768000D01*
X201280000Y-110254000D02*
X201280000Y-111460000D01*
X201280000Y-113540000D02*
X201280000Y-114746000D01*
X201320000Y-110277000D02*
X201320000Y-111460000D01*
X201320000Y-113540000D02*
X201320000Y-114723000D01*
X201360000Y-110301000D02*
X201360000Y-111460000D01*
X201360000Y-113540000D02*
X201360000Y-114699000D01*
X201400000Y-110325000D02*
X201400000Y-111460000D01*
X201400000Y-113540000D02*
X201400000Y-114675000D01*
X201440000Y-110351000D02*
X201440000Y-111460000D01*
X201440000Y-113540000D02*
X201440000Y-114649000D01*
X201480000Y-110378000D02*
X201480000Y-111460000D01*
X201480000Y-113540000D02*
X201480000Y-114622000D01*
X201520000Y-110406000D02*
X201520000Y-111460000D01*
X201520000Y-113540000D02*
X201520000Y-114594000D01*
X201560000Y-110435000D02*
X201560000Y-111460000D01*
X201560000Y-113540000D02*
X201560000Y-114565000D01*
X201600000Y-110465000D02*
X201600000Y-111460000D01*
X201600000Y-113540000D02*
X201600000Y-114535000D01*
X201640000Y-110497000D02*
X201640000Y-111460000D01*
X201640000Y-113540000D02*
X201640000Y-114503000D01*
X201680000Y-110530000D02*
X201680000Y-111460000D01*
X201680000Y-113540000D02*
X201680000Y-114470000D01*
X201720000Y-110564000D02*
X201720000Y-111460000D01*
X201720000Y-113540000D02*
X201720000Y-114436000D01*
X201760000Y-110599000D02*
X201760000Y-111460000D01*
X201760000Y-113540000D02*
X201760000Y-114401000D01*
X201800000Y-110636000D02*
X201800000Y-111460000D01*
X201800000Y-113540000D02*
X201800000Y-114364000D01*
X201840000Y-110675000D02*
X201840000Y-111460000D01*
X201840000Y-113540000D02*
X201840000Y-114325000D01*
X201880000Y-110715000D02*
X201880000Y-111460000D01*
X201880000Y-113540000D02*
X201880000Y-114285000D01*
X201920000Y-110757000D02*
X201920000Y-111460000D01*
X201920000Y-113540000D02*
X201920000Y-114243000D01*
X201960000Y-110801000D02*
X201960000Y-111460000D01*
X201960000Y-113540000D02*
X201960000Y-114199000D01*
X202000000Y-110848000D02*
X202000000Y-111460000D01*
X202000000Y-113540000D02*
X202000000Y-114152000D01*
X202040000Y-110896000D02*
X202040000Y-114104000D01*
X202080000Y-110947000D02*
X202080000Y-114053000D01*
X202120000Y-111001000D02*
X202120000Y-113999000D01*
X202160000Y-111057000D02*
X202160000Y-113943000D01*
X202200000Y-111117000D02*
X202200000Y-113883000D01*
X202240000Y-111181000D02*
X202240000Y-113819000D01*
X202280000Y-111249000D02*
X202280000Y-113751000D01*
X202320000Y-111323000D02*
X202320000Y-113677000D01*
X202360000Y-111402000D02*
X202360000Y-113598000D01*
X202400000Y-111489000D02*
X202400000Y-113511000D01*
X202440000Y-111586000D02*
X202440000Y-113414000D01*
X202480000Y-111695000D02*
X202480000Y-113305000D01*
X202520000Y-111823000D02*
X202520000Y-113177000D01*
X202560000Y-111983000D02*
X202560000Y-113017000D01*
X202600000Y-112217000D02*
X202600000Y-112783000D01*
X202620000Y-112500000D02*
G75*
G02*
X197380000Y-112500000I-2620000J0D01*
G01*
X197380000Y-112500000D02*
G75*
G02*
X202620000Y-112500000I2620000J0D01*
G01*
%TO.C,D9*%
X189280000Y-98050000D02*
X192220000Y-98050000D01*
X189280000Y-98170000D02*
X192220000Y-98170000D01*
X189280000Y-98290000D02*
X192220000Y-98290000D01*
X190750000Y-91340000D02*
X190750000Y-93630000D01*
X190750000Y-101360000D02*
X190750000Y-99070000D01*
X189280000Y-99070000D02*
X192220000Y-99070000D01*
X192220000Y-93630000D01*
X189280000Y-93630000D01*
X189280000Y-99070000D01*
D13*
%TO.C,U2*%
X203572500Y-109100000D02*
X208572500Y-109100000D01*
X208572500Y-88900000D02*
X203572500Y-88900000D01*
X208572500Y-109100000D02*
X208572500Y-88900000D01*
D14*
X197452500Y-90110000D02*
G75*
G02*
X197252500Y-90110000I-100000J0D01*
G01*
X197252500Y-90110000D02*
G75*
G02*
X197452500Y-90110000I100000J0D01*
G01*
D12*
%TO.C,U1*%
X193850000Y-115690000D02*
X204070000Y-115690000D01*
X193850000Y-120310000D02*
X193850000Y-115690000D01*
X197110000Y-120310000D02*
X197110000Y-118930000D01*
X200810000Y-120310000D02*
X200810000Y-118930000D01*
X204070000Y-115690000D02*
X204070000Y-120310000D01*
X204070000Y-118930000D02*
X193850000Y-118930000D01*
X204070000Y-120310000D02*
X193850000Y-120310000D01*
%TO.C,JP1*%
X206080000Y-111370000D02*
X206080000Y-114130000D01*
X208730000Y-111370000D02*
X206080000Y-111370000D01*
X208730000Y-111370000D02*
X208730000Y-114130000D01*
X208730000Y-114130000D02*
X206080000Y-114130000D01*
X210000000Y-111370000D02*
X211380000Y-111370000D01*
X211380000Y-111370000D02*
X211380000Y-112750000D01*
%TO.C,J8*%
X209030000Y-125330000D02*
X209030000Y-122670000D01*
X196270000Y-125330000D02*
X209030000Y-125330000D01*
X196270000Y-125330000D02*
X196270000Y-122670000D01*
X196270000Y-122670000D02*
X209030000Y-122670000D01*
X193670000Y-124000000D02*
X193670000Y-122670000D01*
X193670000Y-122670000D02*
X195000000Y-122670000D01*
%TD*%
M02*
