%TF.GenerationSoftware,KiCad,Pcbnew,9.0.6*%
%TF.CreationDate,2026-05-08T23:40:32+02:00*%
%TF.ProjectId,Zavrsni,5a617672-736e-4692-9e6b-696361645f70,rev?*%
%TF.SameCoordinates,Original*%
%TF.FileFunction,AssemblyDrawing,Top*%
%FSLAX46Y46*%
G04 Gerber Fmt 4.6, Leading zero omitted, Abs format (unit mm)*
G04 Created by KiCad (PCBNEW 9.0.6) date 2026-05-08 23:40:32*
%MOMM*%
%LPD*%
G01*
G04 APERTURE LIST*
%ADD10C,0.150000*%
%ADD11C,0.120000*%
%ADD12C,0.108000*%
%ADD13C,0.100000*%
%ADD14C,0.127000*%
%ADD15C,0.200000*%
G04 APERTURE END LIST*
D10*
X200730952Y-111594945D02*
X200778571Y-111547326D01*
X200778571Y-111547326D02*
X200873809Y-111499707D01*
X200873809Y-111499707D02*
X201111904Y-111499707D01*
X201111904Y-111499707D02*
X201207142Y-111547326D01*
X201207142Y-111547326D02*
X201254761Y-111594945D01*
X201254761Y-111594945D02*
X201302380Y-111690183D01*
X201302380Y-111690183D02*
X201302380Y-111785421D01*
X201302380Y-111785421D02*
X201254761Y-111928278D01*
X201254761Y-111928278D02*
X200683333Y-112499707D01*
X200683333Y-112499707D02*
X201302380Y-112499707D01*
X201683333Y-111594945D02*
X201730952Y-111547326D01*
X201730952Y-111547326D02*
X201826190Y-111499707D01*
X201826190Y-111499707D02*
X202064285Y-111499707D01*
X202064285Y-111499707D02*
X202159523Y-111547326D01*
X202159523Y-111547326D02*
X202207142Y-111594945D01*
X202207142Y-111594945D02*
X202254761Y-111690183D01*
X202254761Y-111690183D02*
X202254761Y-111785421D01*
X202254761Y-111785421D02*
X202207142Y-111928278D01*
X202207142Y-111928278D02*
X201635714Y-112499707D01*
X201635714Y-112499707D02*
X202254761Y-112499707D01*
X202873809Y-111499707D02*
X202969047Y-111499707D01*
X202969047Y-111499707D02*
X203064285Y-111547326D01*
X203064285Y-111547326D02*
X203111904Y-111594945D01*
X203111904Y-111594945D02*
X203159523Y-111690183D01*
X203159523Y-111690183D02*
X203207142Y-111880659D01*
X203207142Y-111880659D02*
X203207142Y-112118754D01*
X203207142Y-112118754D02*
X203159523Y-112309230D01*
X203159523Y-112309230D02*
X203111904Y-112404468D01*
X203111904Y-112404468D02*
X203064285Y-112452088D01*
X203064285Y-112452088D02*
X202969047Y-112499707D01*
X202969047Y-112499707D02*
X202873809Y-112499707D01*
X202873809Y-112499707D02*
X202778571Y-112452088D01*
X202778571Y-112452088D02*
X202730952Y-112404468D01*
X202730952Y-112404468D02*
X202683333Y-112309230D01*
X202683333Y-112309230D02*
X202635714Y-112118754D01*
X202635714Y-112118754D02*
X202635714Y-111880659D01*
X202635714Y-111880659D02*
X202683333Y-111690183D01*
X202683333Y-111690183D02*
X202730952Y-111594945D01*
X202730952Y-111594945D02*
X202778571Y-111547326D01*
X202778571Y-111547326D02*
X202873809Y-111499707D01*
X204064285Y-111833040D02*
X204064285Y-112499707D01*
X203635714Y-111833040D02*
X203635714Y-112356849D01*
X203635714Y-112356849D02*
X203683333Y-112452088D01*
X203683333Y-112452088D02*
X203778571Y-112499707D01*
X203778571Y-112499707D02*
X203921428Y-112499707D01*
X203921428Y-112499707D02*
X204016666Y-112452088D01*
X204016666Y-112452088D02*
X204064285Y-112404468D01*
X204873809Y-111975897D02*
X204540476Y-111975897D01*
X204540476Y-112499707D02*
X204540476Y-111499707D01*
X204540476Y-111499707D02*
X205016666Y-111499707D01*
X202959580Y-115711554D02*
X203007200Y-115759173D01*
X203007200Y-115759173D02*
X203054819Y-115902030D01*
X203054819Y-115902030D02*
X203054819Y-115997268D01*
X203054819Y-115997268D02*
X203007200Y-116140125D01*
X203007200Y-116140125D02*
X202911961Y-116235363D01*
X202911961Y-116235363D02*
X202816723Y-116282982D01*
X202816723Y-116282982D02*
X202626247Y-116330601D01*
X202626247Y-116330601D02*
X202483390Y-116330601D01*
X202483390Y-116330601D02*
X202292914Y-116282982D01*
X202292914Y-116282982D02*
X202197676Y-116235363D01*
X202197676Y-116235363D02*
X202102438Y-116140125D01*
X202102438Y-116140125D02*
X202054819Y-115997268D01*
X202054819Y-115997268D02*
X202054819Y-115902030D01*
X202054819Y-115902030D02*
X202102438Y-115759173D01*
X202102438Y-115759173D02*
X202150057Y-115711554D01*
X203054819Y-114759173D02*
X203054819Y-115330601D01*
X203054819Y-115044887D02*
X202054819Y-115044887D01*
X202054819Y-115044887D02*
X202197676Y-115140125D01*
X202197676Y-115140125D02*
X202292914Y-115235363D01*
X202292914Y-115235363D02*
X202340533Y-115330601D01*
X190596666Y-82134819D02*
X190787142Y-82134819D01*
X190787142Y-82134819D02*
X190882380Y-82182438D01*
X190882380Y-82182438D02*
X190977618Y-82277676D01*
X190977618Y-82277676D02*
X191025237Y-82468152D01*
X191025237Y-82468152D02*
X191025237Y-82801485D01*
X191025237Y-82801485D02*
X190977618Y-82991961D01*
X190977618Y-82991961D02*
X190882380Y-83087200D01*
X190882380Y-83087200D02*
X190787142Y-83134819D01*
X190787142Y-83134819D02*
X190596666Y-83134819D01*
X190596666Y-83134819D02*
X190501428Y-83087200D01*
X190501428Y-83087200D02*
X190406190Y-82991961D01*
X190406190Y-82991961D02*
X190358571Y-82801485D01*
X190358571Y-82801485D02*
X190358571Y-82468152D01*
X190358571Y-82468152D02*
X190406190Y-82277676D01*
X190406190Y-82277676D02*
X190501428Y-82182438D01*
X190501428Y-82182438D02*
X190596666Y-82134819D01*
X191882380Y-82468152D02*
X191882380Y-83134819D01*
X191453809Y-82468152D02*
X191453809Y-82991961D01*
X191453809Y-82991961D02*
X191501428Y-83087200D01*
X191501428Y-83087200D02*
X191596666Y-83134819D01*
X191596666Y-83134819D02*
X191739523Y-83134819D01*
X191739523Y-83134819D02*
X191834761Y-83087200D01*
X191834761Y-83087200D02*
X191882380Y-83039580D01*
X192215714Y-82468152D02*
X192596666Y-82468152D01*
X192358571Y-82134819D02*
X192358571Y-82991961D01*
X192358571Y-82991961D02*
X192406190Y-83087200D01*
X192406190Y-83087200D02*
X192501428Y-83134819D01*
X192501428Y-83134819D02*
X192596666Y-83134819D01*
X192930000Y-82468152D02*
X192930000Y-83468152D01*
X192930000Y-82515771D02*
X193025238Y-82468152D01*
X193025238Y-82468152D02*
X193215714Y-82468152D01*
X193215714Y-82468152D02*
X193310952Y-82515771D01*
X193310952Y-82515771D02*
X193358571Y-82563390D01*
X193358571Y-82563390D02*
X193406190Y-82658628D01*
X193406190Y-82658628D02*
X193406190Y-82944342D01*
X193406190Y-82944342D02*
X193358571Y-83039580D01*
X193358571Y-83039580D02*
X193310952Y-83087200D01*
X193310952Y-83087200D02*
X193215714Y-83134819D01*
X193215714Y-83134819D02*
X193025238Y-83134819D01*
X193025238Y-83134819D02*
X192930000Y-83087200D01*
X194263333Y-82468152D02*
X194263333Y-83134819D01*
X193834762Y-82468152D02*
X193834762Y-82991961D01*
X193834762Y-82991961D02*
X193882381Y-83087200D01*
X193882381Y-83087200D02*
X193977619Y-83134819D01*
X193977619Y-83134819D02*
X194120476Y-83134819D01*
X194120476Y-83134819D02*
X194215714Y-83087200D01*
X194215714Y-83087200D02*
X194263333Y-83039580D01*
X194596667Y-82468152D02*
X194977619Y-82468152D01*
X194739524Y-82134819D02*
X194739524Y-82991961D01*
X194739524Y-82991961D02*
X194787143Y-83087200D01*
X194787143Y-83087200D02*
X194882381Y-83134819D01*
X194882381Y-83134819D02*
X194977619Y-83134819D01*
X196025239Y-82849104D02*
X196501429Y-82849104D01*
X195930001Y-83134819D02*
X196263334Y-82134819D01*
X196263334Y-82134819D02*
X196596667Y-83134819D01*
X193096666Y-84354819D02*
X193096666Y-85069104D01*
X193096666Y-85069104D02*
X193049047Y-85211961D01*
X193049047Y-85211961D02*
X192953809Y-85307200D01*
X192953809Y-85307200D02*
X192810952Y-85354819D01*
X192810952Y-85354819D02*
X192715714Y-85354819D01*
X193477619Y-84354819D02*
X194096666Y-84354819D01*
X194096666Y-84354819D02*
X193763333Y-84735771D01*
X193763333Y-84735771D02*
X193906190Y-84735771D01*
X193906190Y-84735771D02*
X194001428Y-84783390D01*
X194001428Y-84783390D02*
X194049047Y-84831009D01*
X194049047Y-84831009D02*
X194096666Y-84926247D01*
X194096666Y-84926247D02*
X194096666Y-85164342D01*
X194096666Y-85164342D02*
X194049047Y-85259580D01*
X194049047Y-85259580D02*
X194001428Y-85307200D01*
X194001428Y-85307200D02*
X193906190Y-85354819D01*
X193906190Y-85354819D02*
X193620476Y-85354819D01*
X193620476Y-85354819D02*
X193525238Y-85307200D01*
X193525238Y-85307200D02*
X193477619Y-85259580D01*
X192954819Y-106111905D02*
X191954819Y-106111905D01*
X191954819Y-106111905D02*
X191954819Y-105873810D01*
X191954819Y-105873810D02*
X192002438Y-105730953D01*
X192002438Y-105730953D02*
X192097676Y-105635715D01*
X192097676Y-105635715D02*
X192192914Y-105588096D01*
X192192914Y-105588096D02*
X192383390Y-105540477D01*
X192383390Y-105540477D02*
X192526247Y-105540477D01*
X192526247Y-105540477D02*
X192716723Y-105588096D01*
X192716723Y-105588096D02*
X192811961Y-105635715D01*
X192811961Y-105635715D02*
X192907200Y-105730953D01*
X192907200Y-105730953D02*
X192954819Y-105873810D01*
X192954819Y-105873810D02*
X192954819Y-106111905D01*
X193050057Y-105350001D02*
X193050057Y-104588096D01*
X192907200Y-104397619D02*
X192954819Y-104254762D01*
X192954819Y-104254762D02*
X192954819Y-104016667D01*
X192954819Y-104016667D02*
X192907200Y-103921429D01*
X192907200Y-103921429D02*
X192859580Y-103873810D01*
X192859580Y-103873810D02*
X192764342Y-103826191D01*
X192764342Y-103826191D02*
X192669104Y-103826191D01*
X192669104Y-103826191D02*
X192573866Y-103873810D01*
X192573866Y-103873810D02*
X192526247Y-103921429D01*
X192526247Y-103921429D02*
X192478628Y-104016667D01*
X192478628Y-104016667D02*
X192431009Y-104207143D01*
X192431009Y-104207143D02*
X192383390Y-104302381D01*
X192383390Y-104302381D02*
X192335771Y-104350000D01*
X192335771Y-104350000D02*
X192240533Y-104397619D01*
X192240533Y-104397619D02*
X192145295Y-104397619D01*
X192145295Y-104397619D02*
X192050057Y-104350000D01*
X192050057Y-104350000D02*
X192002438Y-104302381D01*
X192002438Y-104302381D02*
X191954819Y-104207143D01*
X191954819Y-104207143D02*
X191954819Y-103969048D01*
X191954819Y-103969048D02*
X192002438Y-103826191D01*
X192907200Y-102969048D02*
X192954819Y-103064286D01*
X192954819Y-103064286D02*
X192954819Y-103254762D01*
X192954819Y-103254762D02*
X192907200Y-103350000D01*
X192907200Y-103350000D02*
X192859580Y-103397619D01*
X192859580Y-103397619D02*
X192764342Y-103445238D01*
X192764342Y-103445238D02*
X192478628Y-103445238D01*
X192478628Y-103445238D02*
X192383390Y-103397619D01*
X192383390Y-103397619D02*
X192335771Y-103350000D01*
X192335771Y-103350000D02*
X192288152Y-103254762D01*
X192288152Y-103254762D02*
X192288152Y-103064286D01*
X192288152Y-103064286D02*
X192335771Y-102969048D01*
X192954819Y-102540476D02*
X191954819Y-102540476D01*
X192954819Y-102111905D02*
X192431009Y-102111905D01*
X192431009Y-102111905D02*
X192335771Y-102159524D01*
X192335771Y-102159524D02*
X192288152Y-102254762D01*
X192288152Y-102254762D02*
X192288152Y-102397619D01*
X192288152Y-102397619D02*
X192335771Y-102492857D01*
X192335771Y-102492857D02*
X192383390Y-102540476D01*
X192954819Y-101492857D02*
X192907200Y-101588095D01*
X192907200Y-101588095D02*
X192859580Y-101635714D01*
X192859580Y-101635714D02*
X192764342Y-101683333D01*
X192764342Y-101683333D02*
X192478628Y-101683333D01*
X192478628Y-101683333D02*
X192383390Y-101635714D01*
X192383390Y-101635714D02*
X192335771Y-101588095D01*
X192335771Y-101588095D02*
X192288152Y-101492857D01*
X192288152Y-101492857D02*
X192288152Y-101350000D01*
X192288152Y-101350000D02*
X192335771Y-101254762D01*
X192335771Y-101254762D02*
X192383390Y-101207143D01*
X192383390Y-101207143D02*
X192478628Y-101159524D01*
X192478628Y-101159524D02*
X192764342Y-101159524D01*
X192764342Y-101159524D02*
X192859580Y-101207143D01*
X192859580Y-101207143D02*
X192907200Y-101254762D01*
X192907200Y-101254762D02*
X192954819Y-101350000D01*
X192954819Y-101350000D02*
X192954819Y-101492857D01*
X192288152Y-100873809D02*
X192288152Y-100492857D01*
X191954819Y-100730952D02*
X192811961Y-100730952D01*
X192811961Y-100730952D02*
X192907200Y-100683333D01*
X192907200Y-100683333D02*
X192954819Y-100588095D01*
X192954819Y-100588095D02*
X192954819Y-100492857D01*
X192288152Y-100302380D02*
X192288152Y-99921428D01*
X191954819Y-100159523D02*
X192811961Y-100159523D01*
X192811961Y-100159523D02*
X192907200Y-100111904D01*
X192907200Y-100111904D02*
X192954819Y-100016666D01*
X192954819Y-100016666D02*
X192954819Y-99921428D01*
X192954819Y-99588094D02*
X191954819Y-99588094D01*
X192573866Y-99492856D02*
X192954819Y-99207142D01*
X192288152Y-99207142D02*
X192669104Y-99588094D01*
X192288152Y-98873808D02*
X192954819Y-98635713D01*
X192288152Y-98397618D02*
X192954819Y-98635713D01*
X192954819Y-98635713D02*
X193192914Y-98730951D01*
X193192914Y-98730951D02*
X193240533Y-98778570D01*
X193240533Y-98778570D02*
X193288152Y-98873808D01*
X193050057Y-98254761D02*
X193050057Y-97492856D01*
X192431009Y-96921427D02*
X192431009Y-97254760D01*
X192954819Y-97254760D02*
X191954819Y-97254760D01*
X191954819Y-97254760D02*
X191954819Y-96778570D01*
X192954819Y-96397617D02*
X192288152Y-96397617D01*
X191954819Y-96397617D02*
X192002438Y-96445236D01*
X192002438Y-96445236D02*
X192050057Y-96397617D01*
X192050057Y-96397617D02*
X192002438Y-96349998D01*
X192002438Y-96349998D02*
X191954819Y-96397617D01*
X191954819Y-96397617D02*
X192050057Y-96397617D01*
X192954819Y-95778570D02*
X192907200Y-95873808D01*
X192907200Y-95873808D02*
X192811961Y-95921427D01*
X192811961Y-95921427D02*
X191954819Y-95921427D01*
X192954819Y-95254760D02*
X192907200Y-95349998D01*
X192907200Y-95349998D02*
X192811961Y-95397617D01*
X192811961Y-95397617D02*
X191954819Y-95397617D01*
X192907200Y-94492855D02*
X192954819Y-94588093D01*
X192954819Y-94588093D02*
X192954819Y-94778569D01*
X192954819Y-94778569D02*
X192907200Y-94873807D01*
X192907200Y-94873807D02*
X192811961Y-94921426D01*
X192811961Y-94921426D02*
X192431009Y-94921426D01*
X192431009Y-94921426D02*
X192335771Y-94873807D01*
X192335771Y-94873807D02*
X192288152Y-94778569D01*
X192288152Y-94778569D02*
X192288152Y-94588093D01*
X192288152Y-94588093D02*
X192335771Y-94492855D01*
X192335771Y-94492855D02*
X192431009Y-94445236D01*
X192431009Y-94445236D02*
X192526247Y-94445236D01*
X192526247Y-94445236D02*
X192621485Y-94921426D01*
X192954819Y-93588093D02*
X191954819Y-93588093D01*
X192907200Y-93588093D02*
X192954819Y-93683331D01*
X192954819Y-93683331D02*
X192954819Y-93873807D01*
X192954819Y-93873807D02*
X192907200Y-93969045D01*
X192907200Y-93969045D02*
X192859580Y-94016664D01*
X192859580Y-94016664D02*
X192764342Y-94064283D01*
X192764342Y-94064283D02*
X192478628Y-94064283D01*
X192478628Y-94064283D02*
X192383390Y-94016664D01*
X192383390Y-94016664D02*
X192335771Y-93969045D01*
X192335771Y-93969045D02*
X192288152Y-93873807D01*
X192288152Y-93873807D02*
X192288152Y-93683331D01*
X192288152Y-93683331D02*
X192335771Y-93588093D01*
X195454819Y-99578094D02*
X194454819Y-99578094D01*
X194454819Y-99578094D02*
X194454819Y-99339999D01*
X194454819Y-99339999D02*
X194502438Y-99197142D01*
X194502438Y-99197142D02*
X194597676Y-99101904D01*
X194597676Y-99101904D02*
X194692914Y-99054285D01*
X194692914Y-99054285D02*
X194883390Y-99006666D01*
X194883390Y-99006666D02*
X195026247Y-99006666D01*
X195026247Y-99006666D02*
X195216723Y-99054285D01*
X195216723Y-99054285D02*
X195311961Y-99101904D01*
X195311961Y-99101904D02*
X195407200Y-99197142D01*
X195407200Y-99197142D02*
X195454819Y-99339999D01*
X195454819Y-99339999D02*
X195454819Y-99578094D01*
X194454819Y-98101904D02*
X194454819Y-98578094D01*
X194454819Y-98578094D02*
X194931009Y-98625713D01*
X194931009Y-98625713D02*
X194883390Y-98578094D01*
X194883390Y-98578094D02*
X194835771Y-98482856D01*
X194835771Y-98482856D02*
X194835771Y-98244761D01*
X194835771Y-98244761D02*
X194883390Y-98149523D01*
X194883390Y-98149523D02*
X194931009Y-98101904D01*
X194931009Y-98101904D02*
X195026247Y-98054285D01*
X195026247Y-98054285D02*
X195264342Y-98054285D01*
X195264342Y-98054285D02*
X195359580Y-98101904D01*
X195359580Y-98101904D02*
X195407200Y-98149523D01*
X195407200Y-98149523D02*
X195454819Y-98244761D01*
X195454819Y-98244761D02*
X195454819Y-98482856D01*
X195454819Y-98482856D02*
X195407200Y-98578094D01*
X195407200Y-98578094D02*
X195359580Y-98625713D01*
X193204819Y-92361904D02*
X192204819Y-92361904D01*
X193204819Y-91790476D02*
X192633390Y-92219047D01*
X192204819Y-91790476D02*
X192776247Y-92361904D01*
X197488094Y-87484819D02*
X197488094Y-86484819D01*
X197488094Y-86484819D02*
X197726189Y-86484819D01*
X197726189Y-86484819D02*
X197869046Y-86532438D01*
X197869046Y-86532438D02*
X197964284Y-86627676D01*
X197964284Y-86627676D02*
X198011903Y-86722914D01*
X198011903Y-86722914D02*
X198059522Y-86913390D01*
X198059522Y-86913390D02*
X198059522Y-87056247D01*
X198059522Y-87056247D02*
X198011903Y-87246723D01*
X198011903Y-87246723D02*
X197964284Y-87341961D01*
X197964284Y-87341961D02*
X197869046Y-87437200D01*
X197869046Y-87437200D02*
X197726189Y-87484819D01*
X197726189Y-87484819D02*
X197488094Y-87484819D01*
X198249999Y-87580057D02*
X199011903Y-87580057D01*
X199202380Y-87437200D02*
X199345237Y-87484819D01*
X199345237Y-87484819D02*
X199583332Y-87484819D01*
X199583332Y-87484819D02*
X199678570Y-87437200D01*
X199678570Y-87437200D02*
X199726189Y-87389580D01*
X199726189Y-87389580D02*
X199773808Y-87294342D01*
X199773808Y-87294342D02*
X199773808Y-87199104D01*
X199773808Y-87199104D02*
X199726189Y-87103866D01*
X199726189Y-87103866D02*
X199678570Y-87056247D01*
X199678570Y-87056247D02*
X199583332Y-87008628D01*
X199583332Y-87008628D02*
X199392856Y-86961009D01*
X199392856Y-86961009D02*
X199297618Y-86913390D01*
X199297618Y-86913390D02*
X199249999Y-86865771D01*
X199249999Y-86865771D02*
X199202380Y-86770533D01*
X199202380Y-86770533D02*
X199202380Y-86675295D01*
X199202380Y-86675295D02*
X199249999Y-86580057D01*
X199249999Y-86580057D02*
X199297618Y-86532438D01*
X199297618Y-86532438D02*
X199392856Y-86484819D01*
X199392856Y-86484819D02*
X199630951Y-86484819D01*
X199630951Y-86484819D02*
X199773808Y-86532438D01*
X200630951Y-87437200D02*
X200535713Y-87484819D01*
X200535713Y-87484819D02*
X200345237Y-87484819D01*
X200345237Y-87484819D02*
X200249999Y-87437200D01*
X200249999Y-87437200D02*
X200202380Y-87389580D01*
X200202380Y-87389580D02*
X200154761Y-87294342D01*
X200154761Y-87294342D02*
X200154761Y-87008628D01*
X200154761Y-87008628D02*
X200202380Y-86913390D01*
X200202380Y-86913390D02*
X200249999Y-86865771D01*
X200249999Y-86865771D02*
X200345237Y-86818152D01*
X200345237Y-86818152D02*
X200535713Y-86818152D01*
X200535713Y-86818152D02*
X200630951Y-86865771D01*
X201059523Y-87484819D02*
X201059523Y-86484819D01*
X201488094Y-87484819D02*
X201488094Y-86961009D01*
X201488094Y-86961009D02*
X201440475Y-86865771D01*
X201440475Y-86865771D02*
X201345237Y-86818152D01*
X201345237Y-86818152D02*
X201202380Y-86818152D01*
X201202380Y-86818152D02*
X201107142Y-86865771D01*
X201107142Y-86865771D02*
X201059523Y-86913390D01*
X202107142Y-87484819D02*
X202011904Y-87437200D01*
X202011904Y-87437200D02*
X201964285Y-87389580D01*
X201964285Y-87389580D02*
X201916666Y-87294342D01*
X201916666Y-87294342D02*
X201916666Y-87008628D01*
X201916666Y-87008628D02*
X201964285Y-86913390D01*
X201964285Y-86913390D02*
X202011904Y-86865771D01*
X202011904Y-86865771D02*
X202107142Y-86818152D01*
X202107142Y-86818152D02*
X202249999Y-86818152D01*
X202249999Y-86818152D02*
X202345237Y-86865771D01*
X202345237Y-86865771D02*
X202392856Y-86913390D01*
X202392856Y-86913390D02*
X202440475Y-87008628D01*
X202440475Y-87008628D02*
X202440475Y-87294342D01*
X202440475Y-87294342D02*
X202392856Y-87389580D01*
X202392856Y-87389580D02*
X202345237Y-87437200D01*
X202345237Y-87437200D02*
X202249999Y-87484819D01*
X202249999Y-87484819D02*
X202107142Y-87484819D01*
X202726190Y-86818152D02*
X203107142Y-86818152D01*
X202869047Y-86484819D02*
X202869047Y-87341961D01*
X202869047Y-87341961D02*
X202916666Y-87437200D01*
X202916666Y-87437200D02*
X203011904Y-87484819D01*
X203011904Y-87484819D02*
X203107142Y-87484819D01*
X203297619Y-86818152D02*
X203678571Y-86818152D01*
X203440476Y-86484819D02*
X203440476Y-87341961D01*
X203440476Y-87341961D02*
X203488095Y-87437200D01*
X203488095Y-87437200D02*
X203583333Y-87484819D01*
X203583333Y-87484819D02*
X203678571Y-87484819D01*
X204011905Y-87484819D02*
X204011905Y-86484819D01*
X204107143Y-87103866D02*
X204392857Y-87484819D01*
X204392857Y-86818152D02*
X204011905Y-87199104D01*
X204726191Y-86818152D02*
X204964286Y-87484819D01*
X205202381Y-86818152D02*
X204964286Y-87484819D01*
X204964286Y-87484819D02*
X204869048Y-87722914D01*
X204869048Y-87722914D02*
X204821429Y-87770533D01*
X204821429Y-87770533D02*
X204726191Y-87818152D01*
X205345239Y-87580057D02*
X206107143Y-87580057D01*
X206678572Y-86961009D02*
X206345239Y-86961009D01*
X206345239Y-87484819D02*
X206345239Y-86484819D01*
X206345239Y-86484819D02*
X206821429Y-86484819D01*
X207202382Y-87484819D02*
X207202382Y-86818152D01*
X207202382Y-86484819D02*
X207154763Y-86532438D01*
X207154763Y-86532438D02*
X207202382Y-86580057D01*
X207202382Y-86580057D02*
X207250001Y-86532438D01*
X207250001Y-86532438D02*
X207202382Y-86484819D01*
X207202382Y-86484819D02*
X207202382Y-86580057D01*
X207821429Y-87484819D02*
X207726191Y-87437200D01*
X207726191Y-87437200D02*
X207678572Y-87341961D01*
X207678572Y-87341961D02*
X207678572Y-86484819D01*
X208345239Y-87484819D02*
X208250001Y-87437200D01*
X208250001Y-87437200D02*
X208202382Y-87341961D01*
X208202382Y-87341961D02*
X208202382Y-86484819D01*
X209107144Y-87437200D02*
X209011906Y-87484819D01*
X209011906Y-87484819D02*
X208821430Y-87484819D01*
X208821430Y-87484819D02*
X208726192Y-87437200D01*
X208726192Y-87437200D02*
X208678573Y-87341961D01*
X208678573Y-87341961D02*
X208678573Y-86961009D01*
X208678573Y-86961009D02*
X208726192Y-86865771D01*
X208726192Y-86865771D02*
X208821430Y-86818152D01*
X208821430Y-86818152D02*
X209011906Y-86818152D01*
X209011906Y-86818152D02*
X209107144Y-86865771D01*
X209107144Y-86865771D02*
X209154763Y-86961009D01*
X209154763Y-86961009D02*
X209154763Y-87056247D01*
X209154763Y-87056247D02*
X208678573Y-87151485D01*
X210011906Y-87484819D02*
X210011906Y-86484819D01*
X210011906Y-87437200D02*
X209916668Y-87484819D01*
X209916668Y-87484819D02*
X209726192Y-87484819D01*
X209726192Y-87484819D02*
X209630954Y-87437200D01*
X209630954Y-87437200D02*
X209583335Y-87389580D01*
X209583335Y-87389580D02*
X209535716Y-87294342D01*
X209535716Y-87294342D02*
X209535716Y-87008628D01*
X209535716Y-87008628D02*
X209583335Y-86913390D01*
X209583335Y-86913390D02*
X209630954Y-86865771D01*
X209630954Y-86865771D02*
X209726192Y-86818152D01*
X209726192Y-86818152D02*
X209916668Y-86818152D01*
X209916668Y-86818152D02*
X210011906Y-86865771D01*
X212538095Y-92754819D02*
X212538095Y-91754819D01*
X213109523Y-92754819D02*
X212680952Y-92183390D01*
X213109523Y-91754819D02*
X212538095Y-92326247D01*
X203871905Y-89954819D02*
X203871905Y-88954819D01*
X203871905Y-88954819D02*
X204110000Y-88954819D01*
X204110000Y-88954819D02*
X204252857Y-89002438D01*
X204252857Y-89002438D02*
X204348095Y-89097676D01*
X204348095Y-89097676D02*
X204395714Y-89192914D01*
X204395714Y-89192914D02*
X204443333Y-89383390D01*
X204443333Y-89383390D02*
X204443333Y-89526247D01*
X204443333Y-89526247D02*
X204395714Y-89716723D01*
X204395714Y-89716723D02*
X204348095Y-89811961D01*
X204348095Y-89811961D02*
X204252857Y-89907200D01*
X204252857Y-89907200D02*
X204110000Y-89954819D01*
X204110000Y-89954819D02*
X203871905Y-89954819D01*
X205300476Y-89288152D02*
X205300476Y-89954819D01*
X205062381Y-88907200D02*
X204824286Y-89621485D01*
X204824286Y-89621485D02*
X205443333Y-89621485D01*
X127859580Y-131642858D02*
X127907200Y-131690477D01*
X127907200Y-131690477D02*
X127954819Y-131833334D01*
X127954819Y-131833334D02*
X127954819Y-131928572D01*
X127954819Y-131928572D02*
X127907200Y-132071429D01*
X127907200Y-132071429D02*
X127811961Y-132166667D01*
X127811961Y-132166667D02*
X127716723Y-132214286D01*
X127716723Y-132214286D02*
X127526247Y-132261905D01*
X127526247Y-132261905D02*
X127383390Y-132261905D01*
X127383390Y-132261905D02*
X127192914Y-132214286D01*
X127192914Y-132214286D02*
X127097676Y-132166667D01*
X127097676Y-132166667D02*
X127002438Y-132071429D01*
X127002438Y-132071429D02*
X126954819Y-131928572D01*
X126954819Y-131928572D02*
X126954819Y-131833334D01*
X126954819Y-131833334D02*
X127002438Y-131690477D01*
X127002438Y-131690477D02*
X127050057Y-131642858D01*
X127954819Y-131071429D02*
X127907200Y-131166667D01*
X127907200Y-131166667D02*
X127859580Y-131214286D01*
X127859580Y-131214286D02*
X127764342Y-131261905D01*
X127764342Y-131261905D02*
X127478628Y-131261905D01*
X127478628Y-131261905D02*
X127383390Y-131214286D01*
X127383390Y-131214286D02*
X127335771Y-131166667D01*
X127335771Y-131166667D02*
X127288152Y-131071429D01*
X127288152Y-131071429D02*
X127288152Y-130928572D01*
X127288152Y-130928572D02*
X127335771Y-130833334D01*
X127335771Y-130833334D02*
X127383390Y-130785715D01*
X127383390Y-130785715D02*
X127478628Y-130738096D01*
X127478628Y-130738096D02*
X127764342Y-130738096D01*
X127764342Y-130738096D02*
X127859580Y-130785715D01*
X127859580Y-130785715D02*
X127907200Y-130833334D01*
X127907200Y-130833334D02*
X127954819Y-130928572D01*
X127954819Y-130928572D02*
X127954819Y-131071429D01*
X127288152Y-130309524D02*
X127954819Y-130309524D01*
X127383390Y-130309524D02*
X127335771Y-130261905D01*
X127335771Y-130261905D02*
X127288152Y-130166667D01*
X127288152Y-130166667D02*
X127288152Y-130023810D01*
X127288152Y-130023810D02*
X127335771Y-129928572D01*
X127335771Y-129928572D02*
X127431009Y-129880953D01*
X127431009Y-129880953D02*
X127954819Y-129880953D01*
X127288152Y-129404762D02*
X127954819Y-129404762D01*
X127383390Y-129404762D02*
X127335771Y-129357143D01*
X127335771Y-129357143D02*
X127288152Y-129261905D01*
X127288152Y-129261905D02*
X127288152Y-129119048D01*
X127288152Y-129119048D02*
X127335771Y-129023810D01*
X127335771Y-129023810D02*
X127431009Y-128976191D01*
X127431009Y-128976191D02*
X127954819Y-128976191D01*
X128050057Y-128738096D02*
X128050057Y-127976191D01*
X126954819Y-127547619D02*
X126954819Y-127452381D01*
X126954819Y-127452381D02*
X127002438Y-127357143D01*
X127002438Y-127357143D02*
X127050057Y-127309524D01*
X127050057Y-127309524D02*
X127145295Y-127261905D01*
X127145295Y-127261905D02*
X127335771Y-127214286D01*
X127335771Y-127214286D02*
X127573866Y-127214286D01*
X127573866Y-127214286D02*
X127764342Y-127261905D01*
X127764342Y-127261905D02*
X127859580Y-127309524D01*
X127859580Y-127309524D02*
X127907200Y-127357143D01*
X127907200Y-127357143D02*
X127954819Y-127452381D01*
X127954819Y-127452381D02*
X127954819Y-127547619D01*
X127954819Y-127547619D02*
X127907200Y-127642857D01*
X127907200Y-127642857D02*
X127859580Y-127690476D01*
X127859580Y-127690476D02*
X127764342Y-127738095D01*
X127764342Y-127738095D02*
X127573866Y-127785714D01*
X127573866Y-127785714D02*
X127335771Y-127785714D01*
X127335771Y-127785714D02*
X127145295Y-127738095D01*
X127145295Y-127738095D02*
X127050057Y-127690476D01*
X127050057Y-127690476D02*
X127002438Y-127642857D01*
X127002438Y-127642857D02*
X126954819Y-127547619D01*
X127050057Y-126833333D02*
X127002438Y-126785714D01*
X127002438Y-126785714D02*
X126954819Y-126690476D01*
X126954819Y-126690476D02*
X126954819Y-126452381D01*
X126954819Y-126452381D02*
X127002438Y-126357143D01*
X127002438Y-126357143D02*
X127050057Y-126309524D01*
X127050057Y-126309524D02*
X127145295Y-126261905D01*
X127145295Y-126261905D02*
X127240533Y-126261905D01*
X127240533Y-126261905D02*
X127383390Y-126309524D01*
X127383390Y-126309524D02*
X127954819Y-126880952D01*
X127954819Y-126880952D02*
X127954819Y-126261905D01*
X127954819Y-125928571D02*
X127288152Y-125404762D01*
X127288152Y-125928571D02*
X127954819Y-125404762D01*
X127954819Y-124500000D02*
X127954819Y-125071428D01*
X127954819Y-124785714D02*
X126954819Y-124785714D01*
X126954819Y-124785714D02*
X127097676Y-124880952D01*
X127097676Y-124880952D02*
X127192914Y-124976190D01*
X127192914Y-124976190D02*
X127240533Y-125071428D01*
X127954819Y-124023809D02*
X127954819Y-123833333D01*
X127954819Y-123833333D02*
X127907200Y-123738095D01*
X127907200Y-123738095D02*
X127859580Y-123690476D01*
X127859580Y-123690476D02*
X127716723Y-123595238D01*
X127716723Y-123595238D02*
X127526247Y-123547619D01*
X127526247Y-123547619D02*
X127145295Y-123547619D01*
X127145295Y-123547619D02*
X127050057Y-123595238D01*
X127050057Y-123595238D02*
X127002438Y-123642857D01*
X127002438Y-123642857D02*
X126954819Y-123738095D01*
X126954819Y-123738095D02*
X126954819Y-123928571D01*
X126954819Y-123928571D02*
X127002438Y-124023809D01*
X127002438Y-124023809D02*
X127050057Y-124071428D01*
X127050057Y-124071428D02*
X127145295Y-124119047D01*
X127145295Y-124119047D02*
X127383390Y-124119047D01*
X127383390Y-124119047D02*
X127478628Y-124071428D01*
X127478628Y-124071428D02*
X127526247Y-124023809D01*
X127526247Y-124023809D02*
X127573866Y-123928571D01*
X127573866Y-123928571D02*
X127573866Y-123738095D01*
X127573866Y-123738095D02*
X127526247Y-123642857D01*
X127526247Y-123642857D02*
X127478628Y-123595238D01*
X127478628Y-123595238D02*
X127383390Y-123547619D01*
X128050057Y-123357143D02*
X128050057Y-122595238D01*
X126954819Y-122166666D02*
X126954819Y-121976190D01*
X126954819Y-121976190D02*
X127002438Y-121880952D01*
X127002438Y-121880952D02*
X127097676Y-121785714D01*
X127097676Y-121785714D02*
X127288152Y-121738095D01*
X127288152Y-121738095D02*
X127621485Y-121738095D01*
X127621485Y-121738095D02*
X127811961Y-121785714D01*
X127811961Y-121785714D02*
X127907200Y-121880952D01*
X127907200Y-121880952D02*
X127954819Y-121976190D01*
X127954819Y-121976190D02*
X127954819Y-122166666D01*
X127954819Y-122166666D02*
X127907200Y-122261904D01*
X127907200Y-122261904D02*
X127811961Y-122357142D01*
X127811961Y-122357142D02*
X127621485Y-122404761D01*
X127621485Y-122404761D02*
X127288152Y-122404761D01*
X127288152Y-122404761D02*
X127097676Y-122357142D01*
X127097676Y-122357142D02*
X127002438Y-122261904D01*
X127002438Y-122261904D02*
X126954819Y-122166666D01*
X127954819Y-120880952D02*
X126954819Y-120880952D01*
X127907200Y-120880952D02*
X127954819Y-120976190D01*
X127954819Y-120976190D02*
X127954819Y-121166666D01*
X127954819Y-121166666D02*
X127907200Y-121261904D01*
X127907200Y-121261904D02*
X127859580Y-121309523D01*
X127859580Y-121309523D02*
X127764342Y-121357142D01*
X127764342Y-121357142D02*
X127478628Y-121357142D01*
X127478628Y-121357142D02*
X127383390Y-121309523D01*
X127383390Y-121309523D02*
X127335771Y-121261904D01*
X127335771Y-121261904D02*
X127288152Y-121166666D01*
X127288152Y-121166666D02*
X127288152Y-120976190D01*
X127288152Y-120976190D02*
X127335771Y-120880952D01*
X127954819Y-119976190D02*
X126954819Y-119976190D01*
X127907200Y-119976190D02*
X127954819Y-120071428D01*
X127954819Y-120071428D02*
X127954819Y-120261904D01*
X127954819Y-120261904D02*
X127907200Y-120357142D01*
X127907200Y-120357142D02*
X127859580Y-120404761D01*
X127859580Y-120404761D02*
X127764342Y-120452380D01*
X127764342Y-120452380D02*
X127478628Y-120452380D01*
X127478628Y-120452380D02*
X127383390Y-120404761D01*
X127383390Y-120404761D02*
X127335771Y-120357142D01*
X127335771Y-120357142D02*
X127288152Y-120261904D01*
X127288152Y-120261904D02*
X127288152Y-120071428D01*
X127288152Y-120071428D02*
X127335771Y-119976190D01*
X128050057Y-119738095D02*
X128050057Y-118976190D01*
X127431009Y-118738094D02*
X127431009Y-118404761D01*
X127954819Y-118261904D02*
X127954819Y-118738094D01*
X127954819Y-118738094D02*
X126954819Y-118738094D01*
X126954819Y-118738094D02*
X126954819Y-118261904D01*
X127288152Y-117928570D02*
X127954819Y-117690475D01*
X127954819Y-117690475D02*
X127288152Y-117452380D01*
X127907200Y-116690475D02*
X127954819Y-116785713D01*
X127954819Y-116785713D02*
X127954819Y-116976189D01*
X127954819Y-116976189D02*
X127907200Y-117071427D01*
X127907200Y-117071427D02*
X127811961Y-117119046D01*
X127811961Y-117119046D02*
X127431009Y-117119046D01*
X127431009Y-117119046D02*
X127335771Y-117071427D01*
X127335771Y-117071427D02*
X127288152Y-116976189D01*
X127288152Y-116976189D02*
X127288152Y-116785713D01*
X127288152Y-116785713D02*
X127335771Y-116690475D01*
X127335771Y-116690475D02*
X127431009Y-116642856D01*
X127431009Y-116642856D02*
X127526247Y-116642856D01*
X127526247Y-116642856D02*
X127621485Y-117119046D01*
X127288152Y-116214284D02*
X127954819Y-116214284D01*
X127383390Y-116214284D02*
X127335771Y-116166665D01*
X127335771Y-116166665D02*
X127288152Y-116071427D01*
X127288152Y-116071427D02*
X127288152Y-115928570D01*
X127288152Y-115928570D02*
X127335771Y-115833332D01*
X127335771Y-115833332D02*
X127431009Y-115785713D01*
X127431009Y-115785713D02*
X127954819Y-115785713D01*
X123184819Y-108193333D02*
X123899104Y-108193333D01*
X123899104Y-108193333D02*
X124041961Y-108240952D01*
X124041961Y-108240952D02*
X124137200Y-108336190D01*
X124137200Y-108336190D02*
X124184819Y-108479047D01*
X124184819Y-108479047D02*
X124184819Y-108574285D01*
X123184819Y-107288571D02*
X123184819Y-107479047D01*
X123184819Y-107479047D02*
X123232438Y-107574285D01*
X123232438Y-107574285D02*
X123280057Y-107621904D01*
X123280057Y-107621904D02*
X123422914Y-107717142D01*
X123422914Y-107717142D02*
X123613390Y-107764761D01*
X123613390Y-107764761D02*
X123994342Y-107764761D01*
X123994342Y-107764761D02*
X124089580Y-107717142D01*
X124089580Y-107717142D02*
X124137200Y-107669523D01*
X124137200Y-107669523D02*
X124184819Y-107574285D01*
X124184819Y-107574285D02*
X124184819Y-107383809D01*
X124184819Y-107383809D02*
X124137200Y-107288571D01*
X124137200Y-107288571D02*
X124089580Y-107240952D01*
X124089580Y-107240952D02*
X123994342Y-107193333D01*
X123994342Y-107193333D02*
X123756247Y-107193333D01*
X123756247Y-107193333D02*
X123661009Y-107240952D01*
X123661009Y-107240952D02*
X123613390Y-107288571D01*
X123613390Y-107288571D02*
X123565771Y-107383809D01*
X123565771Y-107383809D02*
X123565771Y-107574285D01*
X123565771Y-107574285D02*
X123613390Y-107669523D01*
X123613390Y-107669523D02*
X123661009Y-107717142D01*
X123661009Y-107717142D02*
X123756247Y-107764761D01*
X205602380Y-120354819D02*
X205030952Y-120354819D01*
X205316666Y-120354819D02*
X205316666Y-119354819D01*
X205316666Y-119354819D02*
X205221428Y-119497676D01*
X205221428Y-119497676D02*
X205126190Y-119592914D01*
X205126190Y-119592914D02*
X205030952Y-119640533D01*
X205983333Y-119450057D02*
X206030952Y-119402438D01*
X206030952Y-119402438D02*
X206126190Y-119354819D01*
X206126190Y-119354819D02*
X206364285Y-119354819D01*
X206364285Y-119354819D02*
X206459523Y-119402438D01*
X206459523Y-119402438D02*
X206507142Y-119450057D01*
X206507142Y-119450057D02*
X206554761Y-119545295D01*
X206554761Y-119545295D02*
X206554761Y-119640533D01*
X206554761Y-119640533D02*
X206507142Y-119783390D01*
X206507142Y-119783390D02*
X205935714Y-120354819D01*
X205935714Y-120354819D02*
X206554761Y-120354819D01*
X206840476Y-119354819D02*
X207173809Y-120354819D01*
X207173809Y-120354819D02*
X207507142Y-119354819D01*
X208554762Y-120307200D02*
X208697619Y-120354819D01*
X208697619Y-120354819D02*
X208935714Y-120354819D01*
X208935714Y-120354819D02*
X209030952Y-120307200D01*
X209030952Y-120307200D02*
X209078571Y-120259580D01*
X209078571Y-120259580D02*
X209126190Y-120164342D01*
X209126190Y-120164342D02*
X209126190Y-120069104D01*
X209126190Y-120069104D02*
X209078571Y-119973866D01*
X209078571Y-119973866D02*
X209030952Y-119926247D01*
X209030952Y-119926247D02*
X208935714Y-119878628D01*
X208935714Y-119878628D02*
X208745238Y-119831009D01*
X208745238Y-119831009D02*
X208650000Y-119783390D01*
X208650000Y-119783390D02*
X208602381Y-119735771D01*
X208602381Y-119735771D02*
X208554762Y-119640533D01*
X208554762Y-119640533D02*
X208554762Y-119545295D01*
X208554762Y-119545295D02*
X208602381Y-119450057D01*
X208602381Y-119450057D02*
X208650000Y-119402438D01*
X208650000Y-119402438D02*
X208745238Y-119354819D01*
X208745238Y-119354819D02*
X208983333Y-119354819D01*
X208983333Y-119354819D02*
X209126190Y-119402438D01*
X209697619Y-120354819D02*
X209602381Y-120307200D01*
X209602381Y-120307200D02*
X209554762Y-120259580D01*
X209554762Y-120259580D02*
X209507143Y-120164342D01*
X209507143Y-120164342D02*
X209507143Y-119878628D01*
X209507143Y-119878628D02*
X209554762Y-119783390D01*
X209554762Y-119783390D02*
X209602381Y-119735771D01*
X209602381Y-119735771D02*
X209697619Y-119688152D01*
X209697619Y-119688152D02*
X209840476Y-119688152D01*
X209840476Y-119688152D02*
X209935714Y-119735771D01*
X209935714Y-119735771D02*
X209983333Y-119783390D01*
X209983333Y-119783390D02*
X210030952Y-119878628D01*
X210030952Y-119878628D02*
X210030952Y-120164342D01*
X210030952Y-120164342D02*
X209983333Y-120259580D01*
X209983333Y-120259580D02*
X209935714Y-120307200D01*
X209935714Y-120307200D02*
X209840476Y-120354819D01*
X209840476Y-120354819D02*
X209697619Y-120354819D01*
X210888095Y-119688152D02*
X210888095Y-120354819D01*
X210459524Y-119688152D02*
X210459524Y-120211961D01*
X210459524Y-120211961D02*
X210507143Y-120307200D01*
X210507143Y-120307200D02*
X210602381Y-120354819D01*
X210602381Y-120354819D02*
X210745238Y-120354819D01*
X210745238Y-120354819D02*
X210840476Y-120307200D01*
X210840476Y-120307200D02*
X210888095Y-120259580D01*
X211364286Y-120354819D02*
X211364286Y-119688152D01*
X211364286Y-119878628D02*
X211411905Y-119783390D01*
X211411905Y-119783390D02*
X211459524Y-119735771D01*
X211459524Y-119735771D02*
X211554762Y-119688152D01*
X211554762Y-119688152D02*
X211650000Y-119688152D01*
X212411905Y-120307200D02*
X212316667Y-120354819D01*
X212316667Y-120354819D02*
X212126191Y-120354819D01*
X212126191Y-120354819D02*
X212030953Y-120307200D01*
X212030953Y-120307200D02*
X211983334Y-120259580D01*
X211983334Y-120259580D02*
X211935715Y-120164342D01*
X211935715Y-120164342D02*
X211935715Y-119878628D01*
X211935715Y-119878628D02*
X211983334Y-119783390D01*
X211983334Y-119783390D02*
X212030953Y-119735771D01*
X212030953Y-119735771D02*
X212126191Y-119688152D01*
X212126191Y-119688152D02*
X212316667Y-119688152D01*
X212316667Y-119688152D02*
X212411905Y-119735771D01*
X213221429Y-120307200D02*
X213126191Y-120354819D01*
X213126191Y-120354819D02*
X212935715Y-120354819D01*
X212935715Y-120354819D02*
X212840477Y-120307200D01*
X212840477Y-120307200D02*
X212792858Y-120211961D01*
X212792858Y-120211961D02*
X212792858Y-119831009D01*
X212792858Y-119831009D02*
X212840477Y-119735771D01*
X212840477Y-119735771D02*
X212935715Y-119688152D01*
X212935715Y-119688152D02*
X213126191Y-119688152D01*
X213126191Y-119688152D02*
X213221429Y-119735771D01*
X213221429Y-119735771D02*
X213269048Y-119831009D01*
X213269048Y-119831009D02*
X213269048Y-119926247D01*
X213269048Y-119926247D02*
X212792858Y-120021485D01*
X210854819Y-116003333D02*
X211569104Y-116003333D01*
X211569104Y-116003333D02*
X211711961Y-116050952D01*
X211711961Y-116050952D02*
X211807200Y-116146190D01*
X211807200Y-116146190D02*
X211854819Y-116289047D01*
X211854819Y-116289047D02*
X211854819Y-116384285D01*
X211854819Y-115003333D02*
X211854819Y-115574761D01*
X211854819Y-115289047D02*
X210854819Y-115289047D01*
X210854819Y-115289047D02*
X210997676Y-115384285D01*
X210997676Y-115384285D02*
X211092914Y-115479523D01*
X211092914Y-115479523D02*
X211140533Y-115574761D01*
X205214285Y-133704819D02*
X205214285Y-132704819D01*
X205214285Y-132704819D02*
X205547618Y-133419104D01*
X205547618Y-133419104D02*
X205880951Y-132704819D01*
X205880951Y-132704819D02*
X205880951Y-133704819D01*
X206499999Y-133704819D02*
X206404761Y-133657200D01*
X206404761Y-133657200D02*
X206357142Y-133609580D01*
X206357142Y-133609580D02*
X206309523Y-133514342D01*
X206309523Y-133514342D02*
X206309523Y-133228628D01*
X206309523Y-133228628D02*
X206357142Y-133133390D01*
X206357142Y-133133390D02*
X206404761Y-133085771D01*
X206404761Y-133085771D02*
X206499999Y-133038152D01*
X206499999Y-133038152D02*
X206642856Y-133038152D01*
X206642856Y-133038152D02*
X206738094Y-133085771D01*
X206738094Y-133085771D02*
X206785713Y-133133390D01*
X206785713Y-133133390D02*
X206833332Y-133228628D01*
X206833332Y-133228628D02*
X206833332Y-133514342D01*
X206833332Y-133514342D02*
X206785713Y-133609580D01*
X206785713Y-133609580D02*
X206738094Y-133657200D01*
X206738094Y-133657200D02*
X206642856Y-133704819D01*
X206642856Y-133704819D02*
X206499999Y-133704819D01*
X207690475Y-133038152D02*
X207690475Y-133704819D01*
X207261904Y-133038152D02*
X207261904Y-133561961D01*
X207261904Y-133561961D02*
X207309523Y-133657200D01*
X207309523Y-133657200D02*
X207404761Y-133704819D01*
X207404761Y-133704819D02*
X207547618Y-133704819D01*
X207547618Y-133704819D02*
X207642856Y-133657200D01*
X207642856Y-133657200D02*
X207690475Y-133609580D01*
X208166666Y-133038152D02*
X208166666Y-133704819D01*
X208166666Y-133133390D02*
X208214285Y-133085771D01*
X208214285Y-133085771D02*
X208309523Y-133038152D01*
X208309523Y-133038152D02*
X208452380Y-133038152D01*
X208452380Y-133038152D02*
X208547618Y-133085771D01*
X208547618Y-133085771D02*
X208595237Y-133181009D01*
X208595237Y-133181009D02*
X208595237Y-133704819D01*
X208928571Y-133038152D02*
X209309523Y-133038152D01*
X209071428Y-132704819D02*
X209071428Y-133561961D01*
X209071428Y-133561961D02*
X209119047Y-133657200D01*
X209119047Y-133657200D02*
X209214285Y-133704819D01*
X209214285Y-133704819D02*
X209309523Y-133704819D01*
X209642857Y-133704819D02*
X209642857Y-133038152D01*
X209642857Y-132704819D02*
X209595238Y-132752438D01*
X209595238Y-132752438D02*
X209642857Y-132800057D01*
X209642857Y-132800057D02*
X209690476Y-132752438D01*
X209690476Y-132752438D02*
X209642857Y-132704819D01*
X209642857Y-132704819D02*
X209642857Y-132800057D01*
X210119047Y-133038152D02*
X210119047Y-133704819D01*
X210119047Y-133133390D02*
X210166666Y-133085771D01*
X210166666Y-133085771D02*
X210261904Y-133038152D01*
X210261904Y-133038152D02*
X210404761Y-133038152D01*
X210404761Y-133038152D02*
X210499999Y-133085771D01*
X210499999Y-133085771D02*
X210547618Y-133181009D01*
X210547618Y-133181009D02*
X210547618Y-133704819D01*
X211452380Y-133038152D02*
X211452380Y-133847676D01*
X211452380Y-133847676D02*
X211404761Y-133942914D01*
X211404761Y-133942914D02*
X211357142Y-133990533D01*
X211357142Y-133990533D02*
X211261904Y-134038152D01*
X211261904Y-134038152D02*
X211119047Y-134038152D01*
X211119047Y-134038152D02*
X211023809Y-133990533D01*
X211452380Y-133657200D02*
X211357142Y-133704819D01*
X211357142Y-133704819D02*
X211166666Y-133704819D01*
X211166666Y-133704819D02*
X211071428Y-133657200D01*
X211071428Y-133657200D02*
X211023809Y-133609580D01*
X211023809Y-133609580D02*
X210976190Y-133514342D01*
X210976190Y-133514342D02*
X210976190Y-133228628D01*
X210976190Y-133228628D02*
X211023809Y-133133390D01*
X211023809Y-133133390D02*
X211071428Y-133085771D01*
X211071428Y-133085771D02*
X211166666Y-133038152D01*
X211166666Y-133038152D02*
X211357142Y-133038152D01*
X211357142Y-133038152D02*
X211452380Y-133085771D01*
X211928571Y-133704819D02*
X211928571Y-132704819D01*
X211928571Y-133181009D02*
X212499999Y-133181009D01*
X212499999Y-133704819D02*
X212499999Y-132704819D01*
X213119047Y-133704819D02*
X213023809Y-133657200D01*
X213023809Y-133657200D02*
X212976190Y-133609580D01*
X212976190Y-133609580D02*
X212928571Y-133514342D01*
X212928571Y-133514342D02*
X212928571Y-133228628D01*
X212928571Y-133228628D02*
X212976190Y-133133390D01*
X212976190Y-133133390D02*
X213023809Y-133085771D01*
X213023809Y-133085771D02*
X213119047Y-133038152D01*
X213119047Y-133038152D02*
X213261904Y-133038152D01*
X213261904Y-133038152D02*
X213357142Y-133085771D01*
X213357142Y-133085771D02*
X213404761Y-133133390D01*
X213404761Y-133133390D02*
X213452380Y-133228628D01*
X213452380Y-133228628D02*
X213452380Y-133514342D01*
X213452380Y-133514342D02*
X213404761Y-133609580D01*
X213404761Y-133609580D02*
X213357142Y-133657200D01*
X213357142Y-133657200D02*
X213261904Y-133704819D01*
X213261904Y-133704819D02*
X213119047Y-133704819D01*
X214023809Y-133704819D02*
X213928571Y-133657200D01*
X213928571Y-133657200D02*
X213880952Y-133561961D01*
X213880952Y-133561961D02*
X213880952Y-132704819D01*
X214785714Y-133657200D02*
X214690476Y-133704819D01*
X214690476Y-133704819D02*
X214500000Y-133704819D01*
X214500000Y-133704819D02*
X214404762Y-133657200D01*
X214404762Y-133657200D02*
X214357143Y-133561961D01*
X214357143Y-133561961D02*
X214357143Y-133181009D01*
X214357143Y-133181009D02*
X214404762Y-133085771D01*
X214404762Y-133085771D02*
X214500000Y-133038152D01*
X214500000Y-133038152D02*
X214690476Y-133038152D01*
X214690476Y-133038152D02*
X214785714Y-133085771D01*
X214785714Y-133085771D02*
X214833333Y-133181009D01*
X214833333Y-133181009D02*
X214833333Y-133276247D01*
X214833333Y-133276247D02*
X214357143Y-133371485D01*
X209238095Y-129754819D02*
X209238095Y-128754819D01*
X209238095Y-129231009D02*
X209809523Y-129231009D01*
X209809523Y-129754819D02*
X209809523Y-128754819D01*
X210714285Y-129088152D02*
X210714285Y-129754819D01*
X210476190Y-128707200D02*
X210238095Y-129421485D01*
X210238095Y-129421485D02*
X210857142Y-129421485D01*
X111114285Y-133704819D02*
X111114285Y-132704819D01*
X111114285Y-132704819D02*
X111447618Y-133419104D01*
X111447618Y-133419104D02*
X111780951Y-132704819D01*
X111780951Y-132704819D02*
X111780951Y-133704819D01*
X112399999Y-133704819D02*
X112304761Y-133657200D01*
X112304761Y-133657200D02*
X112257142Y-133609580D01*
X112257142Y-133609580D02*
X112209523Y-133514342D01*
X112209523Y-133514342D02*
X112209523Y-133228628D01*
X112209523Y-133228628D02*
X112257142Y-133133390D01*
X112257142Y-133133390D02*
X112304761Y-133085771D01*
X112304761Y-133085771D02*
X112399999Y-133038152D01*
X112399999Y-133038152D02*
X112542856Y-133038152D01*
X112542856Y-133038152D02*
X112638094Y-133085771D01*
X112638094Y-133085771D02*
X112685713Y-133133390D01*
X112685713Y-133133390D02*
X112733332Y-133228628D01*
X112733332Y-133228628D02*
X112733332Y-133514342D01*
X112733332Y-133514342D02*
X112685713Y-133609580D01*
X112685713Y-133609580D02*
X112638094Y-133657200D01*
X112638094Y-133657200D02*
X112542856Y-133704819D01*
X112542856Y-133704819D02*
X112399999Y-133704819D01*
X113590475Y-133038152D02*
X113590475Y-133704819D01*
X113161904Y-133038152D02*
X113161904Y-133561961D01*
X113161904Y-133561961D02*
X113209523Y-133657200D01*
X113209523Y-133657200D02*
X113304761Y-133704819D01*
X113304761Y-133704819D02*
X113447618Y-133704819D01*
X113447618Y-133704819D02*
X113542856Y-133657200D01*
X113542856Y-133657200D02*
X113590475Y-133609580D01*
X114066666Y-133038152D02*
X114066666Y-133704819D01*
X114066666Y-133133390D02*
X114114285Y-133085771D01*
X114114285Y-133085771D02*
X114209523Y-133038152D01*
X114209523Y-133038152D02*
X114352380Y-133038152D01*
X114352380Y-133038152D02*
X114447618Y-133085771D01*
X114447618Y-133085771D02*
X114495237Y-133181009D01*
X114495237Y-133181009D02*
X114495237Y-133704819D01*
X114828571Y-133038152D02*
X115209523Y-133038152D01*
X114971428Y-132704819D02*
X114971428Y-133561961D01*
X114971428Y-133561961D02*
X115019047Y-133657200D01*
X115019047Y-133657200D02*
X115114285Y-133704819D01*
X115114285Y-133704819D02*
X115209523Y-133704819D01*
X115542857Y-133704819D02*
X115542857Y-133038152D01*
X115542857Y-132704819D02*
X115495238Y-132752438D01*
X115495238Y-132752438D02*
X115542857Y-132800057D01*
X115542857Y-132800057D02*
X115590476Y-132752438D01*
X115590476Y-132752438D02*
X115542857Y-132704819D01*
X115542857Y-132704819D02*
X115542857Y-132800057D01*
X116019047Y-133038152D02*
X116019047Y-133704819D01*
X116019047Y-133133390D02*
X116066666Y-133085771D01*
X116066666Y-133085771D02*
X116161904Y-133038152D01*
X116161904Y-133038152D02*
X116304761Y-133038152D01*
X116304761Y-133038152D02*
X116399999Y-133085771D01*
X116399999Y-133085771D02*
X116447618Y-133181009D01*
X116447618Y-133181009D02*
X116447618Y-133704819D01*
X117352380Y-133038152D02*
X117352380Y-133847676D01*
X117352380Y-133847676D02*
X117304761Y-133942914D01*
X117304761Y-133942914D02*
X117257142Y-133990533D01*
X117257142Y-133990533D02*
X117161904Y-134038152D01*
X117161904Y-134038152D02*
X117019047Y-134038152D01*
X117019047Y-134038152D02*
X116923809Y-133990533D01*
X117352380Y-133657200D02*
X117257142Y-133704819D01*
X117257142Y-133704819D02*
X117066666Y-133704819D01*
X117066666Y-133704819D02*
X116971428Y-133657200D01*
X116971428Y-133657200D02*
X116923809Y-133609580D01*
X116923809Y-133609580D02*
X116876190Y-133514342D01*
X116876190Y-133514342D02*
X116876190Y-133228628D01*
X116876190Y-133228628D02*
X116923809Y-133133390D01*
X116923809Y-133133390D02*
X116971428Y-133085771D01*
X116971428Y-133085771D02*
X117066666Y-133038152D01*
X117066666Y-133038152D02*
X117257142Y-133038152D01*
X117257142Y-133038152D02*
X117352380Y-133085771D01*
X117828571Y-133704819D02*
X117828571Y-132704819D01*
X117828571Y-133181009D02*
X118399999Y-133181009D01*
X118399999Y-133704819D02*
X118399999Y-132704819D01*
X119019047Y-133704819D02*
X118923809Y-133657200D01*
X118923809Y-133657200D02*
X118876190Y-133609580D01*
X118876190Y-133609580D02*
X118828571Y-133514342D01*
X118828571Y-133514342D02*
X118828571Y-133228628D01*
X118828571Y-133228628D02*
X118876190Y-133133390D01*
X118876190Y-133133390D02*
X118923809Y-133085771D01*
X118923809Y-133085771D02*
X119019047Y-133038152D01*
X119019047Y-133038152D02*
X119161904Y-133038152D01*
X119161904Y-133038152D02*
X119257142Y-133085771D01*
X119257142Y-133085771D02*
X119304761Y-133133390D01*
X119304761Y-133133390D02*
X119352380Y-133228628D01*
X119352380Y-133228628D02*
X119352380Y-133514342D01*
X119352380Y-133514342D02*
X119304761Y-133609580D01*
X119304761Y-133609580D02*
X119257142Y-133657200D01*
X119257142Y-133657200D02*
X119161904Y-133704819D01*
X119161904Y-133704819D02*
X119019047Y-133704819D01*
X119923809Y-133704819D02*
X119828571Y-133657200D01*
X119828571Y-133657200D02*
X119780952Y-133561961D01*
X119780952Y-133561961D02*
X119780952Y-132704819D01*
X120685714Y-133657200D02*
X120590476Y-133704819D01*
X120590476Y-133704819D02*
X120400000Y-133704819D01*
X120400000Y-133704819D02*
X120304762Y-133657200D01*
X120304762Y-133657200D02*
X120257143Y-133561961D01*
X120257143Y-133561961D02*
X120257143Y-133181009D01*
X120257143Y-133181009D02*
X120304762Y-133085771D01*
X120304762Y-133085771D02*
X120400000Y-133038152D01*
X120400000Y-133038152D02*
X120590476Y-133038152D01*
X120590476Y-133038152D02*
X120685714Y-133085771D01*
X120685714Y-133085771D02*
X120733333Y-133181009D01*
X120733333Y-133181009D02*
X120733333Y-133276247D01*
X120733333Y-133276247D02*
X120257143Y-133371485D01*
X115138095Y-129754819D02*
X115138095Y-128754819D01*
X115138095Y-129231009D02*
X115709523Y-129231009D01*
X115709523Y-129754819D02*
X115709523Y-128754819D01*
X116090476Y-128754819D02*
X116709523Y-128754819D01*
X116709523Y-128754819D02*
X116376190Y-129135771D01*
X116376190Y-129135771D02*
X116519047Y-129135771D01*
X116519047Y-129135771D02*
X116614285Y-129183390D01*
X116614285Y-129183390D02*
X116661904Y-129231009D01*
X116661904Y-129231009D02*
X116709523Y-129326247D01*
X116709523Y-129326247D02*
X116709523Y-129564342D01*
X116709523Y-129564342D02*
X116661904Y-129659580D01*
X116661904Y-129659580D02*
X116614285Y-129707200D01*
X116614285Y-129707200D02*
X116519047Y-129754819D01*
X116519047Y-129754819D02*
X116233333Y-129754819D01*
X116233333Y-129754819D02*
X116138095Y-129707200D01*
X116138095Y-129707200D02*
X116090476Y-129659580D01*
X194669580Y-125258095D02*
X194717200Y-125305714D01*
X194717200Y-125305714D02*
X194764819Y-125448571D01*
X194764819Y-125448571D02*
X194764819Y-125543809D01*
X194764819Y-125543809D02*
X194717200Y-125686666D01*
X194717200Y-125686666D02*
X194621961Y-125781904D01*
X194621961Y-125781904D02*
X194526723Y-125829523D01*
X194526723Y-125829523D02*
X194336247Y-125877142D01*
X194336247Y-125877142D02*
X194193390Y-125877142D01*
X194193390Y-125877142D02*
X194002914Y-125829523D01*
X194002914Y-125829523D02*
X193907676Y-125781904D01*
X193907676Y-125781904D02*
X193812438Y-125686666D01*
X193812438Y-125686666D02*
X193764819Y-125543809D01*
X193764819Y-125543809D02*
X193764819Y-125448571D01*
X193764819Y-125448571D02*
X193812438Y-125305714D01*
X193812438Y-125305714D02*
X193860057Y-125258095D01*
X194764819Y-124686666D02*
X194717200Y-124781904D01*
X194717200Y-124781904D02*
X194669580Y-124829523D01*
X194669580Y-124829523D02*
X194574342Y-124877142D01*
X194574342Y-124877142D02*
X194288628Y-124877142D01*
X194288628Y-124877142D02*
X194193390Y-124829523D01*
X194193390Y-124829523D02*
X194145771Y-124781904D01*
X194145771Y-124781904D02*
X194098152Y-124686666D01*
X194098152Y-124686666D02*
X194098152Y-124543809D01*
X194098152Y-124543809D02*
X194145771Y-124448571D01*
X194145771Y-124448571D02*
X194193390Y-124400952D01*
X194193390Y-124400952D02*
X194288628Y-124353333D01*
X194288628Y-124353333D02*
X194574342Y-124353333D01*
X194574342Y-124353333D02*
X194669580Y-124400952D01*
X194669580Y-124400952D02*
X194717200Y-124448571D01*
X194717200Y-124448571D02*
X194764819Y-124543809D01*
X194764819Y-124543809D02*
X194764819Y-124686666D01*
X194098152Y-123924761D02*
X194764819Y-123924761D01*
X194193390Y-123924761D02*
X194145771Y-123877142D01*
X194145771Y-123877142D02*
X194098152Y-123781904D01*
X194098152Y-123781904D02*
X194098152Y-123639047D01*
X194098152Y-123639047D02*
X194145771Y-123543809D01*
X194145771Y-123543809D02*
X194241009Y-123496190D01*
X194241009Y-123496190D02*
X194764819Y-123496190D01*
X194098152Y-123019999D02*
X194764819Y-123019999D01*
X194193390Y-123019999D02*
X194145771Y-122972380D01*
X194145771Y-122972380D02*
X194098152Y-122877142D01*
X194098152Y-122877142D02*
X194098152Y-122734285D01*
X194098152Y-122734285D02*
X194145771Y-122639047D01*
X194145771Y-122639047D02*
X194241009Y-122591428D01*
X194241009Y-122591428D02*
X194764819Y-122591428D01*
X194860057Y-122353333D02*
X194860057Y-121591428D01*
X193764819Y-121162856D02*
X193764819Y-121067618D01*
X193764819Y-121067618D02*
X193812438Y-120972380D01*
X193812438Y-120972380D02*
X193860057Y-120924761D01*
X193860057Y-120924761D02*
X193955295Y-120877142D01*
X193955295Y-120877142D02*
X194145771Y-120829523D01*
X194145771Y-120829523D02*
X194383866Y-120829523D01*
X194383866Y-120829523D02*
X194574342Y-120877142D01*
X194574342Y-120877142D02*
X194669580Y-120924761D01*
X194669580Y-120924761D02*
X194717200Y-120972380D01*
X194717200Y-120972380D02*
X194764819Y-121067618D01*
X194764819Y-121067618D02*
X194764819Y-121162856D01*
X194764819Y-121162856D02*
X194717200Y-121258094D01*
X194717200Y-121258094D02*
X194669580Y-121305713D01*
X194669580Y-121305713D02*
X194574342Y-121353332D01*
X194574342Y-121353332D02*
X194383866Y-121400951D01*
X194383866Y-121400951D02*
X194145771Y-121400951D01*
X194145771Y-121400951D02*
X193955295Y-121353332D01*
X193955295Y-121353332D02*
X193860057Y-121305713D01*
X193860057Y-121305713D02*
X193812438Y-121258094D01*
X193812438Y-121258094D02*
X193764819Y-121162856D01*
X194764819Y-119877142D02*
X194764819Y-120448570D01*
X194764819Y-120162856D02*
X193764819Y-120162856D01*
X193764819Y-120162856D02*
X193907676Y-120258094D01*
X193907676Y-120258094D02*
X194002914Y-120353332D01*
X194002914Y-120353332D02*
X194050533Y-120448570D01*
X194764819Y-119543808D02*
X194098152Y-119019999D01*
X194098152Y-119543808D02*
X194764819Y-119019999D01*
X193764819Y-118448570D02*
X193764819Y-118353332D01*
X193764819Y-118353332D02*
X193812438Y-118258094D01*
X193812438Y-118258094D02*
X193860057Y-118210475D01*
X193860057Y-118210475D02*
X193955295Y-118162856D01*
X193955295Y-118162856D02*
X194145771Y-118115237D01*
X194145771Y-118115237D02*
X194383866Y-118115237D01*
X194383866Y-118115237D02*
X194574342Y-118162856D01*
X194574342Y-118162856D02*
X194669580Y-118210475D01*
X194669580Y-118210475D02*
X194717200Y-118258094D01*
X194717200Y-118258094D02*
X194764819Y-118353332D01*
X194764819Y-118353332D02*
X194764819Y-118448570D01*
X194764819Y-118448570D02*
X194717200Y-118543808D01*
X194717200Y-118543808D02*
X194669580Y-118591427D01*
X194669580Y-118591427D02*
X194574342Y-118639046D01*
X194574342Y-118639046D02*
X194383866Y-118686665D01*
X194383866Y-118686665D02*
X194145771Y-118686665D01*
X194145771Y-118686665D02*
X193955295Y-118639046D01*
X193955295Y-118639046D02*
X193860057Y-118591427D01*
X193860057Y-118591427D02*
X193812438Y-118543808D01*
X193812438Y-118543808D02*
X193764819Y-118448570D01*
X193764819Y-117258094D02*
X193764819Y-117448570D01*
X193764819Y-117448570D02*
X193812438Y-117543808D01*
X193812438Y-117543808D02*
X193860057Y-117591427D01*
X193860057Y-117591427D02*
X194002914Y-117686665D01*
X194002914Y-117686665D02*
X194193390Y-117734284D01*
X194193390Y-117734284D02*
X194574342Y-117734284D01*
X194574342Y-117734284D02*
X194669580Y-117686665D01*
X194669580Y-117686665D02*
X194717200Y-117639046D01*
X194717200Y-117639046D02*
X194764819Y-117543808D01*
X194764819Y-117543808D02*
X194764819Y-117353332D01*
X194764819Y-117353332D02*
X194717200Y-117258094D01*
X194717200Y-117258094D02*
X194669580Y-117210475D01*
X194669580Y-117210475D02*
X194574342Y-117162856D01*
X194574342Y-117162856D02*
X194336247Y-117162856D01*
X194336247Y-117162856D02*
X194241009Y-117210475D01*
X194241009Y-117210475D02*
X194193390Y-117258094D01*
X194193390Y-117258094D02*
X194145771Y-117353332D01*
X194145771Y-117353332D02*
X194145771Y-117543808D01*
X194145771Y-117543808D02*
X194193390Y-117639046D01*
X194193390Y-117639046D02*
X194241009Y-117686665D01*
X194241009Y-117686665D02*
X194336247Y-117734284D01*
X193754819Y-124383333D02*
X194469104Y-124383333D01*
X194469104Y-124383333D02*
X194611961Y-124430952D01*
X194611961Y-124430952D02*
X194707200Y-124526190D01*
X194707200Y-124526190D02*
X194754819Y-124669047D01*
X194754819Y-124669047D02*
X194754819Y-124764285D01*
X194183390Y-123764285D02*
X194135771Y-123859523D01*
X194135771Y-123859523D02*
X194088152Y-123907142D01*
X194088152Y-123907142D02*
X193992914Y-123954761D01*
X193992914Y-123954761D02*
X193945295Y-123954761D01*
X193945295Y-123954761D02*
X193850057Y-123907142D01*
X193850057Y-123907142D02*
X193802438Y-123859523D01*
X193802438Y-123859523D02*
X193754819Y-123764285D01*
X193754819Y-123764285D02*
X193754819Y-123573809D01*
X193754819Y-123573809D02*
X193802438Y-123478571D01*
X193802438Y-123478571D02*
X193850057Y-123430952D01*
X193850057Y-123430952D02*
X193945295Y-123383333D01*
X193945295Y-123383333D02*
X193992914Y-123383333D01*
X193992914Y-123383333D02*
X194088152Y-123430952D01*
X194088152Y-123430952D02*
X194135771Y-123478571D01*
X194135771Y-123478571D02*
X194183390Y-123573809D01*
X194183390Y-123573809D02*
X194183390Y-123764285D01*
X194183390Y-123764285D02*
X194231009Y-123859523D01*
X194231009Y-123859523D02*
X194278628Y-123907142D01*
X194278628Y-123907142D02*
X194373866Y-123954761D01*
X194373866Y-123954761D02*
X194564342Y-123954761D01*
X194564342Y-123954761D02*
X194659580Y-123907142D01*
X194659580Y-123907142D02*
X194707200Y-123859523D01*
X194707200Y-123859523D02*
X194754819Y-123764285D01*
X194754819Y-123764285D02*
X194754819Y-123573809D01*
X194754819Y-123573809D02*
X194707200Y-123478571D01*
X194707200Y-123478571D02*
X194659580Y-123430952D01*
X194659580Y-123430952D02*
X194564342Y-123383333D01*
X194564342Y-123383333D02*
X194373866Y-123383333D01*
X194373866Y-123383333D02*
X194278628Y-123430952D01*
X194278628Y-123430952D02*
X194231009Y-123478571D01*
X194231009Y-123478571D02*
X194183390Y-123573809D01*
X192854819Y-112617857D02*
X192854819Y-113094047D01*
X192854819Y-113094047D02*
X191854819Y-113094047D01*
X192331009Y-112284523D02*
X192331009Y-111951190D01*
X192854819Y-111808333D02*
X192854819Y-112284523D01*
X192854819Y-112284523D02*
X191854819Y-112284523D01*
X191854819Y-112284523D02*
X191854819Y-111808333D01*
X192854819Y-111379761D02*
X191854819Y-111379761D01*
X191854819Y-111379761D02*
X191854819Y-111141666D01*
X191854819Y-111141666D02*
X191902438Y-110998809D01*
X191902438Y-110998809D02*
X191997676Y-110903571D01*
X191997676Y-110903571D02*
X192092914Y-110855952D01*
X192092914Y-110855952D02*
X192283390Y-110808333D01*
X192283390Y-110808333D02*
X192426247Y-110808333D01*
X192426247Y-110808333D02*
X192616723Y-110855952D01*
X192616723Y-110855952D02*
X192711961Y-110903571D01*
X192711961Y-110903571D02*
X192807200Y-110998809D01*
X192807200Y-110998809D02*
X192854819Y-111141666D01*
X192854819Y-111141666D02*
X192854819Y-111379761D01*
D11*
X196763855Y-112585475D02*
X195963855Y-112585475D01*
X195963855Y-112585475D02*
X195963855Y-112394999D01*
X195963855Y-112394999D02*
X196001950Y-112280713D01*
X196001950Y-112280713D02*
X196078140Y-112204523D01*
X196078140Y-112204523D02*
X196154331Y-112166428D01*
X196154331Y-112166428D02*
X196306712Y-112128332D01*
X196306712Y-112128332D02*
X196420998Y-112128332D01*
X196420998Y-112128332D02*
X196573379Y-112166428D01*
X196573379Y-112166428D02*
X196649569Y-112204523D01*
X196649569Y-112204523D02*
X196725760Y-112280713D01*
X196725760Y-112280713D02*
X196763855Y-112394999D01*
X196763855Y-112394999D02*
X196763855Y-112585475D01*
X196763855Y-111366428D02*
X196763855Y-111823571D01*
X196763855Y-111594999D02*
X195963855Y-111594999D01*
X195963855Y-111594999D02*
X196078140Y-111671190D01*
X196078140Y-111671190D02*
X196154331Y-111747380D01*
X196154331Y-111747380D02*
X196192426Y-111823571D01*
D10*
X200374819Y-119019047D02*
X200374819Y-119590475D01*
X200374819Y-119304761D02*
X199374819Y-119304761D01*
X199374819Y-119304761D02*
X199517676Y-119399999D01*
X199517676Y-119399999D02*
X199612914Y-119495237D01*
X199612914Y-119495237D02*
X199660533Y-119590475D01*
X200374819Y-118590475D02*
X199374819Y-118590475D01*
X199993866Y-118495237D02*
X200374819Y-118209523D01*
X199708152Y-118209523D02*
X200089104Y-118590475D01*
D12*
X198327469Y-119019999D02*
X197984612Y-119259999D01*
X198327469Y-119431428D02*
X197607469Y-119431428D01*
X197607469Y-119431428D02*
X197607469Y-119157142D01*
X197607469Y-119157142D02*
X197641755Y-119088571D01*
X197641755Y-119088571D02*
X197676041Y-119054285D01*
X197676041Y-119054285D02*
X197744612Y-119019999D01*
X197744612Y-119019999D02*
X197847469Y-119019999D01*
X197847469Y-119019999D02*
X197916041Y-119054285D01*
X197916041Y-119054285D02*
X197950326Y-119088571D01*
X197950326Y-119088571D02*
X197984612Y-119157142D01*
X197984612Y-119157142D02*
X197984612Y-119431428D01*
X198327469Y-118334285D02*
X198327469Y-118745714D01*
X198327469Y-118539999D02*
X197607469Y-118539999D01*
X197607469Y-118539999D02*
X197710326Y-118608571D01*
X197710326Y-118608571D02*
X197778898Y-118677142D01*
X197778898Y-118677142D02*
X197813184Y-118745714D01*
D10*
X199304819Y-107261905D02*
X198304819Y-107261905D01*
X198304819Y-107261905D02*
X198304819Y-107023810D01*
X198304819Y-107023810D02*
X198352438Y-106880953D01*
X198352438Y-106880953D02*
X198447676Y-106785715D01*
X198447676Y-106785715D02*
X198542914Y-106738096D01*
X198542914Y-106738096D02*
X198733390Y-106690477D01*
X198733390Y-106690477D02*
X198876247Y-106690477D01*
X198876247Y-106690477D02*
X199066723Y-106738096D01*
X199066723Y-106738096D02*
X199161961Y-106785715D01*
X199161961Y-106785715D02*
X199257200Y-106880953D01*
X199257200Y-106880953D02*
X199304819Y-107023810D01*
X199304819Y-107023810D02*
X199304819Y-107261905D01*
X199400057Y-106500001D02*
X199400057Y-105738096D01*
X199257200Y-105547619D02*
X199304819Y-105404762D01*
X199304819Y-105404762D02*
X199304819Y-105166667D01*
X199304819Y-105166667D02*
X199257200Y-105071429D01*
X199257200Y-105071429D02*
X199209580Y-105023810D01*
X199209580Y-105023810D02*
X199114342Y-104976191D01*
X199114342Y-104976191D02*
X199019104Y-104976191D01*
X199019104Y-104976191D02*
X198923866Y-105023810D01*
X198923866Y-105023810D02*
X198876247Y-105071429D01*
X198876247Y-105071429D02*
X198828628Y-105166667D01*
X198828628Y-105166667D02*
X198781009Y-105357143D01*
X198781009Y-105357143D02*
X198733390Y-105452381D01*
X198733390Y-105452381D02*
X198685771Y-105500000D01*
X198685771Y-105500000D02*
X198590533Y-105547619D01*
X198590533Y-105547619D02*
X198495295Y-105547619D01*
X198495295Y-105547619D02*
X198400057Y-105500000D01*
X198400057Y-105500000D02*
X198352438Y-105452381D01*
X198352438Y-105452381D02*
X198304819Y-105357143D01*
X198304819Y-105357143D02*
X198304819Y-105119048D01*
X198304819Y-105119048D02*
X198352438Y-104976191D01*
X199257200Y-104119048D02*
X199304819Y-104214286D01*
X199304819Y-104214286D02*
X199304819Y-104404762D01*
X199304819Y-104404762D02*
X199257200Y-104500000D01*
X199257200Y-104500000D02*
X199209580Y-104547619D01*
X199209580Y-104547619D02*
X199114342Y-104595238D01*
X199114342Y-104595238D02*
X198828628Y-104595238D01*
X198828628Y-104595238D02*
X198733390Y-104547619D01*
X198733390Y-104547619D02*
X198685771Y-104500000D01*
X198685771Y-104500000D02*
X198638152Y-104404762D01*
X198638152Y-104404762D02*
X198638152Y-104214286D01*
X198638152Y-104214286D02*
X198685771Y-104119048D01*
X199304819Y-103690476D02*
X198304819Y-103690476D01*
X199304819Y-103261905D02*
X198781009Y-103261905D01*
X198781009Y-103261905D02*
X198685771Y-103309524D01*
X198685771Y-103309524D02*
X198638152Y-103404762D01*
X198638152Y-103404762D02*
X198638152Y-103547619D01*
X198638152Y-103547619D02*
X198685771Y-103642857D01*
X198685771Y-103642857D02*
X198733390Y-103690476D01*
X199304819Y-102642857D02*
X199257200Y-102738095D01*
X199257200Y-102738095D02*
X199209580Y-102785714D01*
X199209580Y-102785714D02*
X199114342Y-102833333D01*
X199114342Y-102833333D02*
X198828628Y-102833333D01*
X198828628Y-102833333D02*
X198733390Y-102785714D01*
X198733390Y-102785714D02*
X198685771Y-102738095D01*
X198685771Y-102738095D02*
X198638152Y-102642857D01*
X198638152Y-102642857D02*
X198638152Y-102500000D01*
X198638152Y-102500000D02*
X198685771Y-102404762D01*
X198685771Y-102404762D02*
X198733390Y-102357143D01*
X198733390Y-102357143D02*
X198828628Y-102309524D01*
X198828628Y-102309524D02*
X199114342Y-102309524D01*
X199114342Y-102309524D02*
X199209580Y-102357143D01*
X199209580Y-102357143D02*
X199257200Y-102404762D01*
X199257200Y-102404762D02*
X199304819Y-102500000D01*
X199304819Y-102500000D02*
X199304819Y-102642857D01*
X198638152Y-102023809D02*
X198638152Y-101642857D01*
X198304819Y-101880952D02*
X199161961Y-101880952D01*
X199161961Y-101880952D02*
X199257200Y-101833333D01*
X199257200Y-101833333D02*
X199304819Y-101738095D01*
X199304819Y-101738095D02*
X199304819Y-101642857D01*
X198638152Y-101452380D02*
X198638152Y-101071428D01*
X198304819Y-101309523D02*
X199161961Y-101309523D01*
X199161961Y-101309523D02*
X199257200Y-101261904D01*
X199257200Y-101261904D02*
X199304819Y-101166666D01*
X199304819Y-101166666D02*
X199304819Y-101071428D01*
X199304819Y-100738094D02*
X198304819Y-100738094D01*
X198923866Y-100642856D02*
X199304819Y-100357142D01*
X198638152Y-100357142D02*
X199019104Y-100738094D01*
X198638152Y-100023808D02*
X199304819Y-99785713D01*
X198638152Y-99547618D02*
X199304819Y-99785713D01*
X199304819Y-99785713D02*
X199542914Y-99880951D01*
X199542914Y-99880951D02*
X199590533Y-99928570D01*
X199590533Y-99928570D02*
X199638152Y-100023808D01*
X199400057Y-99404761D02*
X199400057Y-98642856D01*
X198781009Y-98071427D02*
X198781009Y-98404760D01*
X199304819Y-98404760D02*
X198304819Y-98404760D01*
X198304819Y-98404760D02*
X198304819Y-97928570D01*
X199304819Y-97547617D02*
X198638152Y-97547617D01*
X198304819Y-97547617D02*
X198352438Y-97595236D01*
X198352438Y-97595236D02*
X198400057Y-97547617D01*
X198400057Y-97547617D02*
X198352438Y-97499998D01*
X198352438Y-97499998D02*
X198304819Y-97547617D01*
X198304819Y-97547617D02*
X198400057Y-97547617D01*
X199304819Y-96928570D02*
X199257200Y-97023808D01*
X199257200Y-97023808D02*
X199161961Y-97071427D01*
X199161961Y-97071427D02*
X198304819Y-97071427D01*
X199304819Y-96404760D02*
X199257200Y-96499998D01*
X199257200Y-96499998D02*
X199161961Y-96547617D01*
X199161961Y-96547617D02*
X198304819Y-96547617D01*
X199257200Y-95642855D02*
X199304819Y-95738093D01*
X199304819Y-95738093D02*
X199304819Y-95928569D01*
X199304819Y-95928569D02*
X199257200Y-96023807D01*
X199257200Y-96023807D02*
X199161961Y-96071426D01*
X199161961Y-96071426D02*
X198781009Y-96071426D01*
X198781009Y-96071426D02*
X198685771Y-96023807D01*
X198685771Y-96023807D02*
X198638152Y-95928569D01*
X198638152Y-95928569D02*
X198638152Y-95738093D01*
X198638152Y-95738093D02*
X198685771Y-95642855D01*
X198685771Y-95642855D02*
X198781009Y-95595236D01*
X198781009Y-95595236D02*
X198876247Y-95595236D01*
X198876247Y-95595236D02*
X198971485Y-96071426D01*
X199304819Y-94738093D02*
X198304819Y-94738093D01*
X199257200Y-94738093D02*
X199304819Y-94833331D01*
X199304819Y-94833331D02*
X199304819Y-95023807D01*
X199304819Y-95023807D02*
X199257200Y-95119045D01*
X199257200Y-95119045D02*
X199209580Y-95166664D01*
X199209580Y-95166664D02*
X199114342Y-95214283D01*
X199114342Y-95214283D02*
X198828628Y-95214283D01*
X198828628Y-95214283D02*
X198733390Y-95166664D01*
X198733390Y-95166664D02*
X198685771Y-95119045D01*
X198685771Y-95119045D02*
X198638152Y-95023807D01*
X198638152Y-95023807D02*
X198638152Y-94833331D01*
X198638152Y-94833331D02*
X198685771Y-94738093D01*
X199554819Y-107411904D02*
X198554819Y-107411904D01*
X199554819Y-106840476D02*
X198983390Y-107269047D01*
X198554819Y-106840476D02*
X199126247Y-107411904D01*
X199554819Y-101098094D02*
X198554819Y-101098094D01*
X198554819Y-101098094D02*
X198554819Y-100859999D01*
X198554819Y-100859999D02*
X198602438Y-100717142D01*
X198602438Y-100717142D02*
X198697676Y-100621904D01*
X198697676Y-100621904D02*
X198792914Y-100574285D01*
X198792914Y-100574285D02*
X198983390Y-100526666D01*
X198983390Y-100526666D02*
X199126247Y-100526666D01*
X199126247Y-100526666D02*
X199316723Y-100574285D01*
X199316723Y-100574285D02*
X199411961Y-100621904D01*
X199411961Y-100621904D02*
X199507200Y-100717142D01*
X199507200Y-100717142D02*
X199554819Y-100859999D01*
X199554819Y-100859999D02*
X199554819Y-101098094D01*
X198983390Y-99955237D02*
X198935771Y-100050475D01*
X198935771Y-100050475D02*
X198888152Y-100098094D01*
X198888152Y-100098094D02*
X198792914Y-100145713D01*
X198792914Y-100145713D02*
X198745295Y-100145713D01*
X198745295Y-100145713D02*
X198650057Y-100098094D01*
X198650057Y-100098094D02*
X198602438Y-100050475D01*
X198602438Y-100050475D02*
X198554819Y-99955237D01*
X198554819Y-99955237D02*
X198554819Y-99764761D01*
X198554819Y-99764761D02*
X198602438Y-99669523D01*
X198602438Y-99669523D02*
X198650057Y-99621904D01*
X198650057Y-99621904D02*
X198745295Y-99574285D01*
X198745295Y-99574285D02*
X198792914Y-99574285D01*
X198792914Y-99574285D02*
X198888152Y-99621904D01*
X198888152Y-99621904D02*
X198935771Y-99669523D01*
X198935771Y-99669523D02*
X198983390Y-99764761D01*
X198983390Y-99764761D02*
X198983390Y-99955237D01*
X198983390Y-99955237D02*
X199031009Y-100050475D01*
X199031009Y-100050475D02*
X199078628Y-100098094D01*
X199078628Y-100098094D02*
X199173866Y-100145713D01*
X199173866Y-100145713D02*
X199364342Y-100145713D01*
X199364342Y-100145713D02*
X199459580Y-100098094D01*
X199459580Y-100098094D02*
X199507200Y-100050475D01*
X199507200Y-100050475D02*
X199554819Y-99955237D01*
X199554819Y-99955237D02*
X199554819Y-99764761D01*
X199554819Y-99764761D02*
X199507200Y-99669523D01*
X199507200Y-99669523D02*
X199459580Y-99621904D01*
X199459580Y-99621904D02*
X199364342Y-99574285D01*
X199364342Y-99574285D02*
X199173866Y-99574285D01*
X199173866Y-99574285D02*
X199078628Y-99621904D01*
X199078628Y-99621904D02*
X199031009Y-99669523D01*
X199031009Y-99669523D02*
X198983390Y-99764761D01*
X181109580Y-99892858D02*
X181157200Y-99940477D01*
X181157200Y-99940477D02*
X181204819Y-100083334D01*
X181204819Y-100083334D02*
X181204819Y-100178572D01*
X181204819Y-100178572D02*
X181157200Y-100321429D01*
X181157200Y-100321429D02*
X181061961Y-100416667D01*
X181061961Y-100416667D02*
X180966723Y-100464286D01*
X180966723Y-100464286D02*
X180776247Y-100511905D01*
X180776247Y-100511905D02*
X180633390Y-100511905D01*
X180633390Y-100511905D02*
X180442914Y-100464286D01*
X180442914Y-100464286D02*
X180347676Y-100416667D01*
X180347676Y-100416667D02*
X180252438Y-100321429D01*
X180252438Y-100321429D02*
X180204819Y-100178572D01*
X180204819Y-100178572D02*
X180204819Y-100083334D01*
X180204819Y-100083334D02*
X180252438Y-99940477D01*
X180252438Y-99940477D02*
X180300057Y-99892858D01*
X181204819Y-99321429D02*
X181157200Y-99416667D01*
X181157200Y-99416667D02*
X181109580Y-99464286D01*
X181109580Y-99464286D02*
X181014342Y-99511905D01*
X181014342Y-99511905D02*
X180728628Y-99511905D01*
X180728628Y-99511905D02*
X180633390Y-99464286D01*
X180633390Y-99464286D02*
X180585771Y-99416667D01*
X180585771Y-99416667D02*
X180538152Y-99321429D01*
X180538152Y-99321429D02*
X180538152Y-99178572D01*
X180538152Y-99178572D02*
X180585771Y-99083334D01*
X180585771Y-99083334D02*
X180633390Y-99035715D01*
X180633390Y-99035715D02*
X180728628Y-98988096D01*
X180728628Y-98988096D02*
X181014342Y-98988096D01*
X181014342Y-98988096D02*
X181109580Y-99035715D01*
X181109580Y-99035715D02*
X181157200Y-99083334D01*
X181157200Y-99083334D02*
X181204819Y-99178572D01*
X181204819Y-99178572D02*
X181204819Y-99321429D01*
X180538152Y-98559524D02*
X181204819Y-98559524D01*
X180633390Y-98559524D02*
X180585771Y-98511905D01*
X180585771Y-98511905D02*
X180538152Y-98416667D01*
X180538152Y-98416667D02*
X180538152Y-98273810D01*
X180538152Y-98273810D02*
X180585771Y-98178572D01*
X180585771Y-98178572D02*
X180681009Y-98130953D01*
X180681009Y-98130953D02*
X181204819Y-98130953D01*
X180538152Y-97654762D02*
X181204819Y-97654762D01*
X180633390Y-97654762D02*
X180585771Y-97607143D01*
X180585771Y-97607143D02*
X180538152Y-97511905D01*
X180538152Y-97511905D02*
X180538152Y-97369048D01*
X180538152Y-97369048D02*
X180585771Y-97273810D01*
X180585771Y-97273810D02*
X180681009Y-97226191D01*
X180681009Y-97226191D02*
X181204819Y-97226191D01*
X181300057Y-96988096D02*
X181300057Y-96226191D01*
X180204819Y-95797619D02*
X180204819Y-95702381D01*
X180204819Y-95702381D02*
X180252438Y-95607143D01*
X180252438Y-95607143D02*
X180300057Y-95559524D01*
X180300057Y-95559524D02*
X180395295Y-95511905D01*
X180395295Y-95511905D02*
X180585771Y-95464286D01*
X180585771Y-95464286D02*
X180823866Y-95464286D01*
X180823866Y-95464286D02*
X181014342Y-95511905D01*
X181014342Y-95511905D02*
X181109580Y-95559524D01*
X181109580Y-95559524D02*
X181157200Y-95607143D01*
X181157200Y-95607143D02*
X181204819Y-95702381D01*
X181204819Y-95702381D02*
X181204819Y-95797619D01*
X181204819Y-95797619D02*
X181157200Y-95892857D01*
X181157200Y-95892857D02*
X181109580Y-95940476D01*
X181109580Y-95940476D02*
X181014342Y-95988095D01*
X181014342Y-95988095D02*
X180823866Y-96035714D01*
X180823866Y-96035714D02*
X180585771Y-96035714D01*
X180585771Y-96035714D02*
X180395295Y-95988095D01*
X180395295Y-95988095D02*
X180300057Y-95940476D01*
X180300057Y-95940476D02*
X180252438Y-95892857D01*
X180252438Y-95892857D02*
X180204819Y-95797619D01*
X180300057Y-95083333D02*
X180252438Y-95035714D01*
X180252438Y-95035714D02*
X180204819Y-94940476D01*
X180204819Y-94940476D02*
X180204819Y-94702381D01*
X180204819Y-94702381D02*
X180252438Y-94607143D01*
X180252438Y-94607143D02*
X180300057Y-94559524D01*
X180300057Y-94559524D02*
X180395295Y-94511905D01*
X180395295Y-94511905D02*
X180490533Y-94511905D01*
X180490533Y-94511905D02*
X180633390Y-94559524D01*
X180633390Y-94559524D02*
X181204819Y-95130952D01*
X181204819Y-95130952D02*
X181204819Y-94511905D01*
X181204819Y-94178571D02*
X180538152Y-93654762D01*
X180538152Y-94178571D02*
X181204819Y-93654762D01*
X181204819Y-92750000D02*
X181204819Y-93321428D01*
X181204819Y-93035714D02*
X180204819Y-93035714D01*
X180204819Y-93035714D02*
X180347676Y-93130952D01*
X180347676Y-93130952D02*
X180442914Y-93226190D01*
X180442914Y-93226190D02*
X180490533Y-93321428D01*
X181204819Y-92273809D02*
X181204819Y-92083333D01*
X181204819Y-92083333D02*
X181157200Y-91988095D01*
X181157200Y-91988095D02*
X181109580Y-91940476D01*
X181109580Y-91940476D02*
X180966723Y-91845238D01*
X180966723Y-91845238D02*
X180776247Y-91797619D01*
X180776247Y-91797619D02*
X180395295Y-91797619D01*
X180395295Y-91797619D02*
X180300057Y-91845238D01*
X180300057Y-91845238D02*
X180252438Y-91892857D01*
X180252438Y-91892857D02*
X180204819Y-91988095D01*
X180204819Y-91988095D02*
X180204819Y-92178571D01*
X180204819Y-92178571D02*
X180252438Y-92273809D01*
X180252438Y-92273809D02*
X180300057Y-92321428D01*
X180300057Y-92321428D02*
X180395295Y-92369047D01*
X180395295Y-92369047D02*
X180633390Y-92369047D01*
X180633390Y-92369047D02*
X180728628Y-92321428D01*
X180728628Y-92321428D02*
X180776247Y-92273809D01*
X180776247Y-92273809D02*
X180823866Y-92178571D01*
X180823866Y-92178571D02*
X180823866Y-91988095D01*
X180823866Y-91988095D02*
X180776247Y-91892857D01*
X180776247Y-91892857D02*
X180728628Y-91845238D01*
X180728628Y-91845238D02*
X180633390Y-91797619D01*
X181300057Y-91607143D02*
X181300057Y-90845238D01*
X180204819Y-90416666D02*
X180204819Y-90226190D01*
X180204819Y-90226190D02*
X180252438Y-90130952D01*
X180252438Y-90130952D02*
X180347676Y-90035714D01*
X180347676Y-90035714D02*
X180538152Y-89988095D01*
X180538152Y-89988095D02*
X180871485Y-89988095D01*
X180871485Y-89988095D02*
X181061961Y-90035714D01*
X181061961Y-90035714D02*
X181157200Y-90130952D01*
X181157200Y-90130952D02*
X181204819Y-90226190D01*
X181204819Y-90226190D02*
X181204819Y-90416666D01*
X181204819Y-90416666D02*
X181157200Y-90511904D01*
X181157200Y-90511904D02*
X181061961Y-90607142D01*
X181061961Y-90607142D02*
X180871485Y-90654761D01*
X180871485Y-90654761D02*
X180538152Y-90654761D01*
X180538152Y-90654761D02*
X180347676Y-90607142D01*
X180347676Y-90607142D02*
X180252438Y-90511904D01*
X180252438Y-90511904D02*
X180204819Y-90416666D01*
X181204819Y-89130952D02*
X180204819Y-89130952D01*
X181157200Y-89130952D02*
X181204819Y-89226190D01*
X181204819Y-89226190D02*
X181204819Y-89416666D01*
X181204819Y-89416666D02*
X181157200Y-89511904D01*
X181157200Y-89511904D02*
X181109580Y-89559523D01*
X181109580Y-89559523D02*
X181014342Y-89607142D01*
X181014342Y-89607142D02*
X180728628Y-89607142D01*
X180728628Y-89607142D02*
X180633390Y-89559523D01*
X180633390Y-89559523D02*
X180585771Y-89511904D01*
X180585771Y-89511904D02*
X180538152Y-89416666D01*
X180538152Y-89416666D02*
X180538152Y-89226190D01*
X180538152Y-89226190D02*
X180585771Y-89130952D01*
X181204819Y-88226190D02*
X180204819Y-88226190D01*
X181157200Y-88226190D02*
X181204819Y-88321428D01*
X181204819Y-88321428D02*
X181204819Y-88511904D01*
X181204819Y-88511904D02*
X181157200Y-88607142D01*
X181157200Y-88607142D02*
X181109580Y-88654761D01*
X181109580Y-88654761D02*
X181014342Y-88702380D01*
X181014342Y-88702380D02*
X180728628Y-88702380D01*
X180728628Y-88702380D02*
X180633390Y-88654761D01*
X180633390Y-88654761D02*
X180585771Y-88607142D01*
X180585771Y-88607142D02*
X180538152Y-88511904D01*
X180538152Y-88511904D02*
X180538152Y-88321428D01*
X180538152Y-88321428D02*
X180585771Y-88226190D01*
X181300057Y-87988095D02*
X181300057Y-87226190D01*
X180681009Y-86988094D02*
X180681009Y-86654761D01*
X181204819Y-86511904D02*
X181204819Y-86988094D01*
X181204819Y-86988094D02*
X180204819Y-86988094D01*
X180204819Y-86988094D02*
X180204819Y-86511904D01*
X180538152Y-86178570D02*
X181204819Y-85940475D01*
X181204819Y-85940475D02*
X180538152Y-85702380D01*
X181157200Y-84940475D02*
X181204819Y-85035713D01*
X181204819Y-85035713D02*
X181204819Y-85226189D01*
X181204819Y-85226189D02*
X181157200Y-85321427D01*
X181157200Y-85321427D02*
X181061961Y-85369046D01*
X181061961Y-85369046D02*
X180681009Y-85369046D01*
X180681009Y-85369046D02*
X180585771Y-85321427D01*
X180585771Y-85321427D02*
X180538152Y-85226189D01*
X180538152Y-85226189D02*
X180538152Y-85035713D01*
X180538152Y-85035713D02*
X180585771Y-84940475D01*
X180585771Y-84940475D02*
X180681009Y-84892856D01*
X180681009Y-84892856D02*
X180776247Y-84892856D01*
X180776247Y-84892856D02*
X180871485Y-85369046D01*
X180538152Y-84464284D02*
X181204819Y-84464284D01*
X180633390Y-84464284D02*
X180585771Y-84416665D01*
X180585771Y-84416665D02*
X180538152Y-84321427D01*
X180538152Y-84321427D02*
X180538152Y-84178570D01*
X180538152Y-84178570D02*
X180585771Y-84083332D01*
X180585771Y-84083332D02*
X180681009Y-84035713D01*
X180681009Y-84035713D02*
X181204819Y-84035713D01*
X184184819Y-108193333D02*
X184899104Y-108193333D01*
X184899104Y-108193333D02*
X185041961Y-108240952D01*
X185041961Y-108240952D02*
X185137200Y-108336190D01*
X185137200Y-108336190D02*
X185184819Y-108479047D01*
X185184819Y-108479047D02*
X185184819Y-108574285D01*
X184184819Y-107812380D02*
X184184819Y-107145714D01*
X184184819Y-107145714D02*
X185184819Y-107574285D01*
X207580952Y-116350057D02*
X207628571Y-116302438D01*
X207628571Y-116302438D02*
X207723809Y-116254819D01*
X207723809Y-116254819D02*
X207961904Y-116254819D01*
X207961904Y-116254819D02*
X208057142Y-116302438D01*
X208057142Y-116302438D02*
X208104761Y-116350057D01*
X208104761Y-116350057D02*
X208152380Y-116445295D01*
X208152380Y-116445295D02*
X208152380Y-116540533D01*
X208152380Y-116540533D02*
X208104761Y-116683390D01*
X208104761Y-116683390D02*
X207533333Y-117254819D01*
X207533333Y-117254819D02*
X208152380Y-117254819D01*
X208533333Y-116350057D02*
X208580952Y-116302438D01*
X208580952Y-116302438D02*
X208676190Y-116254819D01*
X208676190Y-116254819D02*
X208914285Y-116254819D01*
X208914285Y-116254819D02*
X209009523Y-116302438D01*
X209009523Y-116302438D02*
X209057142Y-116350057D01*
X209057142Y-116350057D02*
X209104761Y-116445295D01*
X209104761Y-116445295D02*
X209104761Y-116540533D01*
X209104761Y-116540533D02*
X209057142Y-116683390D01*
X209057142Y-116683390D02*
X208485714Y-117254819D01*
X208485714Y-117254819D02*
X209104761Y-117254819D01*
X209723809Y-116254819D02*
X209819047Y-116254819D01*
X209819047Y-116254819D02*
X209914285Y-116302438D01*
X209914285Y-116302438D02*
X209961904Y-116350057D01*
X209961904Y-116350057D02*
X210009523Y-116445295D01*
X210009523Y-116445295D02*
X210057142Y-116635771D01*
X210057142Y-116635771D02*
X210057142Y-116873866D01*
X210057142Y-116873866D02*
X210009523Y-117064342D01*
X210009523Y-117064342D02*
X209961904Y-117159580D01*
X209961904Y-117159580D02*
X209914285Y-117207200D01*
X209914285Y-117207200D02*
X209819047Y-117254819D01*
X209819047Y-117254819D02*
X209723809Y-117254819D01*
X209723809Y-117254819D02*
X209628571Y-117207200D01*
X209628571Y-117207200D02*
X209580952Y-117159580D01*
X209580952Y-117159580D02*
X209533333Y-117064342D01*
X209533333Y-117064342D02*
X209485714Y-116873866D01*
X209485714Y-116873866D02*
X209485714Y-116635771D01*
X209485714Y-116635771D02*
X209533333Y-116445295D01*
X209533333Y-116445295D02*
X209580952Y-116350057D01*
X209580952Y-116350057D02*
X209628571Y-116302438D01*
X209628571Y-116302438D02*
X209723809Y-116254819D01*
X210914285Y-116588152D02*
X210914285Y-117254819D01*
X210485714Y-116588152D02*
X210485714Y-117111961D01*
X210485714Y-117111961D02*
X210533333Y-117207200D01*
X210533333Y-117207200D02*
X210628571Y-117254819D01*
X210628571Y-117254819D02*
X210771428Y-117254819D01*
X210771428Y-117254819D02*
X210866666Y-117207200D01*
X210866666Y-117207200D02*
X210914285Y-117159580D01*
X211723809Y-116731009D02*
X211390476Y-116731009D01*
X211390476Y-117254819D02*
X211390476Y-116254819D01*
X211390476Y-116254819D02*
X211866666Y-116254819D01*
X210059580Y-121216666D02*
X210107200Y-121264285D01*
X210107200Y-121264285D02*
X210154819Y-121407142D01*
X210154819Y-121407142D02*
X210154819Y-121502380D01*
X210154819Y-121502380D02*
X210107200Y-121645237D01*
X210107200Y-121645237D02*
X210011961Y-121740475D01*
X210011961Y-121740475D02*
X209916723Y-121788094D01*
X209916723Y-121788094D02*
X209726247Y-121835713D01*
X209726247Y-121835713D02*
X209583390Y-121835713D01*
X209583390Y-121835713D02*
X209392914Y-121788094D01*
X209392914Y-121788094D02*
X209297676Y-121740475D01*
X209297676Y-121740475D02*
X209202438Y-121645237D01*
X209202438Y-121645237D02*
X209154819Y-121502380D01*
X209154819Y-121502380D02*
X209154819Y-121407142D01*
X209154819Y-121407142D02*
X209202438Y-121264285D01*
X209202438Y-121264285D02*
X209250057Y-121216666D01*
X209250057Y-120835713D02*
X209202438Y-120788094D01*
X209202438Y-120788094D02*
X209154819Y-120692856D01*
X209154819Y-120692856D02*
X209154819Y-120454761D01*
X209154819Y-120454761D02*
X209202438Y-120359523D01*
X209202438Y-120359523D02*
X209250057Y-120311904D01*
X209250057Y-120311904D02*
X209345295Y-120264285D01*
X209345295Y-120264285D02*
X209440533Y-120264285D01*
X209440533Y-120264285D02*
X209583390Y-120311904D01*
X209583390Y-120311904D02*
X210154819Y-120883332D01*
X210154819Y-120883332D02*
X210154819Y-120264285D01*
X188954819Y-103311905D02*
X187954819Y-103311905D01*
X187954819Y-103311905D02*
X187954819Y-103073810D01*
X187954819Y-103073810D02*
X188002438Y-102930953D01*
X188002438Y-102930953D02*
X188097676Y-102835715D01*
X188097676Y-102835715D02*
X188192914Y-102788096D01*
X188192914Y-102788096D02*
X188383390Y-102740477D01*
X188383390Y-102740477D02*
X188526247Y-102740477D01*
X188526247Y-102740477D02*
X188716723Y-102788096D01*
X188716723Y-102788096D02*
X188811961Y-102835715D01*
X188811961Y-102835715D02*
X188907200Y-102930953D01*
X188907200Y-102930953D02*
X188954819Y-103073810D01*
X188954819Y-103073810D02*
X188954819Y-103311905D01*
X189050057Y-102550001D02*
X189050057Y-101788096D01*
X188907200Y-101597619D02*
X188954819Y-101454762D01*
X188954819Y-101454762D02*
X188954819Y-101216667D01*
X188954819Y-101216667D02*
X188907200Y-101121429D01*
X188907200Y-101121429D02*
X188859580Y-101073810D01*
X188859580Y-101073810D02*
X188764342Y-101026191D01*
X188764342Y-101026191D02*
X188669104Y-101026191D01*
X188669104Y-101026191D02*
X188573866Y-101073810D01*
X188573866Y-101073810D02*
X188526247Y-101121429D01*
X188526247Y-101121429D02*
X188478628Y-101216667D01*
X188478628Y-101216667D02*
X188431009Y-101407143D01*
X188431009Y-101407143D02*
X188383390Y-101502381D01*
X188383390Y-101502381D02*
X188335771Y-101550000D01*
X188335771Y-101550000D02*
X188240533Y-101597619D01*
X188240533Y-101597619D02*
X188145295Y-101597619D01*
X188145295Y-101597619D02*
X188050057Y-101550000D01*
X188050057Y-101550000D02*
X188002438Y-101502381D01*
X188002438Y-101502381D02*
X187954819Y-101407143D01*
X187954819Y-101407143D02*
X187954819Y-101169048D01*
X187954819Y-101169048D02*
X188002438Y-101026191D01*
X188907200Y-100169048D02*
X188954819Y-100264286D01*
X188954819Y-100264286D02*
X188954819Y-100454762D01*
X188954819Y-100454762D02*
X188907200Y-100550000D01*
X188907200Y-100550000D02*
X188859580Y-100597619D01*
X188859580Y-100597619D02*
X188764342Y-100645238D01*
X188764342Y-100645238D02*
X188478628Y-100645238D01*
X188478628Y-100645238D02*
X188383390Y-100597619D01*
X188383390Y-100597619D02*
X188335771Y-100550000D01*
X188335771Y-100550000D02*
X188288152Y-100454762D01*
X188288152Y-100454762D02*
X188288152Y-100264286D01*
X188288152Y-100264286D02*
X188335771Y-100169048D01*
X188954819Y-99740476D02*
X187954819Y-99740476D01*
X188954819Y-99311905D02*
X188431009Y-99311905D01*
X188431009Y-99311905D02*
X188335771Y-99359524D01*
X188335771Y-99359524D02*
X188288152Y-99454762D01*
X188288152Y-99454762D02*
X188288152Y-99597619D01*
X188288152Y-99597619D02*
X188335771Y-99692857D01*
X188335771Y-99692857D02*
X188383390Y-99740476D01*
X188954819Y-98692857D02*
X188907200Y-98788095D01*
X188907200Y-98788095D02*
X188859580Y-98835714D01*
X188859580Y-98835714D02*
X188764342Y-98883333D01*
X188764342Y-98883333D02*
X188478628Y-98883333D01*
X188478628Y-98883333D02*
X188383390Y-98835714D01*
X188383390Y-98835714D02*
X188335771Y-98788095D01*
X188335771Y-98788095D02*
X188288152Y-98692857D01*
X188288152Y-98692857D02*
X188288152Y-98550000D01*
X188288152Y-98550000D02*
X188335771Y-98454762D01*
X188335771Y-98454762D02*
X188383390Y-98407143D01*
X188383390Y-98407143D02*
X188478628Y-98359524D01*
X188478628Y-98359524D02*
X188764342Y-98359524D01*
X188764342Y-98359524D02*
X188859580Y-98407143D01*
X188859580Y-98407143D02*
X188907200Y-98454762D01*
X188907200Y-98454762D02*
X188954819Y-98550000D01*
X188954819Y-98550000D02*
X188954819Y-98692857D01*
X188288152Y-98073809D02*
X188288152Y-97692857D01*
X187954819Y-97930952D02*
X188811961Y-97930952D01*
X188811961Y-97930952D02*
X188907200Y-97883333D01*
X188907200Y-97883333D02*
X188954819Y-97788095D01*
X188954819Y-97788095D02*
X188954819Y-97692857D01*
X188288152Y-97502380D02*
X188288152Y-97121428D01*
X187954819Y-97359523D02*
X188811961Y-97359523D01*
X188811961Y-97359523D02*
X188907200Y-97311904D01*
X188907200Y-97311904D02*
X188954819Y-97216666D01*
X188954819Y-97216666D02*
X188954819Y-97121428D01*
X188954819Y-96788094D02*
X187954819Y-96788094D01*
X188573866Y-96692856D02*
X188954819Y-96407142D01*
X188288152Y-96407142D02*
X188669104Y-96788094D01*
X188288152Y-96073808D02*
X188954819Y-95835713D01*
X188288152Y-95597618D02*
X188954819Y-95835713D01*
X188954819Y-95835713D02*
X189192914Y-95930951D01*
X189192914Y-95930951D02*
X189240533Y-95978570D01*
X189240533Y-95978570D02*
X189288152Y-96073808D01*
X189050057Y-95454761D02*
X189050057Y-94692856D01*
X188431009Y-94121427D02*
X188431009Y-94454760D01*
X188954819Y-94454760D02*
X187954819Y-94454760D01*
X187954819Y-94454760D02*
X187954819Y-93978570D01*
X188954819Y-93597617D02*
X188288152Y-93597617D01*
X187954819Y-93597617D02*
X188002438Y-93645236D01*
X188002438Y-93645236D02*
X188050057Y-93597617D01*
X188050057Y-93597617D02*
X188002438Y-93549998D01*
X188002438Y-93549998D02*
X187954819Y-93597617D01*
X187954819Y-93597617D02*
X188050057Y-93597617D01*
X188954819Y-92978570D02*
X188907200Y-93073808D01*
X188907200Y-93073808D02*
X188811961Y-93121427D01*
X188811961Y-93121427D02*
X187954819Y-93121427D01*
X188954819Y-92454760D02*
X188907200Y-92549998D01*
X188907200Y-92549998D02*
X188811961Y-92597617D01*
X188811961Y-92597617D02*
X187954819Y-92597617D01*
X188907200Y-91692855D02*
X188954819Y-91788093D01*
X188954819Y-91788093D02*
X188954819Y-91978569D01*
X188954819Y-91978569D02*
X188907200Y-92073807D01*
X188907200Y-92073807D02*
X188811961Y-92121426D01*
X188811961Y-92121426D02*
X188431009Y-92121426D01*
X188431009Y-92121426D02*
X188335771Y-92073807D01*
X188335771Y-92073807D02*
X188288152Y-91978569D01*
X188288152Y-91978569D02*
X188288152Y-91788093D01*
X188288152Y-91788093D02*
X188335771Y-91692855D01*
X188335771Y-91692855D02*
X188431009Y-91645236D01*
X188431009Y-91645236D02*
X188526247Y-91645236D01*
X188526247Y-91645236D02*
X188621485Y-92121426D01*
X188954819Y-90788093D02*
X187954819Y-90788093D01*
X188907200Y-90788093D02*
X188954819Y-90883331D01*
X188954819Y-90883331D02*
X188954819Y-91073807D01*
X188954819Y-91073807D02*
X188907200Y-91169045D01*
X188907200Y-91169045D02*
X188859580Y-91216664D01*
X188859580Y-91216664D02*
X188764342Y-91264283D01*
X188764342Y-91264283D02*
X188478628Y-91264283D01*
X188478628Y-91264283D02*
X188383390Y-91216664D01*
X188383390Y-91216664D02*
X188335771Y-91169045D01*
X188335771Y-91169045D02*
X188288152Y-91073807D01*
X188288152Y-91073807D02*
X188288152Y-90883331D01*
X188288152Y-90883331D02*
X188335771Y-90788093D01*
X191204819Y-98798094D02*
X190204819Y-98798094D01*
X190204819Y-98798094D02*
X190204819Y-98559999D01*
X190204819Y-98559999D02*
X190252438Y-98417142D01*
X190252438Y-98417142D02*
X190347676Y-98321904D01*
X190347676Y-98321904D02*
X190442914Y-98274285D01*
X190442914Y-98274285D02*
X190633390Y-98226666D01*
X190633390Y-98226666D02*
X190776247Y-98226666D01*
X190776247Y-98226666D02*
X190966723Y-98274285D01*
X190966723Y-98274285D02*
X191061961Y-98321904D01*
X191061961Y-98321904D02*
X191157200Y-98417142D01*
X191157200Y-98417142D02*
X191204819Y-98559999D01*
X191204819Y-98559999D02*
X191204819Y-98798094D01*
X191204819Y-97750475D02*
X191204819Y-97559999D01*
X191204819Y-97559999D02*
X191157200Y-97464761D01*
X191157200Y-97464761D02*
X191109580Y-97417142D01*
X191109580Y-97417142D02*
X190966723Y-97321904D01*
X190966723Y-97321904D02*
X190776247Y-97274285D01*
X190776247Y-97274285D02*
X190395295Y-97274285D01*
X190395295Y-97274285D02*
X190300057Y-97321904D01*
X190300057Y-97321904D02*
X190252438Y-97369523D01*
X190252438Y-97369523D02*
X190204819Y-97464761D01*
X190204819Y-97464761D02*
X190204819Y-97655237D01*
X190204819Y-97655237D02*
X190252438Y-97750475D01*
X190252438Y-97750475D02*
X190300057Y-97798094D01*
X190300057Y-97798094D02*
X190395295Y-97845713D01*
X190395295Y-97845713D02*
X190633390Y-97845713D01*
X190633390Y-97845713D02*
X190728628Y-97798094D01*
X190728628Y-97798094D02*
X190776247Y-97750475D01*
X190776247Y-97750475D02*
X190823866Y-97655237D01*
X190823866Y-97655237D02*
X190823866Y-97464761D01*
X190823866Y-97464761D02*
X190776247Y-97369523D01*
X190776247Y-97369523D02*
X190728628Y-97321904D01*
X190728628Y-97321904D02*
X190633390Y-97274285D01*
X205214285Y-88604819D02*
X205214285Y-87604819D01*
X205214285Y-87604819D02*
X205547618Y-88319104D01*
X205547618Y-88319104D02*
X205880951Y-87604819D01*
X205880951Y-87604819D02*
X205880951Y-88604819D01*
X206499999Y-88604819D02*
X206404761Y-88557200D01*
X206404761Y-88557200D02*
X206357142Y-88509580D01*
X206357142Y-88509580D02*
X206309523Y-88414342D01*
X206309523Y-88414342D02*
X206309523Y-88128628D01*
X206309523Y-88128628D02*
X206357142Y-88033390D01*
X206357142Y-88033390D02*
X206404761Y-87985771D01*
X206404761Y-87985771D02*
X206499999Y-87938152D01*
X206499999Y-87938152D02*
X206642856Y-87938152D01*
X206642856Y-87938152D02*
X206738094Y-87985771D01*
X206738094Y-87985771D02*
X206785713Y-88033390D01*
X206785713Y-88033390D02*
X206833332Y-88128628D01*
X206833332Y-88128628D02*
X206833332Y-88414342D01*
X206833332Y-88414342D02*
X206785713Y-88509580D01*
X206785713Y-88509580D02*
X206738094Y-88557200D01*
X206738094Y-88557200D02*
X206642856Y-88604819D01*
X206642856Y-88604819D02*
X206499999Y-88604819D01*
X207690475Y-87938152D02*
X207690475Y-88604819D01*
X207261904Y-87938152D02*
X207261904Y-88461961D01*
X207261904Y-88461961D02*
X207309523Y-88557200D01*
X207309523Y-88557200D02*
X207404761Y-88604819D01*
X207404761Y-88604819D02*
X207547618Y-88604819D01*
X207547618Y-88604819D02*
X207642856Y-88557200D01*
X207642856Y-88557200D02*
X207690475Y-88509580D01*
X208166666Y-87938152D02*
X208166666Y-88604819D01*
X208166666Y-88033390D02*
X208214285Y-87985771D01*
X208214285Y-87985771D02*
X208309523Y-87938152D01*
X208309523Y-87938152D02*
X208452380Y-87938152D01*
X208452380Y-87938152D02*
X208547618Y-87985771D01*
X208547618Y-87985771D02*
X208595237Y-88081009D01*
X208595237Y-88081009D02*
X208595237Y-88604819D01*
X208928571Y-87938152D02*
X209309523Y-87938152D01*
X209071428Y-87604819D02*
X209071428Y-88461961D01*
X209071428Y-88461961D02*
X209119047Y-88557200D01*
X209119047Y-88557200D02*
X209214285Y-88604819D01*
X209214285Y-88604819D02*
X209309523Y-88604819D01*
X209642857Y-88604819D02*
X209642857Y-87938152D01*
X209642857Y-87604819D02*
X209595238Y-87652438D01*
X209595238Y-87652438D02*
X209642857Y-87700057D01*
X209642857Y-87700057D02*
X209690476Y-87652438D01*
X209690476Y-87652438D02*
X209642857Y-87604819D01*
X209642857Y-87604819D02*
X209642857Y-87700057D01*
X210119047Y-87938152D02*
X210119047Y-88604819D01*
X210119047Y-88033390D02*
X210166666Y-87985771D01*
X210166666Y-87985771D02*
X210261904Y-87938152D01*
X210261904Y-87938152D02*
X210404761Y-87938152D01*
X210404761Y-87938152D02*
X210499999Y-87985771D01*
X210499999Y-87985771D02*
X210547618Y-88081009D01*
X210547618Y-88081009D02*
X210547618Y-88604819D01*
X211452380Y-87938152D02*
X211452380Y-88747676D01*
X211452380Y-88747676D02*
X211404761Y-88842914D01*
X211404761Y-88842914D02*
X211357142Y-88890533D01*
X211357142Y-88890533D02*
X211261904Y-88938152D01*
X211261904Y-88938152D02*
X211119047Y-88938152D01*
X211119047Y-88938152D02*
X211023809Y-88890533D01*
X211452380Y-88557200D02*
X211357142Y-88604819D01*
X211357142Y-88604819D02*
X211166666Y-88604819D01*
X211166666Y-88604819D02*
X211071428Y-88557200D01*
X211071428Y-88557200D02*
X211023809Y-88509580D01*
X211023809Y-88509580D02*
X210976190Y-88414342D01*
X210976190Y-88414342D02*
X210976190Y-88128628D01*
X210976190Y-88128628D02*
X211023809Y-88033390D01*
X211023809Y-88033390D02*
X211071428Y-87985771D01*
X211071428Y-87985771D02*
X211166666Y-87938152D01*
X211166666Y-87938152D02*
X211357142Y-87938152D01*
X211357142Y-87938152D02*
X211452380Y-87985771D01*
X211928571Y-88604819D02*
X211928571Y-87604819D01*
X211928571Y-88081009D02*
X212499999Y-88081009D01*
X212499999Y-88604819D02*
X212499999Y-87604819D01*
X213119047Y-88604819D02*
X213023809Y-88557200D01*
X213023809Y-88557200D02*
X212976190Y-88509580D01*
X212976190Y-88509580D02*
X212928571Y-88414342D01*
X212928571Y-88414342D02*
X212928571Y-88128628D01*
X212928571Y-88128628D02*
X212976190Y-88033390D01*
X212976190Y-88033390D02*
X213023809Y-87985771D01*
X213023809Y-87985771D02*
X213119047Y-87938152D01*
X213119047Y-87938152D02*
X213261904Y-87938152D01*
X213261904Y-87938152D02*
X213357142Y-87985771D01*
X213357142Y-87985771D02*
X213404761Y-88033390D01*
X213404761Y-88033390D02*
X213452380Y-88128628D01*
X213452380Y-88128628D02*
X213452380Y-88414342D01*
X213452380Y-88414342D02*
X213404761Y-88509580D01*
X213404761Y-88509580D02*
X213357142Y-88557200D01*
X213357142Y-88557200D02*
X213261904Y-88604819D01*
X213261904Y-88604819D02*
X213119047Y-88604819D01*
X214023809Y-88604819D02*
X213928571Y-88557200D01*
X213928571Y-88557200D02*
X213880952Y-88461961D01*
X213880952Y-88461961D02*
X213880952Y-87604819D01*
X214785714Y-88557200D02*
X214690476Y-88604819D01*
X214690476Y-88604819D02*
X214500000Y-88604819D01*
X214500000Y-88604819D02*
X214404762Y-88557200D01*
X214404762Y-88557200D02*
X214357143Y-88461961D01*
X214357143Y-88461961D02*
X214357143Y-88081009D01*
X214357143Y-88081009D02*
X214404762Y-87985771D01*
X214404762Y-87985771D02*
X214500000Y-87938152D01*
X214500000Y-87938152D02*
X214690476Y-87938152D01*
X214690476Y-87938152D02*
X214785714Y-87985771D01*
X214785714Y-87985771D02*
X214833333Y-88081009D01*
X214833333Y-88081009D02*
X214833333Y-88176247D01*
X214833333Y-88176247D02*
X214357143Y-88271485D01*
X209238095Y-86654819D02*
X209238095Y-85654819D01*
X209238095Y-86131009D02*
X209809523Y-86131009D01*
X209809523Y-86654819D02*
X209809523Y-85654819D01*
X210238095Y-85750057D02*
X210285714Y-85702438D01*
X210285714Y-85702438D02*
X210380952Y-85654819D01*
X210380952Y-85654819D02*
X210619047Y-85654819D01*
X210619047Y-85654819D02*
X210714285Y-85702438D01*
X210714285Y-85702438D02*
X210761904Y-85750057D01*
X210761904Y-85750057D02*
X210809523Y-85845295D01*
X210809523Y-85845295D02*
X210809523Y-85940533D01*
X210809523Y-85940533D02*
X210761904Y-86083390D01*
X210761904Y-86083390D02*
X210190476Y-86654819D01*
X210190476Y-86654819D02*
X210809523Y-86654819D01*
X118359580Y-110488095D02*
X118407200Y-110535714D01*
X118407200Y-110535714D02*
X118454819Y-110678571D01*
X118454819Y-110678571D02*
X118454819Y-110773809D01*
X118454819Y-110773809D02*
X118407200Y-110916666D01*
X118407200Y-110916666D02*
X118311961Y-111011904D01*
X118311961Y-111011904D02*
X118216723Y-111059523D01*
X118216723Y-111059523D02*
X118026247Y-111107142D01*
X118026247Y-111107142D02*
X117883390Y-111107142D01*
X117883390Y-111107142D02*
X117692914Y-111059523D01*
X117692914Y-111059523D02*
X117597676Y-111011904D01*
X117597676Y-111011904D02*
X117502438Y-110916666D01*
X117502438Y-110916666D02*
X117454819Y-110773809D01*
X117454819Y-110773809D02*
X117454819Y-110678571D01*
X117454819Y-110678571D02*
X117502438Y-110535714D01*
X117502438Y-110535714D02*
X117550057Y-110488095D01*
X118454819Y-109916666D02*
X118407200Y-110011904D01*
X118407200Y-110011904D02*
X118359580Y-110059523D01*
X118359580Y-110059523D02*
X118264342Y-110107142D01*
X118264342Y-110107142D02*
X117978628Y-110107142D01*
X117978628Y-110107142D02*
X117883390Y-110059523D01*
X117883390Y-110059523D02*
X117835771Y-110011904D01*
X117835771Y-110011904D02*
X117788152Y-109916666D01*
X117788152Y-109916666D02*
X117788152Y-109773809D01*
X117788152Y-109773809D02*
X117835771Y-109678571D01*
X117835771Y-109678571D02*
X117883390Y-109630952D01*
X117883390Y-109630952D02*
X117978628Y-109583333D01*
X117978628Y-109583333D02*
X118264342Y-109583333D01*
X118264342Y-109583333D02*
X118359580Y-109630952D01*
X118359580Y-109630952D02*
X118407200Y-109678571D01*
X118407200Y-109678571D02*
X118454819Y-109773809D01*
X118454819Y-109773809D02*
X118454819Y-109916666D01*
X117788152Y-109154761D02*
X118454819Y-109154761D01*
X117883390Y-109154761D02*
X117835771Y-109107142D01*
X117835771Y-109107142D02*
X117788152Y-109011904D01*
X117788152Y-109011904D02*
X117788152Y-108869047D01*
X117788152Y-108869047D02*
X117835771Y-108773809D01*
X117835771Y-108773809D02*
X117931009Y-108726190D01*
X117931009Y-108726190D02*
X118454819Y-108726190D01*
X117788152Y-108249999D02*
X118454819Y-108249999D01*
X117883390Y-108249999D02*
X117835771Y-108202380D01*
X117835771Y-108202380D02*
X117788152Y-108107142D01*
X117788152Y-108107142D02*
X117788152Y-107964285D01*
X117788152Y-107964285D02*
X117835771Y-107869047D01*
X117835771Y-107869047D02*
X117931009Y-107821428D01*
X117931009Y-107821428D02*
X118454819Y-107821428D01*
X118550057Y-107583333D02*
X118550057Y-106821428D01*
X117454819Y-106392856D02*
X117454819Y-106297618D01*
X117454819Y-106297618D02*
X117502438Y-106202380D01*
X117502438Y-106202380D02*
X117550057Y-106154761D01*
X117550057Y-106154761D02*
X117645295Y-106107142D01*
X117645295Y-106107142D02*
X117835771Y-106059523D01*
X117835771Y-106059523D02*
X118073866Y-106059523D01*
X118073866Y-106059523D02*
X118264342Y-106107142D01*
X118264342Y-106107142D02*
X118359580Y-106154761D01*
X118359580Y-106154761D02*
X118407200Y-106202380D01*
X118407200Y-106202380D02*
X118454819Y-106297618D01*
X118454819Y-106297618D02*
X118454819Y-106392856D01*
X118454819Y-106392856D02*
X118407200Y-106488094D01*
X118407200Y-106488094D02*
X118359580Y-106535713D01*
X118359580Y-106535713D02*
X118264342Y-106583332D01*
X118264342Y-106583332D02*
X118073866Y-106630951D01*
X118073866Y-106630951D02*
X117835771Y-106630951D01*
X117835771Y-106630951D02*
X117645295Y-106583332D01*
X117645295Y-106583332D02*
X117550057Y-106535713D01*
X117550057Y-106535713D02*
X117502438Y-106488094D01*
X117502438Y-106488094D02*
X117454819Y-106392856D01*
X118454819Y-105107142D02*
X118454819Y-105678570D01*
X118454819Y-105392856D02*
X117454819Y-105392856D01*
X117454819Y-105392856D02*
X117597676Y-105488094D01*
X117597676Y-105488094D02*
X117692914Y-105583332D01*
X117692914Y-105583332D02*
X117740533Y-105678570D01*
X118454819Y-104773808D02*
X117788152Y-104249999D01*
X117788152Y-104773808D02*
X118454819Y-104249999D01*
X117454819Y-103678570D02*
X117454819Y-103583332D01*
X117454819Y-103583332D02*
X117502438Y-103488094D01*
X117502438Y-103488094D02*
X117550057Y-103440475D01*
X117550057Y-103440475D02*
X117645295Y-103392856D01*
X117645295Y-103392856D02*
X117835771Y-103345237D01*
X117835771Y-103345237D02*
X118073866Y-103345237D01*
X118073866Y-103345237D02*
X118264342Y-103392856D01*
X118264342Y-103392856D02*
X118359580Y-103440475D01*
X118359580Y-103440475D02*
X118407200Y-103488094D01*
X118407200Y-103488094D02*
X118454819Y-103583332D01*
X118454819Y-103583332D02*
X118454819Y-103678570D01*
X118454819Y-103678570D02*
X118407200Y-103773808D01*
X118407200Y-103773808D02*
X118359580Y-103821427D01*
X118359580Y-103821427D02*
X118264342Y-103869046D01*
X118264342Y-103869046D02*
X118073866Y-103916665D01*
X118073866Y-103916665D02*
X117835771Y-103916665D01*
X117835771Y-103916665D02*
X117645295Y-103869046D01*
X117645295Y-103869046D02*
X117550057Y-103821427D01*
X117550057Y-103821427D02*
X117502438Y-103773808D01*
X117502438Y-103773808D02*
X117454819Y-103678570D01*
X117788152Y-102488094D02*
X118454819Y-102488094D01*
X117407200Y-102726189D02*
X118121485Y-102964284D01*
X118121485Y-102964284D02*
X118121485Y-102345237D01*
X114704819Y-107063333D02*
X115419104Y-107063333D01*
X115419104Y-107063333D02*
X115561961Y-107110952D01*
X115561961Y-107110952D02*
X115657200Y-107206190D01*
X115657200Y-107206190D02*
X115704819Y-107349047D01*
X115704819Y-107349047D02*
X115704819Y-107444285D01*
X114704819Y-106110952D02*
X114704819Y-106587142D01*
X114704819Y-106587142D02*
X115181009Y-106634761D01*
X115181009Y-106634761D02*
X115133390Y-106587142D01*
X115133390Y-106587142D02*
X115085771Y-106491904D01*
X115085771Y-106491904D02*
X115085771Y-106253809D01*
X115085771Y-106253809D02*
X115133390Y-106158571D01*
X115133390Y-106158571D02*
X115181009Y-106110952D01*
X115181009Y-106110952D02*
X115276247Y-106063333D01*
X115276247Y-106063333D02*
X115514342Y-106063333D01*
X115514342Y-106063333D02*
X115609580Y-106110952D01*
X115609580Y-106110952D02*
X115657200Y-106158571D01*
X115657200Y-106158571D02*
X115704819Y-106253809D01*
X115704819Y-106253809D02*
X115704819Y-106491904D01*
X115704819Y-106491904D02*
X115657200Y-106587142D01*
X115657200Y-106587142D02*
X115609580Y-106634761D01*
X111114285Y-88604819D02*
X111114285Y-87604819D01*
X111114285Y-87604819D02*
X111447618Y-88319104D01*
X111447618Y-88319104D02*
X111780951Y-87604819D01*
X111780951Y-87604819D02*
X111780951Y-88604819D01*
X112399999Y-88604819D02*
X112304761Y-88557200D01*
X112304761Y-88557200D02*
X112257142Y-88509580D01*
X112257142Y-88509580D02*
X112209523Y-88414342D01*
X112209523Y-88414342D02*
X112209523Y-88128628D01*
X112209523Y-88128628D02*
X112257142Y-88033390D01*
X112257142Y-88033390D02*
X112304761Y-87985771D01*
X112304761Y-87985771D02*
X112399999Y-87938152D01*
X112399999Y-87938152D02*
X112542856Y-87938152D01*
X112542856Y-87938152D02*
X112638094Y-87985771D01*
X112638094Y-87985771D02*
X112685713Y-88033390D01*
X112685713Y-88033390D02*
X112733332Y-88128628D01*
X112733332Y-88128628D02*
X112733332Y-88414342D01*
X112733332Y-88414342D02*
X112685713Y-88509580D01*
X112685713Y-88509580D02*
X112638094Y-88557200D01*
X112638094Y-88557200D02*
X112542856Y-88604819D01*
X112542856Y-88604819D02*
X112399999Y-88604819D01*
X113590475Y-87938152D02*
X113590475Y-88604819D01*
X113161904Y-87938152D02*
X113161904Y-88461961D01*
X113161904Y-88461961D02*
X113209523Y-88557200D01*
X113209523Y-88557200D02*
X113304761Y-88604819D01*
X113304761Y-88604819D02*
X113447618Y-88604819D01*
X113447618Y-88604819D02*
X113542856Y-88557200D01*
X113542856Y-88557200D02*
X113590475Y-88509580D01*
X114066666Y-87938152D02*
X114066666Y-88604819D01*
X114066666Y-88033390D02*
X114114285Y-87985771D01*
X114114285Y-87985771D02*
X114209523Y-87938152D01*
X114209523Y-87938152D02*
X114352380Y-87938152D01*
X114352380Y-87938152D02*
X114447618Y-87985771D01*
X114447618Y-87985771D02*
X114495237Y-88081009D01*
X114495237Y-88081009D02*
X114495237Y-88604819D01*
X114828571Y-87938152D02*
X115209523Y-87938152D01*
X114971428Y-87604819D02*
X114971428Y-88461961D01*
X114971428Y-88461961D02*
X115019047Y-88557200D01*
X115019047Y-88557200D02*
X115114285Y-88604819D01*
X115114285Y-88604819D02*
X115209523Y-88604819D01*
X115542857Y-88604819D02*
X115542857Y-87938152D01*
X115542857Y-87604819D02*
X115495238Y-87652438D01*
X115495238Y-87652438D02*
X115542857Y-87700057D01*
X115542857Y-87700057D02*
X115590476Y-87652438D01*
X115590476Y-87652438D02*
X115542857Y-87604819D01*
X115542857Y-87604819D02*
X115542857Y-87700057D01*
X116019047Y-87938152D02*
X116019047Y-88604819D01*
X116019047Y-88033390D02*
X116066666Y-87985771D01*
X116066666Y-87985771D02*
X116161904Y-87938152D01*
X116161904Y-87938152D02*
X116304761Y-87938152D01*
X116304761Y-87938152D02*
X116399999Y-87985771D01*
X116399999Y-87985771D02*
X116447618Y-88081009D01*
X116447618Y-88081009D02*
X116447618Y-88604819D01*
X117352380Y-87938152D02*
X117352380Y-88747676D01*
X117352380Y-88747676D02*
X117304761Y-88842914D01*
X117304761Y-88842914D02*
X117257142Y-88890533D01*
X117257142Y-88890533D02*
X117161904Y-88938152D01*
X117161904Y-88938152D02*
X117019047Y-88938152D01*
X117019047Y-88938152D02*
X116923809Y-88890533D01*
X117352380Y-88557200D02*
X117257142Y-88604819D01*
X117257142Y-88604819D02*
X117066666Y-88604819D01*
X117066666Y-88604819D02*
X116971428Y-88557200D01*
X116971428Y-88557200D02*
X116923809Y-88509580D01*
X116923809Y-88509580D02*
X116876190Y-88414342D01*
X116876190Y-88414342D02*
X116876190Y-88128628D01*
X116876190Y-88128628D02*
X116923809Y-88033390D01*
X116923809Y-88033390D02*
X116971428Y-87985771D01*
X116971428Y-87985771D02*
X117066666Y-87938152D01*
X117066666Y-87938152D02*
X117257142Y-87938152D01*
X117257142Y-87938152D02*
X117352380Y-87985771D01*
X117828571Y-88604819D02*
X117828571Y-87604819D01*
X117828571Y-88081009D02*
X118399999Y-88081009D01*
X118399999Y-88604819D02*
X118399999Y-87604819D01*
X119019047Y-88604819D02*
X118923809Y-88557200D01*
X118923809Y-88557200D02*
X118876190Y-88509580D01*
X118876190Y-88509580D02*
X118828571Y-88414342D01*
X118828571Y-88414342D02*
X118828571Y-88128628D01*
X118828571Y-88128628D02*
X118876190Y-88033390D01*
X118876190Y-88033390D02*
X118923809Y-87985771D01*
X118923809Y-87985771D02*
X119019047Y-87938152D01*
X119019047Y-87938152D02*
X119161904Y-87938152D01*
X119161904Y-87938152D02*
X119257142Y-87985771D01*
X119257142Y-87985771D02*
X119304761Y-88033390D01*
X119304761Y-88033390D02*
X119352380Y-88128628D01*
X119352380Y-88128628D02*
X119352380Y-88414342D01*
X119352380Y-88414342D02*
X119304761Y-88509580D01*
X119304761Y-88509580D02*
X119257142Y-88557200D01*
X119257142Y-88557200D02*
X119161904Y-88604819D01*
X119161904Y-88604819D02*
X119019047Y-88604819D01*
X119923809Y-88604819D02*
X119828571Y-88557200D01*
X119828571Y-88557200D02*
X119780952Y-88461961D01*
X119780952Y-88461961D02*
X119780952Y-87604819D01*
X120685714Y-88557200D02*
X120590476Y-88604819D01*
X120590476Y-88604819D02*
X120400000Y-88604819D01*
X120400000Y-88604819D02*
X120304762Y-88557200D01*
X120304762Y-88557200D02*
X120257143Y-88461961D01*
X120257143Y-88461961D02*
X120257143Y-88081009D01*
X120257143Y-88081009D02*
X120304762Y-87985771D01*
X120304762Y-87985771D02*
X120400000Y-87938152D01*
X120400000Y-87938152D02*
X120590476Y-87938152D01*
X120590476Y-87938152D02*
X120685714Y-87985771D01*
X120685714Y-87985771D02*
X120733333Y-88081009D01*
X120733333Y-88081009D02*
X120733333Y-88176247D01*
X120733333Y-88176247D02*
X120257143Y-88271485D01*
X115138095Y-84654819D02*
X115138095Y-83654819D01*
X115138095Y-84131009D02*
X115709523Y-84131009D01*
X115709523Y-84654819D02*
X115709523Y-83654819D01*
X116709523Y-84654819D02*
X116138095Y-84654819D01*
X116423809Y-84654819D02*
X116423809Y-83654819D01*
X116423809Y-83654819D02*
X116328571Y-83797676D01*
X116328571Y-83797676D02*
X116233333Y-83892914D01*
X116233333Y-83892914D02*
X116138095Y-83940533D01*
X204654819Y-95842857D02*
X204654819Y-96319047D01*
X204654819Y-96319047D02*
X203654819Y-96319047D01*
X203750057Y-95557142D02*
X203702438Y-95509523D01*
X203702438Y-95509523D02*
X203654819Y-95414285D01*
X203654819Y-95414285D02*
X203654819Y-95176190D01*
X203654819Y-95176190D02*
X203702438Y-95080952D01*
X203702438Y-95080952D02*
X203750057Y-95033333D01*
X203750057Y-95033333D02*
X203845295Y-94985714D01*
X203845295Y-94985714D02*
X203940533Y-94985714D01*
X203940533Y-94985714D02*
X204083390Y-95033333D01*
X204083390Y-95033333D02*
X204654819Y-95604761D01*
X204654819Y-95604761D02*
X204654819Y-94985714D01*
X204654819Y-94509523D02*
X204654819Y-94319047D01*
X204654819Y-94319047D02*
X204607200Y-94223809D01*
X204607200Y-94223809D02*
X204559580Y-94176190D01*
X204559580Y-94176190D02*
X204416723Y-94080952D01*
X204416723Y-94080952D02*
X204226247Y-94033333D01*
X204226247Y-94033333D02*
X203845295Y-94033333D01*
X203845295Y-94033333D02*
X203750057Y-94080952D01*
X203750057Y-94080952D02*
X203702438Y-94128571D01*
X203702438Y-94128571D02*
X203654819Y-94223809D01*
X203654819Y-94223809D02*
X203654819Y-94414285D01*
X203654819Y-94414285D02*
X203702438Y-94509523D01*
X203702438Y-94509523D02*
X203750057Y-94557142D01*
X203750057Y-94557142D02*
X203845295Y-94604761D01*
X203845295Y-94604761D02*
X204083390Y-94604761D01*
X204083390Y-94604761D02*
X204178628Y-94557142D01*
X204178628Y-94557142D02*
X204226247Y-94509523D01*
X204226247Y-94509523D02*
X204273866Y-94414285D01*
X204273866Y-94414285D02*
X204273866Y-94223809D01*
X204273866Y-94223809D02*
X204226247Y-94128571D01*
X204226247Y-94128571D02*
X204178628Y-94080952D01*
X204178628Y-94080952D02*
X204083390Y-94033333D01*
X204083390Y-93461904D02*
X204035771Y-93557142D01*
X204035771Y-93557142D02*
X203988152Y-93604761D01*
X203988152Y-93604761D02*
X203892914Y-93652380D01*
X203892914Y-93652380D02*
X203845295Y-93652380D01*
X203845295Y-93652380D02*
X203750057Y-93604761D01*
X203750057Y-93604761D02*
X203702438Y-93557142D01*
X203702438Y-93557142D02*
X203654819Y-93461904D01*
X203654819Y-93461904D02*
X203654819Y-93271428D01*
X203654819Y-93271428D02*
X203702438Y-93176190D01*
X203702438Y-93176190D02*
X203750057Y-93128571D01*
X203750057Y-93128571D02*
X203845295Y-93080952D01*
X203845295Y-93080952D02*
X203892914Y-93080952D01*
X203892914Y-93080952D02*
X203988152Y-93128571D01*
X203988152Y-93128571D02*
X204035771Y-93176190D01*
X204035771Y-93176190D02*
X204083390Y-93271428D01*
X204083390Y-93271428D02*
X204083390Y-93461904D01*
X204083390Y-93461904D02*
X204131009Y-93557142D01*
X204131009Y-93557142D02*
X204178628Y-93604761D01*
X204178628Y-93604761D02*
X204273866Y-93652380D01*
X204273866Y-93652380D02*
X204464342Y-93652380D01*
X204464342Y-93652380D02*
X204559580Y-93604761D01*
X204559580Y-93604761D02*
X204607200Y-93557142D01*
X204607200Y-93557142D02*
X204654819Y-93461904D01*
X204654819Y-93461904D02*
X204654819Y-93271428D01*
X204654819Y-93271428D02*
X204607200Y-93176190D01*
X204607200Y-93176190D02*
X204559580Y-93128571D01*
X204559580Y-93128571D02*
X204464342Y-93080952D01*
X204464342Y-93080952D02*
X204273866Y-93080952D01*
X204273866Y-93080952D02*
X204178628Y-93128571D01*
X204178628Y-93128571D02*
X204131009Y-93176190D01*
X204131009Y-93176190D02*
X204083390Y-93271428D01*
X204654819Y-92652380D02*
X203654819Y-92652380D01*
X203654819Y-92652380D02*
X204654819Y-92080952D01*
X204654819Y-92080952D02*
X203654819Y-92080952D01*
X202054819Y-124661904D02*
X202864342Y-124661904D01*
X202864342Y-124661904D02*
X202959580Y-124614285D01*
X202959580Y-124614285D02*
X203007200Y-124566666D01*
X203007200Y-124566666D02*
X203054819Y-124471428D01*
X203054819Y-124471428D02*
X203054819Y-124280952D01*
X203054819Y-124280952D02*
X203007200Y-124185714D01*
X203007200Y-124185714D02*
X202959580Y-124138095D01*
X202959580Y-124138095D02*
X202864342Y-124090476D01*
X202864342Y-124090476D02*
X202054819Y-124090476D01*
X203054819Y-123090476D02*
X203054819Y-123661904D01*
X203054819Y-123376190D02*
X202054819Y-123376190D01*
X202054819Y-123376190D02*
X202197676Y-123471428D01*
X202197676Y-123471428D02*
X202292914Y-123566666D01*
X202292914Y-123566666D02*
X202340533Y-123661904D01*
D13*
%TO.C,C1*%
X203687500Y-113411283D02*
X203687500Y-113911283D01*
X203937500Y-113661283D02*
X203437500Y-113661283D01*
X205100000Y-115544888D02*
G75*
G02*
X200100000Y-115544888I-2500000J0D01*
G01*
X200100000Y-115544888D02*
G75*
G02*
X205100000Y-115544888I2500000J0D01*
G01*
%TO.C,J3*%
X190660000Y-83800000D02*
X195700000Y-83800000D01*
X190660000Y-90000000D02*
X190660000Y-83800000D01*
X191326000Y-87600000D02*
X192860000Y-86066000D01*
X191460000Y-87734000D02*
X192994000Y-86200000D01*
X193866000Y-87600000D02*
X195400000Y-86066000D01*
X194000000Y-87734000D02*
X195534000Y-86200000D01*
X195700000Y-83800000D02*
X196200000Y-84300000D01*
X196200000Y-84300000D02*
X190660000Y-84300000D01*
X196200000Y-84300000D02*
X196200000Y-90000000D01*
X196200000Y-89600000D02*
X190660000Y-89600000D01*
X196200000Y-90000000D02*
X190660000Y-90000000D01*
X193260000Y-86900000D02*
G75*
G02*
X191060000Y-86900000I-1100000J0D01*
G01*
X191060000Y-86900000D02*
G75*
G02*
X193260000Y-86900000I1100000J0D01*
G01*
X195800000Y-86900000D02*
G75*
G02*
X193600000Y-86900000I-1100000J0D01*
G01*
X193600000Y-86900000D02*
G75*
G02*
X195800000Y-86900000I1100000J0D01*
G01*
%TO.C,D5*%
X195000000Y-92100000D02*
X195000000Y-95850000D01*
X195000000Y-104800000D02*
X195000000Y-101050000D01*
X196350000Y-96530000D02*
X193650000Y-96530000D01*
X196350000Y-96630000D02*
X193650000Y-96630000D01*
X196350000Y-96730000D02*
X193650000Y-96730000D01*
X196350000Y-95850000D02*
X193650000Y-95850000D01*
X193650000Y-101050000D01*
X196350000Y-101050000D01*
X196350000Y-95850000D01*
%TO.C,D4*%
X198650000Y-89500000D02*
X202400000Y-89500000D01*
X206720000Y-90850000D02*
X206720000Y-88150000D01*
X206820000Y-90850000D02*
X206820000Y-88150000D01*
X206920000Y-90850000D02*
X206920000Y-88150000D01*
X211350000Y-89500000D02*
X207600000Y-89500000D01*
X207600000Y-90850000D02*
X202400000Y-90850000D01*
X202400000Y-88150000D01*
X207600000Y-88150000D01*
X207600000Y-90850000D01*
%TO.C,J6*%
X121190000Y-83730000D02*
X125270000Y-83730000D01*
X121190000Y-131990000D02*
X121190000Y-83730000D01*
X125270000Y-83730000D02*
X126270000Y-84730000D01*
X126270000Y-84730000D02*
X126270000Y-131990000D01*
X126270000Y-131990000D02*
X121190000Y-131990000D01*
%TO.C,J1*%
X206300000Y-112900000D02*
X212500000Y-112900000D01*
X206300000Y-118440000D02*
X206300000Y-112900000D01*
X206700000Y-118440000D02*
X206700000Y-112900000D01*
X208566000Y-113700000D02*
X210100000Y-115234000D01*
X208566000Y-116240000D02*
X210100000Y-117774000D01*
X208700000Y-113566000D02*
X210234000Y-115100000D01*
X208700000Y-116106000D02*
X210234000Y-117640000D01*
X212000000Y-118440000D02*
X206300000Y-118440000D01*
X212000000Y-118440000D02*
X212000000Y-112900000D01*
X212500000Y-112900000D02*
X212500000Y-117940000D01*
X212500000Y-117940000D02*
X212000000Y-118440000D01*
X210500000Y-114400000D02*
G75*
G02*
X208300000Y-114400000I-1100000J0D01*
G01*
X208300000Y-114400000D02*
G75*
G02*
X210500000Y-114400000I1100000J0D01*
G01*
X210500000Y-116940000D02*
G75*
G02*
X208300000Y-116940000I-1100000J0D01*
G01*
X208300000Y-116940000D02*
G75*
G02*
X210500000Y-116940000I1100000J0D01*
G01*
%TO.C,J8*%
X193030000Y-116430000D02*
X194935000Y-116430000D01*
X193030000Y-131670000D02*
X193030000Y-116430000D01*
X194935000Y-116430000D02*
X195570000Y-117065000D01*
X195570000Y-117065000D02*
X195570000Y-131670000D01*
X195570000Y-131670000D02*
X193030000Y-131670000D01*
%TO.C,D1*%
X197869694Y-109495000D02*
X194930306Y-109495000D01*
X197869694Y-109495000D02*
G75*
G02*
X194930306Y-109495000I-1469694J-2500000D01*
G01*
X198900000Y-111995000D02*
G75*
G02*
X193900000Y-111995000I-2500000J0D01*
G01*
X193900000Y-111995000D02*
G75*
G02*
X198900000Y-111995000I2500000J0D01*
G01*
%TO.C,R1*%
X198000000Y-116360000D02*
X198000000Y-117100000D01*
X198000000Y-121440000D02*
X198000000Y-120700000D01*
X197200000Y-120700000D02*
X198800000Y-120700000D01*
X198800000Y-117100000D01*
X197200000Y-117100000D01*
X197200000Y-120700000D01*
%TO.C,D8*%
X197750000Y-102470000D02*
X200450000Y-102470000D01*
X197750000Y-102570000D02*
X200450000Y-102570000D01*
X197750000Y-102670000D02*
X200450000Y-102670000D01*
X199100000Y-94400000D02*
X199100000Y-98150000D01*
X199100000Y-107100000D02*
X199100000Y-103350000D01*
X197750000Y-103350000D02*
X200450000Y-103350000D01*
X200450000Y-98150000D01*
X197750000Y-98150000D01*
X197750000Y-103350000D01*
%TO.C,J7*%
X182190000Y-83730000D02*
X186270000Y-83730000D01*
X182190000Y-131990000D02*
X182190000Y-83730000D01*
X186270000Y-83730000D02*
X187270000Y-84730000D01*
X187270000Y-84730000D02*
X187270000Y-131990000D01*
X187270000Y-131990000D02*
X182190000Y-131990000D01*
%TO.C,C2*%
X208362500Y-123683605D02*
X208862500Y-123683605D01*
X208612500Y-123933605D02*
X208612500Y-123433605D01*
X212200000Y-121800000D02*
G75*
G02*
X207200000Y-121800000I-2500000J0D01*
G01*
X207200000Y-121800000D02*
G75*
G02*
X212200000Y-121800000I2500000J0D01*
G01*
%TO.C,D9*%
X189400000Y-100170000D02*
X192100000Y-100170000D01*
X189400000Y-100270000D02*
X192100000Y-100270000D01*
X189400000Y-100370000D02*
X192100000Y-100370000D01*
X190750000Y-92100000D02*
X190750000Y-95850000D01*
X190750000Y-104800000D02*
X190750000Y-101050000D01*
X189400000Y-101050000D02*
X192100000Y-101050000D01*
X192100000Y-95850000D01*
X189400000Y-95850000D01*
X189400000Y-101050000D01*
%TO.C,J5*%
X113980000Y-101650000D02*
X116520000Y-101650000D01*
X113980000Y-111175000D02*
X113980000Y-101650000D01*
X114615000Y-111810000D02*
X113980000Y-111175000D01*
X116520000Y-101650000D02*
X116520000Y-111810000D01*
X116520000Y-111810000D02*
X114615000Y-111810000D01*
D14*
%TO.C,U2*%
X206972500Y-91700000D02*
X206972500Y-111900000D01*
X206972500Y-111900000D02*
X211972500Y-111900000D01*
X211972500Y-91700000D02*
X206972500Y-91700000D01*
X211972500Y-111900000D02*
X211972500Y-91700000D01*
D15*
X200852500Y-92910000D02*
G75*
G02*
X200652500Y-92910000I-100000J0D01*
G01*
X200652500Y-92910000D02*
G75*
G02*
X200852500Y-92910000I100000J0D01*
G01*
D13*
%TO.C,U1*%
X204800000Y-125750000D02*
X203530000Y-125750000D01*
X204800000Y-122050000D02*
X203530000Y-122050000D01*
X203530000Y-118900000D02*
X203530000Y-128900000D01*
X204800000Y-118900000D02*
X200400000Y-118900000D01*
X200400000Y-128900000D01*
X204800000Y-128900000D01*
X204800000Y-118900000D01*
%TD*%
M02*
