%TF.GenerationSoftware,KiCad,Pcbnew,9.0.6*%
%TF.CreationDate,2026-04-17T19:20:47+02:00*%
%TF.ProjectId,Zavrsni,5a617672-736e-4692-9e6b-696361645f70,rev?*%
%TF.SameCoordinates,Original*%
%TF.FileFunction,AssemblyDrawing,Top*%
%FSLAX46Y46*%
G04 Gerber Fmt 4.6, Leading zero omitted, Abs format (unit mm)*
G04 Created by KiCad (PCBNEW 9.0.6) date 2026-04-17 19:20:47*
%MOMM*%
%LPD*%
G01*
G04 APERTURE LIST*
%ADD10C,0.150000*%
%ADD11C,0.130000*%
%ADD12C,0.120000*%
%ADD13C,0.100000*%
%ADD14C,0.127000*%
%ADD15C,0.200000*%
G04 APERTURE END LIST*
D10*
X117592965Y-80704819D02*
X117592965Y-79704819D01*
X117592965Y-79704819D02*
X117926298Y-80419104D01*
X117926298Y-80419104D02*
X118259631Y-79704819D01*
X118259631Y-79704819D02*
X118259631Y-80704819D01*
X118878679Y-80704819D02*
X118783441Y-80657200D01*
X118783441Y-80657200D02*
X118735822Y-80609580D01*
X118735822Y-80609580D02*
X118688203Y-80514342D01*
X118688203Y-80514342D02*
X118688203Y-80228628D01*
X118688203Y-80228628D02*
X118735822Y-80133390D01*
X118735822Y-80133390D02*
X118783441Y-80085771D01*
X118783441Y-80085771D02*
X118878679Y-80038152D01*
X118878679Y-80038152D02*
X119021536Y-80038152D01*
X119021536Y-80038152D02*
X119116774Y-80085771D01*
X119116774Y-80085771D02*
X119164393Y-80133390D01*
X119164393Y-80133390D02*
X119212012Y-80228628D01*
X119212012Y-80228628D02*
X119212012Y-80514342D01*
X119212012Y-80514342D02*
X119164393Y-80609580D01*
X119164393Y-80609580D02*
X119116774Y-80657200D01*
X119116774Y-80657200D02*
X119021536Y-80704819D01*
X119021536Y-80704819D02*
X118878679Y-80704819D01*
X120069155Y-80038152D02*
X120069155Y-80704819D01*
X119640584Y-80038152D02*
X119640584Y-80561961D01*
X119640584Y-80561961D02*
X119688203Y-80657200D01*
X119688203Y-80657200D02*
X119783441Y-80704819D01*
X119783441Y-80704819D02*
X119926298Y-80704819D01*
X119926298Y-80704819D02*
X120021536Y-80657200D01*
X120021536Y-80657200D02*
X120069155Y-80609580D01*
X120545346Y-80038152D02*
X120545346Y-80704819D01*
X120545346Y-80133390D02*
X120592965Y-80085771D01*
X120592965Y-80085771D02*
X120688203Y-80038152D01*
X120688203Y-80038152D02*
X120831060Y-80038152D01*
X120831060Y-80038152D02*
X120926298Y-80085771D01*
X120926298Y-80085771D02*
X120973917Y-80181009D01*
X120973917Y-80181009D02*
X120973917Y-80704819D01*
X121307251Y-80038152D02*
X121688203Y-80038152D01*
X121450108Y-79704819D02*
X121450108Y-80561961D01*
X121450108Y-80561961D02*
X121497727Y-80657200D01*
X121497727Y-80657200D02*
X121592965Y-80704819D01*
X121592965Y-80704819D02*
X121688203Y-80704819D01*
X122021537Y-80704819D02*
X122021537Y-80038152D01*
X122021537Y-79704819D02*
X121973918Y-79752438D01*
X121973918Y-79752438D02*
X122021537Y-79800057D01*
X122021537Y-79800057D02*
X122069156Y-79752438D01*
X122069156Y-79752438D02*
X122021537Y-79704819D01*
X122021537Y-79704819D02*
X122021537Y-79800057D01*
X122497727Y-80038152D02*
X122497727Y-80704819D01*
X122497727Y-80133390D02*
X122545346Y-80085771D01*
X122545346Y-80085771D02*
X122640584Y-80038152D01*
X122640584Y-80038152D02*
X122783441Y-80038152D01*
X122783441Y-80038152D02*
X122878679Y-80085771D01*
X122878679Y-80085771D02*
X122926298Y-80181009D01*
X122926298Y-80181009D02*
X122926298Y-80704819D01*
X123831060Y-80038152D02*
X123831060Y-80847676D01*
X123831060Y-80847676D02*
X123783441Y-80942914D01*
X123783441Y-80942914D02*
X123735822Y-80990533D01*
X123735822Y-80990533D02*
X123640584Y-81038152D01*
X123640584Y-81038152D02*
X123497727Y-81038152D01*
X123497727Y-81038152D02*
X123402489Y-80990533D01*
X123831060Y-80657200D02*
X123735822Y-80704819D01*
X123735822Y-80704819D02*
X123545346Y-80704819D01*
X123545346Y-80704819D02*
X123450108Y-80657200D01*
X123450108Y-80657200D02*
X123402489Y-80609580D01*
X123402489Y-80609580D02*
X123354870Y-80514342D01*
X123354870Y-80514342D02*
X123354870Y-80228628D01*
X123354870Y-80228628D02*
X123402489Y-80133390D01*
X123402489Y-80133390D02*
X123450108Y-80085771D01*
X123450108Y-80085771D02*
X123545346Y-80038152D01*
X123545346Y-80038152D02*
X123735822Y-80038152D01*
X123735822Y-80038152D02*
X123831060Y-80085771D01*
X124307251Y-80704819D02*
X124307251Y-79704819D01*
X124307251Y-80181009D02*
X124878679Y-80181009D01*
X124878679Y-80704819D02*
X124878679Y-79704819D01*
X125497727Y-80704819D02*
X125402489Y-80657200D01*
X125402489Y-80657200D02*
X125354870Y-80609580D01*
X125354870Y-80609580D02*
X125307251Y-80514342D01*
X125307251Y-80514342D02*
X125307251Y-80228628D01*
X125307251Y-80228628D02*
X125354870Y-80133390D01*
X125354870Y-80133390D02*
X125402489Y-80085771D01*
X125402489Y-80085771D02*
X125497727Y-80038152D01*
X125497727Y-80038152D02*
X125640584Y-80038152D01*
X125640584Y-80038152D02*
X125735822Y-80085771D01*
X125735822Y-80085771D02*
X125783441Y-80133390D01*
X125783441Y-80133390D02*
X125831060Y-80228628D01*
X125831060Y-80228628D02*
X125831060Y-80514342D01*
X125831060Y-80514342D02*
X125783441Y-80609580D01*
X125783441Y-80609580D02*
X125735822Y-80657200D01*
X125735822Y-80657200D02*
X125640584Y-80704819D01*
X125640584Y-80704819D02*
X125497727Y-80704819D01*
X126402489Y-80704819D02*
X126307251Y-80657200D01*
X126307251Y-80657200D02*
X126259632Y-80561961D01*
X126259632Y-80561961D02*
X126259632Y-79704819D01*
X127164394Y-80657200D02*
X127069156Y-80704819D01*
X127069156Y-80704819D02*
X126878680Y-80704819D01*
X126878680Y-80704819D02*
X126783442Y-80657200D01*
X126783442Y-80657200D02*
X126735823Y-80561961D01*
X126735823Y-80561961D02*
X126735823Y-80181009D01*
X126735823Y-80181009D02*
X126783442Y-80085771D01*
X126783442Y-80085771D02*
X126878680Y-80038152D01*
X126878680Y-80038152D02*
X127069156Y-80038152D01*
X127069156Y-80038152D02*
X127164394Y-80085771D01*
X127164394Y-80085771D02*
X127212013Y-80181009D01*
X127212013Y-80181009D02*
X127212013Y-80276247D01*
X127212013Y-80276247D02*
X126735823Y-80371485D01*
D11*
X114579523Y-82150345D02*
X114579523Y-81270345D01*
X114579523Y-81689393D02*
X115082380Y-81689393D01*
X115082380Y-82150345D02*
X115082380Y-81270345D01*
X115962381Y-82150345D02*
X115459524Y-82150345D01*
X115710952Y-82150345D02*
X115710952Y-81270345D01*
X115710952Y-81270345D02*
X115627143Y-81396060D01*
X115627143Y-81396060D02*
X115543333Y-81479869D01*
X115543333Y-81479869D02*
X115459524Y-81521774D01*
D10*
X200954819Y-129892857D02*
X200954819Y-130369047D01*
X200954819Y-130369047D02*
X199954819Y-130369047D01*
X200431009Y-129559523D02*
X200431009Y-129226190D01*
X200954819Y-129083333D02*
X200954819Y-129559523D01*
X200954819Y-129559523D02*
X199954819Y-129559523D01*
X199954819Y-129559523D02*
X199954819Y-129083333D01*
X200954819Y-128654761D02*
X199954819Y-128654761D01*
X199954819Y-128654761D02*
X199954819Y-128416666D01*
X199954819Y-128416666D02*
X200002438Y-128273809D01*
X200002438Y-128273809D02*
X200097676Y-128178571D01*
X200097676Y-128178571D02*
X200192914Y-128130952D01*
X200192914Y-128130952D02*
X200383390Y-128083333D01*
X200383390Y-128083333D02*
X200526247Y-128083333D01*
X200526247Y-128083333D02*
X200716723Y-128130952D01*
X200716723Y-128130952D02*
X200811961Y-128178571D01*
X200811961Y-128178571D02*
X200907200Y-128273809D01*
X200907200Y-128273809D02*
X200954819Y-128416666D01*
X200954819Y-128416666D02*
X200954819Y-128654761D01*
D12*
X196863855Y-129820475D02*
X196063855Y-129820475D01*
X196063855Y-129820475D02*
X196063855Y-129629999D01*
X196063855Y-129629999D02*
X196101950Y-129515713D01*
X196101950Y-129515713D02*
X196178140Y-129439523D01*
X196178140Y-129439523D02*
X196254331Y-129401428D01*
X196254331Y-129401428D02*
X196406712Y-129363332D01*
X196406712Y-129363332D02*
X196520998Y-129363332D01*
X196520998Y-129363332D02*
X196673379Y-129401428D01*
X196673379Y-129401428D02*
X196749569Y-129439523D01*
X196749569Y-129439523D02*
X196825760Y-129515713D01*
X196825760Y-129515713D02*
X196863855Y-129629999D01*
X196863855Y-129629999D02*
X196863855Y-129820475D01*
X196863855Y-128601428D02*
X196863855Y-129058571D01*
X196863855Y-128829999D02*
X196063855Y-128829999D01*
X196063855Y-128829999D02*
X196178140Y-128906190D01*
X196178140Y-128906190D02*
X196254331Y-128982380D01*
X196254331Y-128982380D02*
X196292426Y-129058571D01*
D10*
X118954819Y-129035714D02*
X117954819Y-129035714D01*
X117954819Y-129035714D02*
X118669104Y-128702381D01*
X118669104Y-128702381D02*
X117954819Y-128369048D01*
X117954819Y-128369048D02*
X118954819Y-128369048D01*
X118954819Y-127750000D02*
X118907200Y-127845238D01*
X118907200Y-127845238D02*
X118859580Y-127892857D01*
X118859580Y-127892857D02*
X118764342Y-127940476D01*
X118764342Y-127940476D02*
X118478628Y-127940476D01*
X118478628Y-127940476D02*
X118383390Y-127892857D01*
X118383390Y-127892857D02*
X118335771Y-127845238D01*
X118335771Y-127845238D02*
X118288152Y-127750000D01*
X118288152Y-127750000D02*
X118288152Y-127607143D01*
X118288152Y-127607143D02*
X118335771Y-127511905D01*
X118335771Y-127511905D02*
X118383390Y-127464286D01*
X118383390Y-127464286D02*
X118478628Y-127416667D01*
X118478628Y-127416667D02*
X118764342Y-127416667D01*
X118764342Y-127416667D02*
X118859580Y-127464286D01*
X118859580Y-127464286D02*
X118907200Y-127511905D01*
X118907200Y-127511905D02*
X118954819Y-127607143D01*
X118954819Y-127607143D02*
X118954819Y-127750000D01*
X118288152Y-126559524D02*
X118954819Y-126559524D01*
X118288152Y-126988095D02*
X118811961Y-126988095D01*
X118811961Y-126988095D02*
X118907200Y-126940476D01*
X118907200Y-126940476D02*
X118954819Y-126845238D01*
X118954819Y-126845238D02*
X118954819Y-126702381D01*
X118954819Y-126702381D02*
X118907200Y-126607143D01*
X118907200Y-126607143D02*
X118859580Y-126559524D01*
X118288152Y-126083333D02*
X118954819Y-126083333D01*
X118383390Y-126083333D02*
X118335771Y-126035714D01*
X118335771Y-126035714D02*
X118288152Y-125940476D01*
X118288152Y-125940476D02*
X118288152Y-125797619D01*
X118288152Y-125797619D02*
X118335771Y-125702381D01*
X118335771Y-125702381D02*
X118431009Y-125654762D01*
X118431009Y-125654762D02*
X118954819Y-125654762D01*
X118288152Y-125321428D02*
X118288152Y-124940476D01*
X117954819Y-125178571D02*
X118811961Y-125178571D01*
X118811961Y-125178571D02*
X118907200Y-125130952D01*
X118907200Y-125130952D02*
X118954819Y-125035714D01*
X118954819Y-125035714D02*
X118954819Y-124940476D01*
X118954819Y-124607142D02*
X118288152Y-124607142D01*
X117954819Y-124607142D02*
X118002438Y-124654761D01*
X118002438Y-124654761D02*
X118050057Y-124607142D01*
X118050057Y-124607142D02*
X118002438Y-124559523D01*
X118002438Y-124559523D02*
X117954819Y-124607142D01*
X117954819Y-124607142D02*
X118050057Y-124607142D01*
X118288152Y-124130952D02*
X118954819Y-124130952D01*
X118383390Y-124130952D02*
X118335771Y-124083333D01*
X118335771Y-124083333D02*
X118288152Y-123988095D01*
X118288152Y-123988095D02*
X118288152Y-123845238D01*
X118288152Y-123845238D02*
X118335771Y-123750000D01*
X118335771Y-123750000D02*
X118431009Y-123702381D01*
X118431009Y-123702381D02*
X118954819Y-123702381D01*
X118288152Y-122797619D02*
X119097676Y-122797619D01*
X119097676Y-122797619D02*
X119192914Y-122845238D01*
X119192914Y-122845238D02*
X119240533Y-122892857D01*
X119240533Y-122892857D02*
X119288152Y-122988095D01*
X119288152Y-122988095D02*
X119288152Y-123130952D01*
X119288152Y-123130952D02*
X119240533Y-123226190D01*
X118907200Y-122797619D02*
X118954819Y-122892857D01*
X118954819Y-122892857D02*
X118954819Y-123083333D01*
X118954819Y-123083333D02*
X118907200Y-123178571D01*
X118907200Y-123178571D02*
X118859580Y-123226190D01*
X118859580Y-123226190D02*
X118764342Y-123273809D01*
X118764342Y-123273809D02*
X118478628Y-123273809D01*
X118478628Y-123273809D02*
X118383390Y-123226190D01*
X118383390Y-123226190D02*
X118335771Y-123178571D01*
X118335771Y-123178571D02*
X118288152Y-123083333D01*
X118288152Y-123083333D02*
X118288152Y-122892857D01*
X118288152Y-122892857D02*
X118335771Y-122797619D01*
X118954819Y-122321428D02*
X117954819Y-122321428D01*
X118431009Y-122321428D02*
X118431009Y-121750000D01*
X118954819Y-121750000D02*
X117954819Y-121750000D01*
X118954819Y-121130952D02*
X118907200Y-121226190D01*
X118907200Y-121226190D02*
X118859580Y-121273809D01*
X118859580Y-121273809D02*
X118764342Y-121321428D01*
X118764342Y-121321428D02*
X118478628Y-121321428D01*
X118478628Y-121321428D02*
X118383390Y-121273809D01*
X118383390Y-121273809D02*
X118335771Y-121226190D01*
X118335771Y-121226190D02*
X118288152Y-121130952D01*
X118288152Y-121130952D02*
X118288152Y-120988095D01*
X118288152Y-120988095D02*
X118335771Y-120892857D01*
X118335771Y-120892857D02*
X118383390Y-120845238D01*
X118383390Y-120845238D02*
X118478628Y-120797619D01*
X118478628Y-120797619D02*
X118764342Y-120797619D01*
X118764342Y-120797619D02*
X118859580Y-120845238D01*
X118859580Y-120845238D02*
X118907200Y-120892857D01*
X118907200Y-120892857D02*
X118954819Y-120988095D01*
X118954819Y-120988095D02*
X118954819Y-121130952D01*
X118954819Y-120226190D02*
X118907200Y-120321428D01*
X118907200Y-120321428D02*
X118811961Y-120369047D01*
X118811961Y-120369047D02*
X117954819Y-120369047D01*
X118907200Y-119464285D02*
X118954819Y-119559523D01*
X118954819Y-119559523D02*
X118954819Y-119749999D01*
X118954819Y-119749999D02*
X118907200Y-119845237D01*
X118907200Y-119845237D02*
X118811961Y-119892856D01*
X118811961Y-119892856D02*
X118431009Y-119892856D01*
X118431009Y-119892856D02*
X118335771Y-119845237D01*
X118335771Y-119845237D02*
X118288152Y-119749999D01*
X118288152Y-119749999D02*
X118288152Y-119559523D01*
X118288152Y-119559523D02*
X118335771Y-119464285D01*
X118335771Y-119464285D02*
X118431009Y-119416666D01*
X118431009Y-119416666D02*
X118526247Y-119416666D01*
X118526247Y-119416666D02*
X118621485Y-119892856D01*
D11*
X114579523Y-130650345D02*
X114579523Y-129770345D01*
X114579523Y-130189393D02*
X115082380Y-130189393D01*
X115082380Y-130650345D02*
X115082380Y-129770345D01*
X115417619Y-129770345D02*
X115962381Y-129770345D01*
X115962381Y-129770345D02*
X115669047Y-130105583D01*
X115669047Y-130105583D02*
X115794762Y-130105583D01*
X115794762Y-130105583D02*
X115878571Y-130147488D01*
X115878571Y-130147488D02*
X115920476Y-130189393D01*
X115920476Y-130189393D02*
X115962381Y-130273202D01*
X115962381Y-130273202D02*
X115962381Y-130482726D01*
X115962381Y-130482726D02*
X115920476Y-130566536D01*
X115920476Y-130566536D02*
X115878571Y-130608441D01*
X115878571Y-130608441D02*
X115794762Y-130650345D01*
X115794762Y-130650345D02*
X115543333Y-130650345D01*
X115543333Y-130650345D02*
X115459524Y-130608441D01*
X115459524Y-130608441D02*
X115417619Y-130566536D01*
D10*
X118359580Y-110488095D02*
X118407200Y-110535714D01*
X118407200Y-110535714D02*
X118454819Y-110678571D01*
X118454819Y-110678571D02*
X118454819Y-110773809D01*
X118454819Y-110773809D02*
X118407200Y-110916666D01*
X118407200Y-110916666D02*
X118311961Y-111011904D01*
X118311961Y-111011904D02*
X118216723Y-111059523D01*
X118216723Y-111059523D02*
X118026247Y-111107142D01*
X118026247Y-111107142D02*
X117883390Y-111107142D01*
X117883390Y-111107142D02*
X117692914Y-111059523D01*
X117692914Y-111059523D02*
X117597676Y-111011904D01*
X117597676Y-111011904D02*
X117502438Y-110916666D01*
X117502438Y-110916666D02*
X117454819Y-110773809D01*
X117454819Y-110773809D02*
X117454819Y-110678571D01*
X117454819Y-110678571D02*
X117502438Y-110535714D01*
X117502438Y-110535714D02*
X117550057Y-110488095D01*
X118454819Y-109916666D02*
X118407200Y-110011904D01*
X118407200Y-110011904D02*
X118359580Y-110059523D01*
X118359580Y-110059523D02*
X118264342Y-110107142D01*
X118264342Y-110107142D02*
X117978628Y-110107142D01*
X117978628Y-110107142D02*
X117883390Y-110059523D01*
X117883390Y-110059523D02*
X117835771Y-110011904D01*
X117835771Y-110011904D02*
X117788152Y-109916666D01*
X117788152Y-109916666D02*
X117788152Y-109773809D01*
X117788152Y-109773809D02*
X117835771Y-109678571D01*
X117835771Y-109678571D02*
X117883390Y-109630952D01*
X117883390Y-109630952D02*
X117978628Y-109583333D01*
X117978628Y-109583333D02*
X118264342Y-109583333D01*
X118264342Y-109583333D02*
X118359580Y-109630952D01*
X118359580Y-109630952D02*
X118407200Y-109678571D01*
X118407200Y-109678571D02*
X118454819Y-109773809D01*
X118454819Y-109773809D02*
X118454819Y-109916666D01*
X117788152Y-109154761D02*
X118454819Y-109154761D01*
X117883390Y-109154761D02*
X117835771Y-109107142D01*
X117835771Y-109107142D02*
X117788152Y-109011904D01*
X117788152Y-109011904D02*
X117788152Y-108869047D01*
X117788152Y-108869047D02*
X117835771Y-108773809D01*
X117835771Y-108773809D02*
X117931009Y-108726190D01*
X117931009Y-108726190D02*
X118454819Y-108726190D01*
X117788152Y-108249999D02*
X118454819Y-108249999D01*
X117883390Y-108249999D02*
X117835771Y-108202380D01*
X117835771Y-108202380D02*
X117788152Y-108107142D01*
X117788152Y-108107142D02*
X117788152Y-107964285D01*
X117788152Y-107964285D02*
X117835771Y-107869047D01*
X117835771Y-107869047D02*
X117931009Y-107821428D01*
X117931009Y-107821428D02*
X118454819Y-107821428D01*
X118550057Y-107583333D02*
X118550057Y-106821428D01*
X117454819Y-106392856D02*
X117454819Y-106297618D01*
X117454819Y-106297618D02*
X117502438Y-106202380D01*
X117502438Y-106202380D02*
X117550057Y-106154761D01*
X117550057Y-106154761D02*
X117645295Y-106107142D01*
X117645295Y-106107142D02*
X117835771Y-106059523D01*
X117835771Y-106059523D02*
X118073866Y-106059523D01*
X118073866Y-106059523D02*
X118264342Y-106107142D01*
X118264342Y-106107142D02*
X118359580Y-106154761D01*
X118359580Y-106154761D02*
X118407200Y-106202380D01*
X118407200Y-106202380D02*
X118454819Y-106297618D01*
X118454819Y-106297618D02*
X118454819Y-106392856D01*
X118454819Y-106392856D02*
X118407200Y-106488094D01*
X118407200Y-106488094D02*
X118359580Y-106535713D01*
X118359580Y-106535713D02*
X118264342Y-106583332D01*
X118264342Y-106583332D02*
X118073866Y-106630951D01*
X118073866Y-106630951D02*
X117835771Y-106630951D01*
X117835771Y-106630951D02*
X117645295Y-106583332D01*
X117645295Y-106583332D02*
X117550057Y-106535713D01*
X117550057Y-106535713D02*
X117502438Y-106488094D01*
X117502438Y-106488094D02*
X117454819Y-106392856D01*
X118454819Y-105107142D02*
X118454819Y-105678570D01*
X118454819Y-105392856D02*
X117454819Y-105392856D01*
X117454819Y-105392856D02*
X117597676Y-105488094D01*
X117597676Y-105488094D02*
X117692914Y-105583332D01*
X117692914Y-105583332D02*
X117740533Y-105678570D01*
X118454819Y-104773808D02*
X117788152Y-104249999D01*
X117788152Y-104773808D02*
X118454819Y-104249999D01*
X117454819Y-103678570D02*
X117454819Y-103583332D01*
X117454819Y-103583332D02*
X117502438Y-103488094D01*
X117502438Y-103488094D02*
X117550057Y-103440475D01*
X117550057Y-103440475D02*
X117645295Y-103392856D01*
X117645295Y-103392856D02*
X117835771Y-103345237D01*
X117835771Y-103345237D02*
X118073866Y-103345237D01*
X118073866Y-103345237D02*
X118264342Y-103392856D01*
X118264342Y-103392856D02*
X118359580Y-103440475D01*
X118359580Y-103440475D02*
X118407200Y-103488094D01*
X118407200Y-103488094D02*
X118454819Y-103583332D01*
X118454819Y-103583332D02*
X118454819Y-103678570D01*
X118454819Y-103678570D02*
X118407200Y-103773808D01*
X118407200Y-103773808D02*
X118359580Y-103821427D01*
X118359580Y-103821427D02*
X118264342Y-103869046D01*
X118264342Y-103869046D02*
X118073866Y-103916665D01*
X118073866Y-103916665D02*
X117835771Y-103916665D01*
X117835771Y-103916665D02*
X117645295Y-103869046D01*
X117645295Y-103869046D02*
X117550057Y-103821427D01*
X117550057Y-103821427D02*
X117502438Y-103773808D01*
X117502438Y-103773808D02*
X117454819Y-103678570D01*
X117788152Y-102488094D02*
X118454819Y-102488094D01*
X117407200Y-102726189D02*
X118121485Y-102964284D01*
X118121485Y-102964284D02*
X118121485Y-102345237D01*
X114704819Y-107063333D02*
X115419104Y-107063333D01*
X115419104Y-107063333D02*
X115561961Y-107110952D01*
X115561961Y-107110952D02*
X115657200Y-107206190D01*
X115657200Y-107206190D02*
X115704819Y-107349047D01*
X115704819Y-107349047D02*
X115704819Y-107444285D01*
X114704819Y-106110952D02*
X114704819Y-106587142D01*
X114704819Y-106587142D02*
X115181009Y-106634761D01*
X115181009Y-106634761D02*
X115133390Y-106587142D01*
X115133390Y-106587142D02*
X115085771Y-106491904D01*
X115085771Y-106491904D02*
X115085771Y-106253809D01*
X115085771Y-106253809D02*
X115133390Y-106158571D01*
X115133390Y-106158571D02*
X115181009Y-106110952D01*
X115181009Y-106110952D02*
X115276247Y-106063333D01*
X115276247Y-106063333D02*
X115514342Y-106063333D01*
X115514342Y-106063333D02*
X115609580Y-106110952D01*
X115609580Y-106110952D02*
X115657200Y-106158571D01*
X115657200Y-106158571D02*
X115704819Y-106253809D01*
X115704819Y-106253809D02*
X115704819Y-106491904D01*
X115704819Y-106491904D02*
X115657200Y-106587142D01*
X115657200Y-106587142D02*
X115609580Y-106634761D01*
X198214285Y-80704819D02*
X198214285Y-79704819D01*
X198214285Y-79704819D02*
X198547618Y-80419104D01*
X198547618Y-80419104D02*
X198880951Y-79704819D01*
X198880951Y-79704819D02*
X198880951Y-80704819D01*
X199499999Y-80704819D02*
X199404761Y-80657200D01*
X199404761Y-80657200D02*
X199357142Y-80609580D01*
X199357142Y-80609580D02*
X199309523Y-80514342D01*
X199309523Y-80514342D02*
X199309523Y-80228628D01*
X199309523Y-80228628D02*
X199357142Y-80133390D01*
X199357142Y-80133390D02*
X199404761Y-80085771D01*
X199404761Y-80085771D02*
X199499999Y-80038152D01*
X199499999Y-80038152D02*
X199642856Y-80038152D01*
X199642856Y-80038152D02*
X199738094Y-80085771D01*
X199738094Y-80085771D02*
X199785713Y-80133390D01*
X199785713Y-80133390D02*
X199833332Y-80228628D01*
X199833332Y-80228628D02*
X199833332Y-80514342D01*
X199833332Y-80514342D02*
X199785713Y-80609580D01*
X199785713Y-80609580D02*
X199738094Y-80657200D01*
X199738094Y-80657200D02*
X199642856Y-80704819D01*
X199642856Y-80704819D02*
X199499999Y-80704819D01*
X200690475Y-80038152D02*
X200690475Y-80704819D01*
X200261904Y-80038152D02*
X200261904Y-80561961D01*
X200261904Y-80561961D02*
X200309523Y-80657200D01*
X200309523Y-80657200D02*
X200404761Y-80704819D01*
X200404761Y-80704819D02*
X200547618Y-80704819D01*
X200547618Y-80704819D02*
X200642856Y-80657200D01*
X200642856Y-80657200D02*
X200690475Y-80609580D01*
X201166666Y-80038152D02*
X201166666Y-80704819D01*
X201166666Y-80133390D02*
X201214285Y-80085771D01*
X201214285Y-80085771D02*
X201309523Y-80038152D01*
X201309523Y-80038152D02*
X201452380Y-80038152D01*
X201452380Y-80038152D02*
X201547618Y-80085771D01*
X201547618Y-80085771D02*
X201595237Y-80181009D01*
X201595237Y-80181009D02*
X201595237Y-80704819D01*
X201928571Y-80038152D02*
X202309523Y-80038152D01*
X202071428Y-79704819D02*
X202071428Y-80561961D01*
X202071428Y-80561961D02*
X202119047Y-80657200D01*
X202119047Y-80657200D02*
X202214285Y-80704819D01*
X202214285Y-80704819D02*
X202309523Y-80704819D01*
X202642857Y-80704819D02*
X202642857Y-80038152D01*
X202642857Y-79704819D02*
X202595238Y-79752438D01*
X202595238Y-79752438D02*
X202642857Y-79800057D01*
X202642857Y-79800057D02*
X202690476Y-79752438D01*
X202690476Y-79752438D02*
X202642857Y-79704819D01*
X202642857Y-79704819D02*
X202642857Y-79800057D01*
X203119047Y-80038152D02*
X203119047Y-80704819D01*
X203119047Y-80133390D02*
X203166666Y-80085771D01*
X203166666Y-80085771D02*
X203261904Y-80038152D01*
X203261904Y-80038152D02*
X203404761Y-80038152D01*
X203404761Y-80038152D02*
X203499999Y-80085771D01*
X203499999Y-80085771D02*
X203547618Y-80181009D01*
X203547618Y-80181009D02*
X203547618Y-80704819D01*
X204452380Y-80038152D02*
X204452380Y-80847676D01*
X204452380Y-80847676D02*
X204404761Y-80942914D01*
X204404761Y-80942914D02*
X204357142Y-80990533D01*
X204357142Y-80990533D02*
X204261904Y-81038152D01*
X204261904Y-81038152D02*
X204119047Y-81038152D01*
X204119047Y-81038152D02*
X204023809Y-80990533D01*
X204452380Y-80657200D02*
X204357142Y-80704819D01*
X204357142Y-80704819D02*
X204166666Y-80704819D01*
X204166666Y-80704819D02*
X204071428Y-80657200D01*
X204071428Y-80657200D02*
X204023809Y-80609580D01*
X204023809Y-80609580D02*
X203976190Y-80514342D01*
X203976190Y-80514342D02*
X203976190Y-80228628D01*
X203976190Y-80228628D02*
X204023809Y-80133390D01*
X204023809Y-80133390D02*
X204071428Y-80085771D01*
X204071428Y-80085771D02*
X204166666Y-80038152D01*
X204166666Y-80038152D02*
X204357142Y-80038152D01*
X204357142Y-80038152D02*
X204452380Y-80085771D01*
X204928571Y-80704819D02*
X204928571Y-79704819D01*
X204928571Y-80181009D02*
X205499999Y-80181009D01*
X205499999Y-80704819D02*
X205499999Y-79704819D01*
X206119047Y-80704819D02*
X206023809Y-80657200D01*
X206023809Y-80657200D02*
X205976190Y-80609580D01*
X205976190Y-80609580D02*
X205928571Y-80514342D01*
X205928571Y-80514342D02*
X205928571Y-80228628D01*
X205928571Y-80228628D02*
X205976190Y-80133390D01*
X205976190Y-80133390D02*
X206023809Y-80085771D01*
X206023809Y-80085771D02*
X206119047Y-80038152D01*
X206119047Y-80038152D02*
X206261904Y-80038152D01*
X206261904Y-80038152D02*
X206357142Y-80085771D01*
X206357142Y-80085771D02*
X206404761Y-80133390D01*
X206404761Y-80133390D02*
X206452380Y-80228628D01*
X206452380Y-80228628D02*
X206452380Y-80514342D01*
X206452380Y-80514342D02*
X206404761Y-80609580D01*
X206404761Y-80609580D02*
X206357142Y-80657200D01*
X206357142Y-80657200D02*
X206261904Y-80704819D01*
X206261904Y-80704819D02*
X206119047Y-80704819D01*
X207023809Y-80704819D02*
X206928571Y-80657200D01*
X206928571Y-80657200D02*
X206880952Y-80561961D01*
X206880952Y-80561961D02*
X206880952Y-79704819D01*
X207785714Y-80657200D02*
X207690476Y-80704819D01*
X207690476Y-80704819D02*
X207500000Y-80704819D01*
X207500000Y-80704819D02*
X207404762Y-80657200D01*
X207404762Y-80657200D02*
X207357143Y-80561961D01*
X207357143Y-80561961D02*
X207357143Y-80181009D01*
X207357143Y-80181009D02*
X207404762Y-80085771D01*
X207404762Y-80085771D02*
X207500000Y-80038152D01*
X207500000Y-80038152D02*
X207690476Y-80038152D01*
X207690476Y-80038152D02*
X207785714Y-80085771D01*
X207785714Y-80085771D02*
X207833333Y-80181009D01*
X207833333Y-80181009D02*
X207833333Y-80276247D01*
X207833333Y-80276247D02*
X207357143Y-80371485D01*
D11*
X210079523Y-82150345D02*
X210079523Y-81270345D01*
X210079523Y-81689393D02*
X210582380Y-81689393D01*
X210582380Y-82150345D02*
X210582380Y-81270345D01*
X210959524Y-81354155D02*
X211001428Y-81312250D01*
X211001428Y-81312250D02*
X211085238Y-81270345D01*
X211085238Y-81270345D02*
X211294762Y-81270345D01*
X211294762Y-81270345D02*
X211378571Y-81312250D01*
X211378571Y-81312250D02*
X211420476Y-81354155D01*
X211420476Y-81354155D02*
X211462381Y-81437964D01*
X211462381Y-81437964D02*
X211462381Y-81521774D01*
X211462381Y-81521774D02*
X211420476Y-81647488D01*
X211420476Y-81647488D02*
X210917619Y-82150345D01*
X210917619Y-82150345D02*
X211462381Y-82150345D01*
D10*
X202964285Y-127704819D02*
X202964285Y-126704819D01*
X202964285Y-126704819D02*
X203297618Y-127419104D01*
X203297618Y-127419104D02*
X203630951Y-126704819D01*
X203630951Y-126704819D02*
X203630951Y-127704819D01*
X204249999Y-127704819D02*
X204154761Y-127657200D01*
X204154761Y-127657200D02*
X204107142Y-127609580D01*
X204107142Y-127609580D02*
X204059523Y-127514342D01*
X204059523Y-127514342D02*
X204059523Y-127228628D01*
X204059523Y-127228628D02*
X204107142Y-127133390D01*
X204107142Y-127133390D02*
X204154761Y-127085771D01*
X204154761Y-127085771D02*
X204249999Y-127038152D01*
X204249999Y-127038152D02*
X204392856Y-127038152D01*
X204392856Y-127038152D02*
X204488094Y-127085771D01*
X204488094Y-127085771D02*
X204535713Y-127133390D01*
X204535713Y-127133390D02*
X204583332Y-127228628D01*
X204583332Y-127228628D02*
X204583332Y-127514342D01*
X204583332Y-127514342D02*
X204535713Y-127609580D01*
X204535713Y-127609580D02*
X204488094Y-127657200D01*
X204488094Y-127657200D02*
X204392856Y-127704819D01*
X204392856Y-127704819D02*
X204249999Y-127704819D01*
X205440475Y-127038152D02*
X205440475Y-127704819D01*
X205011904Y-127038152D02*
X205011904Y-127561961D01*
X205011904Y-127561961D02*
X205059523Y-127657200D01*
X205059523Y-127657200D02*
X205154761Y-127704819D01*
X205154761Y-127704819D02*
X205297618Y-127704819D01*
X205297618Y-127704819D02*
X205392856Y-127657200D01*
X205392856Y-127657200D02*
X205440475Y-127609580D01*
X205916666Y-127038152D02*
X205916666Y-127704819D01*
X205916666Y-127133390D02*
X205964285Y-127085771D01*
X205964285Y-127085771D02*
X206059523Y-127038152D01*
X206059523Y-127038152D02*
X206202380Y-127038152D01*
X206202380Y-127038152D02*
X206297618Y-127085771D01*
X206297618Y-127085771D02*
X206345237Y-127181009D01*
X206345237Y-127181009D02*
X206345237Y-127704819D01*
X206678571Y-127038152D02*
X207059523Y-127038152D01*
X206821428Y-126704819D02*
X206821428Y-127561961D01*
X206821428Y-127561961D02*
X206869047Y-127657200D01*
X206869047Y-127657200D02*
X206964285Y-127704819D01*
X206964285Y-127704819D02*
X207059523Y-127704819D01*
X207392857Y-127704819D02*
X207392857Y-127038152D01*
X207392857Y-126704819D02*
X207345238Y-126752438D01*
X207345238Y-126752438D02*
X207392857Y-126800057D01*
X207392857Y-126800057D02*
X207440476Y-126752438D01*
X207440476Y-126752438D02*
X207392857Y-126704819D01*
X207392857Y-126704819D02*
X207392857Y-126800057D01*
X207869047Y-127038152D02*
X207869047Y-127704819D01*
X207869047Y-127133390D02*
X207916666Y-127085771D01*
X207916666Y-127085771D02*
X208011904Y-127038152D01*
X208011904Y-127038152D02*
X208154761Y-127038152D01*
X208154761Y-127038152D02*
X208249999Y-127085771D01*
X208249999Y-127085771D02*
X208297618Y-127181009D01*
X208297618Y-127181009D02*
X208297618Y-127704819D01*
X209202380Y-127038152D02*
X209202380Y-127847676D01*
X209202380Y-127847676D02*
X209154761Y-127942914D01*
X209154761Y-127942914D02*
X209107142Y-127990533D01*
X209107142Y-127990533D02*
X209011904Y-128038152D01*
X209011904Y-128038152D02*
X208869047Y-128038152D01*
X208869047Y-128038152D02*
X208773809Y-127990533D01*
X209202380Y-127657200D02*
X209107142Y-127704819D01*
X209107142Y-127704819D02*
X208916666Y-127704819D01*
X208916666Y-127704819D02*
X208821428Y-127657200D01*
X208821428Y-127657200D02*
X208773809Y-127609580D01*
X208773809Y-127609580D02*
X208726190Y-127514342D01*
X208726190Y-127514342D02*
X208726190Y-127228628D01*
X208726190Y-127228628D02*
X208773809Y-127133390D01*
X208773809Y-127133390D02*
X208821428Y-127085771D01*
X208821428Y-127085771D02*
X208916666Y-127038152D01*
X208916666Y-127038152D02*
X209107142Y-127038152D01*
X209107142Y-127038152D02*
X209202380Y-127085771D01*
X209678571Y-127704819D02*
X209678571Y-126704819D01*
X209678571Y-127181009D02*
X210249999Y-127181009D01*
X210249999Y-127704819D02*
X210249999Y-126704819D01*
X210869047Y-127704819D02*
X210773809Y-127657200D01*
X210773809Y-127657200D02*
X210726190Y-127609580D01*
X210726190Y-127609580D02*
X210678571Y-127514342D01*
X210678571Y-127514342D02*
X210678571Y-127228628D01*
X210678571Y-127228628D02*
X210726190Y-127133390D01*
X210726190Y-127133390D02*
X210773809Y-127085771D01*
X210773809Y-127085771D02*
X210869047Y-127038152D01*
X210869047Y-127038152D02*
X211011904Y-127038152D01*
X211011904Y-127038152D02*
X211107142Y-127085771D01*
X211107142Y-127085771D02*
X211154761Y-127133390D01*
X211154761Y-127133390D02*
X211202380Y-127228628D01*
X211202380Y-127228628D02*
X211202380Y-127514342D01*
X211202380Y-127514342D02*
X211154761Y-127609580D01*
X211154761Y-127609580D02*
X211107142Y-127657200D01*
X211107142Y-127657200D02*
X211011904Y-127704819D01*
X211011904Y-127704819D02*
X210869047Y-127704819D01*
X211773809Y-127704819D02*
X211678571Y-127657200D01*
X211678571Y-127657200D02*
X211630952Y-127561961D01*
X211630952Y-127561961D02*
X211630952Y-126704819D01*
X212535714Y-127657200D02*
X212440476Y-127704819D01*
X212440476Y-127704819D02*
X212250000Y-127704819D01*
X212250000Y-127704819D02*
X212154762Y-127657200D01*
X212154762Y-127657200D02*
X212107143Y-127561961D01*
X212107143Y-127561961D02*
X212107143Y-127181009D01*
X212107143Y-127181009D02*
X212154762Y-127085771D01*
X212154762Y-127085771D02*
X212250000Y-127038152D01*
X212250000Y-127038152D02*
X212440476Y-127038152D01*
X212440476Y-127038152D02*
X212535714Y-127085771D01*
X212535714Y-127085771D02*
X212583333Y-127181009D01*
X212583333Y-127181009D02*
X212583333Y-127276247D01*
X212583333Y-127276247D02*
X212107143Y-127371485D01*
D11*
X210079523Y-130400345D02*
X210079523Y-129520345D01*
X210079523Y-129939393D02*
X210582380Y-129939393D01*
X210582380Y-130400345D02*
X210582380Y-129520345D01*
X211378571Y-129813679D02*
X211378571Y-130400345D01*
X211169047Y-129478441D02*
X210959524Y-130107012D01*
X210959524Y-130107012D02*
X211504285Y-130107012D01*
D10*
X205202380Y-123204819D02*
X204630952Y-123204819D01*
X204916666Y-123204819D02*
X204916666Y-122204819D01*
X204916666Y-122204819D02*
X204821428Y-122347676D01*
X204821428Y-122347676D02*
X204726190Y-122442914D01*
X204726190Y-122442914D02*
X204630952Y-122490533D01*
X205583333Y-122300057D02*
X205630952Y-122252438D01*
X205630952Y-122252438D02*
X205726190Y-122204819D01*
X205726190Y-122204819D02*
X205964285Y-122204819D01*
X205964285Y-122204819D02*
X206059523Y-122252438D01*
X206059523Y-122252438D02*
X206107142Y-122300057D01*
X206107142Y-122300057D02*
X206154761Y-122395295D01*
X206154761Y-122395295D02*
X206154761Y-122490533D01*
X206154761Y-122490533D02*
X206107142Y-122633390D01*
X206107142Y-122633390D02*
X205535714Y-123204819D01*
X205535714Y-123204819D02*
X206154761Y-123204819D01*
X206440476Y-122204819D02*
X206773809Y-123204819D01*
X206773809Y-123204819D02*
X207107142Y-122204819D01*
X208154762Y-123157200D02*
X208297619Y-123204819D01*
X208297619Y-123204819D02*
X208535714Y-123204819D01*
X208535714Y-123204819D02*
X208630952Y-123157200D01*
X208630952Y-123157200D02*
X208678571Y-123109580D01*
X208678571Y-123109580D02*
X208726190Y-123014342D01*
X208726190Y-123014342D02*
X208726190Y-122919104D01*
X208726190Y-122919104D02*
X208678571Y-122823866D01*
X208678571Y-122823866D02*
X208630952Y-122776247D01*
X208630952Y-122776247D02*
X208535714Y-122728628D01*
X208535714Y-122728628D02*
X208345238Y-122681009D01*
X208345238Y-122681009D02*
X208250000Y-122633390D01*
X208250000Y-122633390D02*
X208202381Y-122585771D01*
X208202381Y-122585771D02*
X208154762Y-122490533D01*
X208154762Y-122490533D02*
X208154762Y-122395295D01*
X208154762Y-122395295D02*
X208202381Y-122300057D01*
X208202381Y-122300057D02*
X208250000Y-122252438D01*
X208250000Y-122252438D02*
X208345238Y-122204819D01*
X208345238Y-122204819D02*
X208583333Y-122204819D01*
X208583333Y-122204819D02*
X208726190Y-122252438D01*
X209297619Y-123204819D02*
X209202381Y-123157200D01*
X209202381Y-123157200D02*
X209154762Y-123109580D01*
X209154762Y-123109580D02*
X209107143Y-123014342D01*
X209107143Y-123014342D02*
X209107143Y-122728628D01*
X209107143Y-122728628D02*
X209154762Y-122633390D01*
X209154762Y-122633390D02*
X209202381Y-122585771D01*
X209202381Y-122585771D02*
X209297619Y-122538152D01*
X209297619Y-122538152D02*
X209440476Y-122538152D01*
X209440476Y-122538152D02*
X209535714Y-122585771D01*
X209535714Y-122585771D02*
X209583333Y-122633390D01*
X209583333Y-122633390D02*
X209630952Y-122728628D01*
X209630952Y-122728628D02*
X209630952Y-123014342D01*
X209630952Y-123014342D02*
X209583333Y-123109580D01*
X209583333Y-123109580D02*
X209535714Y-123157200D01*
X209535714Y-123157200D02*
X209440476Y-123204819D01*
X209440476Y-123204819D02*
X209297619Y-123204819D01*
X210488095Y-122538152D02*
X210488095Y-123204819D01*
X210059524Y-122538152D02*
X210059524Y-123061961D01*
X210059524Y-123061961D02*
X210107143Y-123157200D01*
X210107143Y-123157200D02*
X210202381Y-123204819D01*
X210202381Y-123204819D02*
X210345238Y-123204819D01*
X210345238Y-123204819D02*
X210440476Y-123157200D01*
X210440476Y-123157200D02*
X210488095Y-123109580D01*
X210964286Y-123204819D02*
X210964286Y-122538152D01*
X210964286Y-122728628D02*
X211011905Y-122633390D01*
X211011905Y-122633390D02*
X211059524Y-122585771D01*
X211059524Y-122585771D02*
X211154762Y-122538152D01*
X211154762Y-122538152D02*
X211250000Y-122538152D01*
X212011905Y-123157200D02*
X211916667Y-123204819D01*
X211916667Y-123204819D02*
X211726191Y-123204819D01*
X211726191Y-123204819D02*
X211630953Y-123157200D01*
X211630953Y-123157200D02*
X211583334Y-123109580D01*
X211583334Y-123109580D02*
X211535715Y-123014342D01*
X211535715Y-123014342D02*
X211535715Y-122728628D01*
X211535715Y-122728628D02*
X211583334Y-122633390D01*
X211583334Y-122633390D02*
X211630953Y-122585771D01*
X211630953Y-122585771D02*
X211726191Y-122538152D01*
X211726191Y-122538152D02*
X211916667Y-122538152D01*
X211916667Y-122538152D02*
X212011905Y-122585771D01*
X212821429Y-123157200D02*
X212726191Y-123204819D01*
X212726191Y-123204819D02*
X212535715Y-123204819D01*
X212535715Y-123204819D02*
X212440477Y-123157200D01*
X212440477Y-123157200D02*
X212392858Y-123061961D01*
X212392858Y-123061961D02*
X212392858Y-122681009D01*
X212392858Y-122681009D02*
X212440477Y-122585771D01*
X212440477Y-122585771D02*
X212535715Y-122538152D01*
X212535715Y-122538152D02*
X212726191Y-122538152D01*
X212726191Y-122538152D02*
X212821429Y-122585771D01*
X212821429Y-122585771D02*
X212869048Y-122681009D01*
X212869048Y-122681009D02*
X212869048Y-122776247D01*
X212869048Y-122776247D02*
X212392858Y-122871485D01*
X210454819Y-118853333D02*
X211169104Y-118853333D01*
X211169104Y-118853333D02*
X211311961Y-118900952D01*
X211311961Y-118900952D02*
X211407200Y-118996190D01*
X211407200Y-118996190D02*
X211454819Y-119139047D01*
X211454819Y-119139047D02*
X211454819Y-119234285D01*
X211454819Y-117853333D02*
X211454819Y-118424761D01*
X211454819Y-118139047D02*
X210454819Y-118139047D01*
X210454819Y-118139047D02*
X210597676Y-118234285D01*
X210597676Y-118234285D02*
X210692914Y-118329523D01*
X210692914Y-118329523D02*
X210740533Y-118424761D01*
X190896666Y-79984819D02*
X191087142Y-79984819D01*
X191087142Y-79984819D02*
X191182380Y-80032438D01*
X191182380Y-80032438D02*
X191277618Y-80127676D01*
X191277618Y-80127676D02*
X191325237Y-80318152D01*
X191325237Y-80318152D02*
X191325237Y-80651485D01*
X191325237Y-80651485D02*
X191277618Y-80841961D01*
X191277618Y-80841961D02*
X191182380Y-80937200D01*
X191182380Y-80937200D02*
X191087142Y-80984819D01*
X191087142Y-80984819D02*
X190896666Y-80984819D01*
X190896666Y-80984819D02*
X190801428Y-80937200D01*
X190801428Y-80937200D02*
X190706190Y-80841961D01*
X190706190Y-80841961D02*
X190658571Y-80651485D01*
X190658571Y-80651485D02*
X190658571Y-80318152D01*
X190658571Y-80318152D02*
X190706190Y-80127676D01*
X190706190Y-80127676D02*
X190801428Y-80032438D01*
X190801428Y-80032438D02*
X190896666Y-79984819D01*
X192182380Y-80318152D02*
X192182380Y-80984819D01*
X191753809Y-80318152D02*
X191753809Y-80841961D01*
X191753809Y-80841961D02*
X191801428Y-80937200D01*
X191801428Y-80937200D02*
X191896666Y-80984819D01*
X191896666Y-80984819D02*
X192039523Y-80984819D01*
X192039523Y-80984819D02*
X192134761Y-80937200D01*
X192134761Y-80937200D02*
X192182380Y-80889580D01*
X192515714Y-80318152D02*
X192896666Y-80318152D01*
X192658571Y-79984819D02*
X192658571Y-80841961D01*
X192658571Y-80841961D02*
X192706190Y-80937200D01*
X192706190Y-80937200D02*
X192801428Y-80984819D01*
X192801428Y-80984819D02*
X192896666Y-80984819D01*
X193230000Y-80318152D02*
X193230000Y-81318152D01*
X193230000Y-80365771D02*
X193325238Y-80318152D01*
X193325238Y-80318152D02*
X193515714Y-80318152D01*
X193515714Y-80318152D02*
X193610952Y-80365771D01*
X193610952Y-80365771D02*
X193658571Y-80413390D01*
X193658571Y-80413390D02*
X193706190Y-80508628D01*
X193706190Y-80508628D02*
X193706190Y-80794342D01*
X193706190Y-80794342D02*
X193658571Y-80889580D01*
X193658571Y-80889580D02*
X193610952Y-80937200D01*
X193610952Y-80937200D02*
X193515714Y-80984819D01*
X193515714Y-80984819D02*
X193325238Y-80984819D01*
X193325238Y-80984819D02*
X193230000Y-80937200D01*
X194563333Y-80318152D02*
X194563333Y-80984819D01*
X194134762Y-80318152D02*
X194134762Y-80841961D01*
X194134762Y-80841961D02*
X194182381Y-80937200D01*
X194182381Y-80937200D02*
X194277619Y-80984819D01*
X194277619Y-80984819D02*
X194420476Y-80984819D01*
X194420476Y-80984819D02*
X194515714Y-80937200D01*
X194515714Y-80937200D02*
X194563333Y-80889580D01*
X194896667Y-80318152D02*
X195277619Y-80318152D01*
X195039524Y-79984819D02*
X195039524Y-80841961D01*
X195039524Y-80841961D02*
X195087143Y-80937200D01*
X195087143Y-80937200D02*
X195182381Y-80984819D01*
X195182381Y-80984819D02*
X195277619Y-80984819D01*
X196325239Y-80699104D02*
X196801429Y-80699104D01*
X196230001Y-80984819D02*
X196563334Y-79984819D01*
X196563334Y-79984819D02*
X196896667Y-80984819D01*
X193396666Y-82204819D02*
X193396666Y-82919104D01*
X193396666Y-82919104D02*
X193349047Y-83061961D01*
X193349047Y-83061961D02*
X193253809Y-83157200D01*
X193253809Y-83157200D02*
X193110952Y-83204819D01*
X193110952Y-83204819D02*
X193015714Y-83204819D01*
X193777619Y-82204819D02*
X194396666Y-82204819D01*
X194396666Y-82204819D02*
X194063333Y-82585771D01*
X194063333Y-82585771D02*
X194206190Y-82585771D01*
X194206190Y-82585771D02*
X194301428Y-82633390D01*
X194301428Y-82633390D02*
X194349047Y-82681009D01*
X194349047Y-82681009D02*
X194396666Y-82776247D01*
X194396666Y-82776247D02*
X194396666Y-83014342D01*
X194396666Y-83014342D02*
X194349047Y-83109580D01*
X194349047Y-83109580D02*
X194301428Y-83157200D01*
X194301428Y-83157200D02*
X194206190Y-83204819D01*
X194206190Y-83204819D02*
X193920476Y-83204819D01*
X193920476Y-83204819D02*
X193825238Y-83157200D01*
X193825238Y-83157200D02*
X193777619Y-83109580D01*
X191380952Y-105550057D02*
X191428571Y-105502438D01*
X191428571Y-105502438D02*
X191523809Y-105454819D01*
X191523809Y-105454819D02*
X191761904Y-105454819D01*
X191761904Y-105454819D02*
X191857142Y-105502438D01*
X191857142Y-105502438D02*
X191904761Y-105550057D01*
X191904761Y-105550057D02*
X191952380Y-105645295D01*
X191952380Y-105645295D02*
X191952380Y-105740533D01*
X191952380Y-105740533D02*
X191904761Y-105883390D01*
X191904761Y-105883390D02*
X191333333Y-106454819D01*
X191333333Y-106454819D02*
X191952380Y-106454819D01*
X192333333Y-105550057D02*
X192380952Y-105502438D01*
X192380952Y-105502438D02*
X192476190Y-105454819D01*
X192476190Y-105454819D02*
X192714285Y-105454819D01*
X192714285Y-105454819D02*
X192809523Y-105502438D01*
X192809523Y-105502438D02*
X192857142Y-105550057D01*
X192857142Y-105550057D02*
X192904761Y-105645295D01*
X192904761Y-105645295D02*
X192904761Y-105740533D01*
X192904761Y-105740533D02*
X192857142Y-105883390D01*
X192857142Y-105883390D02*
X192285714Y-106454819D01*
X192285714Y-106454819D02*
X192904761Y-106454819D01*
X193523809Y-105454819D02*
X193619047Y-105454819D01*
X193619047Y-105454819D02*
X193714285Y-105502438D01*
X193714285Y-105502438D02*
X193761904Y-105550057D01*
X193761904Y-105550057D02*
X193809523Y-105645295D01*
X193809523Y-105645295D02*
X193857142Y-105835771D01*
X193857142Y-105835771D02*
X193857142Y-106073866D01*
X193857142Y-106073866D02*
X193809523Y-106264342D01*
X193809523Y-106264342D02*
X193761904Y-106359580D01*
X193761904Y-106359580D02*
X193714285Y-106407200D01*
X193714285Y-106407200D02*
X193619047Y-106454819D01*
X193619047Y-106454819D02*
X193523809Y-106454819D01*
X193523809Y-106454819D02*
X193428571Y-106407200D01*
X193428571Y-106407200D02*
X193380952Y-106359580D01*
X193380952Y-106359580D02*
X193333333Y-106264342D01*
X193333333Y-106264342D02*
X193285714Y-106073866D01*
X193285714Y-106073866D02*
X193285714Y-105835771D01*
X193285714Y-105835771D02*
X193333333Y-105645295D01*
X193333333Y-105645295D02*
X193380952Y-105550057D01*
X193380952Y-105550057D02*
X193428571Y-105502438D01*
X193428571Y-105502438D02*
X193523809Y-105454819D01*
X194714285Y-105788152D02*
X194714285Y-106454819D01*
X194285714Y-105788152D02*
X194285714Y-106311961D01*
X194285714Y-106311961D02*
X194333333Y-106407200D01*
X194333333Y-106407200D02*
X194428571Y-106454819D01*
X194428571Y-106454819D02*
X194571428Y-106454819D01*
X194571428Y-106454819D02*
X194666666Y-106407200D01*
X194666666Y-106407200D02*
X194714285Y-106359580D01*
X195523809Y-105931009D02*
X195190476Y-105931009D01*
X195190476Y-106454819D02*
X195190476Y-105454819D01*
X195190476Y-105454819D02*
X195666666Y-105454819D01*
X193609580Y-109666666D02*
X193657200Y-109714285D01*
X193657200Y-109714285D02*
X193704819Y-109857142D01*
X193704819Y-109857142D02*
X193704819Y-109952380D01*
X193704819Y-109952380D02*
X193657200Y-110095237D01*
X193657200Y-110095237D02*
X193561961Y-110190475D01*
X193561961Y-110190475D02*
X193466723Y-110238094D01*
X193466723Y-110238094D02*
X193276247Y-110285713D01*
X193276247Y-110285713D02*
X193133390Y-110285713D01*
X193133390Y-110285713D02*
X192942914Y-110238094D01*
X192942914Y-110238094D02*
X192847676Y-110190475D01*
X192847676Y-110190475D02*
X192752438Y-110095237D01*
X192752438Y-110095237D02*
X192704819Y-109952380D01*
X192704819Y-109952380D02*
X192704819Y-109857142D01*
X192704819Y-109857142D02*
X192752438Y-109714285D01*
X192752438Y-109714285D02*
X192800057Y-109666666D01*
X193704819Y-108714285D02*
X193704819Y-109285713D01*
X193704819Y-108999999D02*
X192704819Y-108999999D01*
X192704819Y-108999999D02*
X192847676Y-109095237D01*
X192847676Y-109095237D02*
X192942914Y-109190475D01*
X192942914Y-109190475D02*
X192990533Y-109285713D01*
X193704819Y-104011905D02*
X192704819Y-104011905D01*
X192704819Y-104011905D02*
X192704819Y-103773810D01*
X192704819Y-103773810D02*
X192752438Y-103630953D01*
X192752438Y-103630953D02*
X192847676Y-103535715D01*
X192847676Y-103535715D02*
X192942914Y-103488096D01*
X192942914Y-103488096D02*
X193133390Y-103440477D01*
X193133390Y-103440477D02*
X193276247Y-103440477D01*
X193276247Y-103440477D02*
X193466723Y-103488096D01*
X193466723Y-103488096D02*
X193561961Y-103535715D01*
X193561961Y-103535715D02*
X193657200Y-103630953D01*
X193657200Y-103630953D02*
X193704819Y-103773810D01*
X193704819Y-103773810D02*
X193704819Y-104011905D01*
X193800057Y-103250001D02*
X193800057Y-102488096D01*
X193657200Y-102297619D02*
X193704819Y-102154762D01*
X193704819Y-102154762D02*
X193704819Y-101916667D01*
X193704819Y-101916667D02*
X193657200Y-101821429D01*
X193657200Y-101821429D02*
X193609580Y-101773810D01*
X193609580Y-101773810D02*
X193514342Y-101726191D01*
X193514342Y-101726191D02*
X193419104Y-101726191D01*
X193419104Y-101726191D02*
X193323866Y-101773810D01*
X193323866Y-101773810D02*
X193276247Y-101821429D01*
X193276247Y-101821429D02*
X193228628Y-101916667D01*
X193228628Y-101916667D02*
X193181009Y-102107143D01*
X193181009Y-102107143D02*
X193133390Y-102202381D01*
X193133390Y-102202381D02*
X193085771Y-102250000D01*
X193085771Y-102250000D02*
X192990533Y-102297619D01*
X192990533Y-102297619D02*
X192895295Y-102297619D01*
X192895295Y-102297619D02*
X192800057Y-102250000D01*
X192800057Y-102250000D02*
X192752438Y-102202381D01*
X192752438Y-102202381D02*
X192704819Y-102107143D01*
X192704819Y-102107143D02*
X192704819Y-101869048D01*
X192704819Y-101869048D02*
X192752438Y-101726191D01*
X193657200Y-100869048D02*
X193704819Y-100964286D01*
X193704819Y-100964286D02*
X193704819Y-101154762D01*
X193704819Y-101154762D02*
X193657200Y-101250000D01*
X193657200Y-101250000D02*
X193609580Y-101297619D01*
X193609580Y-101297619D02*
X193514342Y-101345238D01*
X193514342Y-101345238D02*
X193228628Y-101345238D01*
X193228628Y-101345238D02*
X193133390Y-101297619D01*
X193133390Y-101297619D02*
X193085771Y-101250000D01*
X193085771Y-101250000D02*
X193038152Y-101154762D01*
X193038152Y-101154762D02*
X193038152Y-100964286D01*
X193038152Y-100964286D02*
X193085771Y-100869048D01*
X193704819Y-100440476D02*
X192704819Y-100440476D01*
X193704819Y-100011905D02*
X193181009Y-100011905D01*
X193181009Y-100011905D02*
X193085771Y-100059524D01*
X193085771Y-100059524D02*
X193038152Y-100154762D01*
X193038152Y-100154762D02*
X193038152Y-100297619D01*
X193038152Y-100297619D02*
X193085771Y-100392857D01*
X193085771Y-100392857D02*
X193133390Y-100440476D01*
X193704819Y-99392857D02*
X193657200Y-99488095D01*
X193657200Y-99488095D02*
X193609580Y-99535714D01*
X193609580Y-99535714D02*
X193514342Y-99583333D01*
X193514342Y-99583333D02*
X193228628Y-99583333D01*
X193228628Y-99583333D02*
X193133390Y-99535714D01*
X193133390Y-99535714D02*
X193085771Y-99488095D01*
X193085771Y-99488095D02*
X193038152Y-99392857D01*
X193038152Y-99392857D02*
X193038152Y-99250000D01*
X193038152Y-99250000D02*
X193085771Y-99154762D01*
X193085771Y-99154762D02*
X193133390Y-99107143D01*
X193133390Y-99107143D02*
X193228628Y-99059524D01*
X193228628Y-99059524D02*
X193514342Y-99059524D01*
X193514342Y-99059524D02*
X193609580Y-99107143D01*
X193609580Y-99107143D02*
X193657200Y-99154762D01*
X193657200Y-99154762D02*
X193704819Y-99250000D01*
X193704819Y-99250000D02*
X193704819Y-99392857D01*
X193038152Y-98773809D02*
X193038152Y-98392857D01*
X192704819Y-98630952D02*
X193561961Y-98630952D01*
X193561961Y-98630952D02*
X193657200Y-98583333D01*
X193657200Y-98583333D02*
X193704819Y-98488095D01*
X193704819Y-98488095D02*
X193704819Y-98392857D01*
X193038152Y-98202380D02*
X193038152Y-97821428D01*
X192704819Y-98059523D02*
X193561961Y-98059523D01*
X193561961Y-98059523D02*
X193657200Y-98011904D01*
X193657200Y-98011904D02*
X193704819Y-97916666D01*
X193704819Y-97916666D02*
X193704819Y-97821428D01*
X193704819Y-97488094D02*
X192704819Y-97488094D01*
X193323866Y-97392856D02*
X193704819Y-97107142D01*
X193038152Y-97107142D02*
X193419104Y-97488094D01*
X193038152Y-96773808D02*
X193704819Y-96535713D01*
X193038152Y-96297618D02*
X193704819Y-96535713D01*
X193704819Y-96535713D02*
X193942914Y-96630951D01*
X193942914Y-96630951D02*
X193990533Y-96678570D01*
X193990533Y-96678570D02*
X194038152Y-96773808D01*
X193800057Y-96154761D02*
X193800057Y-95392856D01*
X193181009Y-94821427D02*
X193181009Y-95154760D01*
X193704819Y-95154760D02*
X192704819Y-95154760D01*
X192704819Y-95154760D02*
X192704819Y-94678570D01*
X193704819Y-94297617D02*
X193038152Y-94297617D01*
X192704819Y-94297617D02*
X192752438Y-94345236D01*
X192752438Y-94345236D02*
X192800057Y-94297617D01*
X192800057Y-94297617D02*
X192752438Y-94249998D01*
X192752438Y-94249998D02*
X192704819Y-94297617D01*
X192704819Y-94297617D02*
X192800057Y-94297617D01*
X193704819Y-93678570D02*
X193657200Y-93773808D01*
X193657200Y-93773808D02*
X193561961Y-93821427D01*
X193561961Y-93821427D02*
X192704819Y-93821427D01*
X193704819Y-93154760D02*
X193657200Y-93249998D01*
X193657200Y-93249998D02*
X193561961Y-93297617D01*
X193561961Y-93297617D02*
X192704819Y-93297617D01*
X193657200Y-92392855D02*
X193704819Y-92488093D01*
X193704819Y-92488093D02*
X193704819Y-92678569D01*
X193704819Y-92678569D02*
X193657200Y-92773807D01*
X193657200Y-92773807D02*
X193561961Y-92821426D01*
X193561961Y-92821426D02*
X193181009Y-92821426D01*
X193181009Y-92821426D02*
X193085771Y-92773807D01*
X193085771Y-92773807D02*
X193038152Y-92678569D01*
X193038152Y-92678569D02*
X193038152Y-92488093D01*
X193038152Y-92488093D02*
X193085771Y-92392855D01*
X193085771Y-92392855D02*
X193181009Y-92345236D01*
X193181009Y-92345236D02*
X193276247Y-92345236D01*
X193276247Y-92345236D02*
X193371485Y-92821426D01*
X193704819Y-91488093D02*
X192704819Y-91488093D01*
X193657200Y-91488093D02*
X193704819Y-91583331D01*
X193704819Y-91583331D02*
X193704819Y-91773807D01*
X193704819Y-91773807D02*
X193657200Y-91869045D01*
X193657200Y-91869045D02*
X193609580Y-91916664D01*
X193609580Y-91916664D02*
X193514342Y-91964283D01*
X193514342Y-91964283D02*
X193228628Y-91964283D01*
X193228628Y-91964283D02*
X193133390Y-91916664D01*
X193133390Y-91916664D02*
X193085771Y-91869045D01*
X193085771Y-91869045D02*
X193038152Y-91773807D01*
X193038152Y-91773807D02*
X193038152Y-91583331D01*
X193038152Y-91583331D02*
X193085771Y-91488093D01*
X196204819Y-97478094D02*
X195204819Y-97478094D01*
X195204819Y-97478094D02*
X195204819Y-97239999D01*
X195204819Y-97239999D02*
X195252438Y-97097142D01*
X195252438Y-97097142D02*
X195347676Y-97001904D01*
X195347676Y-97001904D02*
X195442914Y-96954285D01*
X195442914Y-96954285D02*
X195633390Y-96906666D01*
X195633390Y-96906666D02*
X195776247Y-96906666D01*
X195776247Y-96906666D02*
X195966723Y-96954285D01*
X195966723Y-96954285D02*
X196061961Y-97001904D01*
X196061961Y-97001904D02*
X196157200Y-97097142D01*
X196157200Y-97097142D02*
X196204819Y-97239999D01*
X196204819Y-97239999D02*
X196204819Y-97478094D01*
X195204819Y-96001904D02*
X195204819Y-96478094D01*
X195204819Y-96478094D02*
X195681009Y-96525713D01*
X195681009Y-96525713D02*
X195633390Y-96478094D01*
X195633390Y-96478094D02*
X195585771Y-96382856D01*
X195585771Y-96382856D02*
X195585771Y-96144761D01*
X195585771Y-96144761D02*
X195633390Y-96049523D01*
X195633390Y-96049523D02*
X195681009Y-96001904D01*
X195681009Y-96001904D02*
X195776247Y-95954285D01*
X195776247Y-95954285D02*
X196014342Y-95954285D01*
X196014342Y-95954285D02*
X196109580Y-96001904D01*
X196109580Y-96001904D02*
X196157200Y-96049523D01*
X196157200Y-96049523D02*
X196204819Y-96144761D01*
X196204819Y-96144761D02*
X196204819Y-96382856D01*
X196204819Y-96382856D02*
X196157200Y-96478094D01*
X196157200Y-96478094D02*
X196109580Y-96525713D01*
X193954819Y-90261904D02*
X192954819Y-90261904D01*
X193954819Y-89690476D02*
X193383390Y-90119047D01*
X192954819Y-89690476D02*
X193526247Y-90261904D01*
X197488094Y-83484819D02*
X197488094Y-82484819D01*
X197488094Y-82484819D02*
X197726189Y-82484819D01*
X197726189Y-82484819D02*
X197869046Y-82532438D01*
X197869046Y-82532438D02*
X197964284Y-82627676D01*
X197964284Y-82627676D02*
X198011903Y-82722914D01*
X198011903Y-82722914D02*
X198059522Y-82913390D01*
X198059522Y-82913390D02*
X198059522Y-83056247D01*
X198059522Y-83056247D02*
X198011903Y-83246723D01*
X198011903Y-83246723D02*
X197964284Y-83341961D01*
X197964284Y-83341961D02*
X197869046Y-83437200D01*
X197869046Y-83437200D02*
X197726189Y-83484819D01*
X197726189Y-83484819D02*
X197488094Y-83484819D01*
X198249999Y-83580057D02*
X199011903Y-83580057D01*
X199202380Y-83437200D02*
X199345237Y-83484819D01*
X199345237Y-83484819D02*
X199583332Y-83484819D01*
X199583332Y-83484819D02*
X199678570Y-83437200D01*
X199678570Y-83437200D02*
X199726189Y-83389580D01*
X199726189Y-83389580D02*
X199773808Y-83294342D01*
X199773808Y-83294342D02*
X199773808Y-83199104D01*
X199773808Y-83199104D02*
X199726189Y-83103866D01*
X199726189Y-83103866D02*
X199678570Y-83056247D01*
X199678570Y-83056247D02*
X199583332Y-83008628D01*
X199583332Y-83008628D02*
X199392856Y-82961009D01*
X199392856Y-82961009D02*
X199297618Y-82913390D01*
X199297618Y-82913390D02*
X199249999Y-82865771D01*
X199249999Y-82865771D02*
X199202380Y-82770533D01*
X199202380Y-82770533D02*
X199202380Y-82675295D01*
X199202380Y-82675295D02*
X199249999Y-82580057D01*
X199249999Y-82580057D02*
X199297618Y-82532438D01*
X199297618Y-82532438D02*
X199392856Y-82484819D01*
X199392856Y-82484819D02*
X199630951Y-82484819D01*
X199630951Y-82484819D02*
X199773808Y-82532438D01*
X200630951Y-83437200D02*
X200535713Y-83484819D01*
X200535713Y-83484819D02*
X200345237Y-83484819D01*
X200345237Y-83484819D02*
X200249999Y-83437200D01*
X200249999Y-83437200D02*
X200202380Y-83389580D01*
X200202380Y-83389580D02*
X200154761Y-83294342D01*
X200154761Y-83294342D02*
X200154761Y-83008628D01*
X200154761Y-83008628D02*
X200202380Y-82913390D01*
X200202380Y-82913390D02*
X200249999Y-82865771D01*
X200249999Y-82865771D02*
X200345237Y-82818152D01*
X200345237Y-82818152D02*
X200535713Y-82818152D01*
X200535713Y-82818152D02*
X200630951Y-82865771D01*
X201059523Y-83484819D02*
X201059523Y-82484819D01*
X201488094Y-83484819D02*
X201488094Y-82961009D01*
X201488094Y-82961009D02*
X201440475Y-82865771D01*
X201440475Y-82865771D02*
X201345237Y-82818152D01*
X201345237Y-82818152D02*
X201202380Y-82818152D01*
X201202380Y-82818152D02*
X201107142Y-82865771D01*
X201107142Y-82865771D02*
X201059523Y-82913390D01*
X202107142Y-83484819D02*
X202011904Y-83437200D01*
X202011904Y-83437200D02*
X201964285Y-83389580D01*
X201964285Y-83389580D02*
X201916666Y-83294342D01*
X201916666Y-83294342D02*
X201916666Y-83008628D01*
X201916666Y-83008628D02*
X201964285Y-82913390D01*
X201964285Y-82913390D02*
X202011904Y-82865771D01*
X202011904Y-82865771D02*
X202107142Y-82818152D01*
X202107142Y-82818152D02*
X202249999Y-82818152D01*
X202249999Y-82818152D02*
X202345237Y-82865771D01*
X202345237Y-82865771D02*
X202392856Y-82913390D01*
X202392856Y-82913390D02*
X202440475Y-83008628D01*
X202440475Y-83008628D02*
X202440475Y-83294342D01*
X202440475Y-83294342D02*
X202392856Y-83389580D01*
X202392856Y-83389580D02*
X202345237Y-83437200D01*
X202345237Y-83437200D02*
X202249999Y-83484819D01*
X202249999Y-83484819D02*
X202107142Y-83484819D01*
X202726190Y-82818152D02*
X203107142Y-82818152D01*
X202869047Y-82484819D02*
X202869047Y-83341961D01*
X202869047Y-83341961D02*
X202916666Y-83437200D01*
X202916666Y-83437200D02*
X203011904Y-83484819D01*
X203011904Y-83484819D02*
X203107142Y-83484819D01*
X203297619Y-82818152D02*
X203678571Y-82818152D01*
X203440476Y-82484819D02*
X203440476Y-83341961D01*
X203440476Y-83341961D02*
X203488095Y-83437200D01*
X203488095Y-83437200D02*
X203583333Y-83484819D01*
X203583333Y-83484819D02*
X203678571Y-83484819D01*
X204011905Y-83484819D02*
X204011905Y-82484819D01*
X204107143Y-83103866D02*
X204392857Y-83484819D01*
X204392857Y-82818152D02*
X204011905Y-83199104D01*
X204726191Y-82818152D02*
X204964286Y-83484819D01*
X205202381Y-82818152D02*
X204964286Y-83484819D01*
X204964286Y-83484819D02*
X204869048Y-83722914D01*
X204869048Y-83722914D02*
X204821429Y-83770533D01*
X204821429Y-83770533D02*
X204726191Y-83818152D01*
X205345239Y-83580057D02*
X206107143Y-83580057D01*
X206678572Y-82961009D02*
X206345239Y-82961009D01*
X206345239Y-83484819D02*
X206345239Y-82484819D01*
X206345239Y-82484819D02*
X206821429Y-82484819D01*
X207202382Y-83484819D02*
X207202382Y-82818152D01*
X207202382Y-82484819D02*
X207154763Y-82532438D01*
X207154763Y-82532438D02*
X207202382Y-82580057D01*
X207202382Y-82580057D02*
X207250001Y-82532438D01*
X207250001Y-82532438D02*
X207202382Y-82484819D01*
X207202382Y-82484819D02*
X207202382Y-82580057D01*
X207821429Y-83484819D02*
X207726191Y-83437200D01*
X207726191Y-83437200D02*
X207678572Y-83341961D01*
X207678572Y-83341961D02*
X207678572Y-82484819D01*
X208345239Y-83484819D02*
X208250001Y-83437200D01*
X208250001Y-83437200D02*
X208202382Y-83341961D01*
X208202382Y-83341961D02*
X208202382Y-82484819D01*
X209107144Y-83437200D02*
X209011906Y-83484819D01*
X209011906Y-83484819D02*
X208821430Y-83484819D01*
X208821430Y-83484819D02*
X208726192Y-83437200D01*
X208726192Y-83437200D02*
X208678573Y-83341961D01*
X208678573Y-83341961D02*
X208678573Y-82961009D01*
X208678573Y-82961009D02*
X208726192Y-82865771D01*
X208726192Y-82865771D02*
X208821430Y-82818152D01*
X208821430Y-82818152D02*
X209011906Y-82818152D01*
X209011906Y-82818152D02*
X209107144Y-82865771D01*
X209107144Y-82865771D02*
X209154763Y-82961009D01*
X209154763Y-82961009D02*
X209154763Y-83056247D01*
X209154763Y-83056247D02*
X208678573Y-83151485D01*
X210011906Y-83484819D02*
X210011906Y-82484819D01*
X210011906Y-83437200D02*
X209916668Y-83484819D01*
X209916668Y-83484819D02*
X209726192Y-83484819D01*
X209726192Y-83484819D02*
X209630954Y-83437200D01*
X209630954Y-83437200D02*
X209583335Y-83389580D01*
X209583335Y-83389580D02*
X209535716Y-83294342D01*
X209535716Y-83294342D02*
X209535716Y-83008628D01*
X209535716Y-83008628D02*
X209583335Y-82913390D01*
X209583335Y-82913390D02*
X209630954Y-82865771D01*
X209630954Y-82865771D02*
X209726192Y-82818152D01*
X209726192Y-82818152D02*
X209916668Y-82818152D01*
X209916668Y-82818152D02*
X210011906Y-82865771D01*
X211138095Y-88314819D02*
X211138095Y-87314819D01*
X211709523Y-88314819D02*
X211280952Y-87743390D01*
X211709523Y-87314819D02*
X211138095Y-87886247D01*
X203871905Y-85954819D02*
X203871905Y-84954819D01*
X203871905Y-84954819D02*
X204110000Y-84954819D01*
X204110000Y-84954819D02*
X204252857Y-85002438D01*
X204252857Y-85002438D02*
X204348095Y-85097676D01*
X204348095Y-85097676D02*
X204395714Y-85192914D01*
X204395714Y-85192914D02*
X204443333Y-85383390D01*
X204443333Y-85383390D02*
X204443333Y-85526247D01*
X204443333Y-85526247D02*
X204395714Y-85716723D01*
X204395714Y-85716723D02*
X204348095Y-85811961D01*
X204348095Y-85811961D02*
X204252857Y-85907200D01*
X204252857Y-85907200D02*
X204110000Y-85954819D01*
X204110000Y-85954819D02*
X203871905Y-85954819D01*
X205300476Y-85288152D02*
X205300476Y-85954819D01*
X205062381Y-84907200D02*
X204824286Y-85621485D01*
X204824286Y-85621485D02*
X205443333Y-85621485D01*
X127859580Y-131642858D02*
X127907200Y-131690477D01*
X127907200Y-131690477D02*
X127954819Y-131833334D01*
X127954819Y-131833334D02*
X127954819Y-131928572D01*
X127954819Y-131928572D02*
X127907200Y-132071429D01*
X127907200Y-132071429D02*
X127811961Y-132166667D01*
X127811961Y-132166667D02*
X127716723Y-132214286D01*
X127716723Y-132214286D02*
X127526247Y-132261905D01*
X127526247Y-132261905D02*
X127383390Y-132261905D01*
X127383390Y-132261905D02*
X127192914Y-132214286D01*
X127192914Y-132214286D02*
X127097676Y-132166667D01*
X127097676Y-132166667D02*
X127002438Y-132071429D01*
X127002438Y-132071429D02*
X126954819Y-131928572D01*
X126954819Y-131928572D02*
X126954819Y-131833334D01*
X126954819Y-131833334D02*
X127002438Y-131690477D01*
X127002438Y-131690477D02*
X127050057Y-131642858D01*
X127954819Y-131071429D02*
X127907200Y-131166667D01*
X127907200Y-131166667D02*
X127859580Y-131214286D01*
X127859580Y-131214286D02*
X127764342Y-131261905D01*
X127764342Y-131261905D02*
X127478628Y-131261905D01*
X127478628Y-131261905D02*
X127383390Y-131214286D01*
X127383390Y-131214286D02*
X127335771Y-131166667D01*
X127335771Y-131166667D02*
X127288152Y-131071429D01*
X127288152Y-131071429D02*
X127288152Y-130928572D01*
X127288152Y-130928572D02*
X127335771Y-130833334D01*
X127335771Y-130833334D02*
X127383390Y-130785715D01*
X127383390Y-130785715D02*
X127478628Y-130738096D01*
X127478628Y-130738096D02*
X127764342Y-130738096D01*
X127764342Y-130738096D02*
X127859580Y-130785715D01*
X127859580Y-130785715D02*
X127907200Y-130833334D01*
X127907200Y-130833334D02*
X127954819Y-130928572D01*
X127954819Y-130928572D02*
X127954819Y-131071429D01*
X127288152Y-130309524D02*
X127954819Y-130309524D01*
X127383390Y-130309524D02*
X127335771Y-130261905D01*
X127335771Y-130261905D02*
X127288152Y-130166667D01*
X127288152Y-130166667D02*
X127288152Y-130023810D01*
X127288152Y-130023810D02*
X127335771Y-129928572D01*
X127335771Y-129928572D02*
X127431009Y-129880953D01*
X127431009Y-129880953D02*
X127954819Y-129880953D01*
X127288152Y-129404762D02*
X127954819Y-129404762D01*
X127383390Y-129404762D02*
X127335771Y-129357143D01*
X127335771Y-129357143D02*
X127288152Y-129261905D01*
X127288152Y-129261905D02*
X127288152Y-129119048D01*
X127288152Y-129119048D02*
X127335771Y-129023810D01*
X127335771Y-129023810D02*
X127431009Y-128976191D01*
X127431009Y-128976191D02*
X127954819Y-128976191D01*
X128050057Y-128738096D02*
X128050057Y-127976191D01*
X126954819Y-127547619D02*
X126954819Y-127452381D01*
X126954819Y-127452381D02*
X127002438Y-127357143D01*
X127002438Y-127357143D02*
X127050057Y-127309524D01*
X127050057Y-127309524D02*
X127145295Y-127261905D01*
X127145295Y-127261905D02*
X127335771Y-127214286D01*
X127335771Y-127214286D02*
X127573866Y-127214286D01*
X127573866Y-127214286D02*
X127764342Y-127261905D01*
X127764342Y-127261905D02*
X127859580Y-127309524D01*
X127859580Y-127309524D02*
X127907200Y-127357143D01*
X127907200Y-127357143D02*
X127954819Y-127452381D01*
X127954819Y-127452381D02*
X127954819Y-127547619D01*
X127954819Y-127547619D02*
X127907200Y-127642857D01*
X127907200Y-127642857D02*
X127859580Y-127690476D01*
X127859580Y-127690476D02*
X127764342Y-127738095D01*
X127764342Y-127738095D02*
X127573866Y-127785714D01*
X127573866Y-127785714D02*
X127335771Y-127785714D01*
X127335771Y-127785714D02*
X127145295Y-127738095D01*
X127145295Y-127738095D02*
X127050057Y-127690476D01*
X127050057Y-127690476D02*
X127002438Y-127642857D01*
X127002438Y-127642857D02*
X126954819Y-127547619D01*
X127050057Y-126833333D02*
X127002438Y-126785714D01*
X127002438Y-126785714D02*
X126954819Y-126690476D01*
X126954819Y-126690476D02*
X126954819Y-126452381D01*
X126954819Y-126452381D02*
X127002438Y-126357143D01*
X127002438Y-126357143D02*
X127050057Y-126309524D01*
X127050057Y-126309524D02*
X127145295Y-126261905D01*
X127145295Y-126261905D02*
X127240533Y-126261905D01*
X127240533Y-126261905D02*
X127383390Y-126309524D01*
X127383390Y-126309524D02*
X127954819Y-126880952D01*
X127954819Y-126880952D02*
X127954819Y-126261905D01*
X127954819Y-125928571D02*
X127288152Y-125404762D01*
X127288152Y-125928571D02*
X127954819Y-125404762D01*
X127954819Y-124500000D02*
X127954819Y-125071428D01*
X127954819Y-124785714D02*
X126954819Y-124785714D01*
X126954819Y-124785714D02*
X127097676Y-124880952D01*
X127097676Y-124880952D02*
X127192914Y-124976190D01*
X127192914Y-124976190D02*
X127240533Y-125071428D01*
X127954819Y-124023809D02*
X127954819Y-123833333D01*
X127954819Y-123833333D02*
X127907200Y-123738095D01*
X127907200Y-123738095D02*
X127859580Y-123690476D01*
X127859580Y-123690476D02*
X127716723Y-123595238D01*
X127716723Y-123595238D02*
X127526247Y-123547619D01*
X127526247Y-123547619D02*
X127145295Y-123547619D01*
X127145295Y-123547619D02*
X127050057Y-123595238D01*
X127050057Y-123595238D02*
X127002438Y-123642857D01*
X127002438Y-123642857D02*
X126954819Y-123738095D01*
X126954819Y-123738095D02*
X126954819Y-123928571D01*
X126954819Y-123928571D02*
X127002438Y-124023809D01*
X127002438Y-124023809D02*
X127050057Y-124071428D01*
X127050057Y-124071428D02*
X127145295Y-124119047D01*
X127145295Y-124119047D02*
X127383390Y-124119047D01*
X127383390Y-124119047D02*
X127478628Y-124071428D01*
X127478628Y-124071428D02*
X127526247Y-124023809D01*
X127526247Y-124023809D02*
X127573866Y-123928571D01*
X127573866Y-123928571D02*
X127573866Y-123738095D01*
X127573866Y-123738095D02*
X127526247Y-123642857D01*
X127526247Y-123642857D02*
X127478628Y-123595238D01*
X127478628Y-123595238D02*
X127383390Y-123547619D01*
X128050057Y-123357143D02*
X128050057Y-122595238D01*
X126954819Y-122166666D02*
X126954819Y-121976190D01*
X126954819Y-121976190D02*
X127002438Y-121880952D01*
X127002438Y-121880952D02*
X127097676Y-121785714D01*
X127097676Y-121785714D02*
X127288152Y-121738095D01*
X127288152Y-121738095D02*
X127621485Y-121738095D01*
X127621485Y-121738095D02*
X127811961Y-121785714D01*
X127811961Y-121785714D02*
X127907200Y-121880952D01*
X127907200Y-121880952D02*
X127954819Y-121976190D01*
X127954819Y-121976190D02*
X127954819Y-122166666D01*
X127954819Y-122166666D02*
X127907200Y-122261904D01*
X127907200Y-122261904D02*
X127811961Y-122357142D01*
X127811961Y-122357142D02*
X127621485Y-122404761D01*
X127621485Y-122404761D02*
X127288152Y-122404761D01*
X127288152Y-122404761D02*
X127097676Y-122357142D01*
X127097676Y-122357142D02*
X127002438Y-122261904D01*
X127002438Y-122261904D02*
X126954819Y-122166666D01*
X127954819Y-120880952D02*
X126954819Y-120880952D01*
X127907200Y-120880952D02*
X127954819Y-120976190D01*
X127954819Y-120976190D02*
X127954819Y-121166666D01*
X127954819Y-121166666D02*
X127907200Y-121261904D01*
X127907200Y-121261904D02*
X127859580Y-121309523D01*
X127859580Y-121309523D02*
X127764342Y-121357142D01*
X127764342Y-121357142D02*
X127478628Y-121357142D01*
X127478628Y-121357142D02*
X127383390Y-121309523D01*
X127383390Y-121309523D02*
X127335771Y-121261904D01*
X127335771Y-121261904D02*
X127288152Y-121166666D01*
X127288152Y-121166666D02*
X127288152Y-120976190D01*
X127288152Y-120976190D02*
X127335771Y-120880952D01*
X127954819Y-119976190D02*
X126954819Y-119976190D01*
X127907200Y-119976190D02*
X127954819Y-120071428D01*
X127954819Y-120071428D02*
X127954819Y-120261904D01*
X127954819Y-120261904D02*
X127907200Y-120357142D01*
X127907200Y-120357142D02*
X127859580Y-120404761D01*
X127859580Y-120404761D02*
X127764342Y-120452380D01*
X127764342Y-120452380D02*
X127478628Y-120452380D01*
X127478628Y-120452380D02*
X127383390Y-120404761D01*
X127383390Y-120404761D02*
X127335771Y-120357142D01*
X127335771Y-120357142D02*
X127288152Y-120261904D01*
X127288152Y-120261904D02*
X127288152Y-120071428D01*
X127288152Y-120071428D02*
X127335771Y-119976190D01*
X128050057Y-119738095D02*
X128050057Y-118976190D01*
X127431009Y-118738094D02*
X127431009Y-118404761D01*
X127954819Y-118261904D02*
X127954819Y-118738094D01*
X127954819Y-118738094D02*
X126954819Y-118738094D01*
X126954819Y-118738094D02*
X126954819Y-118261904D01*
X127288152Y-117928570D02*
X127954819Y-117690475D01*
X127954819Y-117690475D02*
X127288152Y-117452380D01*
X127907200Y-116690475D02*
X127954819Y-116785713D01*
X127954819Y-116785713D02*
X127954819Y-116976189D01*
X127954819Y-116976189D02*
X127907200Y-117071427D01*
X127907200Y-117071427D02*
X127811961Y-117119046D01*
X127811961Y-117119046D02*
X127431009Y-117119046D01*
X127431009Y-117119046D02*
X127335771Y-117071427D01*
X127335771Y-117071427D02*
X127288152Y-116976189D01*
X127288152Y-116976189D02*
X127288152Y-116785713D01*
X127288152Y-116785713D02*
X127335771Y-116690475D01*
X127335771Y-116690475D02*
X127431009Y-116642856D01*
X127431009Y-116642856D02*
X127526247Y-116642856D01*
X127526247Y-116642856D02*
X127621485Y-117119046D01*
X127288152Y-116214284D02*
X127954819Y-116214284D01*
X127383390Y-116214284D02*
X127335771Y-116166665D01*
X127335771Y-116166665D02*
X127288152Y-116071427D01*
X127288152Y-116071427D02*
X127288152Y-115928570D01*
X127288152Y-115928570D02*
X127335771Y-115833332D01*
X127335771Y-115833332D02*
X127431009Y-115785713D01*
X127431009Y-115785713D02*
X127954819Y-115785713D01*
X123184819Y-108193333D02*
X123899104Y-108193333D01*
X123899104Y-108193333D02*
X124041961Y-108240952D01*
X124041961Y-108240952D02*
X124137200Y-108336190D01*
X124137200Y-108336190D02*
X124184819Y-108479047D01*
X124184819Y-108479047D02*
X124184819Y-108574285D01*
X123184819Y-107288571D02*
X123184819Y-107479047D01*
X123184819Y-107479047D02*
X123232438Y-107574285D01*
X123232438Y-107574285D02*
X123280057Y-107621904D01*
X123280057Y-107621904D02*
X123422914Y-107717142D01*
X123422914Y-107717142D02*
X123613390Y-107764761D01*
X123613390Y-107764761D02*
X123994342Y-107764761D01*
X123994342Y-107764761D02*
X124089580Y-107717142D01*
X124089580Y-107717142D02*
X124137200Y-107669523D01*
X124137200Y-107669523D02*
X124184819Y-107574285D01*
X124184819Y-107574285D02*
X124184819Y-107383809D01*
X124184819Y-107383809D02*
X124137200Y-107288571D01*
X124137200Y-107288571D02*
X124089580Y-107240952D01*
X124089580Y-107240952D02*
X123994342Y-107193333D01*
X123994342Y-107193333D02*
X123756247Y-107193333D01*
X123756247Y-107193333D02*
X123661009Y-107240952D01*
X123661009Y-107240952D02*
X123613390Y-107288571D01*
X123613390Y-107288571D02*
X123565771Y-107383809D01*
X123565771Y-107383809D02*
X123565771Y-107574285D01*
X123565771Y-107574285D02*
X123613390Y-107669523D01*
X123613390Y-107669523D02*
X123661009Y-107717142D01*
X123661009Y-107717142D02*
X123756247Y-107764761D01*
X191520952Y-115714819D02*
X190949524Y-115714819D01*
X191235238Y-115714819D02*
X191235238Y-114714819D01*
X191235238Y-114714819D02*
X191140000Y-114857676D01*
X191140000Y-114857676D02*
X191044762Y-114952914D01*
X191044762Y-114952914D02*
X190949524Y-115000533D01*
X191949524Y-115714819D02*
X191949524Y-114714819D01*
X192044762Y-115333866D02*
X192330476Y-115714819D01*
X192330476Y-115048152D02*
X191949524Y-115429104D01*
D12*
X190193855Y-118633332D02*
X189812902Y-118899999D01*
X190193855Y-119090475D02*
X189393855Y-119090475D01*
X189393855Y-119090475D02*
X189393855Y-118785713D01*
X189393855Y-118785713D02*
X189431950Y-118709523D01*
X189431950Y-118709523D02*
X189470045Y-118671428D01*
X189470045Y-118671428D02*
X189546236Y-118633332D01*
X189546236Y-118633332D02*
X189660521Y-118633332D01*
X189660521Y-118633332D02*
X189736712Y-118671428D01*
X189736712Y-118671428D02*
X189774807Y-118709523D01*
X189774807Y-118709523D02*
X189812902Y-118785713D01*
X189812902Y-118785713D02*
X189812902Y-119090475D01*
X190193855Y-117871428D02*
X190193855Y-118328571D01*
X190193855Y-118099999D02*
X189393855Y-118099999D01*
X189393855Y-118099999D02*
X189508140Y-118176190D01*
X189508140Y-118176190D02*
X189584331Y-118252380D01*
X189584331Y-118252380D02*
X189622426Y-118328571D01*
D10*
X211204819Y-102861905D02*
X210204819Y-102861905D01*
X210204819Y-102861905D02*
X210204819Y-102623810D01*
X210204819Y-102623810D02*
X210252438Y-102480953D01*
X210252438Y-102480953D02*
X210347676Y-102385715D01*
X210347676Y-102385715D02*
X210442914Y-102338096D01*
X210442914Y-102338096D02*
X210633390Y-102290477D01*
X210633390Y-102290477D02*
X210776247Y-102290477D01*
X210776247Y-102290477D02*
X210966723Y-102338096D01*
X210966723Y-102338096D02*
X211061961Y-102385715D01*
X211061961Y-102385715D02*
X211157200Y-102480953D01*
X211157200Y-102480953D02*
X211204819Y-102623810D01*
X211204819Y-102623810D02*
X211204819Y-102861905D01*
X211300057Y-102100001D02*
X211300057Y-101338096D01*
X211157200Y-101147619D02*
X211204819Y-101004762D01*
X211204819Y-101004762D02*
X211204819Y-100766667D01*
X211204819Y-100766667D02*
X211157200Y-100671429D01*
X211157200Y-100671429D02*
X211109580Y-100623810D01*
X211109580Y-100623810D02*
X211014342Y-100576191D01*
X211014342Y-100576191D02*
X210919104Y-100576191D01*
X210919104Y-100576191D02*
X210823866Y-100623810D01*
X210823866Y-100623810D02*
X210776247Y-100671429D01*
X210776247Y-100671429D02*
X210728628Y-100766667D01*
X210728628Y-100766667D02*
X210681009Y-100957143D01*
X210681009Y-100957143D02*
X210633390Y-101052381D01*
X210633390Y-101052381D02*
X210585771Y-101100000D01*
X210585771Y-101100000D02*
X210490533Y-101147619D01*
X210490533Y-101147619D02*
X210395295Y-101147619D01*
X210395295Y-101147619D02*
X210300057Y-101100000D01*
X210300057Y-101100000D02*
X210252438Y-101052381D01*
X210252438Y-101052381D02*
X210204819Y-100957143D01*
X210204819Y-100957143D02*
X210204819Y-100719048D01*
X210204819Y-100719048D02*
X210252438Y-100576191D01*
X211157200Y-99719048D02*
X211204819Y-99814286D01*
X211204819Y-99814286D02*
X211204819Y-100004762D01*
X211204819Y-100004762D02*
X211157200Y-100100000D01*
X211157200Y-100100000D02*
X211109580Y-100147619D01*
X211109580Y-100147619D02*
X211014342Y-100195238D01*
X211014342Y-100195238D02*
X210728628Y-100195238D01*
X210728628Y-100195238D02*
X210633390Y-100147619D01*
X210633390Y-100147619D02*
X210585771Y-100100000D01*
X210585771Y-100100000D02*
X210538152Y-100004762D01*
X210538152Y-100004762D02*
X210538152Y-99814286D01*
X210538152Y-99814286D02*
X210585771Y-99719048D01*
X211204819Y-99290476D02*
X210204819Y-99290476D01*
X211204819Y-98861905D02*
X210681009Y-98861905D01*
X210681009Y-98861905D02*
X210585771Y-98909524D01*
X210585771Y-98909524D02*
X210538152Y-99004762D01*
X210538152Y-99004762D02*
X210538152Y-99147619D01*
X210538152Y-99147619D02*
X210585771Y-99242857D01*
X210585771Y-99242857D02*
X210633390Y-99290476D01*
X211204819Y-98242857D02*
X211157200Y-98338095D01*
X211157200Y-98338095D02*
X211109580Y-98385714D01*
X211109580Y-98385714D02*
X211014342Y-98433333D01*
X211014342Y-98433333D02*
X210728628Y-98433333D01*
X210728628Y-98433333D02*
X210633390Y-98385714D01*
X210633390Y-98385714D02*
X210585771Y-98338095D01*
X210585771Y-98338095D02*
X210538152Y-98242857D01*
X210538152Y-98242857D02*
X210538152Y-98100000D01*
X210538152Y-98100000D02*
X210585771Y-98004762D01*
X210585771Y-98004762D02*
X210633390Y-97957143D01*
X210633390Y-97957143D02*
X210728628Y-97909524D01*
X210728628Y-97909524D02*
X211014342Y-97909524D01*
X211014342Y-97909524D02*
X211109580Y-97957143D01*
X211109580Y-97957143D02*
X211157200Y-98004762D01*
X211157200Y-98004762D02*
X211204819Y-98100000D01*
X211204819Y-98100000D02*
X211204819Y-98242857D01*
X210538152Y-97623809D02*
X210538152Y-97242857D01*
X210204819Y-97480952D02*
X211061961Y-97480952D01*
X211061961Y-97480952D02*
X211157200Y-97433333D01*
X211157200Y-97433333D02*
X211204819Y-97338095D01*
X211204819Y-97338095D02*
X211204819Y-97242857D01*
X210538152Y-97052380D02*
X210538152Y-96671428D01*
X210204819Y-96909523D02*
X211061961Y-96909523D01*
X211061961Y-96909523D02*
X211157200Y-96861904D01*
X211157200Y-96861904D02*
X211204819Y-96766666D01*
X211204819Y-96766666D02*
X211204819Y-96671428D01*
X211204819Y-96338094D02*
X210204819Y-96338094D01*
X210823866Y-96242856D02*
X211204819Y-95957142D01*
X210538152Y-95957142D02*
X210919104Y-96338094D01*
X210538152Y-95623808D02*
X211204819Y-95385713D01*
X210538152Y-95147618D02*
X211204819Y-95385713D01*
X211204819Y-95385713D02*
X211442914Y-95480951D01*
X211442914Y-95480951D02*
X211490533Y-95528570D01*
X211490533Y-95528570D02*
X211538152Y-95623808D01*
X211300057Y-95004761D02*
X211300057Y-94242856D01*
X210681009Y-93671427D02*
X210681009Y-94004760D01*
X211204819Y-94004760D02*
X210204819Y-94004760D01*
X210204819Y-94004760D02*
X210204819Y-93528570D01*
X211204819Y-93147617D02*
X210538152Y-93147617D01*
X210204819Y-93147617D02*
X210252438Y-93195236D01*
X210252438Y-93195236D02*
X210300057Y-93147617D01*
X210300057Y-93147617D02*
X210252438Y-93099998D01*
X210252438Y-93099998D02*
X210204819Y-93147617D01*
X210204819Y-93147617D02*
X210300057Y-93147617D01*
X211204819Y-92528570D02*
X211157200Y-92623808D01*
X211157200Y-92623808D02*
X211061961Y-92671427D01*
X211061961Y-92671427D02*
X210204819Y-92671427D01*
X211204819Y-92004760D02*
X211157200Y-92099998D01*
X211157200Y-92099998D02*
X211061961Y-92147617D01*
X211061961Y-92147617D02*
X210204819Y-92147617D01*
X211157200Y-91242855D02*
X211204819Y-91338093D01*
X211204819Y-91338093D02*
X211204819Y-91528569D01*
X211204819Y-91528569D02*
X211157200Y-91623807D01*
X211157200Y-91623807D02*
X211061961Y-91671426D01*
X211061961Y-91671426D02*
X210681009Y-91671426D01*
X210681009Y-91671426D02*
X210585771Y-91623807D01*
X210585771Y-91623807D02*
X210538152Y-91528569D01*
X210538152Y-91528569D02*
X210538152Y-91338093D01*
X210538152Y-91338093D02*
X210585771Y-91242855D01*
X210585771Y-91242855D02*
X210681009Y-91195236D01*
X210681009Y-91195236D02*
X210776247Y-91195236D01*
X210776247Y-91195236D02*
X210871485Y-91671426D01*
X211204819Y-90338093D02*
X210204819Y-90338093D01*
X211157200Y-90338093D02*
X211204819Y-90433331D01*
X211204819Y-90433331D02*
X211204819Y-90623807D01*
X211204819Y-90623807D02*
X211157200Y-90719045D01*
X211157200Y-90719045D02*
X211109580Y-90766664D01*
X211109580Y-90766664D02*
X211014342Y-90814283D01*
X211014342Y-90814283D02*
X210728628Y-90814283D01*
X210728628Y-90814283D02*
X210633390Y-90766664D01*
X210633390Y-90766664D02*
X210585771Y-90719045D01*
X210585771Y-90719045D02*
X210538152Y-90623807D01*
X210538152Y-90623807D02*
X210538152Y-90433331D01*
X210538152Y-90433331D02*
X210585771Y-90338093D01*
X211454819Y-103011904D02*
X210454819Y-103011904D01*
X211454819Y-102440476D02*
X210883390Y-102869047D01*
X210454819Y-102440476D02*
X211026247Y-103011904D01*
X211454819Y-96698094D02*
X210454819Y-96698094D01*
X210454819Y-96698094D02*
X210454819Y-96459999D01*
X210454819Y-96459999D02*
X210502438Y-96317142D01*
X210502438Y-96317142D02*
X210597676Y-96221904D01*
X210597676Y-96221904D02*
X210692914Y-96174285D01*
X210692914Y-96174285D02*
X210883390Y-96126666D01*
X210883390Y-96126666D02*
X211026247Y-96126666D01*
X211026247Y-96126666D02*
X211216723Y-96174285D01*
X211216723Y-96174285D02*
X211311961Y-96221904D01*
X211311961Y-96221904D02*
X211407200Y-96317142D01*
X211407200Y-96317142D02*
X211454819Y-96459999D01*
X211454819Y-96459999D02*
X211454819Y-96698094D01*
X210883390Y-95555237D02*
X210835771Y-95650475D01*
X210835771Y-95650475D02*
X210788152Y-95698094D01*
X210788152Y-95698094D02*
X210692914Y-95745713D01*
X210692914Y-95745713D02*
X210645295Y-95745713D01*
X210645295Y-95745713D02*
X210550057Y-95698094D01*
X210550057Y-95698094D02*
X210502438Y-95650475D01*
X210502438Y-95650475D02*
X210454819Y-95555237D01*
X210454819Y-95555237D02*
X210454819Y-95364761D01*
X210454819Y-95364761D02*
X210502438Y-95269523D01*
X210502438Y-95269523D02*
X210550057Y-95221904D01*
X210550057Y-95221904D02*
X210645295Y-95174285D01*
X210645295Y-95174285D02*
X210692914Y-95174285D01*
X210692914Y-95174285D02*
X210788152Y-95221904D01*
X210788152Y-95221904D02*
X210835771Y-95269523D01*
X210835771Y-95269523D02*
X210883390Y-95364761D01*
X210883390Y-95364761D02*
X210883390Y-95555237D01*
X210883390Y-95555237D02*
X210931009Y-95650475D01*
X210931009Y-95650475D02*
X210978628Y-95698094D01*
X210978628Y-95698094D02*
X211073866Y-95745713D01*
X211073866Y-95745713D02*
X211264342Y-95745713D01*
X211264342Y-95745713D02*
X211359580Y-95698094D01*
X211359580Y-95698094D02*
X211407200Y-95650475D01*
X211407200Y-95650475D02*
X211454819Y-95555237D01*
X211454819Y-95555237D02*
X211454819Y-95364761D01*
X211454819Y-95364761D02*
X211407200Y-95269523D01*
X211407200Y-95269523D02*
X211359580Y-95221904D01*
X211359580Y-95221904D02*
X211264342Y-95174285D01*
X211264342Y-95174285D02*
X211073866Y-95174285D01*
X211073866Y-95174285D02*
X210978628Y-95221904D01*
X210978628Y-95221904D02*
X210931009Y-95269523D01*
X210931009Y-95269523D02*
X210883390Y-95364761D01*
X181109580Y-99892858D02*
X181157200Y-99940477D01*
X181157200Y-99940477D02*
X181204819Y-100083334D01*
X181204819Y-100083334D02*
X181204819Y-100178572D01*
X181204819Y-100178572D02*
X181157200Y-100321429D01*
X181157200Y-100321429D02*
X181061961Y-100416667D01*
X181061961Y-100416667D02*
X180966723Y-100464286D01*
X180966723Y-100464286D02*
X180776247Y-100511905D01*
X180776247Y-100511905D02*
X180633390Y-100511905D01*
X180633390Y-100511905D02*
X180442914Y-100464286D01*
X180442914Y-100464286D02*
X180347676Y-100416667D01*
X180347676Y-100416667D02*
X180252438Y-100321429D01*
X180252438Y-100321429D02*
X180204819Y-100178572D01*
X180204819Y-100178572D02*
X180204819Y-100083334D01*
X180204819Y-100083334D02*
X180252438Y-99940477D01*
X180252438Y-99940477D02*
X180300057Y-99892858D01*
X181204819Y-99321429D02*
X181157200Y-99416667D01*
X181157200Y-99416667D02*
X181109580Y-99464286D01*
X181109580Y-99464286D02*
X181014342Y-99511905D01*
X181014342Y-99511905D02*
X180728628Y-99511905D01*
X180728628Y-99511905D02*
X180633390Y-99464286D01*
X180633390Y-99464286D02*
X180585771Y-99416667D01*
X180585771Y-99416667D02*
X180538152Y-99321429D01*
X180538152Y-99321429D02*
X180538152Y-99178572D01*
X180538152Y-99178572D02*
X180585771Y-99083334D01*
X180585771Y-99083334D02*
X180633390Y-99035715D01*
X180633390Y-99035715D02*
X180728628Y-98988096D01*
X180728628Y-98988096D02*
X181014342Y-98988096D01*
X181014342Y-98988096D02*
X181109580Y-99035715D01*
X181109580Y-99035715D02*
X181157200Y-99083334D01*
X181157200Y-99083334D02*
X181204819Y-99178572D01*
X181204819Y-99178572D02*
X181204819Y-99321429D01*
X180538152Y-98559524D02*
X181204819Y-98559524D01*
X180633390Y-98559524D02*
X180585771Y-98511905D01*
X180585771Y-98511905D02*
X180538152Y-98416667D01*
X180538152Y-98416667D02*
X180538152Y-98273810D01*
X180538152Y-98273810D02*
X180585771Y-98178572D01*
X180585771Y-98178572D02*
X180681009Y-98130953D01*
X180681009Y-98130953D02*
X181204819Y-98130953D01*
X180538152Y-97654762D02*
X181204819Y-97654762D01*
X180633390Y-97654762D02*
X180585771Y-97607143D01*
X180585771Y-97607143D02*
X180538152Y-97511905D01*
X180538152Y-97511905D02*
X180538152Y-97369048D01*
X180538152Y-97369048D02*
X180585771Y-97273810D01*
X180585771Y-97273810D02*
X180681009Y-97226191D01*
X180681009Y-97226191D02*
X181204819Y-97226191D01*
X181300057Y-96988096D02*
X181300057Y-96226191D01*
X180204819Y-95797619D02*
X180204819Y-95702381D01*
X180204819Y-95702381D02*
X180252438Y-95607143D01*
X180252438Y-95607143D02*
X180300057Y-95559524D01*
X180300057Y-95559524D02*
X180395295Y-95511905D01*
X180395295Y-95511905D02*
X180585771Y-95464286D01*
X180585771Y-95464286D02*
X180823866Y-95464286D01*
X180823866Y-95464286D02*
X181014342Y-95511905D01*
X181014342Y-95511905D02*
X181109580Y-95559524D01*
X181109580Y-95559524D02*
X181157200Y-95607143D01*
X181157200Y-95607143D02*
X181204819Y-95702381D01*
X181204819Y-95702381D02*
X181204819Y-95797619D01*
X181204819Y-95797619D02*
X181157200Y-95892857D01*
X181157200Y-95892857D02*
X181109580Y-95940476D01*
X181109580Y-95940476D02*
X181014342Y-95988095D01*
X181014342Y-95988095D02*
X180823866Y-96035714D01*
X180823866Y-96035714D02*
X180585771Y-96035714D01*
X180585771Y-96035714D02*
X180395295Y-95988095D01*
X180395295Y-95988095D02*
X180300057Y-95940476D01*
X180300057Y-95940476D02*
X180252438Y-95892857D01*
X180252438Y-95892857D02*
X180204819Y-95797619D01*
X180300057Y-95083333D02*
X180252438Y-95035714D01*
X180252438Y-95035714D02*
X180204819Y-94940476D01*
X180204819Y-94940476D02*
X180204819Y-94702381D01*
X180204819Y-94702381D02*
X180252438Y-94607143D01*
X180252438Y-94607143D02*
X180300057Y-94559524D01*
X180300057Y-94559524D02*
X180395295Y-94511905D01*
X180395295Y-94511905D02*
X180490533Y-94511905D01*
X180490533Y-94511905D02*
X180633390Y-94559524D01*
X180633390Y-94559524D02*
X181204819Y-95130952D01*
X181204819Y-95130952D02*
X181204819Y-94511905D01*
X181204819Y-94178571D02*
X180538152Y-93654762D01*
X180538152Y-94178571D02*
X181204819Y-93654762D01*
X181204819Y-92750000D02*
X181204819Y-93321428D01*
X181204819Y-93035714D02*
X180204819Y-93035714D01*
X180204819Y-93035714D02*
X180347676Y-93130952D01*
X180347676Y-93130952D02*
X180442914Y-93226190D01*
X180442914Y-93226190D02*
X180490533Y-93321428D01*
X181204819Y-92273809D02*
X181204819Y-92083333D01*
X181204819Y-92083333D02*
X181157200Y-91988095D01*
X181157200Y-91988095D02*
X181109580Y-91940476D01*
X181109580Y-91940476D02*
X180966723Y-91845238D01*
X180966723Y-91845238D02*
X180776247Y-91797619D01*
X180776247Y-91797619D02*
X180395295Y-91797619D01*
X180395295Y-91797619D02*
X180300057Y-91845238D01*
X180300057Y-91845238D02*
X180252438Y-91892857D01*
X180252438Y-91892857D02*
X180204819Y-91988095D01*
X180204819Y-91988095D02*
X180204819Y-92178571D01*
X180204819Y-92178571D02*
X180252438Y-92273809D01*
X180252438Y-92273809D02*
X180300057Y-92321428D01*
X180300057Y-92321428D02*
X180395295Y-92369047D01*
X180395295Y-92369047D02*
X180633390Y-92369047D01*
X180633390Y-92369047D02*
X180728628Y-92321428D01*
X180728628Y-92321428D02*
X180776247Y-92273809D01*
X180776247Y-92273809D02*
X180823866Y-92178571D01*
X180823866Y-92178571D02*
X180823866Y-91988095D01*
X180823866Y-91988095D02*
X180776247Y-91892857D01*
X180776247Y-91892857D02*
X180728628Y-91845238D01*
X180728628Y-91845238D02*
X180633390Y-91797619D01*
X181300057Y-91607143D02*
X181300057Y-90845238D01*
X180204819Y-90416666D02*
X180204819Y-90226190D01*
X180204819Y-90226190D02*
X180252438Y-90130952D01*
X180252438Y-90130952D02*
X180347676Y-90035714D01*
X180347676Y-90035714D02*
X180538152Y-89988095D01*
X180538152Y-89988095D02*
X180871485Y-89988095D01*
X180871485Y-89988095D02*
X181061961Y-90035714D01*
X181061961Y-90035714D02*
X181157200Y-90130952D01*
X181157200Y-90130952D02*
X181204819Y-90226190D01*
X181204819Y-90226190D02*
X181204819Y-90416666D01*
X181204819Y-90416666D02*
X181157200Y-90511904D01*
X181157200Y-90511904D02*
X181061961Y-90607142D01*
X181061961Y-90607142D02*
X180871485Y-90654761D01*
X180871485Y-90654761D02*
X180538152Y-90654761D01*
X180538152Y-90654761D02*
X180347676Y-90607142D01*
X180347676Y-90607142D02*
X180252438Y-90511904D01*
X180252438Y-90511904D02*
X180204819Y-90416666D01*
X181204819Y-89130952D02*
X180204819Y-89130952D01*
X181157200Y-89130952D02*
X181204819Y-89226190D01*
X181204819Y-89226190D02*
X181204819Y-89416666D01*
X181204819Y-89416666D02*
X181157200Y-89511904D01*
X181157200Y-89511904D02*
X181109580Y-89559523D01*
X181109580Y-89559523D02*
X181014342Y-89607142D01*
X181014342Y-89607142D02*
X180728628Y-89607142D01*
X180728628Y-89607142D02*
X180633390Y-89559523D01*
X180633390Y-89559523D02*
X180585771Y-89511904D01*
X180585771Y-89511904D02*
X180538152Y-89416666D01*
X180538152Y-89416666D02*
X180538152Y-89226190D01*
X180538152Y-89226190D02*
X180585771Y-89130952D01*
X181204819Y-88226190D02*
X180204819Y-88226190D01*
X181157200Y-88226190D02*
X181204819Y-88321428D01*
X181204819Y-88321428D02*
X181204819Y-88511904D01*
X181204819Y-88511904D02*
X181157200Y-88607142D01*
X181157200Y-88607142D02*
X181109580Y-88654761D01*
X181109580Y-88654761D02*
X181014342Y-88702380D01*
X181014342Y-88702380D02*
X180728628Y-88702380D01*
X180728628Y-88702380D02*
X180633390Y-88654761D01*
X180633390Y-88654761D02*
X180585771Y-88607142D01*
X180585771Y-88607142D02*
X180538152Y-88511904D01*
X180538152Y-88511904D02*
X180538152Y-88321428D01*
X180538152Y-88321428D02*
X180585771Y-88226190D01*
X181300057Y-87988095D02*
X181300057Y-87226190D01*
X180681009Y-86988094D02*
X180681009Y-86654761D01*
X181204819Y-86511904D02*
X181204819Y-86988094D01*
X181204819Y-86988094D02*
X180204819Y-86988094D01*
X180204819Y-86988094D02*
X180204819Y-86511904D01*
X180538152Y-86178570D02*
X181204819Y-85940475D01*
X181204819Y-85940475D02*
X180538152Y-85702380D01*
X181157200Y-84940475D02*
X181204819Y-85035713D01*
X181204819Y-85035713D02*
X181204819Y-85226189D01*
X181204819Y-85226189D02*
X181157200Y-85321427D01*
X181157200Y-85321427D02*
X181061961Y-85369046D01*
X181061961Y-85369046D02*
X180681009Y-85369046D01*
X180681009Y-85369046D02*
X180585771Y-85321427D01*
X180585771Y-85321427D02*
X180538152Y-85226189D01*
X180538152Y-85226189D02*
X180538152Y-85035713D01*
X180538152Y-85035713D02*
X180585771Y-84940475D01*
X180585771Y-84940475D02*
X180681009Y-84892856D01*
X180681009Y-84892856D02*
X180776247Y-84892856D01*
X180776247Y-84892856D02*
X180871485Y-85369046D01*
X180538152Y-84464284D02*
X181204819Y-84464284D01*
X180633390Y-84464284D02*
X180585771Y-84416665D01*
X180585771Y-84416665D02*
X180538152Y-84321427D01*
X180538152Y-84321427D02*
X180538152Y-84178570D01*
X180538152Y-84178570D02*
X180585771Y-84083332D01*
X180585771Y-84083332D02*
X180681009Y-84035713D01*
X180681009Y-84035713D02*
X181204819Y-84035713D01*
X184184819Y-108193333D02*
X184899104Y-108193333D01*
X184899104Y-108193333D02*
X185041961Y-108240952D01*
X185041961Y-108240952D02*
X185137200Y-108336190D01*
X185137200Y-108336190D02*
X185184819Y-108479047D01*
X185184819Y-108479047D02*
X185184819Y-108574285D01*
X184184819Y-107812380D02*
X184184819Y-107145714D01*
X184184819Y-107145714D02*
X185184819Y-107574285D01*
X204550057Y-114619047D02*
X204502438Y-114571428D01*
X204502438Y-114571428D02*
X204454819Y-114476190D01*
X204454819Y-114476190D02*
X204454819Y-114238095D01*
X204454819Y-114238095D02*
X204502438Y-114142857D01*
X204502438Y-114142857D02*
X204550057Y-114095238D01*
X204550057Y-114095238D02*
X204645295Y-114047619D01*
X204645295Y-114047619D02*
X204740533Y-114047619D01*
X204740533Y-114047619D02*
X204883390Y-114095238D01*
X204883390Y-114095238D02*
X205454819Y-114666666D01*
X205454819Y-114666666D02*
X205454819Y-114047619D01*
X204550057Y-113666666D02*
X204502438Y-113619047D01*
X204502438Y-113619047D02*
X204454819Y-113523809D01*
X204454819Y-113523809D02*
X204454819Y-113285714D01*
X204454819Y-113285714D02*
X204502438Y-113190476D01*
X204502438Y-113190476D02*
X204550057Y-113142857D01*
X204550057Y-113142857D02*
X204645295Y-113095238D01*
X204645295Y-113095238D02*
X204740533Y-113095238D01*
X204740533Y-113095238D02*
X204883390Y-113142857D01*
X204883390Y-113142857D02*
X205454819Y-113714285D01*
X205454819Y-113714285D02*
X205454819Y-113095238D01*
X204454819Y-112476190D02*
X204454819Y-112380952D01*
X204454819Y-112380952D02*
X204502438Y-112285714D01*
X204502438Y-112285714D02*
X204550057Y-112238095D01*
X204550057Y-112238095D02*
X204645295Y-112190476D01*
X204645295Y-112190476D02*
X204835771Y-112142857D01*
X204835771Y-112142857D02*
X205073866Y-112142857D01*
X205073866Y-112142857D02*
X205264342Y-112190476D01*
X205264342Y-112190476D02*
X205359580Y-112238095D01*
X205359580Y-112238095D02*
X205407200Y-112285714D01*
X205407200Y-112285714D02*
X205454819Y-112380952D01*
X205454819Y-112380952D02*
X205454819Y-112476190D01*
X205454819Y-112476190D02*
X205407200Y-112571428D01*
X205407200Y-112571428D02*
X205359580Y-112619047D01*
X205359580Y-112619047D02*
X205264342Y-112666666D01*
X205264342Y-112666666D02*
X205073866Y-112714285D01*
X205073866Y-112714285D02*
X204835771Y-112714285D01*
X204835771Y-112714285D02*
X204645295Y-112666666D01*
X204645295Y-112666666D02*
X204550057Y-112619047D01*
X204550057Y-112619047D02*
X204502438Y-112571428D01*
X204502438Y-112571428D02*
X204454819Y-112476190D01*
X204788152Y-111285714D02*
X205454819Y-111285714D01*
X204788152Y-111714285D02*
X205311961Y-111714285D01*
X205311961Y-111714285D02*
X205407200Y-111666666D01*
X205407200Y-111666666D02*
X205454819Y-111571428D01*
X205454819Y-111571428D02*
X205454819Y-111428571D01*
X205454819Y-111428571D02*
X205407200Y-111333333D01*
X205407200Y-111333333D02*
X205359580Y-111285714D01*
X204931009Y-110476190D02*
X204931009Y-110809523D01*
X205454819Y-110809523D02*
X204454819Y-110809523D01*
X204454819Y-110809523D02*
X204454819Y-110333333D01*
X200583333Y-112859580D02*
X200535714Y-112907200D01*
X200535714Y-112907200D02*
X200392857Y-112954819D01*
X200392857Y-112954819D02*
X200297619Y-112954819D01*
X200297619Y-112954819D02*
X200154762Y-112907200D01*
X200154762Y-112907200D02*
X200059524Y-112811961D01*
X200059524Y-112811961D02*
X200011905Y-112716723D01*
X200011905Y-112716723D02*
X199964286Y-112526247D01*
X199964286Y-112526247D02*
X199964286Y-112383390D01*
X199964286Y-112383390D02*
X200011905Y-112192914D01*
X200011905Y-112192914D02*
X200059524Y-112097676D01*
X200059524Y-112097676D02*
X200154762Y-112002438D01*
X200154762Y-112002438D02*
X200297619Y-111954819D01*
X200297619Y-111954819D02*
X200392857Y-111954819D01*
X200392857Y-111954819D02*
X200535714Y-112002438D01*
X200535714Y-112002438D02*
X200583333Y-112050057D01*
X200964286Y-112050057D02*
X201011905Y-112002438D01*
X201011905Y-112002438D02*
X201107143Y-111954819D01*
X201107143Y-111954819D02*
X201345238Y-111954819D01*
X201345238Y-111954819D02*
X201440476Y-112002438D01*
X201440476Y-112002438D02*
X201488095Y-112050057D01*
X201488095Y-112050057D02*
X201535714Y-112145295D01*
X201535714Y-112145295D02*
X201535714Y-112240533D01*
X201535714Y-112240533D02*
X201488095Y-112383390D01*
X201488095Y-112383390D02*
X200916667Y-112954819D01*
X200916667Y-112954819D02*
X201535714Y-112954819D01*
X188954819Y-101211905D02*
X187954819Y-101211905D01*
X187954819Y-101211905D02*
X187954819Y-100973810D01*
X187954819Y-100973810D02*
X188002438Y-100830953D01*
X188002438Y-100830953D02*
X188097676Y-100735715D01*
X188097676Y-100735715D02*
X188192914Y-100688096D01*
X188192914Y-100688096D02*
X188383390Y-100640477D01*
X188383390Y-100640477D02*
X188526247Y-100640477D01*
X188526247Y-100640477D02*
X188716723Y-100688096D01*
X188716723Y-100688096D02*
X188811961Y-100735715D01*
X188811961Y-100735715D02*
X188907200Y-100830953D01*
X188907200Y-100830953D02*
X188954819Y-100973810D01*
X188954819Y-100973810D02*
X188954819Y-101211905D01*
X189050057Y-100450001D02*
X189050057Y-99688096D01*
X188907200Y-99497619D02*
X188954819Y-99354762D01*
X188954819Y-99354762D02*
X188954819Y-99116667D01*
X188954819Y-99116667D02*
X188907200Y-99021429D01*
X188907200Y-99021429D02*
X188859580Y-98973810D01*
X188859580Y-98973810D02*
X188764342Y-98926191D01*
X188764342Y-98926191D02*
X188669104Y-98926191D01*
X188669104Y-98926191D02*
X188573866Y-98973810D01*
X188573866Y-98973810D02*
X188526247Y-99021429D01*
X188526247Y-99021429D02*
X188478628Y-99116667D01*
X188478628Y-99116667D02*
X188431009Y-99307143D01*
X188431009Y-99307143D02*
X188383390Y-99402381D01*
X188383390Y-99402381D02*
X188335771Y-99450000D01*
X188335771Y-99450000D02*
X188240533Y-99497619D01*
X188240533Y-99497619D02*
X188145295Y-99497619D01*
X188145295Y-99497619D02*
X188050057Y-99450000D01*
X188050057Y-99450000D02*
X188002438Y-99402381D01*
X188002438Y-99402381D02*
X187954819Y-99307143D01*
X187954819Y-99307143D02*
X187954819Y-99069048D01*
X187954819Y-99069048D02*
X188002438Y-98926191D01*
X188907200Y-98069048D02*
X188954819Y-98164286D01*
X188954819Y-98164286D02*
X188954819Y-98354762D01*
X188954819Y-98354762D02*
X188907200Y-98450000D01*
X188907200Y-98450000D02*
X188859580Y-98497619D01*
X188859580Y-98497619D02*
X188764342Y-98545238D01*
X188764342Y-98545238D02*
X188478628Y-98545238D01*
X188478628Y-98545238D02*
X188383390Y-98497619D01*
X188383390Y-98497619D02*
X188335771Y-98450000D01*
X188335771Y-98450000D02*
X188288152Y-98354762D01*
X188288152Y-98354762D02*
X188288152Y-98164286D01*
X188288152Y-98164286D02*
X188335771Y-98069048D01*
X188954819Y-97640476D02*
X187954819Y-97640476D01*
X188954819Y-97211905D02*
X188431009Y-97211905D01*
X188431009Y-97211905D02*
X188335771Y-97259524D01*
X188335771Y-97259524D02*
X188288152Y-97354762D01*
X188288152Y-97354762D02*
X188288152Y-97497619D01*
X188288152Y-97497619D02*
X188335771Y-97592857D01*
X188335771Y-97592857D02*
X188383390Y-97640476D01*
X188954819Y-96592857D02*
X188907200Y-96688095D01*
X188907200Y-96688095D02*
X188859580Y-96735714D01*
X188859580Y-96735714D02*
X188764342Y-96783333D01*
X188764342Y-96783333D02*
X188478628Y-96783333D01*
X188478628Y-96783333D02*
X188383390Y-96735714D01*
X188383390Y-96735714D02*
X188335771Y-96688095D01*
X188335771Y-96688095D02*
X188288152Y-96592857D01*
X188288152Y-96592857D02*
X188288152Y-96450000D01*
X188288152Y-96450000D02*
X188335771Y-96354762D01*
X188335771Y-96354762D02*
X188383390Y-96307143D01*
X188383390Y-96307143D02*
X188478628Y-96259524D01*
X188478628Y-96259524D02*
X188764342Y-96259524D01*
X188764342Y-96259524D02*
X188859580Y-96307143D01*
X188859580Y-96307143D02*
X188907200Y-96354762D01*
X188907200Y-96354762D02*
X188954819Y-96450000D01*
X188954819Y-96450000D02*
X188954819Y-96592857D01*
X188288152Y-95973809D02*
X188288152Y-95592857D01*
X187954819Y-95830952D02*
X188811961Y-95830952D01*
X188811961Y-95830952D02*
X188907200Y-95783333D01*
X188907200Y-95783333D02*
X188954819Y-95688095D01*
X188954819Y-95688095D02*
X188954819Y-95592857D01*
X188288152Y-95402380D02*
X188288152Y-95021428D01*
X187954819Y-95259523D02*
X188811961Y-95259523D01*
X188811961Y-95259523D02*
X188907200Y-95211904D01*
X188907200Y-95211904D02*
X188954819Y-95116666D01*
X188954819Y-95116666D02*
X188954819Y-95021428D01*
X188954819Y-94688094D02*
X187954819Y-94688094D01*
X188573866Y-94592856D02*
X188954819Y-94307142D01*
X188288152Y-94307142D02*
X188669104Y-94688094D01*
X188288152Y-93973808D02*
X188954819Y-93735713D01*
X188288152Y-93497618D02*
X188954819Y-93735713D01*
X188954819Y-93735713D02*
X189192914Y-93830951D01*
X189192914Y-93830951D02*
X189240533Y-93878570D01*
X189240533Y-93878570D02*
X189288152Y-93973808D01*
X189050057Y-93354761D02*
X189050057Y-92592856D01*
X188431009Y-92021427D02*
X188431009Y-92354760D01*
X188954819Y-92354760D02*
X187954819Y-92354760D01*
X187954819Y-92354760D02*
X187954819Y-91878570D01*
X188954819Y-91497617D02*
X188288152Y-91497617D01*
X187954819Y-91497617D02*
X188002438Y-91545236D01*
X188002438Y-91545236D02*
X188050057Y-91497617D01*
X188050057Y-91497617D02*
X188002438Y-91449998D01*
X188002438Y-91449998D02*
X187954819Y-91497617D01*
X187954819Y-91497617D02*
X188050057Y-91497617D01*
X188954819Y-90878570D02*
X188907200Y-90973808D01*
X188907200Y-90973808D02*
X188811961Y-91021427D01*
X188811961Y-91021427D02*
X187954819Y-91021427D01*
X188954819Y-90354760D02*
X188907200Y-90449998D01*
X188907200Y-90449998D02*
X188811961Y-90497617D01*
X188811961Y-90497617D02*
X187954819Y-90497617D01*
X188907200Y-89592855D02*
X188954819Y-89688093D01*
X188954819Y-89688093D02*
X188954819Y-89878569D01*
X188954819Y-89878569D02*
X188907200Y-89973807D01*
X188907200Y-89973807D02*
X188811961Y-90021426D01*
X188811961Y-90021426D02*
X188431009Y-90021426D01*
X188431009Y-90021426D02*
X188335771Y-89973807D01*
X188335771Y-89973807D02*
X188288152Y-89878569D01*
X188288152Y-89878569D02*
X188288152Y-89688093D01*
X188288152Y-89688093D02*
X188335771Y-89592855D01*
X188335771Y-89592855D02*
X188431009Y-89545236D01*
X188431009Y-89545236D02*
X188526247Y-89545236D01*
X188526247Y-89545236D02*
X188621485Y-90021426D01*
X188954819Y-88688093D02*
X187954819Y-88688093D01*
X188907200Y-88688093D02*
X188954819Y-88783331D01*
X188954819Y-88783331D02*
X188954819Y-88973807D01*
X188954819Y-88973807D02*
X188907200Y-89069045D01*
X188907200Y-89069045D02*
X188859580Y-89116664D01*
X188859580Y-89116664D02*
X188764342Y-89164283D01*
X188764342Y-89164283D02*
X188478628Y-89164283D01*
X188478628Y-89164283D02*
X188383390Y-89116664D01*
X188383390Y-89116664D02*
X188335771Y-89069045D01*
X188335771Y-89069045D02*
X188288152Y-88973807D01*
X188288152Y-88973807D02*
X188288152Y-88783331D01*
X188288152Y-88783331D02*
X188335771Y-88688093D01*
X191204819Y-104961904D02*
X190204819Y-104961904D01*
X191204819Y-104390476D02*
X190633390Y-104819047D01*
X190204819Y-104390476D02*
X190776247Y-104961904D01*
X191204819Y-96698094D02*
X190204819Y-96698094D01*
X190204819Y-96698094D02*
X190204819Y-96459999D01*
X190204819Y-96459999D02*
X190252438Y-96317142D01*
X190252438Y-96317142D02*
X190347676Y-96221904D01*
X190347676Y-96221904D02*
X190442914Y-96174285D01*
X190442914Y-96174285D02*
X190633390Y-96126666D01*
X190633390Y-96126666D02*
X190776247Y-96126666D01*
X190776247Y-96126666D02*
X190966723Y-96174285D01*
X190966723Y-96174285D02*
X191061961Y-96221904D01*
X191061961Y-96221904D02*
X191157200Y-96317142D01*
X191157200Y-96317142D02*
X191204819Y-96459999D01*
X191204819Y-96459999D02*
X191204819Y-96698094D01*
X191204819Y-95650475D02*
X191204819Y-95459999D01*
X191204819Y-95459999D02*
X191157200Y-95364761D01*
X191157200Y-95364761D02*
X191109580Y-95317142D01*
X191109580Y-95317142D02*
X190966723Y-95221904D01*
X190966723Y-95221904D02*
X190776247Y-95174285D01*
X190776247Y-95174285D02*
X190395295Y-95174285D01*
X190395295Y-95174285D02*
X190300057Y-95221904D01*
X190300057Y-95221904D02*
X190252438Y-95269523D01*
X190252438Y-95269523D02*
X190204819Y-95364761D01*
X190204819Y-95364761D02*
X190204819Y-95555237D01*
X190204819Y-95555237D02*
X190252438Y-95650475D01*
X190252438Y-95650475D02*
X190300057Y-95698094D01*
X190300057Y-95698094D02*
X190395295Y-95745713D01*
X190395295Y-95745713D02*
X190633390Y-95745713D01*
X190633390Y-95745713D02*
X190728628Y-95698094D01*
X190728628Y-95698094D02*
X190776247Y-95650475D01*
X190776247Y-95650475D02*
X190823866Y-95555237D01*
X190823866Y-95555237D02*
X190823866Y-95364761D01*
X190823866Y-95364761D02*
X190776247Y-95269523D01*
X190776247Y-95269523D02*
X190728628Y-95221904D01*
X190728628Y-95221904D02*
X190633390Y-95174285D01*
X201629642Y-88384819D02*
X201153452Y-88384819D01*
X201153452Y-88384819D02*
X201153452Y-87384819D01*
X201915357Y-87480057D02*
X201962976Y-87432438D01*
X201962976Y-87432438D02*
X202058214Y-87384819D01*
X202058214Y-87384819D02*
X202296309Y-87384819D01*
X202296309Y-87384819D02*
X202391547Y-87432438D01*
X202391547Y-87432438D02*
X202439166Y-87480057D01*
X202439166Y-87480057D02*
X202486785Y-87575295D01*
X202486785Y-87575295D02*
X202486785Y-87670533D01*
X202486785Y-87670533D02*
X202439166Y-87813390D01*
X202439166Y-87813390D02*
X201867738Y-88384819D01*
X201867738Y-88384819D02*
X202486785Y-88384819D01*
X202962976Y-88384819D02*
X203153452Y-88384819D01*
X203153452Y-88384819D02*
X203248690Y-88337200D01*
X203248690Y-88337200D02*
X203296309Y-88289580D01*
X203296309Y-88289580D02*
X203391547Y-88146723D01*
X203391547Y-88146723D02*
X203439166Y-87956247D01*
X203439166Y-87956247D02*
X203439166Y-87575295D01*
X203439166Y-87575295D02*
X203391547Y-87480057D01*
X203391547Y-87480057D02*
X203343928Y-87432438D01*
X203343928Y-87432438D02*
X203248690Y-87384819D01*
X203248690Y-87384819D02*
X203058214Y-87384819D01*
X203058214Y-87384819D02*
X202962976Y-87432438D01*
X202962976Y-87432438D02*
X202915357Y-87480057D01*
X202915357Y-87480057D02*
X202867738Y-87575295D01*
X202867738Y-87575295D02*
X202867738Y-87813390D01*
X202867738Y-87813390D02*
X202915357Y-87908628D01*
X202915357Y-87908628D02*
X202962976Y-87956247D01*
X202962976Y-87956247D02*
X203058214Y-88003866D01*
X203058214Y-88003866D02*
X203248690Y-88003866D01*
X203248690Y-88003866D02*
X203343928Y-87956247D01*
X203343928Y-87956247D02*
X203391547Y-87908628D01*
X203391547Y-87908628D02*
X203439166Y-87813390D01*
X204010595Y-87813390D02*
X203915357Y-87765771D01*
X203915357Y-87765771D02*
X203867738Y-87718152D01*
X203867738Y-87718152D02*
X203820119Y-87622914D01*
X203820119Y-87622914D02*
X203820119Y-87575295D01*
X203820119Y-87575295D02*
X203867738Y-87480057D01*
X203867738Y-87480057D02*
X203915357Y-87432438D01*
X203915357Y-87432438D02*
X204010595Y-87384819D01*
X204010595Y-87384819D02*
X204201071Y-87384819D01*
X204201071Y-87384819D02*
X204296309Y-87432438D01*
X204296309Y-87432438D02*
X204343928Y-87480057D01*
X204343928Y-87480057D02*
X204391547Y-87575295D01*
X204391547Y-87575295D02*
X204391547Y-87622914D01*
X204391547Y-87622914D02*
X204343928Y-87718152D01*
X204343928Y-87718152D02*
X204296309Y-87765771D01*
X204296309Y-87765771D02*
X204201071Y-87813390D01*
X204201071Y-87813390D02*
X204010595Y-87813390D01*
X204010595Y-87813390D02*
X203915357Y-87861009D01*
X203915357Y-87861009D02*
X203867738Y-87908628D01*
X203867738Y-87908628D02*
X203820119Y-88003866D01*
X203820119Y-88003866D02*
X203820119Y-88194342D01*
X203820119Y-88194342D02*
X203867738Y-88289580D01*
X203867738Y-88289580D02*
X203915357Y-88337200D01*
X203915357Y-88337200D02*
X204010595Y-88384819D01*
X204010595Y-88384819D02*
X204201071Y-88384819D01*
X204201071Y-88384819D02*
X204296309Y-88337200D01*
X204296309Y-88337200D02*
X204343928Y-88289580D01*
X204343928Y-88289580D02*
X204391547Y-88194342D01*
X204391547Y-88194342D02*
X204391547Y-88003866D01*
X204391547Y-88003866D02*
X204343928Y-87908628D01*
X204343928Y-87908628D02*
X204296309Y-87861009D01*
X204296309Y-87861009D02*
X204201071Y-87813390D01*
X204820119Y-88384819D02*
X204820119Y-87384819D01*
X204820119Y-87384819D02*
X205391547Y-88384819D01*
X205391547Y-88384819D02*
X205391547Y-87384819D01*
X193297618Y-121954819D02*
X192821428Y-121954819D01*
X192821428Y-121954819D02*
X192821428Y-120954819D01*
X193630952Y-121954819D02*
X193630952Y-120954819D01*
X193630952Y-120954819D02*
X193964285Y-121669104D01*
X193964285Y-121669104D02*
X194297618Y-120954819D01*
X194297618Y-120954819D02*
X194297618Y-121954819D01*
X194678571Y-120954819D02*
X195345237Y-120954819D01*
X195345237Y-120954819D02*
X194916666Y-121954819D01*
X195869047Y-121383390D02*
X195773809Y-121335771D01*
X195773809Y-121335771D02*
X195726190Y-121288152D01*
X195726190Y-121288152D02*
X195678571Y-121192914D01*
X195678571Y-121192914D02*
X195678571Y-121145295D01*
X195678571Y-121145295D02*
X195726190Y-121050057D01*
X195726190Y-121050057D02*
X195773809Y-121002438D01*
X195773809Y-121002438D02*
X195869047Y-120954819D01*
X195869047Y-120954819D02*
X196059523Y-120954819D01*
X196059523Y-120954819D02*
X196154761Y-121002438D01*
X196154761Y-121002438D02*
X196202380Y-121050057D01*
X196202380Y-121050057D02*
X196249999Y-121145295D01*
X196249999Y-121145295D02*
X196249999Y-121192914D01*
X196249999Y-121192914D02*
X196202380Y-121288152D01*
X196202380Y-121288152D02*
X196154761Y-121335771D01*
X196154761Y-121335771D02*
X196059523Y-121383390D01*
X196059523Y-121383390D02*
X195869047Y-121383390D01*
X195869047Y-121383390D02*
X195773809Y-121431009D01*
X195773809Y-121431009D02*
X195726190Y-121478628D01*
X195726190Y-121478628D02*
X195678571Y-121573866D01*
X195678571Y-121573866D02*
X195678571Y-121764342D01*
X195678571Y-121764342D02*
X195726190Y-121859580D01*
X195726190Y-121859580D02*
X195773809Y-121907200D01*
X195773809Y-121907200D02*
X195869047Y-121954819D01*
X195869047Y-121954819D02*
X196059523Y-121954819D01*
X196059523Y-121954819D02*
X196154761Y-121907200D01*
X196154761Y-121907200D02*
X196202380Y-121859580D01*
X196202380Y-121859580D02*
X196249999Y-121764342D01*
X196249999Y-121764342D02*
X196249999Y-121573866D01*
X196249999Y-121573866D02*
X196202380Y-121478628D01*
X196202380Y-121478628D02*
X196154761Y-121431009D01*
X196154761Y-121431009D02*
X196059523Y-121383390D01*
X196678571Y-121954819D02*
X196678571Y-120954819D01*
X196678571Y-120954819D02*
X197011904Y-121669104D01*
X197011904Y-121669104D02*
X197345237Y-120954819D01*
X197345237Y-120954819D02*
X197345237Y-121954819D01*
X198011904Y-120954819D02*
X198107142Y-120954819D01*
X198107142Y-120954819D02*
X198202380Y-121002438D01*
X198202380Y-121002438D02*
X198249999Y-121050057D01*
X198249999Y-121050057D02*
X198297618Y-121145295D01*
X198297618Y-121145295D02*
X198345237Y-121335771D01*
X198345237Y-121335771D02*
X198345237Y-121573866D01*
X198345237Y-121573866D02*
X198297618Y-121764342D01*
X198297618Y-121764342D02*
X198249999Y-121859580D01*
X198249999Y-121859580D02*
X198202380Y-121907200D01*
X198202380Y-121907200D02*
X198107142Y-121954819D01*
X198107142Y-121954819D02*
X198011904Y-121954819D01*
X198011904Y-121954819D02*
X197916666Y-121907200D01*
X197916666Y-121907200D02*
X197869047Y-121859580D01*
X197869047Y-121859580D02*
X197821428Y-121764342D01*
X197821428Y-121764342D02*
X197773809Y-121573866D01*
X197773809Y-121573866D02*
X197773809Y-121335771D01*
X197773809Y-121335771D02*
X197821428Y-121145295D01*
X197821428Y-121145295D02*
X197869047Y-121050057D01*
X197869047Y-121050057D02*
X197916666Y-121002438D01*
X197916666Y-121002438D02*
X198011904Y-120954819D01*
X199249999Y-120954819D02*
X198773809Y-120954819D01*
X198773809Y-120954819D02*
X198726190Y-121431009D01*
X198726190Y-121431009D02*
X198773809Y-121383390D01*
X198773809Y-121383390D02*
X198869047Y-121335771D01*
X198869047Y-121335771D02*
X199107142Y-121335771D01*
X199107142Y-121335771D02*
X199202380Y-121383390D01*
X199202380Y-121383390D02*
X199249999Y-121431009D01*
X199249999Y-121431009D02*
X199297618Y-121526247D01*
X199297618Y-121526247D02*
X199297618Y-121764342D01*
X199297618Y-121764342D02*
X199249999Y-121859580D01*
X199249999Y-121859580D02*
X199202380Y-121907200D01*
X199202380Y-121907200D02*
X199107142Y-121954819D01*
X199107142Y-121954819D02*
X198869047Y-121954819D01*
X198869047Y-121954819D02*
X198773809Y-121907200D01*
X198773809Y-121907200D02*
X198726190Y-121859580D01*
X199488095Y-122050057D02*
X200249999Y-122050057D01*
X200345238Y-120954819D02*
X200916666Y-120954819D01*
X200630952Y-121954819D02*
X200630952Y-120954819D01*
X201440476Y-120954819D02*
X201630952Y-120954819D01*
X201630952Y-120954819D02*
X201726190Y-121002438D01*
X201726190Y-121002438D02*
X201821428Y-121097676D01*
X201821428Y-121097676D02*
X201869047Y-121288152D01*
X201869047Y-121288152D02*
X201869047Y-121621485D01*
X201869047Y-121621485D02*
X201821428Y-121811961D01*
X201821428Y-121811961D02*
X201726190Y-121907200D01*
X201726190Y-121907200D02*
X201630952Y-121954819D01*
X201630952Y-121954819D02*
X201440476Y-121954819D01*
X201440476Y-121954819D02*
X201345238Y-121907200D01*
X201345238Y-121907200D02*
X201250000Y-121811961D01*
X201250000Y-121811961D02*
X201202381Y-121621485D01*
X201202381Y-121621485D02*
X201202381Y-121288152D01*
X201202381Y-121288152D02*
X201250000Y-121097676D01*
X201250000Y-121097676D02*
X201345238Y-121002438D01*
X201345238Y-121002438D02*
X201440476Y-120954819D01*
X202250000Y-121050057D02*
X202297619Y-121002438D01*
X202297619Y-121002438D02*
X202392857Y-120954819D01*
X202392857Y-120954819D02*
X202630952Y-120954819D01*
X202630952Y-120954819D02*
X202726190Y-121002438D01*
X202726190Y-121002438D02*
X202773809Y-121050057D01*
X202773809Y-121050057D02*
X202821428Y-121145295D01*
X202821428Y-121145295D02*
X202821428Y-121240533D01*
X202821428Y-121240533D02*
X202773809Y-121383390D01*
X202773809Y-121383390D02*
X202202381Y-121954819D01*
X202202381Y-121954819D02*
X202821428Y-121954819D01*
X203202381Y-121050057D02*
X203250000Y-121002438D01*
X203250000Y-121002438D02*
X203345238Y-120954819D01*
X203345238Y-120954819D02*
X203583333Y-120954819D01*
X203583333Y-120954819D02*
X203678571Y-121002438D01*
X203678571Y-121002438D02*
X203726190Y-121050057D01*
X203726190Y-121050057D02*
X203773809Y-121145295D01*
X203773809Y-121145295D02*
X203773809Y-121240533D01*
X203773809Y-121240533D02*
X203726190Y-121383390D01*
X203726190Y-121383390D02*
X203154762Y-121954819D01*
X203154762Y-121954819D02*
X203773809Y-121954819D01*
X204392857Y-120954819D02*
X204488095Y-120954819D01*
X204488095Y-120954819D02*
X204583333Y-121002438D01*
X204583333Y-121002438D02*
X204630952Y-121050057D01*
X204630952Y-121050057D02*
X204678571Y-121145295D01*
X204678571Y-121145295D02*
X204726190Y-121335771D01*
X204726190Y-121335771D02*
X204726190Y-121573866D01*
X204726190Y-121573866D02*
X204678571Y-121764342D01*
X204678571Y-121764342D02*
X204630952Y-121859580D01*
X204630952Y-121859580D02*
X204583333Y-121907200D01*
X204583333Y-121907200D02*
X204488095Y-121954819D01*
X204488095Y-121954819D02*
X204392857Y-121954819D01*
X204392857Y-121954819D02*
X204297619Y-121907200D01*
X204297619Y-121907200D02*
X204250000Y-121859580D01*
X204250000Y-121859580D02*
X204202381Y-121764342D01*
X204202381Y-121764342D02*
X204154762Y-121573866D01*
X204154762Y-121573866D02*
X204154762Y-121335771D01*
X204154762Y-121335771D02*
X204202381Y-121145295D01*
X204202381Y-121145295D02*
X204250000Y-121050057D01*
X204250000Y-121050057D02*
X204297619Y-121002438D01*
X204297619Y-121002438D02*
X204392857Y-120954819D01*
X198198095Y-117454819D02*
X198198095Y-118264342D01*
X198198095Y-118264342D02*
X198245714Y-118359580D01*
X198245714Y-118359580D02*
X198293333Y-118407200D01*
X198293333Y-118407200D02*
X198388571Y-118454819D01*
X198388571Y-118454819D02*
X198579047Y-118454819D01*
X198579047Y-118454819D02*
X198674285Y-118407200D01*
X198674285Y-118407200D02*
X198721904Y-118359580D01*
X198721904Y-118359580D02*
X198769523Y-118264342D01*
X198769523Y-118264342D02*
X198769523Y-117454819D01*
X199769523Y-118454819D02*
X199198095Y-118454819D01*
X199483809Y-118454819D02*
X199483809Y-117454819D01*
X199483809Y-117454819D02*
X199388571Y-117597676D01*
X199388571Y-117597676D02*
X199293333Y-117692914D01*
X199293333Y-117692914D02*
X199198095Y-117740533D01*
X200869047Y-109704819D02*
X200869047Y-110419104D01*
X200869047Y-110419104D02*
X200821428Y-110561961D01*
X200821428Y-110561961D02*
X200726190Y-110657200D01*
X200726190Y-110657200D02*
X200583333Y-110704819D01*
X200583333Y-110704819D02*
X200488095Y-110704819D01*
X201773809Y-110038152D02*
X201773809Y-110704819D01*
X201345238Y-110038152D02*
X201345238Y-110561961D01*
X201345238Y-110561961D02*
X201392857Y-110657200D01*
X201392857Y-110657200D02*
X201488095Y-110704819D01*
X201488095Y-110704819D02*
X201630952Y-110704819D01*
X201630952Y-110704819D02*
X201726190Y-110657200D01*
X201726190Y-110657200D02*
X201773809Y-110609580D01*
X202250000Y-110704819D02*
X202250000Y-110038152D01*
X202250000Y-110133390D02*
X202297619Y-110085771D01*
X202297619Y-110085771D02*
X202392857Y-110038152D01*
X202392857Y-110038152D02*
X202535714Y-110038152D01*
X202535714Y-110038152D02*
X202630952Y-110085771D01*
X202630952Y-110085771D02*
X202678571Y-110181009D01*
X202678571Y-110181009D02*
X202678571Y-110704819D01*
X202678571Y-110181009D02*
X202726190Y-110085771D01*
X202726190Y-110085771D02*
X202821428Y-110038152D01*
X202821428Y-110038152D02*
X202964285Y-110038152D01*
X202964285Y-110038152D02*
X203059524Y-110085771D01*
X203059524Y-110085771D02*
X203107143Y-110181009D01*
X203107143Y-110181009D02*
X203107143Y-110704819D01*
X203583333Y-110038152D02*
X203583333Y-111038152D01*
X203583333Y-110085771D02*
X203678571Y-110038152D01*
X203678571Y-110038152D02*
X203869047Y-110038152D01*
X203869047Y-110038152D02*
X203964285Y-110085771D01*
X203964285Y-110085771D02*
X204011904Y-110133390D01*
X204011904Y-110133390D02*
X204059523Y-110228628D01*
X204059523Y-110228628D02*
X204059523Y-110514342D01*
X204059523Y-110514342D02*
X204011904Y-110609580D01*
X204011904Y-110609580D02*
X203964285Y-110657200D01*
X203964285Y-110657200D02*
X203869047Y-110704819D01*
X203869047Y-110704819D02*
X203678571Y-110704819D01*
X203678571Y-110704819D02*
X203583333Y-110657200D01*
X204869047Y-110657200D02*
X204773809Y-110704819D01*
X204773809Y-110704819D02*
X204583333Y-110704819D01*
X204583333Y-110704819D02*
X204488095Y-110657200D01*
X204488095Y-110657200D02*
X204440476Y-110561961D01*
X204440476Y-110561961D02*
X204440476Y-110181009D01*
X204440476Y-110181009D02*
X204488095Y-110085771D01*
X204488095Y-110085771D02*
X204583333Y-110038152D01*
X204583333Y-110038152D02*
X204773809Y-110038152D01*
X204773809Y-110038152D02*
X204869047Y-110085771D01*
X204869047Y-110085771D02*
X204916666Y-110181009D01*
X204916666Y-110181009D02*
X204916666Y-110276247D01*
X204916666Y-110276247D02*
X204440476Y-110371485D01*
X205345238Y-110704819D02*
X205345238Y-110038152D01*
X205345238Y-110228628D02*
X205392857Y-110133390D01*
X205392857Y-110133390D02*
X205440476Y-110085771D01*
X205440476Y-110085771D02*
X205535714Y-110038152D01*
X205535714Y-110038152D02*
X205630952Y-110038152D01*
X205726191Y-110800057D02*
X206488095Y-110800057D01*
X207059524Y-110181009D02*
X207202381Y-110228628D01*
X207202381Y-110228628D02*
X207250000Y-110276247D01*
X207250000Y-110276247D02*
X207297619Y-110371485D01*
X207297619Y-110371485D02*
X207297619Y-110514342D01*
X207297619Y-110514342D02*
X207250000Y-110609580D01*
X207250000Y-110609580D02*
X207202381Y-110657200D01*
X207202381Y-110657200D02*
X207107143Y-110704819D01*
X207107143Y-110704819D02*
X206726191Y-110704819D01*
X206726191Y-110704819D02*
X206726191Y-109704819D01*
X206726191Y-109704819D02*
X207059524Y-109704819D01*
X207059524Y-109704819D02*
X207154762Y-109752438D01*
X207154762Y-109752438D02*
X207202381Y-109800057D01*
X207202381Y-109800057D02*
X207250000Y-109895295D01*
X207250000Y-109895295D02*
X207250000Y-109990533D01*
X207250000Y-109990533D02*
X207202381Y-110085771D01*
X207202381Y-110085771D02*
X207154762Y-110133390D01*
X207154762Y-110133390D02*
X207059524Y-110181009D01*
X207059524Y-110181009D02*
X206726191Y-110181009D01*
X207726191Y-110704819D02*
X207726191Y-110038152D01*
X207726191Y-110228628D02*
X207773810Y-110133390D01*
X207773810Y-110133390D02*
X207821429Y-110085771D01*
X207821429Y-110085771D02*
X207916667Y-110038152D01*
X207916667Y-110038152D02*
X208011905Y-110038152D01*
X208345239Y-110704819D02*
X208345239Y-110038152D01*
X208345239Y-109704819D02*
X208297620Y-109752438D01*
X208297620Y-109752438D02*
X208345239Y-109800057D01*
X208345239Y-109800057D02*
X208392858Y-109752438D01*
X208392858Y-109752438D02*
X208345239Y-109704819D01*
X208345239Y-109704819D02*
X208345239Y-109800057D01*
X209250000Y-110704819D02*
X209250000Y-109704819D01*
X209250000Y-110657200D02*
X209154762Y-110704819D01*
X209154762Y-110704819D02*
X208964286Y-110704819D01*
X208964286Y-110704819D02*
X208869048Y-110657200D01*
X208869048Y-110657200D02*
X208821429Y-110609580D01*
X208821429Y-110609580D02*
X208773810Y-110514342D01*
X208773810Y-110514342D02*
X208773810Y-110228628D01*
X208773810Y-110228628D02*
X208821429Y-110133390D01*
X208821429Y-110133390D02*
X208869048Y-110085771D01*
X208869048Y-110085771D02*
X208964286Y-110038152D01*
X208964286Y-110038152D02*
X209154762Y-110038152D01*
X209154762Y-110038152D02*
X209250000Y-110085771D01*
X210154762Y-110038152D02*
X210154762Y-110847676D01*
X210154762Y-110847676D02*
X210107143Y-110942914D01*
X210107143Y-110942914D02*
X210059524Y-110990533D01*
X210059524Y-110990533D02*
X209964286Y-111038152D01*
X209964286Y-111038152D02*
X209821429Y-111038152D01*
X209821429Y-111038152D02*
X209726191Y-110990533D01*
X210154762Y-110657200D02*
X210059524Y-110704819D01*
X210059524Y-110704819D02*
X209869048Y-110704819D01*
X209869048Y-110704819D02*
X209773810Y-110657200D01*
X209773810Y-110657200D02*
X209726191Y-110609580D01*
X209726191Y-110609580D02*
X209678572Y-110514342D01*
X209678572Y-110514342D02*
X209678572Y-110228628D01*
X209678572Y-110228628D02*
X209726191Y-110133390D01*
X209726191Y-110133390D02*
X209773810Y-110085771D01*
X209773810Y-110085771D02*
X209869048Y-110038152D01*
X209869048Y-110038152D02*
X210059524Y-110038152D01*
X210059524Y-110038152D02*
X210154762Y-110085771D01*
X211011905Y-110657200D02*
X210916667Y-110704819D01*
X210916667Y-110704819D02*
X210726191Y-110704819D01*
X210726191Y-110704819D02*
X210630953Y-110657200D01*
X210630953Y-110657200D02*
X210583334Y-110561961D01*
X210583334Y-110561961D02*
X210583334Y-110181009D01*
X210583334Y-110181009D02*
X210630953Y-110085771D01*
X210630953Y-110085771D02*
X210726191Y-110038152D01*
X210726191Y-110038152D02*
X210916667Y-110038152D01*
X210916667Y-110038152D02*
X211011905Y-110085771D01*
X211011905Y-110085771D02*
X211059524Y-110181009D01*
X211059524Y-110181009D02*
X211059524Y-110276247D01*
X211059524Y-110276247D02*
X210583334Y-110371485D01*
X211916667Y-110704819D02*
X211916667Y-109704819D01*
X211916667Y-110657200D02*
X211821429Y-110704819D01*
X211821429Y-110704819D02*
X211630953Y-110704819D01*
X211630953Y-110704819D02*
X211535715Y-110657200D01*
X211535715Y-110657200D02*
X211488096Y-110609580D01*
X211488096Y-110609580D02*
X211440477Y-110514342D01*
X211440477Y-110514342D02*
X211440477Y-110228628D01*
X211440477Y-110228628D02*
X211488096Y-110133390D01*
X211488096Y-110133390D02*
X211535715Y-110085771D01*
X211535715Y-110085771D02*
X211630953Y-110038152D01*
X211630953Y-110038152D02*
X211821429Y-110038152D01*
X211821429Y-110038152D02*
X211916667Y-110085771D01*
X207896666Y-112204819D02*
X207896666Y-112919104D01*
X207896666Y-112919104D02*
X207849047Y-113061961D01*
X207849047Y-113061961D02*
X207753809Y-113157200D01*
X207753809Y-113157200D02*
X207610952Y-113204819D01*
X207610952Y-113204819D02*
X207515714Y-113204819D01*
X208372857Y-113204819D02*
X208372857Y-112204819D01*
X208372857Y-112204819D02*
X208753809Y-112204819D01*
X208753809Y-112204819D02*
X208849047Y-112252438D01*
X208849047Y-112252438D02*
X208896666Y-112300057D01*
X208896666Y-112300057D02*
X208944285Y-112395295D01*
X208944285Y-112395295D02*
X208944285Y-112538152D01*
X208944285Y-112538152D02*
X208896666Y-112633390D01*
X208896666Y-112633390D02*
X208849047Y-112681009D01*
X208849047Y-112681009D02*
X208753809Y-112728628D01*
X208753809Y-112728628D02*
X208372857Y-112728628D01*
X209896666Y-113204819D02*
X209325238Y-113204819D01*
X209610952Y-113204819D02*
X209610952Y-112204819D01*
X209610952Y-112204819D02*
X209515714Y-112347676D01*
X209515714Y-112347676D02*
X209420476Y-112442914D01*
X209420476Y-112442914D02*
X209325238Y-112490533D01*
X193841904Y-126859580D02*
X193794285Y-126907200D01*
X193794285Y-126907200D02*
X193651428Y-126954819D01*
X193651428Y-126954819D02*
X193556190Y-126954819D01*
X193556190Y-126954819D02*
X193413333Y-126907200D01*
X193413333Y-126907200D02*
X193318095Y-126811961D01*
X193318095Y-126811961D02*
X193270476Y-126716723D01*
X193270476Y-126716723D02*
X193222857Y-126526247D01*
X193222857Y-126526247D02*
X193222857Y-126383390D01*
X193222857Y-126383390D02*
X193270476Y-126192914D01*
X193270476Y-126192914D02*
X193318095Y-126097676D01*
X193318095Y-126097676D02*
X193413333Y-126002438D01*
X193413333Y-126002438D02*
X193556190Y-125954819D01*
X193556190Y-125954819D02*
X193651428Y-125954819D01*
X193651428Y-125954819D02*
X193794285Y-126002438D01*
X193794285Y-126002438D02*
X193841904Y-126050057D01*
X194413333Y-126954819D02*
X194318095Y-126907200D01*
X194318095Y-126907200D02*
X194270476Y-126859580D01*
X194270476Y-126859580D02*
X194222857Y-126764342D01*
X194222857Y-126764342D02*
X194222857Y-126478628D01*
X194222857Y-126478628D02*
X194270476Y-126383390D01*
X194270476Y-126383390D02*
X194318095Y-126335771D01*
X194318095Y-126335771D02*
X194413333Y-126288152D01*
X194413333Y-126288152D02*
X194556190Y-126288152D01*
X194556190Y-126288152D02*
X194651428Y-126335771D01*
X194651428Y-126335771D02*
X194699047Y-126383390D01*
X194699047Y-126383390D02*
X194746666Y-126478628D01*
X194746666Y-126478628D02*
X194746666Y-126764342D01*
X194746666Y-126764342D02*
X194699047Y-126859580D01*
X194699047Y-126859580D02*
X194651428Y-126907200D01*
X194651428Y-126907200D02*
X194556190Y-126954819D01*
X194556190Y-126954819D02*
X194413333Y-126954819D01*
X195175238Y-126288152D02*
X195175238Y-126954819D01*
X195175238Y-126383390D02*
X195222857Y-126335771D01*
X195222857Y-126335771D02*
X195318095Y-126288152D01*
X195318095Y-126288152D02*
X195460952Y-126288152D01*
X195460952Y-126288152D02*
X195556190Y-126335771D01*
X195556190Y-126335771D02*
X195603809Y-126431009D01*
X195603809Y-126431009D02*
X195603809Y-126954819D01*
X196080000Y-126288152D02*
X196080000Y-126954819D01*
X196080000Y-126383390D02*
X196127619Y-126335771D01*
X196127619Y-126335771D02*
X196222857Y-126288152D01*
X196222857Y-126288152D02*
X196365714Y-126288152D01*
X196365714Y-126288152D02*
X196460952Y-126335771D01*
X196460952Y-126335771D02*
X196508571Y-126431009D01*
X196508571Y-126431009D02*
X196508571Y-126954819D01*
X196746667Y-127050057D02*
X197508571Y-127050057D01*
X197937143Y-125954819D02*
X198032381Y-125954819D01*
X198032381Y-125954819D02*
X198127619Y-126002438D01*
X198127619Y-126002438D02*
X198175238Y-126050057D01*
X198175238Y-126050057D02*
X198222857Y-126145295D01*
X198222857Y-126145295D02*
X198270476Y-126335771D01*
X198270476Y-126335771D02*
X198270476Y-126573866D01*
X198270476Y-126573866D02*
X198222857Y-126764342D01*
X198222857Y-126764342D02*
X198175238Y-126859580D01*
X198175238Y-126859580D02*
X198127619Y-126907200D01*
X198127619Y-126907200D02*
X198032381Y-126954819D01*
X198032381Y-126954819D02*
X197937143Y-126954819D01*
X197937143Y-126954819D02*
X197841905Y-126907200D01*
X197841905Y-126907200D02*
X197794286Y-126859580D01*
X197794286Y-126859580D02*
X197746667Y-126764342D01*
X197746667Y-126764342D02*
X197699048Y-126573866D01*
X197699048Y-126573866D02*
X197699048Y-126335771D01*
X197699048Y-126335771D02*
X197746667Y-126145295D01*
X197746667Y-126145295D02*
X197794286Y-126050057D01*
X197794286Y-126050057D02*
X197841905Y-126002438D01*
X197841905Y-126002438D02*
X197937143Y-125954819D01*
X199222857Y-126954819D02*
X198651429Y-126954819D01*
X198937143Y-126954819D02*
X198937143Y-125954819D01*
X198937143Y-125954819D02*
X198841905Y-126097676D01*
X198841905Y-126097676D02*
X198746667Y-126192914D01*
X198746667Y-126192914D02*
X198651429Y-126240533D01*
X199556191Y-126954819D02*
X200080000Y-126288152D01*
X199556191Y-126288152D02*
X200080000Y-126954819D01*
X200651429Y-125954819D02*
X200746667Y-125954819D01*
X200746667Y-125954819D02*
X200841905Y-126002438D01*
X200841905Y-126002438D02*
X200889524Y-126050057D01*
X200889524Y-126050057D02*
X200937143Y-126145295D01*
X200937143Y-126145295D02*
X200984762Y-126335771D01*
X200984762Y-126335771D02*
X200984762Y-126573866D01*
X200984762Y-126573866D02*
X200937143Y-126764342D01*
X200937143Y-126764342D02*
X200889524Y-126859580D01*
X200889524Y-126859580D02*
X200841905Y-126907200D01*
X200841905Y-126907200D02*
X200746667Y-126954819D01*
X200746667Y-126954819D02*
X200651429Y-126954819D01*
X200651429Y-126954819D02*
X200556191Y-126907200D01*
X200556191Y-126907200D02*
X200508572Y-126859580D01*
X200508572Y-126859580D02*
X200460953Y-126764342D01*
X200460953Y-126764342D02*
X200413334Y-126573866D01*
X200413334Y-126573866D02*
X200413334Y-126335771D01*
X200413334Y-126335771D02*
X200460953Y-126145295D01*
X200460953Y-126145295D02*
X200508572Y-126050057D01*
X200508572Y-126050057D02*
X200556191Y-126002438D01*
X200556191Y-126002438D02*
X200651429Y-125954819D01*
X201841905Y-125954819D02*
X201651429Y-125954819D01*
X201651429Y-125954819D02*
X201556191Y-126002438D01*
X201556191Y-126002438D02*
X201508572Y-126050057D01*
X201508572Y-126050057D02*
X201413334Y-126192914D01*
X201413334Y-126192914D02*
X201365715Y-126383390D01*
X201365715Y-126383390D02*
X201365715Y-126764342D01*
X201365715Y-126764342D02*
X201413334Y-126859580D01*
X201413334Y-126859580D02*
X201460953Y-126907200D01*
X201460953Y-126907200D02*
X201556191Y-126954819D01*
X201556191Y-126954819D02*
X201746667Y-126954819D01*
X201746667Y-126954819D02*
X201841905Y-126907200D01*
X201841905Y-126907200D02*
X201889524Y-126859580D01*
X201889524Y-126859580D02*
X201937143Y-126764342D01*
X201937143Y-126764342D02*
X201937143Y-126526247D01*
X201937143Y-126526247D02*
X201889524Y-126431009D01*
X201889524Y-126431009D02*
X201841905Y-126383390D01*
X201841905Y-126383390D02*
X201746667Y-126335771D01*
X201746667Y-126335771D02*
X201556191Y-126335771D01*
X201556191Y-126335771D02*
X201460953Y-126383390D01*
X201460953Y-126383390D02*
X201413334Y-126431009D01*
X201413334Y-126431009D02*
X201365715Y-126526247D01*
X201016666Y-123454819D02*
X201016666Y-124169104D01*
X201016666Y-124169104D02*
X200969047Y-124311961D01*
X200969047Y-124311961D02*
X200873809Y-124407200D01*
X200873809Y-124407200D02*
X200730952Y-124454819D01*
X200730952Y-124454819D02*
X200635714Y-124454819D01*
X201635714Y-123883390D02*
X201540476Y-123835771D01*
X201540476Y-123835771D02*
X201492857Y-123788152D01*
X201492857Y-123788152D02*
X201445238Y-123692914D01*
X201445238Y-123692914D02*
X201445238Y-123645295D01*
X201445238Y-123645295D02*
X201492857Y-123550057D01*
X201492857Y-123550057D02*
X201540476Y-123502438D01*
X201540476Y-123502438D02*
X201635714Y-123454819D01*
X201635714Y-123454819D02*
X201826190Y-123454819D01*
X201826190Y-123454819D02*
X201921428Y-123502438D01*
X201921428Y-123502438D02*
X201969047Y-123550057D01*
X201969047Y-123550057D02*
X202016666Y-123645295D01*
X202016666Y-123645295D02*
X202016666Y-123692914D01*
X202016666Y-123692914D02*
X201969047Y-123788152D01*
X201969047Y-123788152D02*
X201921428Y-123835771D01*
X201921428Y-123835771D02*
X201826190Y-123883390D01*
X201826190Y-123883390D02*
X201635714Y-123883390D01*
X201635714Y-123883390D02*
X201540476Y-123931009D01*
X201540476Y-123931009D02*
X201492857Y-123978628D01*
X201492857Y-123978628D02*
X201445238Y-124073866D01*
X201445238Y-124073866D02*
X201445238Y-124264342D01*
X201445238Y-124264342D02*
X201492857Y-124359580D01*
X201492857Y-124359580D02*
X201540476Y-124407200D01*
X201540476Y-124407200D02*
X201635714Y-124454819D01*
X201635714Y-124454819D02*
X201826190Y-124454819D01*
X201826190Y-124454819D02*
X201921428Y-124407200D01*
X201921428Y-124407200D02*
X201969047Y-124359580D01*
X201969047Y-124359580D02*
X202016666Y-124264342D01*
X202016666Y-124264342D02*
X202016666Y-124073866D01*
X202016666Y-124073866D02*
X201969047Y-123978628D01*
X201969047Y-123978628D02*
X201921428Y-123931009D01*
X201921428Y-123931009D02*
X201826190Y-123883390D01*
D13*
%TO.C,D1*%
X195030306Y-131730000D02*
X197969694Y-131730000D01*
X195030306Y-131730000D02*
G75*
G02*
X197969694Y-131730000I1469694J2500000D01*
G01*
X199000000Y-129230000D02*
G75*
G02*
X194000000Y-129230000I-2500000J0D01*
G01*
X194000000Y-129230000D02*
G75*
G02*
X199000000Y-129230000I2500000J0D01*
G01*
%TO.C,J5*%
X116520000Y-111810000D02*
X114615000Y-111810000D01*
X116520000Y-101650000D02*
X116520000Y-111810000D01*
X114615000Y-111810000D02*
X113980000Y-111175000D01*
X113980000Y-111175000D02*
X113980000Y-101650000D01*
X113980000Y-101650000D02*
X116520000Y-101650000D01*
%TO.C,J1*%
X210100000Y-119790000D02*
G75*
G02*
X207900000Y-119790000I-1100000J0D01*
G01*
X207900000Y-119790000D02*
G75*
G02*
X210100000Y-119790000I1100000J0D01*
G01*
X210100000Y-117250000D02*
G75*
G02*
X207900000Y-117250000I-1100000J0D01*
G01*
X207900000Y-117250000D02*
G75*
G02*
X210100000Y-117250000I1100000J0D01*
G01*
X212100000Y-120790000D02*
X211600000Y-121290000D01*
X212100000Y-115750000D02*
X212100000Y-120790000D01*
X211600000Y-121290000D02*
X211600000Y-115750000D01*
X211600000Y-121290000D02*
X205900000Y-121290000D01*
X208300000Y-118956000D02*
X209834000Y-120490000D01*
X208300000Y-116416000D02*
X209834000Y-117950000D01*
X208166000Y-119090000D02*
X209700000Y-120624000D01*
X208166000Y-116550000D02*
X209700000Y-118084000D01*
X206300000Y-121290000D02*
X206300000Y-115750000D01*
X205900000Y-121290000D02*
X205900000Y-115750000D01*
X205900000Y-115750000D02*
X212100000Y-115750000D01*
%TO.C,J3*%
X196100000Y-84750000D02*
G75*
G02*
X193900000Y-84750000I-1100000J0D01*
G01*
X193900000Y-84750000D02*
G75*
G02*
X196100000Y-84750000I1100000J0D01*
G01*
X193560000Y-84750000D02*
G75*
G02*
X191360000Y-84750000I-1100000J0D01*
G01*
X191360000Y-84750000D02*
G75*
G02*
X193560000Y-84750000I1100000J0D01*
G01*
X196500000Y-87850000D02*
X190960000Y-87850000D01*
X196500000Y-87450000D02*
X190960000Y-87450000D01*
X196500000Y-82150000D02*
X196500000Y-87850000D01*
X196500000Y-82150000D02*
X190960000Y-82150000D01*
X196000000Y-81650000D02*
X196500000Y-82150000D01*
X194300000Y-85584000D02*
X195834000Y-84050000D01*
X194166000Y-85450000D02*
X195700000Y-83916000D01*
X191760000Y-85584000D02*
X193294000Y-84050000D01*
X191626000Y-85450000D02*
X193160000Y-83916000D01*
X190960000Y-87850000D02*
X190960000Y-81650000D01*
X190960000Y-81650000D02*
X196000000Y-81650000D01*
%TO.C,C1*%
X194337500Y-107366395D02*
X194337500Y-107866395D01*
X194587500Y-107616395D02*
X194087500Y-107616395D01*
X195750000Y-109500000D02*
G75*
G02*
X190750000Y-109500000I-2500000J0D01*
G01*
X190750000Y-109500000D02*
G75*
G02*
X195750000Y-109500000I2500000J0D01*
G01*
%TO.C,D5*%
X195750000Y-90000000D02*
X195750000Y-93750000D01*
X195750000Y-102700000D02*
X195750000Y-98950000D01*
X197100000Y-94430000D02*
X194400000Y-94430000D01*
X197100000Y-94530000D02*
X194400000Y-94530000D01*
X197100000Y-94630000D02*
X194400000Y-94630000D01*
X197100000Y-93750000D02*
X194400000Y-93750000D01*
X194400000Y-98950000D01*
X197100000Y-98950000D01*
X197100000Y-93750000D01*
%TO.C,D4*%
X198650000Y-85500000D02*
X202400000Y-85500000D01*
X206720000Y-86850000D02*
X206720000Y-84150000D01*
X206820000Y-86850000D02*
X206820000Y-84150000D01*
X206920000Y-86850000D02*
X206920000Y-84150000D01*
X211350000Y-85500000D02*
X207600000Y-85500000D01*
X207600000Y-86850000D02*
X202400000Y-86850000D01*
X202400000Y-84150000D01*
X207600000Y-84150000D01*
X207600000Y-86850000D01*
%TO.C,J6*%
X121190000Y-83730000D02*
X125270000Y-83730000D01*
X121190000Y-131990000D02*
X121190000Y-83730000D01*
X125270000Y-83730000D02*
X126270000Y-84730000D01*
X126270000Y-84730000D02*
X126270000Y-131990000D01*
X126270000Y-131990000D02*
X121190000Y-131990000D01*
%TO.C,R1*%
X190700000Y-116900000D02*
X192300000Y-116900000D01*
X190700000Y-120100000D02*
X190700000Y-116900000D01*
X192300000Y-116900000D02*
X192300000Y-120100000D01*
X192300000Y-120100000D02*
X190700000Y-120100000D01*
%TO.C,D8*%
X209650000Y-98070000D02*
X212350000Y-98070000D01*
X209650000Y-98170000D02*
X212350000Y-98170000D01*
X209650000Y-98270000D02*
X212350000Y-98270000D01*
X211000000Y-90000000D02*
X211000000Y-93750000D01*
X211000000Y-102700000D02*
X211000000Y-98950000D01*
X209650000Y-98950000D02*
X212350000Y-98950000D01*
X212350000Y-93750000D01*
X209650000Y-93750000D01*
X209650000Y-98950000D01*
%TO.C,J7*%
X182190000Y-83730000D02*
X186270000Y-83730000D01*
X182190000Y-131990000D02*
X182190000Y-83730000D01*
X186270000Y-83730000D02*
X187270000Y-84730000D01*
X187270000Y-84730000D02*
X187270000Y-131990000D01*
X187270000Y-131990000D02*
X182190000Y-131990000D01*
%TO.C,C2*%
X197866395Y-111412500D02*
X198366395Y-111412500D01*
X198116395Y-111162500D02*
X198116395Y-111662500D01*
X202500000Y-112500000D02*
G75*
G02*
X197500000Y-112500000I-2500000J0D01*
G01*
X197500000Y-112500000D02*
G75*
G02*
X202500000Y-112500000I2500000J0D01*
G01*
%TO.C,D9*%
X189400000Y-98070000D02*
X192100000Y-98070000D01*
X189400000Y-98170000D02*
X192100000Y-98170000D01*
X189400000Y-98270000D02*
X192100000Y-98270000D01*
X190750000Y-90000000D02*
X190750000Y-93750000D01*
X190750000Y-102700000D02*
X190750000Y-98950000D01*
X189400000Y-98950000D02*
X192100000Y-98950000D01*
X192100000Y-93750000D01*
X189400000Y-93750000D01*
X189400000Y-98950000D01*
D14*
%TO.C,U2*%
X203572500Y-88900000D02*
X203572500Y-109100000D01*
X203572500Y-109100000D02*
X208572500Y-109100000D01*
X208572500Y-88900000D02*
X203572500Y-88900000D01*
X208572500Y-109100000D02*
X208572500Y-88900000D01*
D15*
X197452500Y-90110000D02*
G75*
G02*
X197252500Y-90110000I-100000J0D01*
G01*
X197252500Y-90110000D02*
G75*
G02*
X197452500Y-90110000I100000J0D01*
G01*
D13*
%TO.C,U1*%
X197110000Y-120200000D02*
X197110000Y-118930000D01*
X200810000Y-120200000D02*
X200810000Y-118930000D01*
X203960000Y-118930000D02*
X193960000Y-118930000D01*
X203960000Y-120200000D02*
X193960000Y-120200000D01*
X193960000Y-115800000D01*
X203960000Y-115800000D01*
X203960000Y-120200000D01*
%TO.C,JP1*%
X206190000Y-111480000D02*
X210635000Y-111480000D01*
X206190000Y-114020000D02*
X206190000Y-111480000D01*
X210635000Y-111480000D02*
X211270000Y-112115000D01*
X211270000Y-112115000D02*
X211270000Y-114020000D01*
X211270000Y-114020000D02*
X206190000Y-114020000D01*
%TO.C,J8*%
X208970000Y-125270000D02*
X193730000Y-125270000D01*
X208970000Y-122730000D02*
X208970000Y-125270000D01*
X194365000Y-122730000D02*
X208970000Y-122730000D01*
X193730000Y-125270000D02*
X193730000Y-123365000D01*
X193730000Y-123365000D02*
X194365000Y-122730000D01*
%TD*%
M02*
