%TF.GenerationSoftware,KiCad,Pcbnew,9.0.6*%
%TF.CreationDate,2026-05-08T23:40:32+02:00*%
%TF.ProjectId,Zavrsni,5a617672-736e-4692-9e6b-696361645f70,rev?*%
%TF.SameCoordinates,Original*%
%TF.FileFunction,Soldermask,Bot*%
%TF.FilePolarity,Negative*%
%FSLAX46Y46*%
G04 Gerber Fmt 4.6, Leading zero omitted, Abs format (unit mm)*
G04 Created by KiCad (PCBNEW 9.0.6) date 2026-05-08 23:40:32*
%MOMM*%
%LPD*%
G01*
G04 APERTURE LIST*
G04 Aperture macros list*
%AMRoundRect*
0 Rectangle with rounded corners*
0 $1 Rounding radius*
0 $2 $3 $4 $5 $6 $7 $8 $9 X,Y pos of 4 corners*
0 Add a 4 corners polygon primitive as box body*
4,1,4,$2,$3,$4,$5,$6,$7,$8,$9,$2,$3,0*
0 Add four circle primitives for the rounded corners*
1,1,$1+$1,$2,$3*
1,1,$1+$1,$4,$5*
1,1,$1+$1,$6,$7*
1,1,$1+$1,$8,$9*
0 Add four rect primitives between the rounded corners*
20,1,$1+$1,$2,$3,$4,$5,0*
20,1,$1+$1,$4,$5,$6,$7,0*
20,1,$1+$1,$6,$7,$8,$9,0*
20,1,$1+$1,$8,$9,$2,$3,0*%
G04 Aperture macros list end*
%ADD10RoundRect,0.250000X-0.550000X0.550000X-0.550000X-0.550000X0.550000X-0.550000X0.550000X0.550000X0*%
%ADD11C,1.600000*%
%ADD12C,1.100000*%
%ADD13RoundRect,0.249999X0.850001X0.850001X-0.850001X0.850001X-0.850001X-0.850001X0.850001X-0.850001X0*%
%ADD14C,2.200000*%
%ADD15RoundRect,0.249999X-0.850001X0.850001X-0.850001X-0.850001X0.850001X-0.850001X0.850001X0.850001X0*%
%ADD16R,1.700000X1.700000*%
%ADD17C,1.700000*%
%ADD18RoundRect,0.249999X0.850001X-0.850001X0.850001X0.850001X-0.850001X0.850001X-0.850001X-0.850001X0*%
%ADD19C,3.000000*%
%ADD20R,1.800000X1.800000*%
%ADD21C,1.800000*%
%ADD22C,1.400000*%
%ADD23RoundRect,0.250000X0.550000X-0.550000X0.550000X0.550000X-0.550000X0.550000X-0.550000X-0.550000X0*%
%ADD24RoundRect,0.102000X-0.810000X-0.810000X0.810000X-0.810000X0.810000X0.810000X-0.810000X0.810000X0*%
%ADD25C,1.824000*%
%ADD26R,2.000000X1.905000*%
%ADD27O,2.000000X1.905000*%
G04 APERTURE END LIST*
D10*
%TO.C,C1*%
X202600000Y-114544888D03*
D11*
X202600000Y-116544888D03*
%TD*%
D12*
%TO.C,J3*%
X194700000Y-84360000D03*
X192160000Y-84360000D03*
D13*
X194700000Y-86900000D03*
D14*
X192160000Y-86900000D03*
%TD*%
D15*
%TO.C,D5*%
X195000000Y-92100000D03*
D14*
X195000000Y-104800000D03*
%TD*%
D13*
%TO.C,D4*%
X211350000Y-89500000D03*
D14*
X198650000Y-89500000D03*
%TD*%
D16*
%TO.C,J6*%
X125000000Y-85000000D03*
D17*
X122460000Y-85000000D03*
X125000000Y-87540000D03*
X122460000Y-87540000D03*
X125000000Y-90080000D03*
X122460000Y-90080000D03*
X125000000Y-92620000D03*
X122460000Y-92620000D03*
X125000000Y-95160000D03*
X122460000Y-95160000D03*
X125000000Y-97700000D03*
X122460000Y-97700000D03*
X125000000Y-100240000D03*
X122460000Y-100240000D03*
X125000000Y-102780000D03*
X122460000Y-102780000D03*
X125000000Y-105320000D03*
X122460000Y-105320000D03*
X125000000Y-107860000D03*
X122460000Y-107860000D03*
X125000000Y-110400000D03*
X122460000Y-110400000D03*
X125000000Y-112940000D03*
X122460000Y-112940000D03*
X125000000Y-115480000D03*
X122460000Y-115480000D03*
X125000000Y-118020000D03*
X122460000Y-118020000D03*
X125000000Y-120560000D03*
X122460000Y-120560000D03*
X125000000Y-123100000D03*
X122460000Y-123100000D03*
X125000000Y-125640000D03*
X122460000Y-125640000D03*
X125000000Y-128180000D03*
X122460000Y-128180000D03*
X125000000Y-130720000D03*
X122460000Y-130720000D03*
%TD*%
D12*
%TO.C,J1*%
X211940000Y-116940000D03*
X211940000Y-114400000D03*
D18*
X209400000Y-116940000D03*
D14*
X209400000Y-114400000D03*
%TD*%
D19*
%TO.C,H4*%
X210000000Y-129300000D03*
%TD*%
%TO.C,H3*%
X115900000Y-129300000D03*
%TD*%
D16*
%TO.C,J8*%
X194300000Y-117700000D03*
D17*
X194300000Y-120240000D03*
X194300000Y-122780000D03*
X194300000Y-125320000D03*
X194300000Y-127860000D03*
X194300000Y-130400000D03*
%TD*%
D20*
%TO.C,D1*%
X196400000Y-110725000D03*
D21*
X196400000Y-113265000D03*
%TD*%
D22*
%TO.C,R1*%
X198000000Y-121440000D03*
X198000000Y-116360000D03*
%TD*%
D18*
%TO.C,D8*%
X199100000Y-107100000D03*
D14*
X199100000Y-94400000D03*
%TD*%
D16*
%TO.C,J7*%
X186000000Y-85000000D03*
D17*
X183460000Y-85000000D03*
X186000000Y-87540000D03*
X183460000Y-87540000D03*
X186000000Y-90080000D03*
X183460000Y-90080000D03*
X186000000Y-92620000D03*
X183460000Y-92620000D03*
X186000000Y-95160000D03*
X183460000Y-95160000D03*
X186000000Y-97700000D03*
X183460000Y-97700000D03*
X186000000Y-100240000D03*
X183460000Y-100240000D03*
X186000000Y-102780000D03*
X183460000Y-102780000D03*
X186000000Y-105320000D03*
X183460000Y-105320000D03*
X186000000Y-107860000D03*
X183460000Y-107860000D03*
X186000000Y-110400000D03*
X183460000Y-110400000D03*
X186000000Y-112940000D03*
X183460000Y-112940000D03*
X186000000Y-115480000D03*
X183460000Y-115480000D03*
X186000000Y-118020000D03*
X183460000Y-118020000D03*
X186000000Y-120560000D03*
X183460000Y-120560000D03*
X186000000Y-123100000D03*
X183460000Y-123100000D03*
X186000000Y-125640000D03*
X183460000Y-125640000D03*
X186000000Y-128180000D03*
X183460000Y-128180000D03*
X186000000Y-130720000D03*
X183460000Y-130720000D03*
%TD*%
D23*
%TO.C,C2*%
X209700000Y-122800000D03*
D11*
X209700000Y-120800000D03*
%TD*%
D18*
%TO.C,D9*%
X190750000Y-104800000D03*
D14*
X190750000Y-92100000D03*
%TD*%
D19*
%TO.C,H2*%
X210000000Y-84200000D03*
%TD*%
D16*
%TO.C,J5*%
X115250000Y-110540000D03*
D17*
X115250000Y-108000000D03*
X115250000Y-105460000D03*
X115250000Y-102920000D03*
%TD*%
D19*
%TO.C,H1*%
X115900000Y-84200000D03*
%TD*%
D24*
%TO.C,U2*%
X202342500Y-92910000D03*
D25*
X207422500Y-94180000D03*
X202342500Y-95450000D03*
X207422500Y-96720000D03*
X202342500Y-97990000D03*
X207422500Y-99260000D03*
X202342500Y-100530000D03*
X207422500Y-101800000D03*
X202342500Y-103070000D03*
X207422500Y-104340000D03*
X202342500Y-105610000D03*
X207422500Y-106880000D03*
X202342500Y-108150000D03*
X207422500Y-109420000D03*
X202342500Y-110690000D03*
%TD*%
D26*
%TO.C,U1*%
X201650000Y-121360000D03*
D27*
X201650000Y-123900000D03*
X201650000Y-126440000D03*
%TD*%
M02*
