%TF.GenerationSoftware,KiCad,Pcbnew,9.0.6*%
%TF.CreationDate,2026-04-17T19:20:47+02:00*%
%TF.ProjectId,Zavrsni,5a617672-736e-4692-9e6b-696361645f70,rev?*%
%TF.SameCoordinates,Original*%
%TF.FileFunction,Soldermask,Bot*%
%TF.FilePolarity,Negative*%
%FSLAX46Y46*%
G04 Gerber Fmt 4.6, Leading zero omitted, Abs format (unit mm)*
G04 Created by KiCad (PCBNEW 9.0.6) date 2026-04-17 19:20:47*
%MOMM*%
%LPD*%
G01*
G04 APERTURE LIST*
G04 Aperture macros list*
%AMRoundRect*
0 Rectangle with rounded corners*
0 $1 Rounding radius*
0 $2 $3 $4 $5 $6 $7 $8 $9 X,Y pos of 4 corners*
0 Add a 4 corners polygon primitive as box body*
4,1,4,$2,$3,$4,$5,$6,$7,$8,$9,$2,$3,0*
0 Add four circle primitives for the rounded corners*
1,1,$1+$1,$2,$3*
1,1,$1+$1,$4,$5*
1,1,$1+$1,$6,$7*
1,1,$1+$1,$8,$9*
0 Add four rect primitives between the rounded corners*
20,1,$1+$1,$2,$3,$4,$5,0*
20,1,$1+$1,$4,$5,$6,$7,0*
20,1,$1+$1,$6,$7,$8,$9,0*
20,1,$1+$1,$8,$9,$2,$3,0*%
G04 Aperture macros list end*
%ADD10C,2.200000*%
%ADD11R,1.800000X1.800000*%
%ADD12C,1.800000*%
%ADD13C,1.700000*%
%ADD14R,1.700000X1.700000*%
%ADD15RoundRect,0.249999X0.850001X-0.850001X0.850001X0.850001X-0.850001X0.850001X-0.850001X-0.850001X0*%
%ADD16C,1.100000*%
%ADD17RoundRect,0.249999X0.850001X0.850001X-0.850001X0.850001X-0.850001X-0.850001X0.850001X-0.850001X0*%
%ADD18RoundRect,0.250000X-0.550000X0.550000X-0.550000X-0.550000X0.550000X-0.550000X0.550000X0.550000X0*%
%ADD19C,1.600000*%
%ADD20RoundRect,0.249999X-0.850001X0.850001X-0.850001X-0.850001X0.850001X-0.850001X0.850001X0.850001X0*%
%ADD21RoundRect,0.250000X-0.550000X-0.550000X0.550000X-0.550000X0.550000X0.550000X-0.550000X0.550000X0*%
%ADD22RoundRect,0.102000X-0.810000X-0.810000X0.810000X-0.810000X0.810000X0.810000X-0.810000X0.810000X0*%
%ADD23C,1.824000*%
%ADD24R,1.905000X2.000000*%
%ADD25O,1.905000X2.000000*%
G04 APERTURE END LIST*
D10*
%TO.C,H1*%
X115250000Y-81750000D03*
%TD*%
D11*
%TO.C,D1*%
X196500000Y-130500000D03*
D12*
X196500000Y-127960000D03*
%TD*%
D10*
%TO.C,H3*%
X115250000Y-130250000D03*
%TD*%
D13*
%TO.C,J5*%
X115250000Y-102920000D03*
X115250000Y-105460000D03*
X115250000Y-108000000D03*
D14*
X115250000Y-110540000D03*
%TD*%
D10*
%TO.C,H2*%
X210750000Y-81750000D03*
%TD*%
%TO.C,H4*%
X210750000Y-130000000D03*
%TD*%
%TO.C,J1*%
X209000000Y-117250000D03*
D15*
X209000000Y-119790000D03*
D16*
X211540000Y-117250000D03*
X211540000Y-119790000D03*
%TD*%
D10*
%TO.C,J3*%
X192460000Y-84750000D03*
D17*
X195000000Y-84750000D03*
D16*
X192460000Y-82210000D03*
X195000000Y-82210000D03*
%TD*%
D18*
%TO.C,C1*%
X193250000Y-108500000D03*
D19*
X193250000Y-110500000D03*
%TD*%
D20*
%TO.C,D5*%
X195750000Y-90000000D03*
D10*
X195750000Y-102700000D03*
%TD*%
D17*
%TO.C,D4*%
X211350000Y-85500000D03*
D10*
X198650000Y-85500000D03*
%TD*%
D14*
%TO.C,J6*%
X125000000Y-85000000D03*
D13*
X122460000Y-85000000D03*
X125000000Y-87540000D03*
X122460000Y-87540000D03*
X125000000Y-90080000D03*
X122460000Y-90080000D03*
X125000000Y-92620000D03*
X122460000Y-92620000D03*
X125000000Y-95160000D03*
X122460000Y-95160000D03*
X125000000Y-97700000D03*
X122460000Y-97700000D03*
X125000000Y-100240000D03*
X122460000Y-100240000D03*
X125000000Y-102780000D03*
X122460000Y-102780000D03*
X125000000Y-105320000D03*
X122460000Y-105320000D03*
X125000000Y-107860000D03*
X122460000Y-107860000D03*
X125000000Y-110400000D03*
X122460000Y-110400000D03*
X125000000Y-112940000D03*
X122460000Y-112940000D03*
X125000000Y-115480000D03*
X122460000Y-115480000D03*
X125000000Y-118020000D03*
X122460000Y-118020000D03*
X125000000Y-120560000D03*
X122460000Y-120560000D03*
X125000000Y-123100000D03*
X122460000Y-123100000D03*
X125000000Y-125640000D03*
X122460000Y-125640000D03*
X125000000Y-128180000D03*
X122460000Y-128180000D03*
X125000000Y-130720000D03*
X122460000Y-130720000D03*
%TD*%
D15*
%TO.C,D8*%
X211000000Y-102700000D03*
D10*
X211000000Y-90000000D03*
%TD*%
D14*
%TO.C,J7*%
X186000000Y-85000000D03*
D13*
X183460000Y-85000000D03*
X186000000Y-87540000D03*
X183460000Y-87540000D03*
X186000000Y-90080000D03*
X183460000Y-90080000D03*
X186000000Y-92620000D03*
X183460000Y-92620000D03*
X186000000Y-95160000D03*
X183460000Y-95160000D03*
X186000000Y-97700000D03*
X183460000Y-97700000D03*
X186000000Y-100240000D03*
X183460000Y-100240000D03*
X186000000Y-102780000D03*
X183460000Y-102780000D03*
X186000000Y-105320000D03*
X183460000Y-105320000D03*
X186000000Y-107860000D03*
X183460000Y-107860000D03*
X186000000Y-110400000D03*
X183460000Y-110400000D03*
X186000000Y-112940000D03*
X183460000Y-112940000D03*
X186000000Y-115480000D03*
X183460000Y-115480000D03*
X186000000Y-118020000D03*
X183460000Y-118020000D03*
X186000000Y-120560000D03*
X183460000Y-120560000D03*
X186000000Y-123100000D03*
X183460000Y-123100000D03*
X186000000Y-125640000D03*
X183460000Y-125640000D03*
X186000000Y-128180000D03*
X183460000Y-128180000D03*
X186000000Y-130720000D03*
X183460000Y-130720000D03*
%TD*%
D21*
%TO.C,C2*%
X199000000Y-112500000D03*
D19*
X201000000Y-112500000D03*
%TD*%
D15*
%TO.C,D9*%
X190750000Y-102700000D03*
D10*
X190750000Y-90000000D03*
%TD*%
D22*
%TO.C,U2*%
X198942500Y-90110000D03*
D23*
X204022500Y-91380000D03*
X198942500Y-92650000D03*
X204022500Y-93920000D03*
X198942500Y-95190000D03*
X204022500Y-96460000D03*
X198942500Y-97730000D03*
X204022500Y-99000000D03*
X198942500Y-100270000D03*
X204022500Y-101540000D03*
X198942500Y-102810000D03*
X204022500Y-104080000D03*
X198942500Y-105350000D03*
X204022500Y-106620000D03*
X198942500Y-107890000D03*
%TD*%
D24*
%TO.C,U1*%
X201500000Y-117050000D03*
D25*
X198960000Y-117050000D03*
X196420000Y-117050000D03*
%TD*%
D14*
%TO.C,JP1*%
X210000000Y-112750000D03*
D13*
X207460000Y-112750000D03*
%TD*%
%TO.C,J8*%
X207700000Y-124000000D03*
X205160000Y-124000000D03*
X202620000Y-124000000D03*
X200080000Y-124000000D03*
X197540000Y-124000000D03*
D14*
X195000000Y-124000000D03*
%TD*%
M02*
